<?xml version="1.0" encoding="UTF-8"?>
<!DOCTYPE svg PUBLIC "-//W3C//DTD SVG 1.1//EN" "http://www.w3.org/Graphics/SVG/1.1/DTD/svg11.dtd">
<!-- Creator: CorelDRAW 2017 -->
<svg xmlns="http://www.w3.org/2000/svg" xml:space="preserve" width="3.70333in" height="2.08333in" version="1.1" style="shape-rendering:geometricPrecision; text-rendering:geometricPrecision; image-rendering:optimizeQuality; fill-rule:evenodd; clip-rule:evenodd"
viewBox="0 0 3703 2083"
 xmlns:xlink="http://www.w3.org/1999/xlink"
 enable-background="new 0 0 512 512">
 <defs>
  <style type="text/css">
   <![CDATA[
    .fil4 {fill:#030303}
    .fil5 {fill:#170715}
    .fil0 {fill:#E6E7E8}
    .fil3 {fill:#FEFEFE}
    .fil2 {fill:#373435;fill-opacity:0.031373}
    .fil1 {fill:#2B2A29;fill-opacity:0.078431}
   ]]>
  </style>
 </defs>
 <g id="Layer_x0020_1">
  <metadata id="CorelCorpID_0Corel-Layer"/>
  <polygon class="fil0" points="0,0 3703,0 3703,2083 0,2083 "/>
  <polygon class="fil1" points="0,1945 0,1935 0,1922 0,1921 0,1921 0,1914 0,1904 0,1900 0,1895 0,1891 0,1890 0,1889 0,1886 0,1868 0,1866 0,1866 0,1862 0,1853 0,1845 0,1842 0,1836 0,1833 0,1772 0,1741 0,1700 0,1680 0,1651 0,1633 0,1589 0,1588 0,1575 0,1548 0,1541 0,1520 0,1492 0,1487 0,1462 0,1462 0,1461 0,1430 0,1412 0,1403 0,1395 0,1392 0,1382 0,1382 0,1380 0,1376 0,1363 0,1356 0,1351 0,1346 0,1337 0,1329 0,1324 0,1310 0,1301 0,1267 0,1244 0,1212 0,1156 1477,420 1474,422 1471,426 1470,432 1470,443 1470,458 1471,480 1471,608 1595,547 1577,556 1562,572 1558,579 1588,565 1598,563 1608,562 1617,562 1626,563 1634,564 1642,566 1650,569 1658,572 1548,626 1548,629 1550,640 1552,650 1556,659 1561,666 1567,673 1574,678 1583,682 1595,686 1607,688 1618,689 1629,688 1638,685 1501,753 1500,767 1498,781 1495,791 1492,799 1487,806 1480,812 1472,820 1461,830 1287,1002 1287,1010 1287,1019 1287,1027 1287,1036 1287,1044 1287,1053 1288,1062 1288,1070 1290,1089 1295,1104 1297,1107 2744,401 2743,508 2820,470 2820,495 2837,487 2906,484 2820,525 2820,553 2839,544 2858,543 2871,543 2880,544 2886,544 2890,544 2894,542 2820,578 2820,609 2831,609 2843,609 2855,609 2867,610 2879,609 2891,608 2901,605 2741,682 2741,693 2698,714 2700,714 2720,716 2742,720 2741,738 2740,746 2772,731 2770,748 2767,763 2764,776 2759,786 2754,795 2748,802 2742,808 2735,814 2728,819 2721,825 2714,830 2706,837 2699,844 2693,852 2686,863 2680,875 2720,918 2559,996 2559,1070 2561,1075 2568,1084 2578,1096 2591,1110 2606,1126 2622,1144 2640,1162 2659,1181 2678,1200 2696,1218 2714,1235 2730,1251 2744,1264 2756,1275 2764,1283 2770,1287 2773,1339 2687,1379 2710,1379 2742,1376 2741,1529 2852,1477 2841,1485 2833,1494 2826,1505 2824,1510 2867,1490 2881,1488 2896,1489 2911,1492 2927,1498 2817,1549 2818,1556 2821,1569 2825,1581 2832,1591 2841,1600 2852,1606 2864,1611 2876,1614 2887,1615 2898,1613 2907,1610 1894,2083 1882,2083 1867,2083 1850,2083 1849,2083 1832,2083 1802,2083 1677,2083 1602,2083 1560,2083 1244,2083 1196,2083 1188,2083 1088,2083 1087,2083 787,2083 783,2083 688,2083 651,2083 558,2083 511,2083 504,2083 504,2083 442,2083 441,2083 390,2083 369,2083 331,2083 311,2083 293,2083 272,2083 265,2083 260,2083 250,2083 214,2083 191,2083 184,2083 167,2083 163,2083 162,2083 102,2083 86,2083 46,2083 46,2083 40,2083 34,2083 0,2083 0,2077 0,2077 0,2069 0,2069 0,2069 0,2046 0,2044 0,2032 0,2018 0,2008 0,2003 0,2000 0,1986 0,1974 0,1971 0,1969 0,1962 0,1958 0,1957 0,1947 "/>
  <path class="fil2" d="M217 1826c7,11 12,21 16,32 3,7 5,19 21,19 5,0 11,-1 17,-5 7,-3 12,-9 14,-17l6 -21 15 -7 1 1c-2,8 -3,16 -3,21 0,18 15,24 27,24 7,0 13,-3 13,-10 0,-8 -4,-22 -8,-35 7,-7 14,-14 22,-20l1 1c4,15 6,30 6,40 0,10 -4,20 -8,27 -7,14 -20,25 -36,25 -12,0 -25,-6 -34,-17l-1 0c-9,11 -22,20 -43,20l-7 0c-1,14 -4,24 -9,33 -13,25 -50,42 -85,42 -49,0 -73,-28 -73,-66 0,-23 8,-45 19,-60l10 4c-7,14 -12,27 -12,40 0,35 29,52 62,52 31,0 68,-19 75,-42 -3,-25 -12,-36 -26,-59 4,-7 10,-15 17,-23l1 0 0 0 0 0zm564 -133c10,6 20,14 30,23 -6,8 -12,15 -21,21 -10,-8 -20,-15 -30,-22 7,-8 14,-15 20,-22l0 0 0 0zm5 96c-17,0 -30,11 -30,19 0,17 33,23 73,23 -5,-20 -22,-42 -43,-42zm-37 93c22,0 41,-1 55,-4 16,-4 30,-12 30,-18 0,-1 0,-3 -1,-5 -9,1 -19,1 -29,1 -29,0 -52,-7 -61,-23 -2,-5 -4,-10 -4,-16 0,-16 7,-32 19,-42 10,-9 21,-14 33,-14 20,0 37,16 48,42 6,14 11,30 11,51 0,14 -4,25 -12,34 -16,15 -45,21 -90,21l-20 0 0 0 -5 0c-11,0 -19,-2 -25,-7l-1 0c0,3 1,5 1,7 0,10 -3,23 -10,33 -20,30 -42,43 -60,43 -19,0 -42,-7 -63,-17l4 -7c7,3 16,5 29,5 34,0 78,-33 84,-64 -1,-3 -4,-6 -7,-10 -10,-12 -16,-22 -22,-32 5,-10 10,-18 14,-25l2 0c14,29 28,46 57,46l5 0 0 0 21 0 0 0 0 0zm-146 31c2,-14 3,-29 3,-43l0 -21c0,-39 -5,-96 -9,-133 7,-8 17,-17 25,-23l2 1c5,47 7,101 7,151 0,13 -1,26 -2,35 -1,12 -8,21 -22,35l-3 -1zm-151 -62c1,18 10,33 41,33 20,0 36,-5 55,-14 3,-1 5,-3 5,-5 0,-12 -9,-27 -24,-41 -14,-13 -34,-25 -51,-32 -6,-3 -8,-5 -8,-8 0,-5 7,-16 13,-24l2 0c20,11 43,27 60,44 15,16 25,33 25,51 0,13 -4,26 -11,38 -22,11 -46,20 -70,20 -29,0 -48,-14 -48,-45 0,-3 0,-9 1,-16l10 0 0 0 0 0zm-52 -52l18 29c7,11 13,22 13,41l0 24c0,19 -12,39 -32,60 -15,14 -29,20 -42,20 -19,0 -40,-6 -65,-17l3 -7c8,2 17,4 28,4 36,0 72,-26 89,-58 2,-4 3,-7 3,-9 0,-4 -2,-8 -4,-11 -9,-17 -19,-33 -30,-47 6,-9 12,-18 18,-27l1 0 0 0 0 0z"/>
  <g id="_2727327733360">
   <path class="fil3" d="M1502 1352c128,-54 213,-157 212,-305 -1,-77 -30,-151 -67,-196 -29,-35 -90,-94 -146,-104 -2,59 -9,52 -39,83l-174 172c0,22 0,46 1,68 2,60 36,47 85,115 24,-12 34,-24 48,-41 16,18 16,31 22,55 40,138 47,55 59,152z"/>
   <path class="fil3" d="M2772 731c-7,101 -61,73 -92,144l40 44c-74,11 -116,28 -161,67l0 84c4,20 193,205 211,218l3 52c77,-39 102,-51 147,-111 131,-172 58,-421 -148,-497z"/>
   <path class="fil4" d="M2341 1050l185 0c7,37 3,112 3,156 0,42 -5,29 15,39 13,-6 17,8 16,-47 0,-23 0,-47 -1,-70 42,20 136,136 182,173l1 48c-109,23 -217,-3 -281,-60 -48,-43 -131,-134 -119,-239zm431 -319c206,75 279,324 148,497 -45,60 -71,72 -147,111l-3 -52c-18,-13 -207,-197 -211,-218l0 -84c45,-39 88,-57 161,-67l-40 -44c31,-71 85,-43 92,-144zm-435 289c20,-202 175,-343 405,-300 -1,55 -4,48 -33,77 -19,19 -31,33 -52,49 -15,-7 -5,0 -16,-9l-29 -28c-21,41 -21,108 -52,133l-4 -118 -26 1 0 195 -193 0zm404 -327c-126,-12 -218,-3 -300,71 -68,61 -118,126 -130,256l-347 0 0 31 347 0c6,69 13,92 42,149 74,148 217,194 388,177l-1 268c5,39 -7,12 14,24 25,-11 11,19 17,-24 0,-3 -1,-33 -1,-39l0 -234c40,-34 234,-92 240,-333 6,-242 -209,-315 -240,-340l-1 -300 -27 1 -2 292z"/>
   <path class="fil4" d="M1069 1064l189 0 0 157c0,52 -7,35 31,39l0 -117 69 65 -39 43c19,13 56,20 82,28 53,16 41,22 74,41l-4 40c-170,68 -413,-102 -401,-296zm433 287c-13,-97 -20,-14 -59,-152 -7,-24 -7,-37 -22,-55 -13,17 -23,29 -48,41 -49,-68 -83,-56 -85,-115 -1,-22 -1,-46 -1,-68l174 -172c31,-30 37,-23 39,-83 56,10 118,69 146,104 37,45 66,119 67,196 1,148 -84,251 -212,305zm-436 -319c25,-268 291,-347 402,-296 8,50 -6,52 -30,76 -35,34 -124,130 -149,143l-4 -118 -21 1c-12,28 -5,156 -4,195l-193 -1zm405 -329c-67,6 -182,-27 -298,71 -75,64 -114,120 -133,254 -70,20 -306,-12 -348,10l0 21 347 4c28,137 50,191 132,256 89,71 166,81 300,70l0 231c0,39 -12,54 19,62l7 -11c3,-10 3,-9 4,-21l0 -270c79,-36 120,-64 166,-120 39,-48 73,-132 72,-215 -1,-92 -32,-155 -74,-213 -22,-30 -40,-47 -73,-71 -29,-21 -65,-30 -91,-49 -2,-50 -1,-101 -1,-151 0,-25 0,-50 0,-76 0,-34 6,-48 -11,-73 -22,10 -20,-2 -19,65l0 224z"/>
   <path class="fil3" d="M2543 1246c-20,-11 -15,2 -15,-39 0,-44 4,-119 -3,-156l-185 0c-12,106 71,197 119,239 64,57 172,83 281,60l-1 -48c-46,-37 -140,-153 -182,-173 1,24 1,47 1,70 1,55 -2,41 -16,47z"/>
   <path class="fil3" d="M1066 1033l193 1c-1,-40 -8,-168 4,-195l21 -1 4 118c25,-12 115,-109 149,-143 24,-24 39,-26 30,-76 -110,-51 -376,28 -402,296z"/>
   <path class="fil3" d="M2337 1020l193 0 0 -195 26 -1 4 118c31,-24 30,-91 52,-133l29 28c12,9 2,2 16,9 21,-15 34,-30 52,-49 29,-29 32,-21 33,-77 -230,-43 -385,97 -405,300z"/>
   <path class="fil3" d="M1288 1261c-37,-5 -30,12 -31,-39l0 -157 -189 0c-12,194 231,364 401,296l4 -40c-32,-19 -21,-26 -74,-41 -26,-8 -63,-15 -82,-28l39 -43 -69 -65 0 117z"/>
   <path class="fil5" d="M2051 974l1 -48c29,-8 41,-4 58,10 2,44 -20,39 -60,38zm2 -110l45 7c1,1 14,-7 5,22 -6,19 -25,15 -51,14l0 -44zm-19 120c82,26 135,-31 72,-66 46,-39 4,-82 -72,-63l-1 129z"/>
   <path class="fil4" d="M780 988l2 -51c34,-1 37,-2 59,10 0,49 -16,41 -61,41zm1 -109c28,-1 28,-5 51,9 3,40 -9,35 -50,34l-1 -43zm-18 123c47,0 59,5 93,-14 5,-38 8,-42 -20,-58 14,-9 29,-33 9,-54 -16,-16 -55,-11 -81,-12l-1 138z"/>
   <path class="fil5" d="M1576 1540c37,0 66,6 90,-10 -23,-10 -42,-6 -71,-7l1 -46 67 -3c-18,-22 39,-9 -65,-15l-2 -39 52 -2c15,-3 9,-3 16,-7l-38 -8c-15,0 -31,0 -47,0l-2 139z"/>
   <path class="fil4" d="M2820 495l0 113c28,-1 69,6 90,-8 -17,-12 -46,-7 -72,-9l2 -48c57,-3 46,8 65,-11l-66 -6 -1 -40 69 -3c-9,-10 3,-9 -16,-12l-70 -1 0 25z"/>
   <path class="fil5" d="M2930 1587c-48,12 -95,17 -93,-49 2,-57 48,-58 90,-41 -1,-29 7,-16 -17,-24 -95,-32 -122,104 -58,133 33,15 63,11 77,-19z"/>
   <path class="fil4" d="M1658 661c-105,37 -111,-52 -70,-97 30,-7 48,-1 71,7 -22,-56 -110,-26 -110,44 0,35 9,57 35,66 34,12 65,11 75,-21z"/>
   <path class="fil3" d="M780 988c45,0 61,8 61,-41 -22,-12 -25,-11 -59,-10l-2 51z"/>
   <path class="fil3" d="M2051 974c40,0 61,6 60,-38 -17,-13 -29,-18 -58,-10l-1 48z"/>
   <path class="fil3" d="M782 922c41,1 53,5 50,-34 -23,-14 -24,-10 -51,-9l1 43z"/>
   <path class="fil3" d="M2053 908c26,0 45,5 51,-14 9,-29 -5,-21 -5,-22l-45 -7 0 44z"/>
  </g>
 </g>
</svg>
