<?xml version="1.0" encoding="UTF-8"?>
<!DOCTYPE svg PUBLIC "-//W3C//DTD SVG 1.1//EN" "http://www.w3.org/Graphics/SVG/1.1/DTD/svg11.dtd">
<!-- Creator: CorelDRAW 2017 -->
<svg xmlns="http://www.w3.org/2000/svg" xml:space="preserve" width="3.70333in" height="2.08333in" version="1.1" style="shape-rendering:geometricPrecision; text-rendering:geometricPrecision; image-rendering:optimizeQuality; fill-rule:evenodd; clip-rule:evenodd"
viewBox="0 0 3703 2083"
 xmlns:xlink="http://www.w3.org/1999/xlink">
 <defs>
  <style type="text/css">
   <![CDATA[
    .fil8 {fill:#FEFEFE}
    .fil3 {fill:#9D9E9E}
    .fil5 {fill:#24A1D7}
    .fil7 {fill:#55453A}
    .fil4 {fill:#7E604A}
    .fil9 {fill:#B09E93}
    .fil10 {fill:#BFB2A9}
    .fil0 {fill:#E6E7E8}
    .fil6 {fill:#EDEEF1}
    .fil2 {fill:#373435;fill-opacity:0.031373}
    .fil1 {fill:#434242;fill-opacity:0.078431}
   ]]>
  </style>
 </defs>
 <g id="Layer_x0020_1">
  <metadata id="CorelCorpID_0Corel-Layer"/>
  <polygon class="fil0" points="0,0 3703,0 3703,2083 0,2083 "/>
  <g id="_2727399038256">
   <polygon class="fil0" points="655,2083 0,2083 0,1828 2209,744 2209,748 2210,754 2210,762 2211,773 2211,786 2212,801 2212,818 2212,836 2212,856 2212,878 2213,900 2213,924 2213,949 2213,974 2213,1000 2213,1026 2213,1053 2213,1079 2212,1106 2212,1132 2212,1158 2212,1183 2212,1208 2212,1231 2212,1254 2212,1276 2212,1296 2212,1314 2212,1331 2211,1346 2211,1359 2211,1370 "/>
   <polygon class="fil0" points="0,1948 0,1940 1890,1025 1908,1026 "/>
   <polygon class="fil0" points="0,2067 0,2067 2037,1096 2033,1098 "/>
   <polygon class="fil0" points="0,1943 0,1941 1887,1028 1888,1028 1889,1028 1890,1028 1890,1028 "/>
   <polygon class="fil0" points="180,2083 178,2083 2055,1199 2053,1202 "/>
   <polygon class="fil0" points="0,1997 0,1967 1922,1039 1923,1044 1922,1048 1922,1052 1921,1055 1920,1059 1918,1062 1916,1064 1914,1067 1912,1070 1910,1072 1908,1074 1905,1076 1903,1079 1900,1081 1898,1083 1895,1085 "/>
   <polygon class="fil0" points="178,2083 175,2083 2058,1196 2055,1199 "/>
   <polygon class="fil0" points="0,1967 0,1962 1920,1035 1921,1035 1922,1035 1923,1035 1923,1035 1923,1036 1923,1036 1923,1038 1922,1039 "/>
   <polygon class="fil0" points="0,2067 0,2067 2037,1096 2033,1098 "/>
   <polygon class="fil0" points="0,2071 0,2070 2026,1104 2023,1107 "/>
   <polygon class="fil0" points="0,1828 0,1774 2151,712 2156,712 2162,712 2167,713 2172,713 2176,714 2180,716 2185,717 2188,719 2192,721 2195,723 2198,726 2201,729 2203,732 2205,736 2207,740 2209,744 "/>
   <polygon class="fil0" points="0,1498 0,1445 1934,453 1939,451 1944,449 1951,448 1957,447 1964,447 1971,447 1977,449 1983,451 1988,454 1992,457 1995,462 1996,468 1995,474 1993,482 "/>
   <polygon class="fil0" points="0,1941 0,1939 1887,1025 1886,1025 1886,1026 1887,1027 1887,1028 "/>
   <polygon class="fil0" points="0,2010 0,1997 1895,1085 1892,1089 1888,1093 1883,1098 1878,1103 1873,1108 1868,1113 1863,1116 "/>
   <polygon class="fil0" points="180,2083 177,2083 2050,1202 2050,1202 2050,1202 2051,1202 2053,1202 "/>
   <polygon class="fil0" points="167,2083 163,2083 2064,1188 2061,1191 "/>
   <polygon class="fil0" points="169,2083 167,2083 2061,1191 2062,1191 2063,1191 2063,1191 "/>
   <polygon class="fil0" points="0,1967 0,1962 1920,1035 1922,1039 "/>
   <polygon class="fil0" points="0,1943 0,1941 1887,1028 1888,1028 1889,1028 1890,1028 1890,1028 "/>
   <polygon class="fil0" points="0,1941 0,1939 1887,1025 1886,1025 1886,1026 1887,1027 1887,1028 "/>
   <polygon class="fil0" points="0,1962 0,1952 1911,1028 1920,1035 "/>
   <polygon class="fil0" points="0,1503 0,1498 1993,482 1990,486 1986,490 1981,493 "/>
   <polygon class="fil0" points="0,1774 0,1493 1525,714 1528,714 1534,713 1543,713 1553,712 1566,712 1581,712 1598,712 1616,711 1636,711 1658,711 1681,711 1704,711 1729,711 1754,711 1780,711 1806,711 1833,711 1860,711 1886,711 1912,711 1938,711 1964,711 1988,711 2012,711 2035,711 2056,712 2076,712 2095,712 2112,712 2127,712 2140,712 2151,712 "/>
   <polygon class="fil0" points="0,1757 0,1753 1859,833 1861,832 1862,832 1863,832 1863,832 1863,832 1863,833 1863,834 1863,835 "/>
   <polygon class="fil0" points="0,1773 0,1757 1863,835 1866,837 1868,837 1869,838 1870,839 1871,840 1872,842 1873,844 1874,847 "/>
   <polygon class="fil0" points="0,1944 0,1941 1887,1028 1876,1036 "/>
   <polygon class="fil0" points="0,1944 0,1779 1876,853 1876,1036 "/>
   <polygon class="fil0" points="0,1952 0,1948 1908,1026 1909,1026 1910,1025 1911,1025 1911,1025 1912,1026 1912,1026 1912,1027 1911,1028 "/>
   <polygon class="fil0" points="0,2010 0,2004 1845,1118 1858,1118 "/>
   <polygon class="fil0" points="0,2010 0,2010 1858,1118 1863,1116 "/>
   <polygon class="fil0" points="0,1779 0,1773 1874,847 1876,853 "/>
   <polygon class="fil0" points="0,1759 0,1758 1828,854 1829,854 1830,854 1831,854 "/>
   <polygon class="fil0" points="0,1779 0,1773 1874,847 1876,853 "/>
   <polygon class="fil0" points="141,2083 27,2083 2066,1115 2067,1117 2068,1120 2069,1124 2069,1127 2070,1131 2070,1136 2071,1140 2071,1145 2071,1149 2070,1154 2070,1158 2070,1162 2069,1166 2068,1170 2067,1173 2066,1175 "/>
   <polygon class="fil0" points="0,1757 0,1753 1859,833 1863,835 "/>
   <polygon class="fil0" points="0,1753 0,1746 1844,833 1859,833 "/>
   <polygon class="fil0" points="321,2083 320,2083 1989,1304 1988,1305 1986,1306 "/>
   <polygon class="fil0" points="743,2083 655,2083 2211,1370 2211,1376 2211,1381 2211,1386 2210,1391 2209,1396 2208,1400 2206,1404 2204,1408 2202,1411 2200,1415 2197,1418 2194,1420 2191,1423 2187,1425 2183,1427 "/>
   <polygon class="fil0" points="0,1447 0,1430 1875,467 1875,473 1875,479 1873,484 1870,487 1866,490 "/>
   <polygon class="fil0" points="0,1430 0,1372 1786,448 1792,448 1798,448 1804,448 1810,447 1817,447 1824,447 1831,446 1838,447 1845,447 1851,448 1857,450 1862,452 1867,454 1870,458 1873,462 1875,467 "/>
   <polygon class="fil0" points="0,1372 0,1343 1717,452 1722,450 1728,448 1734,447 1740,447 1747,446 1754,446 1761,447 1768,447 1774,448 1781,448 1786,448 "/>
   <polygon class="fil0" points="320,2083 238,2083 1981,1266 1986,1268 1990,1272 1993,1277 1994,1283 1995,1289 1994,1294 1992,1299 1989,1304 "/>
   <polygon class="fil0" points="0,2067 0,2067 2037,1096 2033,1098 "/>
   <polygon class="fil0" points="183,2083 177,2083 2050,1202 2050,1202 2050,1203 2050,1204 2050,1205 "/>
   <polygon class="fil0" points="0,2069 0,2067 2031,1099 2028,1102 "/>
   <polygon class="fil0" points="0,1759 0,1758 1828,854 1829,854 1830,854 1831,854 "/>
   <polygon class="fil0" points="0,1922 0,1758 1828,854 1827,1036 "/>
   <polygon class="fil0" points="0,1907 0,1906 1810,1026 1813,1025 "/>
   <polygon class="fil0" points="0,1911 0,1907 1813,1025 1813,1027 1813,1027 1813,1028 1813,1028 1814,1028 1814,1028 1815,1028 1816,1028 "/>
   <polygon class="fil0" points="0,1906 0,1900 1798,1025 1810,1026 "/>
   <polygon class="fil0" points="0,1900 0,1899 1802,1022 1801,1023 1799,1024 1798,1025 "/>
   <polygon class="fil0" points="0,1900 0,1899 1802,1022 1801,1023 1799,1024 1798,1025 "/>
   <polygon class="fil0" points="0,2004 0,1957 1807,1084 1810,1087 1814,1092 1820,1097 1825,1103 1831,1108 1836,1113 1841,1116 1845,1118 "/>
   <polygon class="fil0" points="0,1982 0,1978 1640,1188 1643,1191 "/>
   <polygon class="fil0" points="0,1995 0,1992 1648,1199 1651,1202 "/>
   <polygon class="fil0" points="0,2000 0,1995 1651,1202 1652,1202 1653,1202 1653,1202 1654,1202 1654,1202 1654,1203 1654,1204 1654,1205 "/>
   <polygon class="fil0" points="0,1952 0,1948 1908,1026 1908,1027 1908,1028 1908,1029 1908,1029 1908,1029 1909,1029 1910,1029 1911,1028 "/>
   <polygon class="fil0" points="0,1911 0,1907 1813,1025 1813,1027 1813,1027 1813,1028 1813,1028 1814,1028 1814,1028 1815,1028 1816,1028 "/>
   <polygon class="fil0" points="0,1906 0,1900 1798,1025 1810,1026 "/>
   <polygon class="fil0" points="0,1922 0,1911 1816,1028 1827,1036 "/>
   <polygon class="fil0" points="0,1907 0,1906 1781,1040 1783,1040 1783,1040 1784,1040 "/>
   <polygon class="fil0" points="0,1907 0,1906 1781,1040 1783,1040 1783,1040 1784,1040 "/>
   <polygon class="fil0" points="0,1957 0,1906 1781,1040 1781,1044 1781,1048 1781,1051 1782,1055 1783,1058 1785,1061 1787,1064 1788,1066 1791,1069 1793,1071 1795,1074 1798,1076 1800,1078 1802,1080 1805,1082 1807,1084 "/>
   <polygon class="fil0" points="0,1758 0,1754 1830,848 1828,854 "/>
   <polygon class="fil0" points="0,1747 0,1744 1840,832 1840,832 1840,833 1840,834 1840,835 "/>
   <polygon class="fil0" points="0,1910 0,1906 1666,1096 1670,1098 "/>
   <polygon class="fil0" points="0,1978 0,1965 1637,1175 1640,1188 "/>
   <polygon class="fil0" points="0,1982 0,1978 1640,1188 1640,1189 1640,1190 1640,1191 1640,1191 1640,1191 1640,1191 1641,1191 1643,1191 "/>
   <polygon class="fil0" points="0,1988 0,1982 1643,1191 1645,1197 "/>
   <polygon class="fil0" points="0,1992 0,1988 1645,1197 1648,1199 "/>
   <polygon class="fil0" points="0,1995 0,1992 1648,1199 1651,1202 "/>
   <polygon class="fil0" points="0,2000 0,1995 1651,1202 1652,1202 1653,1202 1653,1202 1654,1202 1654,1202 1654,1203 1654,1204 1654,1205 "/>
   <polygon class="fil0" points="0,2010 0,2010 1858,1118 1856,1119 1855,1120 "/>
   <polygon class="fil0" points="169,2083 167,2083 2061,1191 2062,1191 2063,1191 2063,1191 "/>
   <polygon class="fil0" points="0,2070 0,2069 2028,1102 2026,1104 "/>
   <polygon class="fil0" points="0,2071 0,2070 2026,1104 2023,1107 "/>
   <polygon class="fil0" points="84,2083 0,2083 0,2071 2023,1107 2022,1110 2021,1113 2020,1117 2020,1120 2020,1124 2019,1128 2019,1132 2019,1136 2019,1140 2019,1144 2019,1148 2019,1152 2020,1156 2020,1160 2020,1163 2020,1167 "/>
   <polygon class="fil0" points="84,2083 0,2083 0,2071 2023,1107 2022,1110 2021,1113 2020,1117 2020,1120 2020,1124 2019,1128 2019,1132 2019,1136 2019,1140 2019,1144 2019,1148 2019,1152 2020,1156 2020,1160 2020,1163 2020,1167 "/>
   <polygon class="fil0" points="0,2071 0,2070 2026,1104 2023,1107 "/>
   <polygon class="fil0" points="0,2070 0,2069 2028,1102 2026,1104 "/>
   <polygon class="fil0" points="0,2069 0,2067 2031,1099 2028,1102 "/>
   <polygon class="fil0" points="0,1906 0,1904 1784,1036 1781,1040 "/>
   <polygon class="fil0" points="743,2083 743,2083 2179,1429 2183,1427 "/>
   <polygon class="fil0" points="743,2083 417,2083 1822,1431 1827,1431 1834,1431 1842,1431 1851,1431 1861,1431 1872,1432 1883,1432 1896,1432 1909,1432 1922,1432 1936,1432 1950,1433 1965,1433 1980,1433 1995,1433 2010,1433 2025,1433 2039,1433 2054,1433 2068,1433 2082,1433 2095,1433 2107,1433 2119,1432 2130,1432 2141,1432 2150,1432 2158,1431 2165,1431 2171,1430 2176,1429 2179,1429 "/>
   <polygon class="fil0" points="0,2069 0,2067 2031,1099 2028,1102 "/>
   <polygon class="fil0" points="117,2083 0,2083 0,2049 1746,1215 1955,1215 "/>
   <polygon class="fil0" points="117,2083 0,2083 0,2049 1746,1215 1955,1215 "/>
   <polygon class="fil0" points="0,1493 0,1492 1517,718 1521,716 1525,714 "/>
   <polygon class="fil0" points="185,2083 117,2083 1955,1215 1961,1215 1968,1215 1974,1215 1980,1216 1987,1216 1993,1216 2000,1216 2006,1216 2012,1216 2018,1215 2024,1214 2030,1213 2035,1212 2040,1210 2045,1208 "/>
   <polygon class="fil0" points="185,2083 117,2083 1955,1215 1961,1215 1968,1215 1974,1215 1980,1216 1987,1216 1993,1216 2000,1216 2006,1216 2012,1216 2018,1215 2024,1214 2030,1213 2035,1212 2040,1210 2045,1208 "/>
   <polygon class="fil0" points="0,1900 0,1898 1795,1025 1798,1025 "/>
   <polygon class="fil0" points="70,2083 4,2083 1721,1267 1725,1265 1730,1264 1735,1263 1741,1263 1747,1263 1754,1262 1760,1262 1767,1262 1773,1263 1779,1263 1785,1263 1791,1263 1796,1263 1800,1263 "/>
   <polygon class="fil0" points="238,2083 70,2083 1800,1263 1802,1263 1805,1263 1808,1263 1812,1263 1817,1263 1822,1263 1827,1263 1833,1263 1840,1263 1847,1263 1854,1263 1861,1263 1869,1263 1876,1263 1884,1263 1892,1263 1899,1263 1907,1263 1915,1263 1922,1263 1929,1263 1936,1263 1943,1263 1949,1263 1955,1263 1960,1264 1965,1264 1970,1264 1974,1264 1977,1265 1979,1265 1981,1266 "/>
   <polygon class="fil0" points="205,2083 69,2083 1714,1304 1716,1305 1717,1306 1720,1307 1722,1308 1725,1308 1729,1309 1733,1310 1737,1310 1741,1311 1746,1311 1751,1311 1756,1312 1761,1312 1766,1312 1772,1312 1777,1312 1783,1312 1788,1313 1794,1313 1799,1313 1804,1312 1809,1312 1814,1312 1819,1312 1824,1312 1828,1312 1832,1312 1836,1312 1839,1312 1842,1312 1844,1312 1846,1312 "/>
   <polygon class="fil0" points="69,2083 6,2083 1714,1271 1712,1275 1710,1279 1709,1284 1709,1288 1709,1293 1710,1297 1712,1301 1714,1304 "/>
   <polygon class="fil0" points="321,2083 205,2083 1846,1312 1849,1312 1853,1312 1856,1312 1860,1312 1865,1312 1870,1312 1875,1312 1880,1312 1885,1312 1890,1312 1896,1312 1902,1312 1908,1312 1913,1312 1919,1312 1925,1312 1931,1312 1936,1312 1942,1312 1947,1311 1952,1311 1957,1311 1962,1310 1967,1310 1971,1309 1975,1309 1978,1308 1981,1308 1984,1307 1986,1306 "/>
   <polygon class="fil0" points="6,2083 4,2083 1721,1267 1717,1269 1714,1271 "/>
   <polygon class="fil0" points="417,2083 168,2083 1553,1431 1822,1431 "/>
   <polygon class="fil0" points="0,2010 0,2004 1845,1118 1847,1119 1849,1120 1851,1121 1852,1121 1853,1121 1855,1120 "/>
   <polygon class="fil0" points="168,2083 51,2083 1495,1399 1496,1403 1498,1407 1500,1411 1503,1414 1505,1417 1508,1420 1512,1422 1515,1424 1519,1426 1523,1427 1527,1429 1532,1430 1537,1430 1542,1431 1547,1431 1553,1431 "/>
   <polygon class="fil0" points="1167,2083 308,2083 1395,1575 2308,1575 "/>
   <polygon class="fil0" points="924,2083 861,2083 1819,1649 1821,1649 1824,1648 1828,1648 1832,1647 1836,1647 1841,1647 1847,1647 1852,1647 1857,1647 1862,1647 1867,1647 1872,1647 1876,1648 1880,1648 1883,1649 1885,1649 "/>
   <polygon class="fil0" points="0,2000 0,1995 1651,1202 1654,1205 "/>
   <polygon class="fil0" points="0,1995 0,1992 1648,1199 1651,1202 "/>
   <polygon class="fil0" points="0,1992 0,1988 1645,1197 1648,1199 "/>
   <polygon class="fil0" points="0,1988 0,1982 1643,1191 1645,1197 "/>
   <polygon class="fil0" points="0,1982 0,1978 1640,1188 1640,1189 1640,1190 1640,1191 1640,1191 1640,1191 1640,1191 1641,1191 1643,1191 "/>
   <polygon class="fil0" points="0,1978 0,1965 1637,1175 1640,1188 "/>
   <polygon class="fil0" points="0,1922 0,1918 1677,1104 1681,1107 "/>
   <polygon class="fil0" points="0,1915 0,1911 1672,1099 1675,1102 "/>
   <polygon class="fil0" points="0,1899 0,1899 1791,1028 1789,1029 "/>
   <polygon class="fil0" points="0,1899 0,1899 1786,1030 1787,1030 1789,1029 "/>
   <polygon class="fil0" points="0,1904 0,1899 1786,1030 1786,1030 1786,1031 1786,1032 1785,1033 1784,1036 "/>
   <polygon class="fil0" points="0,1899 0,1898 1795,1025 1791,1028 "/>
   <polygon class="fil0" points="0,1899 0,1898 1795,1025 1791,1028 "/>
   <polygon class="fil0" points="0,1965 0,1910 1637,1114 1637,1175 "/>
   <polygon class="fil0" points="0,1758 0,1754 1830,848 1828,854 "/>
   <polygon class="fil0" points="0,1754 0,1747 1840,835 1838,837 1836,838 1834,838 1833,840 1833,841 1832,842 1831,845 1830,848 "/>
   <polygon class="fil0" points="0,1747 0,1744 1840,832 1840,832 1840,833 1840,834 1840,835 "/>
   <polygon class="fil0" points="0,1965 0,1910 1637,1114 1637,1175 "/>
   <polygon class="fil0" points="0,1906 0,1904 1784,1036 1781,1040 "/>
   <polygon class="fil0" points="0,2049 0,2000 1654,1205 1658,1208 1663,1210 1668,1212 1673,1213 1678,1214 1684,1215 1690,1215 1696,1216 1702,1216 1708,1216 1715,1216 1721,1216 1727,1216 1733,1215 1740,1215 1746,1215 "/>
   <polygon class="fil0" points="0,2049 0,2000 1654,1205 1658,1208 1663,1210 1668,1212 1673,1213 1678,1214 1684,1215 1690,1215 1696,1216 1702,1216 1708,1216 1715,1216 1721,1216 1727,1216 1733,1215 1740,1215 1746,1215 "/>
   <polygon class="fil0" points="0,1992 0,1988 1645,1197 1648,1199 "/>
   <polygon class="fil0" points="0,1965 0,1936 1634,1145 1634,1149 1634,1153 1634,1157 1634,1161 1634,1165 1635,1168 1636,1172 1637,1175 "/>
   <polygon class="fil0" points="0,1936 0,1910 1637,1114 1636,1118 1635,1121 1634,1125 1634,1128 1634,1132 1634,1136 1634,1141 1634,1145 "/>
   <polygon class="fil0" points="0,1531 0,1492 1517,718 1513,720 1509,723 1506,725 1504,728 1501,731 1499,735 1497,739 1496,743 1495,747 1494,751 1493,756 1492,761 1492,767 1492,773 "/>
   <polygon class="fil0" points="0,1910 0,1900 1647,1100 1643,1102 1641,1105 1638,1109 1637,1114 "/>
   <polygon class="fil0" points="1015,2083 924,2083 1885,1649 1891,1653 1895,1658 1898,1665 1899,1671 1898,1678 1896,1684 1892,1689 1886,1692 "/>
   <polygon class="fil0" points="0,1910 0,1900 1647,1100 1643,1102 1641,1105 1638,1109 1637,1114 "/>
   <polygon class="fil0" points="51,2083 0,2083 0,1531 1492,773 1492,784 1492,797 1492,812 1492,829 1492,847 1492,867 1492,889 1491,911 1491,935 1491,960 1491,985 1491,1011 1491,1037 1491,1064 1491,1090 1491,1117 1491,1143 1491,1169 1491,1194 1491,1219 1491,1243 1491,1265 1491,1287 1491,1307 1492,1325 1492,1342 1492,1357 1492,1370 1493,1381 1493,1389 1494,1395 1495,1399 "/>
   <polygon class="fil0" points="308,2083 0,2083 0,1296 1395,568 1395,1575 "/>
   <polygon class="fil0" points="1475,2083 0,2083 0,1111 1424,353 1419,355 1415,359 1411,362 1408,366 1404,370 1402,374 1400,379 1398,384 1396,389 1396,395 1395,400 1395,1683 1396,1689 1396,1694 1398,1699 1400,1704 1402,1709 1404,1713 1408,1717 1411,1721 1415,1725 1419,1728 1424,1731 1428,1733 1433,1735 1438,1736 1444,1737 1449,1737 2254,1737 2260,1737 2265,1736 2270,1735 2275,1733 "/>
  </g>
  <polygon class="fil1" points="655,2083 417,2083 321,2083 320,2083 308,2083 238,2083 205,2083 185,2083 183,2083 180,2083 178,2083 177,2083 175,2083 169,2083 168,2083 167,2083 163,2083 141,2083 117,2083 84,2083 70,2083 69,2083 51,2083 27,2083 6,2083 4,2083 0,2083 0,2071 0,2070 0,2069 0,2067 0,2067 0,2067 0,2049 0,2010 0,2010 0,2010 0,2004 0,2000 0,1997 0,1995 0,1992 0,1988 0,1982 0,1978 0,1967 0,1965 0,1962 0,1957 0,1952 0,1948 0,1944 0,1943 0,1941 0,1940 0,1939 0,1936 0,1922 0,1922 0,1918 0,1915 0,1911 0,1911 0,1910 0,1910 0,1907 0,1907 0,1906 0,1906 0,1906 0,1904 0,1900 0,1900 0,1899 0,1899 0,1899 0,1899 0,1898 0,1828 0,1779 0,1774 0,1773 0,1759 0,1758 0,1757 0,1754 0,1753 0,1747 0,1746 0,1744 0,1531 0,1503 0,1498 0,1493 0,1492 0,1447 0,1445 0,1430 0,1372 0,1343 0,1296 0,1111 1424,353 1419,355 1415,359 1411,362 1408,366 1404,370 1402,374 1400,379 1398,384 1396,389 1396,395 1395,400 1395,568 1395,619 1717,452 1722,450 1728,448 1734,447 1740,447 1747,446 1754,446 1761,447 1768,447 1774,448 1781,448 1786,448 1792,448 1798,448 1804,448 1810,447 1817,447 1824,447 1831,446 1838,447 1845,447 1851,448 1857,450 1862,452 1867,454 1870,458 1873,462 1875,467 1875,473 1875,479 1873,484 1871,485 1934,453 1939,451 1944,449 1951,448 1957,447 1964,447 1971,447 1977,449 1983,451 1988,454 1992,457 1995,462 1996,468 1995,474 1993,482 1990,486 1986,490 1981,493 1550,713 1553,712 1566,712 1581,712 1598,712 1616,711 1636,711 1658,711 1681,711 1704,711 1729,711 1754,711 1780,711 1806,711 1833,711 1860,711 1886,711 1912,711 1938,711 1964,711 1988,711 2012,711 2035,711 2056,712 2076,712 2095,712 2112,712 2127,712 2140,712 2151,712 2156,712 2162,712 2167,713 2172,713 2176,714 2180,716 2185,717 2188,719 2192,721 2195,723 2198,726 2201,729 2203,732 2205,736 2207,740 2209,744 2209,748 2210,754 2210,762 2211,773 2211,786 2212,801 2212,818 2212,836 2212,856 2212,878 2213,900 2213,924 2213,949 2213,974 2213,1000 2213,1026 2213,1053 2213,1079 2212,1106 2212,1132 2212,1158 2212,1183 2212,1208 2212,1231 2212,1254 2212,1276 2212,1296 2212,1314 2212,1331 2211,1346 2211,1359 2211,1370 2211,1376 2211,1381 2211,1386 2210,1391 2209,1396 2208,1400 2206,1404 2204,1408 2202,1411 2200,1415 2197,1418 2194,1420 2191,1423 2187,1425 2183,1427 1858,1575 2308,1575 1945,1737 2254,1737 2260,1737 2265,1736 2270,1735 2275,1733 1475,2083 1167,2083 1015,2083 924,2083 861,2083 743,2083 743,2083 "/>
  <g id="_2727321327520">
   <g>
    <path class="fil0" d="M1395 1143l814 -399 1 3 1 6 0 9 0 11 0 13 0 15 0 17 0 19 0 20 0 21 0 23 0 24 0 25 0 25 0 26 0 26 0 26 0 27 0 27 0 26 0 26 0 25 0 25 0 24 0 23 0 21 0 20 0 19 0 17 0 15 0 13 0 11 -787 361c-17,-9 -29,-27 -29,-48l0 -540z"/>
    <polygon class="fil0" points="1395,1265 1890,1025 1908,1026 1395,1273 "/>
    <polygon class="fil0" points="1395,1402 2037,1096 2033,1098 1395,1402 "/>
    <polygon class="fil0" points="1395,1266 1887,1028 1888,1028 1889,1028 1890,1028 1890,1028 1395,1268 "/>
    <polygon class="fil0" points="1395,1510 2055,1199 2053,1202 1395,1511 "/>
    <polygon class="fil0" points="1395,1293 1922,1039 1923,1044 1922,1048 1922,1052 1921,1055 1920,1059 1918,1062 1916,1064 1914,1067 1912,1070 1910,1072 1908,1074 1905,1076 1903,1079 1900,1081 1898,1083 1895,1085 1395,1326 "/>
    <polygon class="fil0" points="1395,1509 2058,1196 2055,1199 1395,1510 "/>
    <polygon class="fil0" points="1395,1289 1920,1035 1921,1035 1922,1035 1923,1035 1923,1035 1923,1036 1923,1036 1923,1038 1922,1039 1395,1293 "/>
    <polygon class="fil0" points="1395,1402 2037,1096 2033,1098 1395,1402 "/>
    <polygon class="fil0" points="1395,1405 2026,1104 2023,1107 1395,1406 "/>
    <polygon class="fil0" points="1395,1085 2151,712 2156,712 2162,712 2167,713 2172,713 2176,714 2180,716 2185,717 2188,719 2192,721 2195,723 2198,726 2201,729 2203,732 2205,736 2207,740 2209,744 1395,1143 "/>
    <polygon class="fil0" points="1395,730 1934,453 1939,451 1944,449 1951,448 1957,447 1964,447 1971,447 1977,449 1983,451 1988,454 1992,457 1995,462 1996,468 1995,474 1993,482 1395,787 "/>
    <polygon class="fil0" points="1395,1263 1887,1025 1886,1025 1886,1026 1887,1027 1887,1028 1395,1266 "/>
    <polygon class="fil0" points="1395,1326 1895,1085 1892,1089 1888,1093 1883,1098 1878,1103 1873,1108 1868,1113 1863,1116 1395,1340 "/>
    <polygon class="fil0" points="1395,1510 2050,1202 2050,1202 2050,1202 2051,1202 2053,1202 1395,1511 "/>
    <polygon class="fil0" points="1395,1503 2064,1188 2061,1191 1395,1505 "/>
    <polygon class="fil0" points="1395,1505 2061,1191 2062,1191 2063,1191 2063,1191 1395,1506 "/>
    <polygon class="fil0" points="1395,1289 1920,1035 1922,1039 1395,1293 "/>
    <polygon class="fil0" points="1395,1266 1887,1028 1888,1028 1889,1028 1890,1028 1890,1028 1395,1268 "/>
    <polygon class="fil0" points="1395,1263 1887,1025 1886,1025 1886,1026 1887,1027 1887,1028 1395,1266 "/>
    <polygon class="fil0" points="1395,1278 1911,1028 1920,1035 1395,1289 "/>
    <polygon class="fil0" points="1395,787 1993,482 1990,486 1986,490 1981,493 1395,791 "/>
    <polygon class="fil0" points="1395,781 1525,714 1528,714 1534,713 1543,713 1553,712 1566,712 1581,712 1598,712 1616,711 1636,711 1658,711 1681,711 1704,711 1729,711 1754,711 1780,711 1806,711 1833,711 1860,711 1886,711 1912,711 1938,711 1964,711 1988,711 2012,711 2035,711 2056,712 2076,712 2095,712 2112,712 2127,712 2140,712 2151,712 1395,1085 "/>
    <polygon class="fil0" points="1395,1062 1859,833 1861,832 1862,832 1863,832 1863,832 1863,832 1863,833 1863,834 1863,835 1395,1067 "/>
    <polygon class="fil0" points="1395,1067 1863,835 1866,837 1868,837 1869,838 1870,839 1871,840 1872,842 1873,844 1874,847 1395,1084 "/>
    <polygon class="fil0" points="1395,1266 1887,1028 1876,1036 1395,1269 "/>
    <polygon class="fil0" points="1395,1090 1876,853 1876,1036 1395,1269 "/>
    <polygon class="fil0" points="1395,1273 1908,1026 1909,1026 1910,1025 1911,1025 1911,1025 1912,1026 1912,1026 1912,1027 1911,1028 1395,1278 "/>
    <polygon class="fil0" points="1395,1334 1845,1118 1858,1118 1395,1340 "/>
    <polygon class="fil0" points="1395,1340 1858,1118 1863,1116 1395,1340 "/>
    <polygon class="fil0" points="1395,1084 1874,847 1876,853 1395,1090 "/>
    <polygon class="fil0" points="1395,1068 1828,854 1829,854 1830,854 1831,854 1395,1069 "/>
    <polygon class="fil0" points="1395,1084 1874,847 1876,853 1395,1090 "/>
    <polygon class="fil0" points="1395,1434 2066,1115 2067,1117 2068,1120 2069,1124 2069,1127 2070,1131 2070,1136 2071,1140 2071,1145 2071,1149 2070,1154 2070,1158 2070,1162 2069,1166 2068,1170 2067,1173 2066,1175 1395,1491 "/>
    <polygon class="fil0" points="1395,1062 1859,833 1863,835 1395,1067 "/>
    <polygon class="fil0" points="1395,1055 1844,833 1859,833 1395,1062 "/>
    <polygon class="fil0" points="1395,1581 1989,1304 1988,1305 1986,1306 1395,1582 "/>
    <path class="fil0" d="M1424 1731l787 -361 0 6 0 5 -1 5 -1 5 -1 5 -1 4 -1 4 -2 4 -2 4 -2 3 -3 3 -3 3 -3 2 -4 2 -4 2 -680 310 -54 0c-9,0 -18,-2 -25,-6z"/>
    <polygon class="fil0" points="1395,713 1875,467 1875,473 1875,479 1873,484 1870,487 1866,490 1395,732 "/>
    <polygon class="fil0" points="1395,651 1786,448 1792,448 1798,448 1804,448 1810,447 1817,447 1824,447 1831,446 1838,447 1845,447 1851,448 1857,450 1862,452 1867,454 1870,458 1873,462 1875,467 1395,713 "/>
    <polygon class="fil0" points="1395,619 1717,452 1722,450 1728,448 1734,447 1740,447 1747,446 1754,446 1761,447 1768,447 1774,448 1781,448 1786,448 1395,651 "/>
    <polygon class="fil0" points="1395,1540 1981,1266 1986,1268 1990,1272 1993,1277 1994,1283 1995,1289 1994,1294 1992,1299 1989,1304 1395,1581 "/>
    <polygon class="fil0" points="1395,1402 2037,1096 2033,1098 1395,1402 "/>
    <polygon class="fil0" points="1395,1510 2050,1202 2050,1202 2050,1203 2050,1204 2050,1205 1395,1513 "/>
    <polygon class="fil0" points="1395,1402 2031,1099 2028,1102 1395,1404 "/>
    <polygon class="fil0" points="1395,1068 1828,854 1829,854 1830,854 1831,854 1395,1069 "/>
    <polygon class="fil0" points="1395,1068 1828,854 1827,1036 1395,1245 "/>
    <polygon class="fil0" points="1395,1227 1810,1026 1813,1025 1395,1228 "/>
    <polygon class="fil0" points="1395,1228 1813,1025 1813,1027 1813,1027 1813,1028 1813,1028 1814,1028 1814,1028 1815,1028 1816,1028 1395,1233 "/>
    <polygon class="fil0" points="1395,1221 1798,1025 1810,1026 1395,1227 "/>
    <polygon class="fil0" points="1395,1220 1802,1022 1801,1023 1799,1024 1798,1025 1395,1221 "/>
    <polygon class="fil0" points="1395,1220 1802,1022 1801,1023 1799,1024 1798,1025 1395,1221 "/>
    <polygon class="fil0" points="1395,1283 1807,1084 1810,1087 1814,1092 1820,1097 1825,1103 1831,1108 1836,1113 1841,1116 1845,1118 1395,1334 "/>
    <polygon class="fil0" points="1395,1306 1640,1188 1643,1191 1395,1310 "/>
    <polygon class="fil0" points="1395,1321 1648,1199 1651,1202 1395,1325 "/>
    <polygon class="fil0" points="1395,1325 1651,1202 1652,1202 1653,1202 1653,1202 1654,1202 1654,1202 1654,1203 1654,1204 1654,1205 1395,1329 "/>
    <polygon class="fil0" points="1395,1273 1908,1026 1908,1027 1908,1028 1908,1029 1908,1029 1908,1029 1909,1029 1910,1029 1911,1028 1395,1278 "/>
    <polygon class="fil0" points="1395,1228 1813,1025 1813,1027 1813,1027 1813,1028 1813,1028 1814,1028 1814,1028 1815,1028 1816,1028 1395,1233 "/>
    <polygon class="fil0" points="1395,1221 1798,1025 1810,1026 1395,1227 "/>
    <polygon class="fil0" points="1395,1233 1816,1028 1827,1036 1395,1245 "/>
    <polygon class="fil0" points="1395,1227 1781,1040 1783,1040 1783,1040 1784,1040 1395,1229 "/>
    <polygon class="fil0" points="1395,1227 1781,1040 1783,1040 1783,1040 1784,1040 1395,1229 "/>
    <polygon class="fil0" points="1395,1227 1781,1040 1781,1044 1781,1048 1781,1051 1782,1055 1783,1058 1785,1061 1787,1064 1788,1066 1791,1069 1793,1071 1795,1074 1798,1076 1800,1078 1802,1080 1805,1082 1807,1084 1395,1283 "/>
    <polygon class="fil0" points="1395,1063 1830,848 1828,854 1395,1068 "/>
    <polygon class="fil0" points="1395,1053 1840,832 1840,832 1840,833 1840,834 1840,835 1395,1056 "/>
    <polygon class="fil0" points="1395,1228 1666,1096 1670,1098 1395,1232 "/>
    <polygon class="fil0" points="1395,1292 1637,1175 1640,1188 1395,1306 "/>
    <polygon class="fil0" points="1395,1306 1640,1188 1640,1189 1640,1190 1640,1191 1640,1191 1640,1191 1640,1191 1641,1191 1643,1191 1395,1310 "/>
    <polygon class="fil0" points="1395,1310 1643,1191 1645,1197 1395,1317 "/>
    <polygon class="fil0" points="1395,1317 1645,1197 1648,1199 1395,1321 "/>
    <polygon class="fil0" points="1395,1321 1648,1199 1651,1202 1395,1325 "/>
    <polygon class="fil0" points="1395,1325 1651,1202 1652,1202 1653,1202 1653,1202 1654,1202 1654,1202 1654,1203 1654,1204 1654,1205 1395,1329 "/>
    <polygon class="fil0" points="1395,1340 1858,1118 1856,1119 1855,1120 1395,1340 "/>
    <polygon class="fil0" points="1395,1505 2061,1191 2062,1191 2063,1191 2063,1191 1395,1506 "/>
    <polygon class="fil0" points="1395,1404 2028,1102 2026,1104 1395,1405 "/>
    <polygon class="fil0" points="1395,1405 2026,1104 2023,1107 1395,1406 "/>
    <polygon class="fil0" points="1395,1406 2023,1107 2022,1110 2021,1113 2020,1117 2020,1120 2020,1124 2019,1128 2019,1132 2019,1136 2019,1140 2019,1144 2019,1148 2019,1152 2020,1156 2020,1160 2020,1163 2020,1167 1395,1463 "/>
    <polygon class="fil0" points="1395,1406 2023,1107 2022,1110 2021,1113 2020,1117 2020,1120 2020,1124 2019,1128 2019,1132 2019,1136 2019,1140 2019,1144 2019,1148 2019,1152 2020,1156 2020,1160 2020,1163 2020,1167 1395,1463 "/>
    <polygon class="fil0" points="1395,1405 2026,1104 2023,1107 1395,1406 "/>
    <polygon class="fil0" points="1395,1404 2028,1102 2026,1104 1395,1405 "/>
    <polygon class="fil0" points="1395,1402 2031,1099 2028,1102 1395,1404 "/>
    <polygon class="fil0" points="1395,1225 1784,1036 1781,1040 1395,1227 "/>
    <polygon class="fil0" points="1502,1737 2179,1429 2183,1427 1503,1737 "/>
    <path class="fil0" d="M1395 1629l427 -198 5 0 7 0 8 0 9 0 10 0 11 0 12 0 12 0 13 0 14 0 14 0 14 0 15 0 15 0 15 0 15 0 15 0 15 0 14 0 14 0 14 0 13 0 13 0 12 0 11 0 10 0 9 0 8 0 7 -1 6 -1 5 -1 3 -1 -677 309 -53 0c-30,0 -54,-24 -54,-54l0 -54z"/>
    <polygon class="fil0" points="1395,1402 2031,1099 2028,1102 1395,1404 "/>
    <polygon class="fil0" points="1395,1383 1746,1215 1955,1215 1395,1479 "/>
    <polygon class="fil0" points="1395,1383 1746,1215 1955,1215 1395,1479 "/>
    <polygon class="fil0" points="1395,780 1517,718 1521,716 1525,714 1395,781 "/>
    <polygon class="fil0" points="1395,1479 1955,1215 1961,1215 1968,1215 1974,1215 1980,1216 1987,1216 1993,1216 2000,1216 2006,1216 2012,1216 2018,1215 2024,1214 2030,1213 2035,1212 2040,1210 2045,1208 1395,1514 "/>
    <polygon class="fil0" points="1395,1479 1955,1215 1961,1215 1968,1215 1974,1215 1980,1216 1987,1216 1993,1216 2000,1216 2006,1216 2012,1216 2018,1215 2024,1214 2030,1213 2035,1212 2040,1210 2045,1208 1395,1514 "/>
    <polygon class="fil0" points="1395,1219 1795,1025 1798,1025 1395,1221 "/>
    <polygon class="fil0" points="1395,1422 1721,1267 1725,1265 1730,1264 1735,1263 1741,1263 1747,1263 1754,1262 1760,1262 1767,1262 1773,1263 1779,1263 1785,1263 1791,1263 1796,1263 1800,1263 1395,1455 "/>
    <polygon class="fil0" points="1395,1455 1800,1263 1802,1263 1805,1263 1808,1263 1812,1263 1817,1263 1822,1263 1827,1263 1833,1263 1840,1263 1847,1263 1854,1263 1861,1263 1869,1263 1876,1263 1884,1263 1892,1263 1899,1263 1907,1263 1915,1263 1922,1263 1929,1263 1936,1263 1943,1263 1949,1263 1955,1263 1960,1264 1965,1264 1970,1264 1974,1264 1977,1265 1979,1265 1981,1266 1395,1540 "/>
    <polygon class="fil0" points="1395,1455 1714,1304 1716,1305 1717,1306 1720,1307 1722,1308 1725,1308 1729,1309 1733,1310 1737,1310 1741,1311 1746,1311 1751,1311 1756,1312 1761,1312 1766,1312 1772,1312 1777,1312 1783,1312 1788,1313 1794,1313 1799,1313 1804,1312 1809,1312 1814,1312 1819,1312 1824,1312 1828,1312 1832,1312 1836,1312 1839,1312 1842,1312 1844,1312 1846,1312 1395,1524 "/>
    <polygon class="fil0" points="1395,1423 1714,1271 1712,1275 1710,1279 1709,1284 1709,1288 1709,1293 1710,1297 1712,1301 1714,1304 1395,1455 "/>
    <polygon class="fil0" points="1395,1524 1846,1312 1849,1312 1853,1312 1856,1312 1860,1312 1865,1312 1870,1312 1875,1312 1880,1312 1885,1312 1890,1312 1896,1312 1902,1312 1908,1312 1913,1312 1919,1312 1925,1312 1931,1312 1936,1312 1942,1312 1947,1311 1952,1311 1957,1311 1962,1310 1967,1310 1971,1309 1975,1309 1978,1308 1981,1308 1984,1307 1986,1306 1395,1582 "/>
    <polygon class="fil0" points="1395,1422 1721,1267 1717,1269 1714,1271 1395,1423 "/>
    <polygon class="fil0" points="1395,1505 1553,1431 1822,1431 1395,1629 "/>
    <polygon class="fil0" points="1395,1334 1845,1118 1847,1119 1849,1120 1851,1121 1852,1121 1853,1121 1855,1120 1395,1340 "/>
    <polygon class="fil0" points="1395,1446 1495,1399 1496,1403 1498,1407 1500,1411 1503,1414 1505,1417 1508,1420 1512,1422 1515,1424 1519,1426 1523,1427 1527,1429 1532,1430 1537,1430 1542,1431 1547,1431 1553,1431 1395,1505 "/>
    <path class="fil0" d="M1395 1575l913 0 -363 162 -495 0c-30,0 -54,-24 -54,-54l0 -108z"/>
    <polygon class="fil0" points="1626,1737 1819,1649 1821,1649 1824,1648 1828,1648 1832,1647 1836,1647 1841,1647 1847,1647 1852,1647 1857,1647 1862,1647 1867,1647 1872,1647 1876,1648 1880,1648 1883,1649 1885,1649 1691,1737 "/>
    <polygon class="fil0" points="1395,1325 1651,1202 1654,1205 1395,1329 "/>
    <polygon class="fil0" points="1395,1321 1648,1199 1651,1202 1395,1325 "/>
    <polygon class="fil0" points="1395,1317 1645,1197 1648,1199 1395,1321 "/>
    <polygon class="fil0" points="1395,1310 1643,1191 1645,1197 1395,1317 "/>
    <polygon class="fil0" points="1395,1306 1640,1188 1640,1189 1640,1190 1640,1191 1640,1191 1640,1191 1640,1191 1641,1191 1643,1191 1395,1310 "/>
    <polygon class="fil0" points="1395,1292 1637,1175 1640,1188 1395,1306 "/>
    <polygon class="fil0" points="1395,1241 1677,1104 1681,1107 1395,1246 "/>
    <polygon class="fil0" points="1395,1233 1672,1099 1675,1102 1395,1238 "/>
    <polygon class="fil0" points="1395,1220 1791,1028 1789,1029 1395,1221 "/>
    <polygon class="fil0" points="1395,1221 1786,1030 1787,1030 1789,1029 1395,1221 "/>
    <polygon class="fil0" points="1395,1221 1786,1030 1786,1030 1786,1031 1786,1032 1785,1033 1784,1036 1395,1225 "/>
    <polygon class="fil0" points="1395,1219 1795,1025 1791,1028 1395,1220 "/>
    <polygon class="fil0" points="1395,1219 1795,1025 1791,1028 1395,1220 "/>
    <polygon class="fil0" points="1395,1232 1637,1114 1637,1175 1395,1292 "/>
    <polygon class="fil0" points="1395,1063 1830,848 1828,854 1395,1068 "/>
    <polygon class="fil0" points="1395,1056 1840,835 1838,837 1836,838 1834,838 1833,840 1833,841 1832,842 1831,845 1830,848 1395,1063 "/>
    <polygon class="fil0" points="1395,1053 1840,832 1840,832 1840,833 1840,834 1840,835 1395,1056 "/>
    <polygon class="fil0" points="1395,1232 1637,1114 1637,1175 1395,1292 "/>
    <polygon class="fil0" points="1395,1225 1784,1036 1781,1040 1395,1227 "/>
    <polygon class="fil0" points="1395,1329 1654,1205 1658,1208 1663,1210 1668,1212 1673,1213 1678,1214 1684,1215 1690,1215 1696,1216 1702,1216 1708,1216 1715,1216 1721,1216 1727,1216 1733,1215 1740,1215 1746,1215 1395,1383 "/>
    <polygon class="fil0" points="1395,1329 1654,1205 1658,1208 1663,1210 1668,1212 1673,1213 1678,1214 1684,1215 1690,1215 1696,1216 1702,1216 1708,1216 1715,1216 1721,1216 1727,1216 1733,1215 1740,1215 1746,1215 1395,1383 "/>
    <polygon class="fil0" points="1395,1317 1645,1197 1648,1199 1395,1321 "/>
    <polygon class="fil0" points="1395,1260 1634,1145 1634,1149 1634,1153 1634,1157 1634,1161 1634,1165 1635,1168 1636,1172 1637,1175 1395,1292 "/>
    <polygon class="fil0" points="1395,1232 1637,1114 1636,1118 1635,1121 1634,1125 1634,1128 1634,1132 1634,1136 1634,1141 1634,1145 1395,1260 "/>
    <polygon class="fil0" points="1395,780 1517,718 1513,720 1509,723 1506,725 1504,728 1501,731 1499,735 1497,739 1496,743 1495,747 1494,751 1493,756 1492,761 1492,767 1492,773 1395,822 "/>
    <polygon class="fil0" points="1395,1222 1647,1100 1643,1102 1641,1105 1638,1109 1637,1114 1395,1232 "/>
    <polygon class="fil0" points="1691,1737 1885,1649 1891,1653 1895,1658 1898,1665 1899,1671 1898,1678 1896,1684 1892,1689 1886,1692 1786,1737 "/>
    <polygon class="fil0" points="1395,1222 1647,1100 1643,1102 1641,1105 1638,1109 1637,1114 1395,1232 "/>
    <polygon class="fil0" points="1395,822 1492,773 1492,784 1492,797 1492,812 1492,829 1492,847 1492,867 1492,889 1491,911 1491,935 1491,960 1491,985 1491,1011 1491,1037 1491,1064 1491,1090 1491,1117 1491,1143 1491,1169 1491,1194 1491,1219 1491,1243 1491,1265 1491,1287 1491,1307 1492,1325 1492,1342 1492,1357 1492,1370 1493,1381 1493,1389 1494,1395 1495,1399 1395,1446 "/>
    <path class="fil0" d="M1424 353l-4 3c1,-1 3,-2 4,-3zm-4 3l-4 3c1,-1 3,-2 4,-3zm-4 3l-4 3c1,-1 3,-2 4,-3zm-4 3l-3 4c1,-1 2,-3 3,-4zm-3 4l-3 4c1,-1 2,-3 3,-4zm-3 4l-3 4c1,-2 2,-3 3,-4zm-3 4l-2 5c1,-2 1,-3 2,-5zm-2 5l-2 5c1,-2 1,-3 2,-5zm-2 5l-1 5c0,-2 1,-3 1,-5zm-1 5l-1 5c0,-2 0,-4 1,-5zm-1 5l0 5c0,-2 0,-4 0,-5zm0 1289l0 5c0,-2 0,-4 0,-5zm0 5l1 5c0,-2 -1,-4 -1,-5zm1 5l1 5c-1,-2 -1,-3 -1,-5zm1 5l2 5c-1,-2 -1,-3 -2,-5zm2 5l2 5c-1,-2 -2,-3 -2,-5zm2 5l3 4c-1,-1 -2,-3 -3,-4zm3 4l3 4c-1,-1 -2,-3 -3,-4zm3 4l3 4c-1,-1 -2,-3 -3,-4zm3 4l4 3c-1,-1 -3,-2 -4,-3zm4 3l4 3c-1,-1 -3,-2 -4,-3zm4 3l4 3c-2,-1 -3,-2 -4,-3zm4 3l5 2c-2,-1 -3,-1 -5,-2zm5 2l5 2c-2,-1 -3,-1 -5,-2zm5 2l5 1c-2,0 -3,-1 -5,-1zm5 1l5 1c-2,0 -4,0 -5,-1zm5 1l5 0c-2,0 -4,0 -5,0zm811 0l5 0c-2,0 -4,0 -5,0zm5 0l5 -1c-2,0 -4,1 -5,1zm5 -1l5 -1c-2,1 -3,1 -5,1zm5 -1l5 -2c-2,1 -3,1 -5,2z"/>
   </g>
   <g>
    <path class="fil0" d="M1714 1304c-7,-7 -9,-24 0,-33 12,-13 65,-8 86,-8 17,0 167,-3 181,2 15,6 18,28 8,38 -11,11 -113,8 -143,8 -19,0 -121,4 -132,-8zm-223 -207l337 -165 0 104 -11 -8 -3 -3 -3 0c-5,-7 -9,-3 -13,0l-3 0 -3 3c-8,5 -3,-1 -7,8l-3 4c-4,23 14,33 25,44 8,7 28,31 39,34 6,5 7,3 13,0 12,-3 29,-25 37,-33 13,-13 29,-21 27,-46 0,-5 2,-4 -3,-4l-8 -7c0,-4 1,-3 -4,-3l-18 0c-4,0 -3,-1 -3,3l-10 8 0 -129 333 -163 1 3 1 6 0 9 0 11 0 13 0 15 0 17 0 19 0 20 0 21 0 23 0 24 0 25 0 25 0 26 0 26 0 26 0 27 0 27 0 26 0 26 0 25 0 25 0 24 0 23 0 21 0 20 0 19 0 17 0 15 0 13 0 11 -137 63c-94,0 -220,-2 -253,-2l-269 0c-31,0 -50,-8 -58,-32 -4,-11 -4,-154 -4,-302zm146 18c3,-14 13,-19 30,-18l4 2 2 0 3 3 2 2 3 3c6,15 3,41 3,60l336 0c0,-18 -3,-45 3,-60l3 -3 2 -2 3 -3 2 0 4 -2c17,-1 27,5 29,19 6,10 6,49 0,60l-3 13c0,4 1,3 -3,3l-2 5 -3 3 -3 3 -3 3c-23,16 -62,10 -95,10l-209 0c-32,0 -70,5 -92,-10l-3 -3 -3 -3 -3 -3 -2 -5c-4,0 -3,1 -3,-3l-3 -13c-5,-8 -3,-19 -3,-30 0,-12 -2,-22 3,-30z"/>
    <path class="fil0" d="M1491 1219l143 -69c0,3 0,6 0,9l-143 69 0 -9zm193 -94l110 -53c2,2 4,4 6,6l-116 56c0,-3 0,-6 0,-9zm192 -93l10 -5 0 1 -10 8 0 -4z"/>
    <path class="fil0" d="M1492 1356l294 -140 1 0 -295 141 0 0zm395 -188l144 -69 -1 1 -142 68 -1 0zm144 -69l5 -3 -4 2 -1 0z"/>
    <path class="fil0" d="M1491 1220l143 -69 0 2 -143 69 0 -2zm193 -94l110 -53 1 1 -111 54 0 -2zm192 -93l10 -5 -5 4 -5 2 0 -2z"/>
    <path class="fil0" d="M1563 1431l252 -119 3 0 -252 119 -2 0zm358 -168l102 -48c1,0 3,0 4,-1l-104 49 -2 0z"/>
    <path class="fil0" d="M1491 1247l147 -71 2 11c0,4 -1,3 3,3l2 5 3 3 3 3 1 1 -160 77c0,-10 0,-21 0,-33zm193 -93l130 -63c7,7 16,16 23,22l-112 54 -41 0c0,-4 0,-9 0,-13zm216 -73l-2 2c-1,1 -2,2 -2,2l2 -2c1,-1 2,-1 2,-2z"/>
    <path class="fil0" d="M1560 1431l252 -119 3 0 -252 119 -3 0zm358 -169l101 -48c1,0 3,0 4,-1l-102 48 -3 0z"/>
    <path class="fil0" d="M1491 1242l145 -70c0,1 1,2 1,2l0 2 -147 71 0 -5zm193 -93l127 -61 3 3 -130 63 0 -5zm235 -114l1 0c0,0 -1,0 -1,0zm3 2l0 1c0,-1 0,-1 0,-1z"/>
    <path class="fil0" d="M1492 1356l294 -140 1 0 -295 141 0 0zm395 -188l144 -69 -1 1 -142 68 -1 0zm144 -69l5 -3 -4 2 -1 0z"/>
    <path class="fil0" d="M1492 1359l301 -143 3 0 -303 145 0 -1zm402 -191l132 -63 -3 3 -126 60 -3 0z"/>
    <path class="fil0" d="M1491 1037l337 -166 0 60 -337 165c0,-20 0,-39 0,-59zm383 -189l276 -136 6 0 5 0 5 1 5 1 5 1 4 1 4 1 4 2 4 2 3 2 3 3 3 3 2 3 2 4 2 4 2 4 -333 163 0 -54 -2 -5z"/>
    <path class="fil0" d="M1540 713l-40 20c5,-9 13,-15 25,-19 2,-1 7,-1 15,-1z"/>
    <path class="fil0" d="M1491 1217l143 -69 0 3 -143 69 0 -3zm193 -93l109 -53c1,1 1,1 2,2l-110 53c0,-1 0,-2 0,-3zm192 -93l10 -5c0,0 0,0 0,0 0,0 0,0 0,1l0 0 0 0 0 0 0 0 0 0 0 0 0 0 0 0 0 1 -10 5 0 -3z"/>
    <path class="fil0" d="M1491 1280l160 -77 2 2c4,2 7,4 12,6l-174 84 0 -15zm234 -112l112 -54c3,2 6,4 8,5 4,3 6,3 8,3l-97 47 -31 0zm171 -82l-3 4c1,-1 2,-3 3,-4zm-35 32l-5 2c1,0 2,-1 3,-2 1,0 1,0 2,-1z"/>
    <path class="fil0" d="M1562 1431l252 -119 3 0 -252 119 -3 0zm358 -169l102 -48c2,0 3,0 5,-1l-104 49 -3 0z"/>
    <path class="fil0" d="M1547 1431l252 -119 4 0 -252 119c-1,0 -3,0 -4,0zm358 -168l99 -47c2,0 3,0 5,0l-99 47 -4 0z"/>
    <path class="fil0" d="M1551 1431l252 -119 3 0 -252 119 -1 0 -1 0zm358 -169l99 -47c1,0 2,0 3,0l-100 47 -3 0zm152 -71l1 0 0 0 0 0 0 0 0 0 0 0 0 0 0 0 0 0c0,0 0,0 1,0l-3 2 1 -2z"/>
    <path class="fil0" d="M1491 1242l145 -70c0,1 1,2 1,2l0 2 -147 71 0 -5zm193 -93l127 -61 3 3 -130 63 0 -5z"/>
    <path class="fil0" d="M1491 1220l143 -69 0 2 -143 69 0 -2zm193 -94l110 -53 1 1 -111 54 0 -2zm192 -93l10 -5 -5 4 -5 2 0 -2z"/>
    <path class="fil0" d="M1491 1217l143 -69 0 3 -143 69 0 -3zm193 -93l109 -53c1,1 1,1 2,2l-110 53c0,-1 0,-2 0,-3zm192 -93l10 -5c0,0 0,0 0,0 0,0 0,0 0,1l0 0 0 0 0 0 0 0 0 0 0 0 0 0 0 0 0 1 -10 5 0 -3z"/>
    <path class="fil0" d="M1491 1232l143 -69c0,3 1,7 2,10l-145 70 0 -11zm194 -94l119 -58c1,1 2,2 3,3 1,1 2,2 4,4l-127 61c0,-4 0,-7 0,-11z"/>
    <path class="fil0" d="M1500 733l40 -20c3,0 6,0 10,0l-53 27c1,-2 2,-4 3,-6z"/>
    <path class="fil0" d="M1510 722l15 -8 3 -1 6 -1 8 0 11 0 13 0 15 0 17 0 19 0 20 0 21 0 23 0 24 0 25 0 25 0 26 0 26 0 27 0 27 0 27 0 26 0 26 0 25 0 25 0 24 0 23 0 21 0 20 0 19 0 17 0 15 0 13 0 11 0 -276 136 0 -1c-4,-10 -3,-8 -11,-12 0,-4 1,-3 -4,-3l-15 0c-5,0 -4,-2 -4,3 -8,4 -7,3 -10,13l-2 6 0 17 -337 166c0,-115 1,-223 1,-265 0,-24 5,-40 18,-51z"/>
    <path class="fil0" d="M1491 1015l339 -168 0 1 -2 5 -337 167 0 -5zm368 -182l2 0c0,0 -1,0 -2,0zm4 1l0 1c0,-1 0,-1 0,-1z"/>
    <polygon class="fil0" points="1491,1019 1828,852 1828,854 1828,870 1491,1037 "/>
    <path class="fil0" d="M1491 1220l143 -69 0 3 -143 69 0 -3zm193 -94l110 -53c1,1 1,1 2,2l-112 54 0 -3zm192 -93l10 -5 -10 8 0 -3z"/>
    <path class="fil0" d="M1491 1043l337 -166 0 159 -11 -8 -3 -3 -3 0c-5,-7 -9,-3 -13,0l-3 0 -3 3c-8,5 -3,-1 -7,8l-3 4c-3,17 6,27 15,35l-112 54c0,-8 -1,-16 -4,-22l-3 -3 -2 -2 -3 -3 -2 0 -4 -2c-17,-1 -26,4 -30,18 -4,8 -3,19 -3,30 0,3 0,6 0,9l-143 69c0,-56 0,-119 0,-180z"/>
    <path class="fil0" d="M1491 1227l143 -69c0,2 0,3 0,5l-143 69 0 -5zm194 -94l116 -56 3 3 -119 58c0,-2 0,-3 0,-5zm223 -108l1 0c0,0 -1,0 -1,0zm4 2l0 1c0,-1 0,-1 0,-1z"/>
    <path class="fil0" d="M1491 1288l167 -80c2,1 4,2 7,3l-174 83 0 -6zm251 -121l103 -49c3,2 5,3 7,3l-97 46 -13 0z"/>
    <path class="fil0" d="M1491 1294l174 -83 0 0 -174 84 0 0zm264 -127l97 -46c0,0 1,0 1,0l-97 47 -1 0zm105 -50l-5 2c1,0 2,-1 3,-2 1,0 1,0 2,-1z"/>
    <polygon class="fil0" points="1491,1037 1828,870 1828,877 1491,1043 "/>
    <polygon class="fil0" points="1491,1020 1828,854 1828,855 1491,1022 "/>
    <polygon class="fil0" points="1491,1037 1828,870 1828,877 1491,1043 "/>
    <path class="fil0" d="M1493 1387l215 -102c-1,7 2,15 6,19 5,6 32,8 61,8l-247 116c-17,-4 -28,-13 -34,-30 0,-2 -1,-6 -1,-12zm263 -125l99 -47 100 0c8,0 16,0 25,1l-100 47c-37,0 -72,1 -80,1 -10,0 -28,-1 -44,-1zm201 -95l63 -30c0,10 1,21 1,30l-63 0z"/>
    <polygon class="fil0" points="1491,1015 1830,847 1830,848 1828,852 1491,1019 "/>
    <path class="fil0" d="M1491 1008l349 -173 0 1c-7,4 -7,3 -10,12l-339 168 0 -7z"/>
    <path class="fil0" d="M1717 1431l265 -124c2,0 3,-1 4,-2l-268 125 -1 0z"/>
    <path class="fil0" d="M2075 1433l137 -63 0 6 0 5 -1 5 -1 5 -1 5 -1 4 -1 4 -2 4 -2 4 -2 3 -3 3 -3 3 -3 2 -4 2 -4 2c-1,1 -3,1 -4,2 -10,3 -52,4 -104,4z"/>
    <path class="fil0" d="M1628 1431l253 -119c35,0 81,0 100,-5l-265 124 -89 0z"/>
    <path class="fil0" d="M1492 1356l294 -140 1 0 -295 141 0 0zm395 -188l144 -69 -1 1 -142 68 -1 0zm144 -69l5 -3 -4 2 -1 0z"/>
    <path class="fil0" d="M1562 1431l252 -119 7 0 -253 119 -7 0zm358 -169l102 -48c5,-1 9,-2 13,-3l-108 51 -7 0z"/>
    <path class="fil0" d="M1492 1356l294 -140 4 0 -298 142 0 -2zm395 -188l144 -69 -3 3 -137 65 -4 0z"/>
    <polygon class="fil0" points="1491,1020 1828,854 1828,855 1491,1022 "/>
    <path class="fil0" d="M1491 1020l337 -167 0 182 -11 -8 -3 -3 -3 0c-5,-7 -9,-3 -13,0l-3 0 -3 3c-8,5 -3,-1 -7,8l-3 4c-1,7 0,12 2,17l-103 50 -3 -3 -2 -2 -3 -3 -2 0 -4 -2c-17,-1 -26,4 -30,18 -2,4 -3,10 -3,15l-143 69c0,-56 0,-119 0,-179z"/>
    <path class="fil0" d="M1491 1181l148 -72c0,0 0,1 -1,1l-147 72 0 -1zm175 -85l116 -56 0 0 0 1 -114 55 -1 0 -1 0z"/>
    <path class="fil0" d="M1491 1182l147 -72c0,1 -1,3 -1,4 0,0 0,1 -1,1l-146 71 0 -4zm176 -86l114 -55c0,2 0,3 0,5l-109 53 -1 0 -3 -2z"/>
    <path class="fil0" d="M1491 1175l295 -144c0,1 -1,2 -2,5l-3 3 -116 56c-14,0 -23,3 -27,13l-148 72 0 -6z"/>
    <path class="fil0" d="M1491 1174l301 -147 -1 1c-6,3 -5,2 -5,3l-295 144 0 -1zm305 -149l6 -3c-1,0 -1,1 -1,1 0,0 -1,1 -1,1l0 0 0 0 0 0 0 0 0 0 0 0 0 0 0 0 -2 0z"/>
    <path class="fil0" d="M1491 1174l301 -147 -1 1c-6,3 -5,2 -5,3l-295 144 0 -1zm305 -149l6 -3c-1,0 -1,1 -1,1 0,0 -1,1 -1,1l0 0 0 0 0 0 0 0 0 0 0 0 0 0 0 0 -2 0z"/>
    <path class="fil0" d="M1491 1236l144 -69c0,3 1,5 3,8l3 13c0,4 -1,3 3,3l2 5 3 3 3 3 3 3c2,1 3,2 5,3l-167 80c0,-16 0,-33 0,-52zm194 -93l122 -59 3 3 3 3 1 1 1 1 1 1c2,2 3,3 5,5 2,2 4,4 5,5 2,2 4,4 6,5 2,2 4,3 5,5 2,1 3,3 5,3 2,1 3,2 4,2l-103 49 -59 0c0,-7 0,-16 0,-24z"/>
    <path class="fil0" d="M1491 1260l149 -72c0,4 -1,3 3,3l-152 73 0 -5z"/>
    <polygon class="fil0" points="1491,1275 1648,1199 1651,1202 1491,1279 "/>
    <polygon class="fil0" points="1491,1279 1651,1202 1654,1205 1491,1283 "/>
    <path class="fil0" d="M1491 1227l143 -69c0,2 0,3 0,5l-143 69 0 -5zm194 -94l116 -56 3 3 -119 58c0,-2 0,-3 0,-5z"/>
    <path class="fil0" d="M1491 1182l147 -72c0,1 -1,3 -1,4 0,0 0,1 -1,1l-146 71 0 -4zm176 -86l114 -55c0,2 0,3 0,5l-109 53 -1 0 -3 -2z"/>
    <path class="fil0" d="M1491 1175l295 -144c0,1 -1,2 -2,5l-3 3 -116 56c-14,0 -23,3 -27,13l-148 72 0 -6z"/>
    <path class="fil0" d="M1491 1186l146 -71c-2,4 -2,9 -3,14l-143 69 0 -13zm181 -88l109 -53c0,4 1,8 2,12l-103 50 -3 -3 -2 -2 -3 -3 0 0z"/>
    <path class="fil0" d="M1491 1181l148 -72c0,1 0,1 -1,2l-147 72 0 -1zm175 -85l115 -56 0 1 -114 55 -1 -1 -1 0z"/>
    <path class="fil0" d="M1491 1181l148 -72c0,1 0,1 -1,2l-147 72 0 -1zm175 -85l115 -56 0 1 -114 55 -1 -1 -1 0z"/>
    <path class="fil0" d="M1491 1181l148 -72c-1,2 -1,3 -2,5 -4,8 -3,19 -3,30 0,8 -1,16 0,22l-144 69c0,-18 0,-36 0,-55zm175 -85l115 -56c0,1 0,3 0,4 0,1 0,3 0,4 0,1 0,2 0,4 0,1 1,2 1,3 0,1 1,2 1,3 0,1 1,2 1,3 1,1 1,2 2,3 1,1 1,2 2,3l0 0 0 0 0 0c1,1 1,2 2,2 1,1 1,2 2,2 1,1 2,2 2,2 1,1 2,1 2,2l2 2 1 1 1 1 1 1 1 1 2 2 2 2 -122 59c0,-13 0,-27 -4,-36l-3 -3 -2 -2 -3 -3 -2 0 -4 -2 -1 0z"/>
    <polygon class="fil0" points="1491,1016 1830,848 1828,854 1491,1020 "/>
    <path class="fil0" d="M1491 1005l349 -173c0,0 0,0 0,0 0,0 0,0 0,1l0 0 0 0 0 0 0 0 0 0 0 0 0 0 0 0 0 1 -349 173 0 -3z"/>
    <path class="fil0" d="M1491 1181l148 -72c-1,1 -1,3 -1,5l0 0 -146 71 0 -4z"/>
    <polygon class="fil0" points="1491,1245 1637,1175 1640,1188 1491,1260 "/>
    <path class="fil0" d="M1491 1260l149 -72 0 1 0 0 0 0 0 0 0 0 0 0c0,0 0,0 0,1 0,0 0,0 0,0 0,0 0,0 0,0 0,0 0,0 1,0l0 0 0 0 0 0 0 0 0 0 0 0 0 0 0 0 1 0 -152 73 0 -5z"/>
    <polygon class="fil0" points="1491,1264 1643,1191 1645,1197 1491,1271 "/>
    <polygon class="fil0" points="1491,1271 1645,1197 1648,1199 1491,1275 "/>
    <polygon class="fil0" points="1491,1275 1648,1199 1651,1202 1491,1279 "/>
    <polygon class="fil0" points="1491,1279 1651,1202 1654,1205 1491,1283 "/>
    <path class="fil0" d="M1491 1294l174 -83 0 0 -174 84 0 0zm264 -127l97 -46c1,0 1,0 2,0l-98 47 -1 0z"/>
    <path class="fil0" d="M1551 1431l252 -119 3 0 -252 119 -1 0 -1 0zm358 -169l99 -47c1,0 2,0 3,0l-100 47 -3 0zm152 -71l1 0 0 0 0 0 0 0 0 0 0 0 0 0 0 0 0 0c0,0 0,0 1,0l-3 2 1 -2z"/>
    <path class="fil0" d="M1492 1357l298 -142 2 0 -301 143 0 -1zm399 -190l137 -65 -2 2 -132 63 -2 0z"/>
    <path class="fil0" d="M1492 1359l301 -143 3 0 -303 145 0 -1zm402 -191l132 -63 -3 3 -126 60 -3 0z"/>
    <path class="fil0" d="M1492 1360l303 -145 123 0 -102 48c-8,0 -14,0 -16,0 -21,0 -74,-6 -86,8 -9,9 -7,26 0,33 1,2 4,3 8,4l-221 105c-3,-4 -5,-8 -7,-14 -1,-3 -2,-17 -2,-39zm404 -193l126 -60c0,1 -1,2 -1,3 0,1 -1,2 -1,3 0,1 0,2 -1,3 0,1 0,2 0,4 0,1 0,2 0,4 0,1 0,3 0,4 0,1 0,3 0,4 0,1 0,3 0,4 0,1 0,3 0,4l0 1 0 1 0 1 0 1 0 1 0 1 0 2 0 1 0 1 0 1 0 1 0 1 0 1 0 1 0 1 0 4 0 1 0 1 0 1 0 1 0 4 -123 0z"/>
    <path class="fil0" d="M1492 1360l303 -145 123 0 -102 48c-8,0 -14,0 -16,0 -21,0 -74,-6 -86,8 -9,9 -7,26 0,33 1,2 4,3 8,4l-221 105c-3,-4 -5,-8 -7,-14 -1,-3 -2,-17 -2,-39zm404 -193l126 -60c0,1 -1,2 -1,3 0,1 -1,2 -1,3 0,1 0,2 -1,3 0,1 0,2 0,4 0,1 0,2 0,4 0,1 0,3 0,4 0,1 0,3 0,4 0,1 0,3 0,4 0,1 0,3 0,4l0 1 0 1 0 1 0 1 0 1 0 1 0 2 0 1 0 1 0 1 0 1 0 1 0 1 0 1 0 1 0 4 0 1 0 1 0 1 0 1 0 4 -123 0z"/>
    <path class="fil0" d="M1492 1359l301 -143 3 0 -303 145 0 -1zm402 -191l132 -63 -3 3 -126 60 -3 0z"/>
    <path class="fil0" d="M1492 1357l298 -142 2 0 -301 143 0 -1zm399 -190l137 -65 -2 2 -132 63 -2 0z"/>
    <path class="fil0" d="M1492 1356l294 -140 4 0 -298 142 0 -2zm395 -188l144 -69 -3 3 -137 65 -4 0z"/>
    <path class="fil0" d="M1491 1179l149 -73c-1,1 -1,2 -2,3l-148 72 0 -2zm170 -83l123 -60 -3 4 -115 56c-2,0 -3,0 -5,0z"/>
    <path class="fil0" d="M2179 1429l4 -2c-1,1 -3,1 -4,2z"/>
    <path class="fil0" d="M2119 1432l11 0c4,0 7,0 10,0l9 0c3,0 6,0 8,0l7 -1c2,0 4,0 6,-1l5 -1c1,0 2,0 3,-1l-3 1c-1,0 -3,0 -5,1l-6 1c-2,0 -5,0 -7,1l-8 0c-3,0 -6,0 -9,0l-10 0c-4,0 -7,0 -11,0z"/>
    <path class="fil0" d="M1492 1356l294 -140 4 0 -298 142 0 -2zm395 -188l144 -69 -3 3 -137 65 -4 0z"/>
    <path class="fil0" d="M1492 1337l254 -121 209 0 -101 48c-26,0 -48,1 -54,1 -21,0 -74,-6 -86,8 -9,9 -7,26 0,33 4,4 18,6 37,8l-237 112c-9,-5 -16,-13 -19,-25 -1,-4 -2,-27 -3,-62z"/>
    <path class="fil0" d="M1492 1337l254 -121 209 0 -101 48c-26,0 -48,1 -54,1 -21,0 -74,-6 -86,8 -9,9 -7,26 0,33 4,4 18,6 37,8l-237 112c-9,-5 -16,-13 -19,-25 -1,-4 -2,-27 -3,-62z"/>
    <path class="fil0" d="M1517 718l4 -2 4 -2 -15 8c2,-1 4,-3 6,-4z"/>
    <path class="fil0" d="M1514 1423l237 -112c23,1 52,1 72,1l-253 119 -18 0c-16,0 -29,-2 -39,-8zm340 -161l101 -48 6 0 6 0 2 0 2 0 2 0 2 0 2 0 2 0 2 0 2 0 6 0c2,0 4,0 6,0 2,0 4,0 6,0 2,0 4,0 6,0 2,0 4,0 6,0 2,0 4,0 6,-1 2,0 4,0 6,-1 2,0 4,-1 6,-1 2,0 4,-1 5,-1 2,-1 3,-1 5,-2l0 0 -112 53c-23,0 -51,0 -75,0z"/>
    <path class="fil0" d="M1514 1423l237 -112c23,1 52,1 72,1l-253 119 -18 0c-16,0 -29,-2 -39,-8zm340 -161l101 -48 6 0 6 0 2 0 2 0 2 0 2 0 2 0 2 0 2 0 2 0 6 0c2,0 4,0 6,0 2,0 4,0 6,0 2,0 4,0 6,0 2,0 4,0 6,0 2,0 4,0 6,-1 2,0 4,0 6,-1 2,0 4,-1 6,-1 2,0 4,-1 5,-1 2,-1 3,-1 5,-2l0 0 -112 53c-23,0 -51,0 -75,0z"/>
    <path class="fil0" d="M1491 1173l304 -148 -3 3c-6,3 -5,2 -5,3l-295 144 0 -2z"/>
    <path class="fil0" d="M1493 1375l226 -107c-2,1 -3,2 -4,3 -9,9 -7,26 0,33l0 0 -217 103c-1,-2 -2,-5 -3,-8 -1,-2 -1,-11 -2,-23zm303 -112l4 0c-1,0 -3,0 -4,0z"/>
    <path class="fil0" d="M1498 1407l217 -103c12,12 113,8 132,8 8,0 20,0 35,0l-253 119 -75 0c-27,0 -46,-6 -55,-24z"/>
    <path class="fil0" d="M1498 1407l217 -103c0,0 1,1 1,1 1,0 1,1 2,1 1,0 1,1 2,1 1,0 2,1 3,1 1,0 2,1 3,1 1,0 2,0 3,1 1,0 3,0 4,1 1,0 3,0 4,1 1,0 3,0 4,0 2,0 3,0 5,0 2,0 3,0 5,0l5 0 5 0 5 0 5 0 5 0 5 0 5 0 5 0 5 0 5 0 5 0 5 0 5 0 5 0 4 0 4 0 4 0 3 0 3 0 2 0 2 0 -254 119 -40 0c-27,0 -46,-6 -55,-25z"/>
    <path class="fil0" d="M1493 1376l222 -105c-1,1 -2,2 -3,4 -1,1 -1,3 -2,4 0,1 -1,3 -1,5 0,2 0,3 0,5 0,2 0,3 1,5 0,1 1,3 1,4 0,1 1,3 2,4 1,1 1,2 2,3l-217 103c-1,-2 -2,-5 -3,-8 -1,-2 -1,-10 -2,-22z"/>
    <path class="fil0" d="M1592 1431l254 -119 3 0 3 0 4 0 4 0 4 0 5 0 5 0 5 0 5 0 5 0 6 0 6 0 6 0 6 0 6 0 6 0 6 0 6 0 6 0 5 0 5 0c2,0 3,0 5,0 2,0 3,0 5,0 2,0 3,0 4,0 1,0 3,0 4,-1 1,0 3,0 4,-1 1,0 2,0 3,-1 1,0 2,0 3,-1 1,0 2,-1 3,-1 1,0 2,-1 2,-1l-268 125 -125 0z"/>
    <path class="fil0" d="M1493 1375l226 -107c0,0 -1,0 -1,1 -1,1 -2,1 -3,2l-222 105 0 -1z"/>
    <path class="fil0" d="M1491 1288l167 -80c2,1 5,2 7,3l-174 84 0 -6zm251 -121l103 -49c1,1 1,1 2,1 1,0 1,1 2,1 1,0 1,0 1,0 0,0 1,0 1,0 0,0 1,0 1,0l0 0 -98 47 -13 0z"/>
    <path class="fil0" d="M1495 1399l2 4c1,1 1,3 2,4l2 4c1,1 2,2 2,3l3 3c1,1 2,2 3,3l3 2c1,1 2,1 4,2l4 2c1,1 3,1 4,1l4 1c1,0 3,1 5,1l5 1c2,0 3,0 5,1l5 0c2,0 4,0 6,0l-6 0c-2,0 -4,0 -5,0l-5 -1c-2,0 -3,0 -5,-1l-5 -1c-1,0 -3,-1 -4,-1l-4 -1c-1,-1 -3,-1 -4,-2l-4 -2c-1,-1 -2,-2 -3,-2l-3 -3c-1,-1 -2,-2 -3,-3l-2 -3c-1,-1 -1,-2 -2,-4l-2 -4c-1,-1 -1,-3 -2,-4z"/>
    <polygon class="fil0" points="1491,1279 1651,1202 1654,1205 1491,1283 "/>
    <polygon class="fil0" points="1491,1275 1648,1199 1651,1202 1491,1279 "/>
    <polygon class="fil0" points="1491,1271 1645,1197 1648,1199 1491,1275 "/>
    <polygon class="fil0" points="1491,1264 1643,1191 1645,1197 1491,1271 "/>
    <path class="fil0" d="M1491 1260l149 -72 0 1 0 0 0 0 0 0 0 0 0 0c0,0 0,0 0,1 0,0 0,0 0,0 0,0 0,0 0,0 0,0 0,0 1,0l0 0 0 0 0 0 0 0 0 0 0 0 0 0 0 0 1 0 -152 73 0 -5z"/>
    <polygon class="fil0" points="1491,1245 1637,1175 1640,1188 1491,1260 "/>
    <path class="fil0" d="M1491 1195l143 -70c0,1 0,3 0,5l-143 69 0 -4z"/>
    <path class="fil0" d="M1491 1187l145 -71c-1,2 -1,4 -2,6l-144 70 0 -5z"/>
    <path class="fil0" d="M1491 1174l301 -146 -3 1 -1 1c-1,1 -1,0 -1,1l-295 144 0 0z"/>
    <path class="fil0" d="M1491 1174l295 -144c0,0 0,0 0,0l-295 144 0 0zm297 -144l2 -1 -1 1 0 0z"/>
    <path class="fil0" d="M1491 1174l295 -144 0 0c0,0 0,0 0,0l0 0 0 0 0 0 0 0 0 1 -1 2 -1 3 -123 60c-10,0 -17,3 -21,10l-149 73 0 -5z"/>
    <polygon class="fil0" points="1491,1173 1795,1025 1791,1028 1491,1174 "/>
    <polygon class="fil0" points="1491,1173 1795,1025 1791,1028 1491,1174 "/>
    <path class="fil0" d="M1491 1185l146 -71c-4,8 -3,19 -3,30 0,11 -2,22 3,30l-146 71c0,-19 0,-39 0,-60z"/>
    <polygon class="fil0" points="1491,1016 1830,848 1828,854 1491,1020 "/>
    <path class="fil0" d="M1491 1008l349 -173 -1 1 0 0 0 0 0 0 0 0 0 0c-1,0 -1,1 -2,1 -1,0 -1,1 -1,1 0,0 -1,1 -1,1 0,0 -1,1 -1,1 0,0 0,1 -1,2 0,1 0,1 -1,2l0 1 0 0 0 0 0 0 0 0 -339 168 0 -8z"/>
    <path class="fil0" d="M1491 1005l349 -173c0,0 0,0 0,0 0,0 0,0 0,1l0 0 0 0 0 0 0 0 0 0 0 0 0 0 0 0 0 1 -349 173 0 -3z"/>
    <path class="fil0" d="M1491 1185l146 -71c-4,8 -3,19 -3,30 0,11 -2,22 3,30l-146 71c0,-19 0,-39 0,-60z"/>
    <path class="fil0" d="M1491 1179l149 -73c-1,1 -1,2 -2,3l-148 72 0 -2zm170 -83l123 -60 -3 4 -115 56c-2,0 -3,0 -5,0z"/>
    <path class="fil0" d="M1491 1283l162 -78c1,1 3,2 4,3 2,1 3,2 5,2 2,1 3,1 5,2 2,1 3,1 5,1 2,0 4,1 5,1 2,0 4,1 6,1 2,0 4,0 6,1 2,0 4,0 6,0 2,0 4,0 6,0 2,0 4,0 6,0l6 0 2 0 2 0 2 0 2 0 2 0 2 0 2 0 2 0 2 0 2 0 2 0 2 0 6 0 6 0 -254 121c0,-16 0,-34 -1,-54z"/>
    <path class="fil0" d="M1491 1283l162 -78c1,1 3,2 4,3 2,1 3,2 5,2 2,1 3,1 5,2 2,1 3,1 5,1 2,0 4,1 5,1 2,0 4,1 6,1 2,0 4,0 6,1 2,0 4,0 6,0 2,0 4,0 6,0 2,0 4,0 6,0l6 0 2 0 2 0 2 0 2 0 2 0 2 0 2 0 2 0 2 0 2 0 2 0 2 0 6 0 6 0 -254 121c0,-16 0,-34 -1,-54z"/>
    <polygon class="fil0" points="1491,1271 1645,1197 1648,1199 1491,1275 "/>
    <path class="fil0" d="M1491 1214l143 -69 0 4 0 1 0 1 0 1 0 1 0 1 0 1 0 1c0,1 0,3 0,4 0,1 0,3 0,4 0,1 0,3 0,4 0,1 0,2 1,4 0,1 1,2 1,3 0,1 1,2 1,3l-146 71 0 -31z"/>
    <path class="fil0" d="M1491 1185l146 -71c-1,1 -1,2 -1,3 0,1 -1,2 -1,3 0,1 0,2 -1,4 0,1 0,2 0,4 0,1 0,3 0,4 0,1 0,3 0,4l0 1 0 1 0 3 0 4 -143 69 0 -29z"/>
    <path class="fil0" d="M1517 718l-4 2c-1,1 -2,2 -3,2l-3 3c-1,1 -2,2 -3,3l-2 3c-1,1 -1,2 -2,3l-2 4c-1,1 -1,3 -2,4l-1 4c0,1 -1,3 -1,5l-1 5c0,2 0,3 -1,5l0 5c0,2 0,4 0,6l0 -6c0,-2 0,-4 0,-5l1 -5c0,-2 0,-3 1,-5l1 -5c0,-1 1,-3 1,-4l2 -4c1,-1 1,-3 2,-4l2 -3c1,-1 2,-2 2,-3l3 -3c1,-1 2,-2 3,-3l3 -2c1,-1 2,-1 4,-2z"/>
    <path class="fil0" d="M1491 1175l156 -76c-1,1 -2,2 -3,3 -1,1 -2,2 -3,3 -1,1 -2,3 -2,4 -1,2 -1,3 -1,5l-146 71 0 -10z"/>
    <path class="fil0" d="M1491 1175l156 -76c-1,1 -2,2 -3,3 -1,1 -2,2 -3,3 -1,1 -2,3 -2,4 -1,2 -1,3 -1,5l-146 71 0 -10z"/>
    <path class="fil0" d="M1492 1325l0 17c0,5 0,10 0,15l0 13c0,4 0,8 0,11l0 8c0,2 0,4 1,6l1 3c0,-1 0,-2 -1,-3l-1 -6c0,-2 0,-5 0,-8l0 -11c0,-4 0,-8 0,-13l0 -15c0,-5 0,-11 0,-17z"/>
   </g>
   <g>
    <path class="fil0" d="M1395 1143l96 -47c0,148 0,291 4,302 8,24 27,32 58,32l269 0c33,0 159,2 253,2l-310 142 -369 0 0 -432z"/>
    <polygon class="fil0" points="1395,1265 1491,1219 1491,1227 1395,1273 "/>
    <polygon class="fil0" points="1395,1402 1492,1356 1492,1356 1395,1402 "/>
    <polygon class="fil0" points="1395,1266 1491,1220 1491,1221 1395,1268 "/>
    <polygon class="fil0" points="1395,1510 1563,1431 1565,1431 1395,1511 "/>
    <path class="fil0" d="M1395 1293l96 -46c0,11 0,22 0,33l-96 46 0 -32z"/>
    <polygon class="fil0" points="1395,1509 1560,1431 1563,1431 1395,1510 "/>
    <polygon class="fil0" points="1395,1289 1491,1242 1491,1247 1395,1293 "/>
    <polygon class="fil0" points="1395,1402 1492,1356 1492,1356 1395,1402 "/>
    <polygon class="fil0" points="1395,1405 1492,1359 1492,1360 1395,1406 "/>
    <path class="fil0" d="M1395 1085l96 -47c0,20 0,39 0,59l-96 47 0 -59z"/>
    <path class="fil0" d="M1395 730l316 -162 114 0 -285 145c-8,0 -13,1 -15,1 -12,4 -20,10 -25,19l-105 53 0 -57z"/>
    <polygon class="fil0" points="1395,1263 1491,1217 1491,1220 1395,1266 "/>
    <polygon class="fil0" points="1395,1326 1491,1280 1491,1294 1395,1340 "/>
    <polygon class="fil0" points="1395,1510 1562,1431 1565,1431 1395,1511 "/>
    <path class="fil0" d="M1395 1503l152 -72c1,0 3,0 4,0l-156 74 0 -2z"/>
    <polygon class="fil0" points="1395,1505 1551,1431 1553,1431 1554,1431 1395,1506 "/>
    <polygon class="fil0" points="1395,1289 1491,1242 1491,1247 1395,1293 "/>
    <polygon class="fil0" points="1395,1266 1491,1220 1491,1221 1395,1268 "/>
    <polygon class="fil0" points="1395,1263 1491,1217 1491,1220 1395,1266 "/>
    <polygon class="fil0" points="1395,1278 1491,1232 1491,1242 1395,1289 "/>
    <path class="fil0" d="M1395 787l105 -53c-1,2 -2,4 -3,6l-102 52 0 -5zm145 -74l285 -145 10 0 -284 145c-4,0 -7,0 -10,0z"/>
    <path class="fil0" d="M1395 781l115 -59c-13,10 -18,27 -18,51 0,42 -1,150 -1,265l-96 47 0 -304z"/>
    <polygon class="fil0" points="1395,1062 1491,1015 1491,1019 1395,1067 "/>
    <polygon class="fil0" points="1395,1067 1491,1019 1491,1037 1395,1084 "/>
    <polygon class="fil0" points="1395,1266 1491,1220 1491,1223 1395,1269 "/>
    <path class="fil0" d="M1395 1090l96 -47c0,61 0,124 0,180l-96 46 0 -179z"/>
    <polygon class="fil0" points="1395,1273 1491,1227 1491,1232 1395,1278 "/>
    <polygon class="fil0" points="1395,1334 1491,1288 1491,1294 1395,1340 "/>
    <polygon class="fil0" points="1395,1340 1491,1294 1491,1294 1395,1340 "/>
    <polygon class="fil0" points="1395,1084 1491,1037 1491,1043 1395,1090 "/>
    <polygon class="fil0" points="1395,1068 1491,1020 1491,1022 1395,1069 "/>
    <polygon class="fil0" points="1395,1084 1491,1037 1491,1043 1395,1090 "/>
    <path class="fil0" d="M1395 1434l98 -47c0,6 1,10 1,12 5,17 17,26 34,30l-133 63 0 -58z"/>
    <polygon class="fil0" points="1395,1062 1491,1015 1491,1019 1395,1067 "/>
    <polygon class="fil0" points="1395,1055 1491,1008 1491,1015 1395,1062 "/>
    <polygon class="fil0" points="1408,1575 1717,1431 1718,1431 1410,1575 "/>
    <path class="fil0" d="M1764 1575l310 -142c53,0 95,-1 104,-4 2,0 3,-1 4,-2l-325 148 -94 0z"/>
    <polygon class="fil0" points="1395,713 1679,568 1715,568 1395,732 "/>
    <polygon class="fil0" points="1395,651 1556,568 1679,568 1395,713 "/>
    <polygon class="fil0" points="1395,619 1495,568 1556,568 1395,651 "/>
    <polygon class="fil0" points="1395,1540 1628,1431 1717,1431 1408,1575 1395,1575 "/>
    <polygon class="fil0" points="1395,1402 1492,1356 1492,1356 1395,1402 "/>
    <polygon class="fil0" points="1395,1510 1562,1431 1569,1431 1395,1513 "/>
    <polygon class="fil0" points="1395,1402 1492,1356 1492,1357 1395,1404 "/>
    <polygon class="fil0" points="1395,1068 1491,1020 1491,1022 1395,1069 "/>
    <path class="fil0" d="M1395 1068l96 -47c0,60 0,122 0,179l-95 46 0 -177z"/>
    <polygon class="fil0" points="1395,1227 1491,1181 1491,1182 1395,1228 "/>
    <polygon class="fil0" points="1395,1228 1491,1182 1491,1186 1395,1233 "/>
    <polygon class="fil0" points="1395,1221 1491,1175 1491,1181 1395,1227 "/>
    <polygon class="fil0" points="1395,1220 1491,1174 1491,1175 1395,1221 "/>
    <polygon class="fil0" points="1395,1220 1491,1174 1491,1175 1395,1221 "/>
    <path class="fil0" d="M1395 1283l96 -46c0,18 0,36 0,52l-96 46 0 -51z"/>
    <polygon class="fil0" points="1395,1306 1491,1260 1491,1264 1395,1310 "/>
    <polygon class="fil0" points="1395,1321 1491,1275 1491,1279 1395,1325 "/>
    <polygon class="fil0" points="1395,1325 1491,1279 1491,1283 1395,1329 "/>
    <polygon class="fil0" points="1395,1273 1491,1227 1491,1232 1395,1278 "/>
    <polygon class="fil0" points="1395,1228 1491,1182 1491,1186 1395,1233 "/>
    <polygon class="fil0" points="1395,1221 1491,1175 1491,1181 1395,1227 "/>
    <polygon class="fil0" points="1395,1233 1491,1186 1491,1199 1395,1245 "/>
    <polygon class="fil0" points="1395,1227 1491,1181 1491,1182 1395,1229 "/>
    <polygon class="fil0" points="1395,1227 1491,1181 1491,1182 1395,1229 "/>
    <path class="fil0" d="M1395 1227l95 -46c0,19 0,38 0,55l-96 46 0 -55z"/>
    <polygon class="fil0" points="1395,1063 1491,1016 1491,1020 1395,1068 "/>
    <polygon class="fil0" points="1395,1053 1491,1005 1491,1008 1395,1056 "/>
    <polygon class="fil0" points="1395,1228 1491,1181 1491,1186 1395,1232 "/>
    <polygon class="fil0" points="1395,1292 1491,1245 1491,1260 1395,1306 "/>
    <polygon class="fil0" points="1395,1306 1491,1260 1491,1264 1395,1310 "/>
    <polygon class="fil0" points="1395,1310 1491,1264 1491,1271 1395,1317 "/>
    <polygon class="fil0" points="1395,1317 1491,1271 1491,1275 1395,1321 "/>
    <polygon class="fil0" points="1395,1321 1491,1275 1491,1279 1395,1325 "/>
    <polygon class="fil0" points="1395,1325 1491,1279 1491,1283 1395,1329 "/>
    <polygon class="fil0" points="1395,1340 1491,1294 1491,1294 1395,1340 "/>
    <polygon class="fil0" points="1395,1505 1551,1431 1553,1431 1554,1431 1395,1506 "/>
    <polygon class="fil0" points="1395,1404 1492,1357 1492,1359 1395,1405 "/>
    <polygon class="fil0" points="1395,1405 1492,1359 1492,1360 1395,1406 "/>
    <path class="fil0" d="M1395 1406l97 -46c1,22 1,36 2,39 2,5 4,10 7,14l-106 50 0 -57z"/>
    <path class="fil0" d="M1395 1406l97 -46c1,22 1,36 2,39 2,5 4,10 7,14l-106 50 0 -57z"/>
    <polygon class="fil0" points="1395,1405 1492,1359 1492,1360 1395,1406 "/>
    <polygon class="fil0" points="1395,1404 1492,1357 1492,1359 1395,1405 "/>
    <polygon class="fil0" points="1395,1402 1492,1356 1492,1357 1395,1404 "/>
    <polygon class="fil0" points="1395,1225 1491,1179 1491,1181 1395,1227 "/>
    <path class="fil0" d="M1857 1575l322 -147c2,0 3,-1 4,-2l-325 148 -1 0z"/>
    <path class="fil0" d="M1512 1575l310 -144 5 0 7 0 8 0 9 0 10 0 11 0 12 0 12 0 13 0 14 0 14 0 14 0 15 0 15 0 15 0 15 0 15 0 15 0 14 0 14 0 14 0 13 0 13 0 12 0c4,0 8,0 11,0 4,0 7,0 10,0 3,0 6,0 9,0 3,0 6,0 8,0 3,0 5,0 7,-1 2,0 4,0 6,-1 2,0 3,0 5,-1 1,0 2,0 3,-1l-322 147 -346 0z"/>
    <polygon class="fil0" points="1395,1402 1492,1356 1492,1357 1395,1404 "/>
    <path class="fil0" d="M1395 1383l96 -46c1,35 1,58 3,62 4,12 10,20 19,25l-119 56 0 -97z"/>
    <path class="fil0" d="M1395 1383l96 -46c1,35 1,58 3,62 4,12 10,20 19,25l-119 56 0 -97z"/>
    <path class="fil0" d="M1395 780l121 -62c-2,1 -4,3 -6,4l-115 59 0 -1z"/>
    <path class="fil0" d="M1395 1479l119 -56c10,6 23,8 39,8l18 0 -175 82 0 -34z"/>
    <path class="fil0" d="M1395 1479l119 -56c10,6 23,8 39,8l18 0 -175 82 0 -34z"/>
    <polygon class="fil0" points="1395,1219 1491,1173 1491,1175 1395,1221 "/>
    <path class="fil0" d="M1395 1422l97 -46c0,13 1,21 2,23 1,3 2,6 3,8l-103 49 0 -34z"/>
    <path class="fil0" d="M1395 1455l103 -49c9,18 28,25 55,24l75 0 -233 109 0 -85z"/>
    <path class="fil0" d="M1395 1455l102 -49c9,18 28,25 55,25l40 0 -197 93 0 -69z"/>
    <path class="fil0" d="M1395 1423l97 -46c0,12 1,20 2,22 1,3 2,5 3,8l-102 49 0 -32z"/>
    <polygon class="fil0" points="1395,1524 1592,1431 1718,1431 1410,1575 1395,1575 "/>
    <polygon class="fil0" points="1395,1422 1493,1375 1493,1376 1395,1423 "/>
    <polygon class="fil0" points="1395,1505 1553,1431 1822,1431 1512,1575 1395,1575 "/>
    <polygon class="fil0" points="1395,1334 1491,1288 1491,1294 1395,1340 "/>
    <path class="fil0" d="M1395 1446l99 -47c0,2 1,3 2,4 1,1 1,3 2,4 1,1 1,3 2,4 1,1 2,2 2,3 1,1 2,2 3,3 1,1 2,2 3,3 1,1 2,2 3,2 1,1 2,1 4,2 1,1 2,1 4,2 1,1 3,1 4,1 1,0 3,1 4,1 1,0 3,1 5,1 2,0 3,1 5,1 2,0 3,0 5,1 2,0 4,0 5,0 2,0 4,0 6,0l-158 74 0 -60z"/>
    <polygon class="fil0" points="1395,1325 1491,1279 1491,1283 1395,1329 "/>
    <polygon class="fil0" points="1395,1321 1491,1275 1491,1279 1395,1325 "/>
    <polygon class="fil0" points="1395,1317 1491,1271 1491,1275 1395,1321 "/>
    <polygon class="fil0" points="1395,1310 1491,1264 1491,1271 1395,1317 "/>
    <polygon class="fil0" points="1395,1306 1491,1260 1491,1264 1395,1310 "/>
    <polygon class="fil0" points="1395,1292 1491,1245 1491,1260 1395,1306 "/>
    <polygon class="fil0" points="1395,1241 1491,1195 1491,1199 1395,1246 "/>
    <polygon class="fil0" points="1395,1233 1491,1187 1491,1191 1395,1238 "/>
    <polygon class="fil0" points="1395,1220 1491,1174 1491,1174 1395,1221 "/>
    <polygon class="fil0" points="1395,1221 1491,1174 1491,1174 1395,1221 "/>
    <polygon class="fil0" points="1395,1221 1491,1174 1491,1179 1395,1225 "/>
    <polygon class="fil0" points="1395,1219 1491,1173 1491,1174 1395,1220 "/>
    <polygon class="fil0" points="1395,1219 1491,1173 1491,1174 1395,1220 "/>
    <path class="fil0" d="M1395 1232l95 -46c0,21 0,41 0,60l-96 46 0 -60z"/>
    <polygon class="fil0" points="1395,1063 1491,1016 1491,1020 1395,1068 "/>
    <polygon class="fil0" points="1395,1056 1491,1008 1491,1016 1395,1063 "/>
    <polygon class="fil0" points="1395,1053 1491,1005 1491,1008 1395,1056 "/>
    <path class="fil0" d="M1395 1232l95 -46c0,21 0,41 0,60l-96 46 0 -60z"/>
    <polygon class="fil0" points="1395,1225 1491,1179 1491,1181 1395,1227 "/>
    <path class="fil0" d="M1395 1329l96 -46c0,20 0,38 1,54l-96 46 0 -54z"/>
    <path class="fil0" d="M1395 1329l96 -46c0,20 0,38 1,54l-96 46 0 -54z"/>
    <polygon class="fil0" points="1395,1317 1491,1271 1491,1275 1395,1321 "/>
    <polygon class="fil0" points="1395,1260 1491,1214 1491,1245 1395,1292 "/>
    <polygon class="fil0" points="1395,1232 1491,1185 1491,1214 1395,1260 "/>
    <path class="fil0" d="M1395 780l121 -62c-1,1 -3,1 -4,2 -1,1 -2,2 -3,2 -1,1 -2,2 -3,3 -1,1 -2,2 -3,3 -1,1 -2,2 -2,3 -1,1 -1,2 -2,3 -1,1 -1,2 -2,4 -1,1 -1,3 -2,4 0,1 -1,3 -1,4 0,1 -1,3 -1,5 0,2 -1,3 -1,5 0,2 0,3 -1,5 0,2 0,4 0,5 0,2 0,4 0,6l-97 49 0 -42z"/>
    <polygon class="fil0" points="1395,1222 1491,1175 1491,1185 1395,1232 "/>
    <polygon class="fil0" points="1395,1222 1491,1175 1491,1185 1395,1232 "/>
    <path class="fil0" d="M1395 822l97 -49 0 11 0 13 0 15 0 17 0 19 0 20 0 21 0 23 0 24 0 25 0 25 0 26 0 26 0 27 0 27 0 13 0 13 0 0 0 13 0 13 0 26 0 25 0 25 0 24 0 23 0 21 0 20 0 19c0,6 0,12 0,17 0,5 0,10 0,15 0,5 0,9 0,13 0,4 0,8 0,11 0,3 0,6 0,8 0,2 0,4 1,6 0,2 0,3 1,3l-99 47 0 -624z"/>
   </g>
   <g>
    <path class="fil0" d="M1637 1114l0 61 3 13 3 3 2 5 3 3 3 3c4,0 3,-1 3,3 23,15 60,10 92,10l209 0c33,0 72,6 95,-10 0,-4 -1,-3 3,-3l3 -3 3 -3 2 -5 3 -3 3 -13 0 -60c-2,-14 -12,-20 -29,-19l-4 2 -2 0 -3 3 -2 2 -3 3c-6,15 -3,42 -3,60l-336 0c0,-19 2,-45 -3,-60l-3 -3 -2 -2 -3 -3 -2 0 -4 -2c-17,-1 -26,4 -30,18z"/>
    <path class="fil0" d="M1637 1148l47 -23c0,3 0,6 0,9l-47 23 0 -9z"/>
    <path class="fil0" d="M1786 1215l101 -48 1 0 -101 48 -1 0zm245 -117l0 0 1 0 -2 1 1 -1z"/>
    <polygon class="fil0" points="1637,1149 1684,1126 1684,1128 1637,1151 "/>
    <path class="fil0" d="M2023 1215l27 -13c0,0 0,1 0,1l-23 11c-1,0 -3,0 -4,1zm28 -13l5 -2 -3 3c-1,0 -2,0 -2,0z"/>
    <path class="fil0" d="M1637 1177l47 -23c0,5 0,9 0,13l41 0 -71 34c0,0 -1,0 -3,0l-3 -3 -3 -3 -2 -5 -3 -3 -2 -11z"/>
    <path class="fil0" d="M2019 1215l40 -19 -3 3 -5 2c-1,0 -1,0 -1,0l-27 13c-1,0 -3,0 -4,1z"/>
    <polygon class="fil0" points="1637,1172 1684,1149 1684,1154 1637,1177 1637,1175 "/>
    <path class="fil0" d="M1786 1215l101 -48 1 0 -101 48 -1 0zm245 -117l0 0 1 0 -2 1 1 -1z"/>
    <polygon class="fil0" points="1793,1215 1894,1167 1897,1167 1795,1215 "/>
    <path class="fil0" d="M1637 1146l47 -23c0,1 0,2 0,3l-47 23 0 -3z"/>
    <path class="fil0" d="M1653 1202l71 -34 31 0 -91 43c-4,-1 -8,-3 -12,-6 0,-2 0,-3 0,-3z"/>
    <path class="fil0" d="M2022 1215l28 -13c0,0 0,1 0,1l-23 11c-2,0 -3,1 -5,1zm29 -13l1 0c-1,0 -1,0 -1,0z"/>
    <path class="fil0" d="M2004 1216l60 -28 -3 3 -53 25c-2,0 -3,0 -5,0z"/>
    <path class="fil0" d="M2008 1216l53 -25 -1 2 -49 23c-1,0 -2,0 -3,0z"/>
    <polygon class="fil0" points="1637,1172 1684,1149 1684,1154 1637,1177 1637,1175 "/>
    <polygon class="fil0" points="1637,1149 1684,1126 1684,1128 1637,1151 "/>
    <path class="fil0" d="M1637 1146l47 -23c0,1 0,2 0,3l-47 23 0 -3z"/>
    <path class="fil0" d="M1637 1161l47 -23c0,4 0,7 0,11l-47 23 0 -11z"/>
    <polygon class="fil0" points="1637,1149 1684,1126 1684,1129 1637,1152 "/>
    <path class="fil0" d="M1684 1129l-47 23 0 -38c3,-14 13,-19 30,-18l4 2 2 0 3 3 2 2 3 3c2,6 3,14 4,22z"/>
    <path class="fil0" d="M1637 1157l47 -23c0,2 0,3 0,5l-47 23 0 -5z"/>
    <path class="fil0" d="M1658 1208l84 -40 13 0 -90 43c-2,-1 -5,-2 -7,-3z"/>
    <polygon class="fil0" points="1665,1211 1755,1167 1756,1167 1665,1211 "/>
    <path class="fil0" d="M1855 1215l101 -48 63 0c0,-9 -1,-19 -1,-30l47 -22 0 60 -87 41c-8,0 -17,-1 -25,-1l-100 0z"/>
    <path class="fil0" d="M1786 1215l101 -48 1 0 -101 48 -1 0zm245 -117l0 0 1 0 -2 1 1 -1z"/>
    <path class="fil0" d="M2022 1215l28 -13c0,0 0,0 0,0l0 1 0 0 0 0 0 0 0 0 0 0 0 0 0 0 0 0 0 1 -15 7c-4,1 -8,2 -13,3z"/>
    <polygon class="fil0" points="1786,1215 1887,1167 1892,1167 1790,1215 "/>
    <path class="fil0" d="M1680 1107l-44 21 0 -14c3,-14 13,-19 30,-18l4 2 2 0 3 3 2 2 3 3z"/>
    <path class="fil0" d="M1639 1109l27 -13 1 0 1 0 -29 14c0,-1 0,-1 1,-1z"/>
    <path class="fil0" d="M1638 1110l29 -14 3 2 1 0 -35 17 0 -1c0,-1 1,-3 1,-4z"/>
    <path class="fil0" d="M1666 1096l-27 13c4,-10 13,-14 27,-13z"/>
    <path class="fil0" d="M1637 1166l47 -23c0,9 0,17 0,24l59 0 -84 40c-2,-1 -3,-2 -5,-3 0,-4 1,-3 -3,-3l-3 -3 -3 -3 -2 -5 -3 -3 -3 -13 0 -9z"/>
    <path class="fil0" d="M1651 1202l1 0c0,0 -1,0 -1,0zm3 2l0 1c0,-1 0,-1 0,-1z"/>
    <path class="fil0" d="M1637 1157l47 -23c0,2 0,3 0,5l-47 23 0 -5z"/>
    <path class="fil0" d="M1638 1110l29 -14 3 2 1 0 -35 17 0 -1c0,-1 1,-3 1,-4z"/>
    <path class="fil0" d="M1666 1096l-27 13c4,-10 13,-14 27,-13z"/>
    <polygon class="fil0" points="1637,1115 1672,1098 1672,1099 1675,1102 1677,1104 1680,1107 1637,1128 "/>
    <path class="fil0" d="M1639 1109l27 -13 1 0 1 1 -29 14c0,-1 0,-1 1,-2z"/>
    <path class="fil0" d="M1639 1109l27 -13 1 0 1 1 -29 14c0,-1 0,-1 1,-2z"/>
    <path class="fil0" d="M1639 1109l27 -13 1 0 4 2 2 0 3 3 2 2 3 3c3,9 4,23 4,36l-47 23 0 -51c0,-2 1,-4 2,-5z"/>
    <path class="fil0" d="M1638 1110l28 -14 4 2 -34 16 0 0c0,-2 1,-3 1,-5z"/>
    <path class="fil0" d="M1651 1202l1 0c0,0 -1,0 -1,0zm3 2l0 1c0,-1 0,-1 0,-1z"/>
    <polygon class="fil0" points="1665,1211 1755,1167 1756,1167 1665,1211 "/>
    <path class="fil0" d="M2008 1216l53 -25 -1 2 -49 23c-1,0 -2,0 -3,0z"/>
    <polygon class="fil0" points="1790,1215 1892,1167 1894,1167 1793,1215 "/>
    <polygon class="fil0" points="1793,1215 1894,1167 1897,1167 1795,1215 "/>
    <path class="fil0" d="M1795 1215l101 -48 123 0 -102 48 -123 0zm227 -108l-1 3c0,1 -1,2 -1,3l-1 3c0,1 0,2 0,4l0 4c0,1 0,3 0,4l0 4c0,1 0,3 0,4l0 4c0,-1 0,-3 0,-4l0 -4c0,-1 0,-3 0,-4l0 -4c0,-1 0,-3 0,-4l0 -4c0,-1 0,-2 1,-3l1 -3c0,-1 1,-2 1,-3z"/>
    <path class="fil0" d="M1795 1215l101 -48 123 0 -102 48 -123 0zm227 -108l-1 3c0,1 -1,2 -1,3l-1 3c0,1 0,2 0,4l0 4c0,1 0,3 0,4l0 4c0,1 0,3 0,4l0 4c0,-1 0,-3 0,-4l0 -4c0,-1 0,-3 0,-4l0 -4c0,-1 0,-3 0,-4l0 -4c0,-1 0,-2 1,-3l1 -3c0,-1 1,-2 1,-3z"/>
    <polygon class="fil0" points="1793,1215 1894,1167 1897,1167 1795,1215 "/>
    <polygon class="fil0" points="1790,1215 1892,1167 1894,1167 1793,1215 "/>
    <polygon class="fil0" points="1786,1215 1887,1167 1892,1167 1790,1215 "/>
    <path class="fil0" d="M1640 1106l21 -10c2,0 3,0 5,0l-27 13c0,-1 1,-2 2,-3z"/>
    <polygon class="fil0" points="1786,1215 1887,1167 1892,1167 1790,1215 "/>
    <path class="fil0" d="M1987 1216l6 0c2,0 4,0 6,0l6 0c2,0 4,0 6,0l6 -1c2,0 4,0 6,-1l6 -1c2,0 4,-1 5,-1l5 -2 0 0 5 -2 -5 2c-2,1 -3,1 -5,2l-5 1c-2,0 -4,1 -6,1l-6 1c-2,0 -4,0 -6,1l-6 0c-2,0 -4,0 -6,0l-6 0c-2,0 -4,0 -6,0z"/>
    <path class="fil0" d="M1987 1216l6 0c2,0 4,0 6,0l6 0c2,0 4,0 6,0l6 -1c2,0 4,0 6,-1l6 -1c2,0 4,-1 5,-1l5 -2 0 0 5 -2 -5 2c-2,1 -3,1 -5,2l-5 1c-2,0 -4,1 -6,1l-6 1c-2,0 -4,0 -6,1l-6 0c-2,0 -4,0 -6,0l-6 0c-2,0 -4,0 -6,0z"/>
    <path class="fil0" d="M1658 1208l84 -40 13 0 -91 43c-2,-1 -5,-2 -7,-3z"/>
    <polygon class="fil0" points="1637,1124 1677,1104 1681,1107 1637,1128 "/>
    <polygon class="fil0" points="1637,1116 1672,1099 1675,1102 1637,1120 "/>
    <path class="fil0" d="M1661 1096l-21 10c4,-7 11,-10 21,-10z"/>
    <path class="fil0" d="M1640 1106l21 -10c2,0 3,0 5,0l-27 13c0,-1 1,-2 2,-3z"/>
    <path class="fil0" d="M1654 1205l4 3c2,1 3,2 5,2l5 2c2,1 3,1 5,1l5 1c2,0 4,1 6,1l6 1c2,0 4,0 6,0l6 0c2,0 4,0 6,0l-6 0c-2,0 -4,0 -6,0l-6 0c-2,0 -4,0 -6,-1l-6 -1c-2,0 -4,-1 -5,-1l-5 -1c-2,-1 -3,-1 -5,-2l-5 -2c-2,-1 -3,-2 -4,-3z"/>
    <path class="fil0" d="M1654 1205l4 3c2,1 3,2 5,2l5 2c2,1 3,1 5,1l5 1c2,0 4,1 6,1l6 1c2,0 4,0 6,0l6 0c2,0 4,0 6,0l-6 0c-2,0 -4,0 -6,0l-6 0c-2,0 -4,0 -6,-1l-6 -1c-2,0 -4,-1 -5,-1l-5 -1c-2,-1 -3,-1 -5,-2l-5 -2c-2,-1 -3,-2 -4,-3z"/>
    <path class="fil0" d="M1647 1100l-3 3c-1,1 -2,2 -3,3l-2 4c-1,2 -1,3 -1,5l1 -5c1,-2 1,-3 2,-4l3 -3c1,-1 2,-2 3,-3z"/>
    <path class="fil0" d="M1647 1100l-3 3c-1,1 -2,2 -3,3l-2 4c-1,2 -1,3 -1,5l1 -5c1,-2 1,-3 2,-4l3 -3c1,-1 2,-2 3,-3z"/>
   </g>
   <g>
    <path class="fil0" d="M1828 931l48 -24 0 129 10 -8c4,0 3,1 3,-3l18 0c0,4 -1,3 4,3l8 7 3 4c2,26 -15,34 -27,46 -8,8 -26,30 -37,33l-13 0c-10,-3 -31,-27 -39,-34 -11,-11 -29,-21 -25,-44 4,0 3,1 3,-4 4,-9 -1,-3 7,-8l3 -3 3 0 13 0 3 0c0,4 -1,3 3,3l11 8 0 -104z"/>
    <path class="fil0" d="M1794 1072l83 -40 0 4 10 -8c4,0 3,1 3,-3l18 0 -108 52c-2,-2 -4,-4 -6,-6z"/>
    <path class="fil0" d="M1794 1073l82 -40 0 2 -81 39 -1 -1zm92 -45l1 0 0 0 0 0 0 0 0 0 0 0 0 0 0 0 0 0 0 0 -8 4 5 -4z"/>
    <path class="fil0" d="M1814 1091l109 -52 0 5 0 4 -1 4 -1 4 -1 3 -2 3 -2 3 -2 3 -2 2 -2 2 -2 2 -2 2 -2 2 -2 2c-1,1 -2,1 -2,2 -1,1 -2,2 -2,2l-58 28c-7,-6 -16,-15 -23,-22z"/>
    <polygon class="fil0" points="1811,1088 1920,1035 1922,1039 1814,1091 "/>
    <polygon class="fil0" points="1828,871 1874,848 1876,853 1876,908 1828,931 "/>
    <path class="fil0" d="M1792 1071l84 -41 0 3 -82 40c-1,-1 -1,-1 -2,-2z"/>
    <path class="fil0" d="M1837 1113l58 -28c-1,1 -2,2 -3,4l0 1 0 1 -1 1 -1 1 -1 1 -1 1 -1 1 -1 1 -5 5 -5 5 -5 5 -5 4 -5 3 -3 1c-1,0 -1,1 -2,1l-13 0c-2,-1 -5,-2 -8,-5z"/>
    <polygon class="fil0" points="1811,1088 1920,1035 1922,1039 1814,1091 "/>
    <path class="fil0" d="M1794 1073l82 -40 0 2 -81 39 -1 -1zm92 -45l1 0 0 0 0 0 0 0 0 0 0 0 0 0 0 0 0 0 0 0 -8 4 5 -4z"/>
    <path class="fil0" d="M1792 1071l84 -41 0 3 -82 40c-1,-1 -1,-1 -2,-2z"/>
    <path class="fil0" d="M1803 1081l108 -52 8 7 -109 53c-2,-2 -3,-3 -4,-4 -1,-1 -2,-2 -3,-3z"/>
    <path class="fil0" d="M1874 848l-46 23 0 -17c5,0 3,1 2,-6 3,-9 3,-9 10,-13l4 -3 15 0 4 3c8,4 7,3 11,12l0 1z"/>
    <path class="fil0" d="M1830 847l29 -14 4 3 -32 16c0,-1 0,-2 -1,-3l0 -1z"/>
    <path class="fil0" d="M1831 851l32 -16 0 0 0 0 0 0 1 0 0 0 0 0 0 0 2 1 1 1 1 1 1 1 1 2 1 2 0 0 0 0 0 0 0 0 0 0 0 0 0 0 0 0 -46 23 0 -16c4,0 3,1 3,-3z"/>
    <path class="fil0" d="M1794 1073l82 -40 0 3 -80 39c-1,-1 -1,-1 -2,-2z"/>
    <path class="fil0" d="M1828 877l48 -24 0 183 -80 39c-9,-8 -18,-18 -15,-35 4,0 3,1 3,-4 4,-9 -1,-3 7,-8l3 -3 3 0 13 0 3 0c0,4 -1,3 3,3l11 8 0 -159z"/>
    <path class="fil0" d="M1800 1078l108 -52c0,4 -1,3 4,3l-108 52 -3 -3z"/>
    <path class="fil0" d="M1858 1118l5 -2 -3 1c-1,0 -1,1 -2,1z"/>
    <polygon class="fil0" points="1828,870 1874,847 1876,853 1828,877 "/>
    <path class="fil0" d="M1828 854l0 0 0 0 1 0 0 0 0 0c0,0 1,0 1,0 0,0 0,0 0,0l-3 1 0 -1z"/>
    <polygon class="fil0" points="1828,870 1874,847 1876,853 1828,877 "/>
    <path class="fil0" d="M1830 847l29 -14 4 3 -32 16c0,-1 0,-2 -1,-3l0 -1z"/>
    <path class="fil0" d="M1844 833l15 0 -29 14c2,-8 3,-8 10,-12l4 -3z"/>
    <path class="fil0" d="M1828 854l0 0 0 0 1 0 0 0 0 0c0,0 1,0 1,0 0,0 0,0 0,0l-3 1 0 -1z"/>
    <path class="fil0" d="M1827 1036l-44 22c-2,-5 -3,-11 -2,-17 4,0 3,1 3,-4 4,-9 -1,-3 7,-8l3 -3 3 0 13 0 3 0c0,4 -1,3 3,3l11 8z"/>
    <path class="fil0" d="M1784 1038l26 -13 3 0 -29 14c0,0 0,-1 0,-1zm-1 2l-2 1 0 -1c1,0 2,0 2,0z"/>
    <path class="fil0" d="M1781 1041l2 -1c1,0 1,0 1,0l29 -14 0 1 0 0 0 0 0 0 0 0 0 0 0 0 0 0 0 0c0,0 0,0 0,1 0,0 0,0 0,0 0,0 0,0 0,0 0,0 0,0 1,0l0 0 0 0 0 0 0 0 0 0 0 0 0 0 0 0 1 0 -36 17c0,-1 0,-3 0,-5z"/>
    <path class="fil0" d="M1786 1031l12 -6 13 0 -26 13c0,-1 0,-1 0,-2 1,-3 2,-4 2,-5z"/>
    <path class="fil0" d="M1792 1027l4 -2 2 0 -12 6c0,-2 0,0 5,-3l1 -1z"/>
    <path class="fil0" d="M1792 1027l4 -2 2 0 -12 6c0,-2 0,0 5,-3l1 -1z"/>
    <path class="fil0" d="M1814 1092l5 5c2,2 4,4 5,5l6 5c2,2 4,3 5,5l5 3c2,1 3,2 4,2l-4 -2c-2,-1 -3,-2 -5,-3l-5 -5c-2,-2 -4,-3 -6,-5l-5 -5c-2,-2 -3,-4 -5,-5z"/>
    <path class="fil0" d="M1800 1078l108 -52 0 1 0 0 0 0 0 0 0 0 0 0 0 0 0 0 0 0c0,0 0,0 0,1 0,0 0,0 0,0 0,0 0,0 0,0 0,0 0,0 1,0l0 0 0 0 0 0 0 0 0 0 0 0 0 0 2 0 -108 52 -3 -3z"/>
    <path class="fil0" d="M1781 1041l2 -1c1,0 1,0 1,0l29 -14 0 1 0 0 0 0 0 0 0 0 0 0 0 0 0 0 0 0c0,0 0,0 0,1 0,0 0,0 0,0 0,0 0,0 0,0 0,0 0,0 1,0l0 0 0 0 0 0 0 0 0 0 0 0 0 0 0 0 1 0 -36 17c0,-1 0,-3 0,-5z"/>
    <path class="fil0" d="M1786 1031l12 -6 13 0 -26 13c0,-1 0,-1 0,-2 1,-3 2,-4 2,-5z"/>
    <path class="fil0" d="M1781 1045l36 -17 11 8 -44 22c-1,-4 -2,-7 -2,-12z"/>
    <path class="fil0" d="M1781 1040l1 0 0 0 0 0 0 0 0 0 0 0 0 0 0 0 0 0c0,0 0,0 1,0l-3 1 0 -1z"/>
    <path class="fil0" d="M1781 1040l1 0 0 0 0 0 0 0 0 0 0 0 0 0 0 0 0 0c0,0 0,0 1,0l-3 1 0 -1z"/>
    <path class="fil0" d="M1781 1040l0 4c0,1 0,3 0,4l0 4c0,1 1,2 1,3l1 3c0,1 1,2 1,3l2 3c1,1 1,2 2,3l-2 -3c-1,-1 -1,-2 -2,-3l-1 -3c0,-1 -1,-2 -1,-3l-1 -3c0,-1 0,-2 0,-4l0 -4c0,-1 0,-3 0,-4zm7 27l2 2c1,1 1,2 2,2l2 2c1,1 2,1 2,2l-2 -2c-1,-1 -2,-1 -2,-2l-2 -2c-1,-1 -1,-2 -2,-2z"/>
    <path class="fil0" d="M1795 1025l3 0 -12 6c0,-2 0,0 5,-3l3 -3z"/>
    <path class="fil0" d="M1788 1030l-1 1c0,0 0,0 1,-1z"/>
    <path class="fil0" d="M1786 1030l0 0 0 0 0 0 0 0 0 0 0 0 0 0 0 0 0 0 -1 1c0,0 0,0 0,0z"/>
    <path class="fil0" d="M1786 1030l0 0 0 0c0,0 0,0 0,0l0 0 0 0z"/>
    <path class="fil0" d="M1838 837l-2 1c-1,0 -1,1 -1,1l-1 1c0,0 -1,1 -1,1l-1 2c0,1 0,1 -1,2l1 -2c0,-1 0,-1 1,-2l1 -1c0,0 1,-1 1,-1l1 -1c1,0 1,-1 2,-1z"/>
   </g>
   <g>
    <path class="fil0" d="M1846 1312c30,0 132,4 143,-8 10,-11 7,-33 -8,-38 -14,-5 -164,-2 -181,-2 -21,0 -74,-6 -86,8 -9,9 -7,26 0,33 11,12 113,8 132,8z"/>
    <polygon class="fil0" points="1815,1312 1921,1263 1923,1263 1818,1312 "/>
    <polygon class="fil0" points="1812,1312 1918,1263 1921,1263 1815,1312 "/>
    <polygon class="fil0" points="1815,1312 1920,1263 1923,1263 1818,1312 "/>
    <polygon class="fil0" points="1799,1313 1905,1263 1909,1263 1803,1313 "/>
    <polygon class="fil0" points="1803,1313 1909,1263 1912,1263 1806,1312 "/>
    <path class="fil0" d="M1709 1285l47 -22c17,0 34,1 44,1 8,0 43,-1 80,-1l-105 50c-28,-1 -55,-3 -61,-8 -4,-4 -6,-12 -6,-19z"/>
    <path class="fil0" d="M1982 1307l8 -4 -1 1 -2 1c-1,1 -3,1 -4,2z"/>
    <path class="fil0" d="M1881 1312l99 -47 5 3 4 4 3 5 2 5 0 6 -1 6 -2 5 -3 4 -8 4c-19,5 -65,5 -100,5z"/>
    <polygon class="fil0" points="1815,1312 1920,1263 1927,1263 1822,1312 "/>
    <polygon class="fil0" points="1803,1313 1909,1263 1912,1263 1806,1312 "/>
    <path class="fil0" d="M1816 1263l-94 44c-4,-1 -7,-2 -8,-4 -7,-7 -9,-24 0,-33 12,-13 65,-8 86,-8 3,0 8,0 16,0z"/>
    <path class="fil0" d="M1816 1263l-94 44c-4,-1 -7,-2 -8,-4 -7,-7 -9,-24 0,-33 12,-13 65,-8 86,-8 3,0 8,0 16,0z"/>
    <path class="fil0" d="M1854 1263l-103 49c-18,-1 -33,-3 -37,-8 -7,-7 -9,-24 0,-33 12,-13 65,-8 86,-8 6,0 27,0 54,-1z"/>
    <path class="fil0" d="M1854 1263l-103 49c-18,-1 -33,-3 -37,-8 -7,-7 -9,-24 0,-33 12,-13 65,-8 86,-8 6,0 27,0 54,-1z"/>
    <path class="fil0" d="M1751 1311l103 -49c24,0 51,0 75,0l-105 50c-20,0 -49,1 -72,-1z"/>
    <path class="fil0" d="M1751 1311l103 -49c24,0 51,0 75,0l-105 50c-20,0 -49,1 -72,-1z"/>
    <path class="fil0" d="M1718 1268l2 -1 4 -1 5 -1 5 -1 6 -1 6 0 6 0 7 0 7 0 6 0 2 0 2 0 2 0 2 0 2 0 1 0 1 0 1 0 1 0 1 0 1 0 1 0 5 0c2,0 3,0 4,0l-86 41 0 0c-7,-7 -9,-24 0,-33 1,-1 2,-2 4,-3z"/>
    <path class="fil0" d="M1714 1304l86 -41 2 0 3 0 3 0 4 0 5 0 5 0 6 0 6 0 6 0 7 0 7 0 7 0 7 0 8 0 8 0 8 0 8 0 8 0 8 0 7 0 7 0 7 0 7 0 6 0 6 0 5 0 5 0 4 0 4 0 3 0 2 0 2 0 -99 47c-15,0 -27,0 -35,0 -19,0 -120,4 -132,-8z"/>
    <path class="fil0" d="M1714 1304l1 1c1,0 1,1 2,1l2 1c1,0 2,1 3,1l3 1c1,0 2,0 3,1l4 1c1,0 3,0 4,1l4 0c2,0 3,0 5,0l5 0c-2,0 -3,0 -5,0l-5 0c-2,0 -3,0 -4,0l-4 -1c-1,0 -3,0 -4,-1l-3 -1c-1,0 -2,0 -3,-1l-3 -1c-1,0 -2,-1 -2,-1l-2 -1c-1,0 -1,-1 -1,-1z"/>
    <path class="fil0" d="M1714 1271l-3 4c-1,1 -1,3 -2,4l-1 5c0,2 0,3 0,5l1 5c0,1 1,3 1,4l2 4c1,1 1,2 2,3l-2 -3c-1,-1 -1,-2 -2,-4l-1 -4c0,-1 0,-3 -1,-5l0 -5c0,-2 1,-3 1,-5l2 -4c1,-1 2,-3 3,-4z"/>
    <path class="fil0" d="M1952 1311l5 0c2,0 3,0 5,0l4 0c1,0 3,0 4,-1l4 -1c1,0 2,0 3,-1l3 -1c1,0 2,-1 3,-1l2 -1c-1,0 -1,1 -2,1l-3 1c-1,0 -2,0 -3,1l-3 1c-1,0 -3,0 -4,1l-4 1c-1,0 -3,0 -4,0l-5 0c-2,0 -3,0 -5,0z"/>
    <path class="fil0" d="M1718 1268l2 -1 -4 2c-1,1 -2,1 -3,2l3 -2c0,0 1,-1 1,-1z"/>
   </g>
   <g>
    <path class="fil0" d="M1852 495l19 -10c-4,5 -11,8 -19,10z"/>
    <path class="fil0" d="M1817 496l57 -29 1 7 -1 6 -2 5 -3 4 -4 3 -3 2c-12,5 -29,5 -45,4z"/>
    <path class="fil0" d="M1712 487l74 -38c2,0 3,0 5,0 2,0 4,0 6,0l6 0 2 0 2 0 2 0 2 0 7 0 7 0 7 0 7 0 7 1 6 1 6 1 5 2 4 3 4 3 3 4 2 5 -57 29c-7,0 -14,-1 -20,-1 -34,0 -72,6 -85,-9z"/>
    <path class="fil0" d="M1717 452l5 -2 6 -2 6 -1 6 -1 7 0 7 0 7 0 7 0 2 0 2 0 2 0 2 0c2,0 4,0 6,0 2,0 4,0 6,0l-74 38c-2,-3 -4,-6 -5,-10 -2,-13 2,-20 10,-24z"/>
   </g>
   <g>
    <path class="fil0" d="M1819 1649c-21,9 -20,36 -2,43 10,4 58,4 68,0 18,-7 18,-36 -1,-43 -10,-4 -57,-4 -66,0z"/>
    <path class="fil0" d="M1819 1649l2 -1 3 -1 4 -1 4 0 5 0 5 0 5 0 5 0 5 0 5 0 5 0 5 0 4 0 4 1 3 1 2 1 -77 35c-7,-11 -4,-28 12,-35z"/>
    <path class="fil0" d="M1808 1684l77 -35 6 4 4 5 3 6 1 7 -1 7 -2 6 -4 5 -6 3c-10,4 -58,4 -68,0 -4,-2 -8,-5 -10,-8z"/>
   </g>
   <g>
    <path class="fil0" d="M1934 453l5 -2 6 -2 6 -1 7 -1 7 0 7 1 6 1 6 2 5 3 4 4 3 5 1 6 -1 7 -2 8 -30 15c-24,2 -50,-10 -36,-38 1,-2 4,-5 6,-6z"/>
    <path class="fil0" d="M1963 497l30 -15 -3 4 -4 4 -5 3c-5,2 -12,4 -18,4z"/>
   </g>
   <g>
    <path class="fil0" d="M2066 1175c6,-11 6,-49 0,-60l0 60z"/>
    <polygon class="fil0" points="2066,1115 2067,1117 2068,1120 2069,1124 2069,1127 2070,1131 2070,1136 2071,1140 2071,1145 2071,1149 2070,1154 2070,1158 2070,1162 2069,1166 2068,1170 2067,1173 2066,1175 "/>
   </g>
   <g>
    <path class="fil0" d="M1637 1175l0 -61c-4,8 -3,19 -3,30 0,11 -2,22 3,30z"/>
    <path class="fil0" d="M1634 1149l3 -1 0 9 -3 2c0,-3 0,-6 0,-9z"/>
    <polygon class="fil0" points="1634,1151 1637,1149 1637,1151 1634,1152 "/>
    <path class="fil0" d="M1636 1172l1 -1 0 3c0,-1 -1,-2 -1,-2z"/>
    <polygon class="fil0" points="1634,1147 1637,1146 1637,1149 1634,1151 "/>
    <path class="fil0" d="M1636 1172l1 -1 0 3c0,-1 -1,-2 -1,-2z"/>
    <polygon class="fil0" points="1634,1151 1637,1149 1637,1151 1634,1152 "/>
    <polygon class="fil0" points="1634,1147 1637,1146 1637,1149 1634,1151 "/>
    <path class="fil0" d="M1634 1163l3 -1 0 11 -1 1c-1,-3 -2,-6 -2,-10z"/>
    <polygon class="fil0" points="1634,1151 1637,1149 1637,1152 1634,1154 "/>
    <path class="fil0" d="M1637 1152l-3 2c0,-3 0,-6 0,-9 0,-12 -2,-22 3,-30l0 38z"/>
    <path class="fil0" d="M1634 1158l3 -2 0 5 -3 1c0,-1 0,-3 0,-5z"/>
    <path class="fil0" d="M1637 1128l-3 2c0,-6 1,-11 3,-15l0 14z"/>
    <path class="fil0" d="M1637 1115l-1 0c0,0 0,-1 1,-1l0 1z"/>
    <path class="fil0" d="M1634 1167l3 -1 0 9c-1,-2 -2,-5 -3,-8z"/>
    <path class="fil0" d="M1634 1158l3 -2 0 5 -3 1c0,-1 0,-3 0,-5z"/>
    <path class="fil0" d="M1637 1115l-1 0c0,0 0,-1 1,-1l0 1z"/>
    <path class="fil0" d="M1636 1116l1 0 0 13 -3 2c0,-5 1,-10 3,-14z"/>
    <path class="fil0" d="M1637 1166l-3 1c-1,-7 0,-14 0,-22 0,-12 -2,-22 3,-30l0 51z"/>
    <polygon class="fil0" points="1637,1115 1637,1115 1637,1114 "/>
    <path class="fil0" d="M1634 1125l3 -1 0 4 -3 2c0,-2 0,-3 0,-5z"/>
    <path class="fil0" d="M1636 1116l1 0 0 5 -2 1c0,-2 1,-4 2,-6z"/>
    <path class="fil0" d="M1637 1114l0 61c-5,-8 -3,-19 -3,-30 0,-12 -2,-22 3,-30z"/>
    <path class="fil0" d="M1637 1114l0 61c-5,-8 -3,-19 -3,-30 0,-12 -2,-22 3,-30z"/>
    <path class="fil0" d="M1634 1153l0 4c0,1 0,3 0,4l0 4c0,1 0,2 1,4l1 3c0,1 1,2 1,3l-1 -3c0,-1 -1,-2 -1,-3l-1 -4c0,-1 0,-2 0,-4l0 -4c0,-1 0,-3 0,-4z"/>
    <path class="fil0" d="M1637 1114l-1 3c0,1 -1,2 -1,3l-1 4c0,1 0,2 0,4l0 4c0,1 0,3 0,4l0 -4c0,-1 0,-3 0,-4l0 -4c0,-1 0,-2 1,-4l1 -3c0,-1 1,-2 1,-3z"/>
   </g>
   <g>
    <path class="fil0" d="M1810 1026c-5,-7 -9,-3 -13,0l13 0z"/>
    <path class="fil0" d="M1810 1026c-5,-7 -9,-3 -13,0l13 0z"/>
    <path class="fil0" d="M1810 1026c-5,-7 -9,-3 -13,0l13 0z"/>
    <path class="fil0" d="M1802 1022l-1 1c0,0 -1,1 -1,1l1 -1c0,0 1,-1 1,-1z"/>
    <path class="fil0" d="M1802 1022l-1 1c0,0 -1,1 -1,1l1 -1c0,0 1,-1 1,-1z"/>
   </g>
   <g>
    <path class="fil0" d="M1858 1118l-13 0c6,5 7,3 13,0z"/>
    <path class="fil0" d="M1855 1120l-2 1c-2,1 -4,0 -8,-3l13 0c-1,1 -2,1 -3,2z"/>
    <path class="fil0" d="M1845 1118l13 0 -6 3c-2,0 -4,-1 -7,-3z"/>
    <path class="fil0" d="M1852 1121l6 -3c-1,1 -2,1 -3,2l-2 1c0,0 -1,0 -1,0z"/>
    <path class="fil0" d="M1852 1121l6 -3 0 0 0 0 -1 0 0 0 0 0 0 0 -2 1 -1 0c-1,0 -1,0 -2,0z"/>
    <path class="fil0" d="M1845 1118l2 1c1,0 1,1 2,1l1 0c0,0 1,0 1,0l1 0 0 0 1 0 -1 1c0,0 -1,0 -1,0l-1 0c0,0 -1,0 -1,0l-2 -1c-1,0 -1,-1 -2,-1z"/>
   </g>
   <g>
    <path class="fil0" d="M1911 1028c0,-4 1,-3 -4,-3 0,4 -1,3 4,3z"/>
    <path class="fil0" d="M1909 1026l0 0 0 0 0 0 0 0 0 0 0 0 0 0 0 0 0 0 0 0 0 0 0 1 0 0 0 0 0 0 0 0 0 0 0 0 0 0 0 0c0,0 0,1 0,1 -5,0 -4,2 -4,-3 1,0 1,0 1,0z"/>
    <path class="fil0" d="M1908 1028l0 1c0,0 0,0 0,0l0 0c0,0 0,0 1,0l-1 0c0,0 0,0 0,0l0 0c0,0 0,0 0,-1z"/>
   </g>
   <g>
    <path class="fil0" d="M1890 1025c-4,0 -3,-1 -3,3 4,0 3,1 3,-3z"/>
    <path class="fil0" d="M1887 1027l4 -2c0,4 1,3 -3,3l0 -1z"/>
    <polygon class="fil0" points="1890,1028 1890,1028 1890,1028 1890,1028 "/>
    <path class="fil0" d="M1887 1025l0 0c0,0 0,0 0,1l0 -1c0,0 0,0 0,0z"/>
    <polygon class="fil0" points="1890,1028 1890,1028 1890,1028 1890,1028 "/>
    <path class="fil0" d="M1887 1025l0 0c0,0 0,0 0,1l0 -1c0,0 0,0 0,0z"/>
   </g>
   <g>
    <path class="fil0" d="M1830 848l-2 6c5,0 3,1 2,-6z"/>
    <path class="fil0" d="M1831 851l-2 1 2 -5c0,1 0,3 1,3z"/>
    <path class="fil0" d="M1828 852l2 -1c1,3 1,3 -3,3l1 -1z"/>
    <path class="fil0" d="M1829 854l1 0c0,0 0,0 0,0l0 0 -1 0c0,0 -1,0 -1,0z"/>
    <path class="fil0" d="M1831 851l-2 1 2 -5c0,1 0,3 1,3z"/>
    <path class="fil0" d="M1829 854l1 0c0,0 0,0 0,0l0 0 -1 0c0,0 -1,0 -1,0z"/>
   </g>
   <g>
    <path class="fil0" d="M1844 833c-5,0 -4,-2 -4,3l4 -3z"/>
    <polygon class="fil0" points="1840,835 1844,833 1840,835 "/>
    <path class="fil0" d="M1840 832l0 0c0,0 0,0 0,1l0 -1c0,0 0,0 0,0z"/>
    <path class="fil0" d="M1840 832l0 0c0,0 0,0 0,1l0 -1c0,0 0,0 0,0z"/>
   </g>
   <g>
    <path class="fil0" d="M1863 835c0,-4 1,-3 -4,-3l4 3z"/>
    <path class="fil0" d="M1861 832l1 0 0 0 0 0 1 0 0 0 0 0 0 1 0 0 0 0 0 0 0 0 0 0 0 0 0 0 0 0c0,0 0,1 0,1l-4 -3c1,0 1,0 2,0z"/>
   </g>
   <g>
    <path class="fil0" d="M1922 1039c0,-5 2,-4 -3,-4l3 4z"/>
    <path class="fil0" d="M1921 1035l0 0 0 0 0 0 0 0 0 0 0 0 0 0 0 0 1 0 0 0 0 0 0 1 0 0 0 0 0 0 0 0 0 0 0 0 0 0c0,0 0,1 0,1l-3 -4c1,0 1,0 1,0z"/>
   </g>
   <g>
    <path class="fil0" d="M1784 1036l-3 4c4,0 3,1 3,-4z"/>
    <path class="fil0" d="M1784 1036l-3 4c4,0 3,1 3,-4z"/>
    <path class="fil0" d="M1784 1036l-3 4c4,0 3,1 3,-4z"/>
    <path class="fil0" d="M1781 1040l3 -1c0,1 0,1 0,1l-1 0c0,0 -1,0 -2,0l0 0z"/>
    <path class="fil0" d="M1783 1040l1 0c0,0 0,0 -1,0z"/>
    <path class="fil0" d="M1784 1038l-3 1 3 -3c0,1 0,2 0,2z"/>
    <path class="fil0" d="M1783 1040l1 0c0,0 0,0 -1,0z"/>
    <path class="fil0" d="M1784 1038l-3 1 3 -3c0,1 0,2 0,2z"/>
    <path class="fil0" d="M1783 1040l1 0c0,0 0,0 -1,0z"/>
    <path class="fil0" d="M1783 1040l1 0c0,0 0,0 -1,0z"/>
   </g>
   <g>
    <path class="fil0" d="M1643 1191l-3 -3c0,4 -1,3 3,3z"/>
    <path class="fil0" d="M1643 1191l-3 -3c0,4 -1,3 3,3z"/>
    <path class="fil0" d="M1643 1191l-3 -3c0,4 -1,3 3,3z"/>
    <path class="fil0" d="M1640 1188l3 3c-4,0 -3,1 -3,-3z"/>
    <path class="fil0" d="M1640 1191l0 0c0,0 0,0 0,0l1 0c0,0 0,0 -1,0l0 0c0,0 0,0 0,0z"/>
    <path class="fil0" d="M1640 1191l0 0c0,0 0,0 0,0l1 0c0,0 0,0 -1,0l0 0c0,0 0,0 0,0z"/>
   </g>
   <g>
    <path class="fil0" d="M2064 1188l-3 3c4,0 3,1 3,-3z"/>
    <path class="fil0" d="M2063 1191l1 0c0,0 0,0 -1,0z"/>
    <path class="fil0" d="M2063 1191l1 0c0,0 0,0 -1,0z"/>
   </g>
   <g>
    <path class="fil0" d="M2053 1202c-4,0 -3,-1 -3,3l3 -3z"/>
    <path class="fil0" d="M2050 1202l1 0c0,0 1,0 2,0l-3 1c0,-1 0,-1 0,-1z"/>
    <path class="fil0" d="M2050 1202l-1 0c0,0 0,0 1,0z"/>
    <path class="fil0" d="M2050 1202l0 0 1 0 0 0 0 0 0 0 0 0 0 0 0 0 0 0 0 0 0 0c0,0 1,0 1,0l-3 1c0,-1 0,-1 0,-1z"/>
    <path class="fil0" d="M2050 1202l0 0c0,0 0,0 0,0z"/>
   </g>
   <g>
    <path class="fil0" d="M1654 1205c0,-4 1,-3 -3,-3l3 3z"/>
    <path class="fil0" d="M1653 1202l-2 1 -1 -1c2,0 2,0 3,0z"/>
    <path class="fil0" d="M1651 1203l2 -1c0,0 0,1 0,3l-2 -2z"/>
    <path class="fil0" d="M1654 1205c0,-4 1,-3 -3,-3l3 3z"/>
    <path class="fil0" d="M1652 1202l0 0 0 0 0 0 0 0 0 0 0 0 0 0 0 0 1 0 0 0 0 0 0 1 0 0 0 0 0 0 0 0 0 0 0 0 0 0 0 0c0,0 0,1 0,1l-3 -3c0,0 1,0 1,0z"/>
    <path class="fil0" d="M1652 1202l0 0 0 0 0 0 0 0 0 0 0 0 0 0 0 0 1 0 0 0 0 0 0 1 0 0 0 0 0 0 0 0 0 0 0 0 0 0 0 0c0,0 0,1 0,1l-3 -3c0,0 1,0 1,0z"/>
   </g>
   <g>
    <path class="fil0" d="M1816 1028l-3 -3c0,4 -1,3 3,3z"/>
    <path class="fil0" d="M1816 1028l-3 -3c0,4 -1,3 3,3z"/>
    <path class="fil0" d="M1816 1028l-3 -3c0,4 -1,3 3,3z"/>
    <path class="fil0" d="M1813 1027l0 1c0,0 0,0 0,0l0 0c0,0 0,0 1,0l-1 0c0,0 0,0 0,0l0 0c0,0 0,0 0,-1z"/>
    <path class="fil0" d="M1813 1027l0 1c0,0 0,0 0,0l0 0c0,0 0,0 1,0l-1 0c0,0 0,0 0,0l0 0c0,0 0,0 0,-1z"/>
   </g>
   <g>
    <polygon class="fil0" points="1876,853 1874,848 "/>
    <polygon class="fil0" points="1874,848 1874,847 "/>
   </g>
   <g>
    <polygon class="fil0" points="1795,1025 1791,1028 "/>
    <polygon class="fil0" points="1795,1025 1791,1028 "/>
    <polygon class="fil0" points="1795,1025 1791,1028 "/>
    <polygon class="fil0" points="1792,1027 1791,1028 "/>
    <polygon class="fil0" points="1792,1027 1791,1028 "/>
    <polygon class="fil0" points="1795,1025 1791,1028 "/>
   </g>
   <polygon class="fil0" points="2026,1104 2023,1107 "/>
   <polygon class="fil0" points="2037,1096 2033,1098 "/>
   <g>
    <polygon class="fil0" points="1648,1199 1645,1197 "/>
    <polygon class="fil0" points="1648,1199 1645,1197 "/>
    <polygon class="fil0" points="1648,1199 1645,1197 "/>
   </g>
   <polygon class="fil0" points="2058,1196 2055,1199 "/>
   <g>
    <polygon class="fil0" points="1651,1202 1648,1199 "/>
    <polygon class="fil0" points="1651,1202 1648,1199 "/>
    <polygon class="fil0" points="1651,1202 1648,1199 "/>
   </g>
   <polygon class="fil0" points="2055,1199 2053,1202 "/>
   <g>
    <polygon class="fil0" points="1670,1098 1666,1096 "/>
    <polygon class="fil0" points="1670,1098 1666,1096 "/>
    <polygon class="fil0" points="1670,1098 1666,1096 "/>
    <polygon class="fil0" points="1667,1096 1666,1096 "/>
    <polygon class="fil0" points="1670,1098 1667,1096 "/>
    <polygon class="fil0" points="1670,1098 1667,1096 "/>
    <polygon class="fil0" points="1667,1096 1666,1096 "/>
    <polygon class="fil0" points="1667,1096 1666,1096 "/>
    <polygon class="fil0" points="1670,1098 1666,1096 "/>
   </g>
   <g>
    <polygon class="fil0" points="2031,1099 2028,1102 "/>
    <polygon class="fil0" points="2031,1099 2031,1099 "/>
    <polygon class="fil0" points="2031,1099 2031,1099 "/>
    <polygon class="fil0" points="2031,1099 2031,1099 "/>
   </g>
   <g>
    <polygon class="fil0" points="1675,1102 1672,1099 "/>
    <polygon class="fil0" points="1675,1102 1672,1099 "/>
    <polygon class="fil0" points="1675,1102 1672,1099 "/>
    <polygon class="fil0" points="1675,1102 1672,1099 "/>
    <polygon class="fil0" points="1675,1102 1672,1099 "/>
   </g>
   <g>
    <polygon class="fil0" points="1681,1107 1677,1104 "/>
    <polygon class="fil0" points="1681,1107 1677,1104 "/>
    <polygon class="fil0" points="1680,1107 1677,1104 "/>
    <polygon class="fil0" points="1680,1107 1677,1104 "/>
    <polygon class="fil0" points="1681,1107 1677,1104 "/>
   </g>
  </g>
  <path class="fil2" d="M217 1826c7,11 12,21 16,32 3,7 5,19 21,19 5,0 11,-1 17,-5 7,-3 12,-9 14,-17l6 -21 15 -7 1 1c-2,8 -3,16 -3,21 0,18 15,24 27,24 7,0 13,-3 13,-10 0,-8 -4,-22 -8,-35 7,-7 14,-14 22,-20l1 1c4,15 6,30 6,40 0,10 -4,20 -8,27 -7,14 -20,25 -36,25 -12,0 -25,-6 -34,-17l-1 0c-9,11 -22,20 -43,20l-7 0c-1,14 -4,24 -9,33 -13,25 -50,42 -85,42 -49,0 -73,-28 -73,-66 0,-23 8,-45 19,-60l10 4c-7,14 -12,27 -12,40 0,35 29,52 62,52 31,0 68,-19 75,-42 -3,-25 -12,-36 -26,-59 4,-7 10,-15 17,-23l1 0 0 0 0 0zm564 -133c10,6 20,14 30,23 -6,8 -12,15 -21,21 -10,-8 -20,-15 -30,-22 7,-8 14,-15 20,-22l0 0 0 0zm5 96c-17,0 -30,11 -30,19 0,17 33,23 73,23 -5,-20 -22,-42 -43,-42zm-37 93c22,0 41,-1 55,-4 16,-4 30,-12 30,-18 0,-1 0,-3 -1,-5 -9,1 -19,1 -29,1 -29,0 -52,-7 -61,-23 -2,-5 -4,-10 -4,-16 0,-16 7,-32 19,-42 10,-9 21,-14 33,-14 20,0 37,16 48,42 6,14 11,30 11,51 0,14 -4,25 -12,34 -16,15 -45,21 -90,21l-20 0 0 0 -5 0c-11,0 -19,-2 -25,-7l-1 0c0,3 1,5 1,7 0,10 -3,23 -10,33 -20,30 -42,43 -60,43 -19,0 -42,-7 -63,-17l4 -7c7,3 16,5 29,5 34,0 78,-33 84,-64 -1,-3 -4,-6 -7,-10 -10,-12 -16,-22 -22,-32 5,-10 10,-18 14,-25l2 0c14,29 28,46 57,46l5 0 0 0 21 0 0 0 0 0zm-146 31c2,-14 3,-29 3,-43l0 -21c0,-39 -5,-96 -9,-133 7,-8 17,-17 25,-23l2 1c5,47 7,101 7,151 0,13 -1,26 -2,35 -1,12 -8,21 -22,35l-3 -1zm-151 -62c1,18 10,33 41,33 20,0 36,-5 55,-14 3,-1 5,-3 5,-5 0,-12 -9,-27 -24,-41 -14,-13 -34,-25 -51,-32 -6,-3 -8,-5 -8,-8 0,-5 7,-16 13,-24l2 0c20,11 43,27 60,44 15,16 25,33 25,51 0,13 -4,26 -11,38 -22,11 -46,20 -70,20 -29,0 -48,-14 -48,-45 0,-3 0,-9 1,-16l10 0 0 0 0 0zm-52 -52l18 29c7,11 13,22 13,41l0 24c0,19 -12,39 -32,60 -15,14 -29,20 -42,20 -19,0 -40,-6 -65,-17l3 -7c8,2 17,4 28,4 36,0 72,-26 89,-58 2,-4 3,-7 3,-9 0,-4 -2,-8 -4,-11 -9,-17 -19,-33 -30,-47 6,-9 12,-18 18,-27l1 0 0 0 0 0z"/>
  <g id="_2727381903440">
   <rect class="fil3" x="1395" y="346" width="913" height="1391" rx="54" ry="48"/>
   <path class="fil4" d="M1714 1304c-7,-7 -9,-24 0,-33 12,-13 65,-8 86,-8 17,0 167,-3 181,2 15,6 18,28 8,38 -11,11 -113,8 -143,8 -19,0 -121,4 -132,-8zm-77 -190c3,-14 13,-19 30,-18l4 2 2 0 3 3 2 2 3 3c6,15 3,41 3,60l336 0c0,-18 -3,-45 3,-60l3 -3 2 -2 3 -3 2 0 4 -2c17,-1 27,5 29,19 6,10 6,49 0,60l-3 13c0,4 1,3 -3,3l-2 5 -3 3 -3 3 -3 3c-23,16 -62,10 -95,10l-209 0c-32,0 -70,5 -92,-10l-3 -3 -3 -3 -3 -3 -2 -5c-4,0 -3,1 -3,-3l-3 -13c-5,-8 -3,-19 -3,-30 0,-12 -2,-22 3,-30zm144 -75l3 -4c4,-9 -1,-3 7,-8l3 -3 3 0c4,-3 8,-7 13,0l3 0 3 3 11 8 0 -182 2 -6c3,-9 3,-9 10,-13 0,-4 -1,-3 4,-3l15 0c5,0 4,-2 4,3 8,4 7,3 11,12l2 6 0 183 10 -8c0,-4 -1,-3 3,-3l18 0c5,0 4,-1 4,3l8 7c4,0 3,-1 3,4 2,26 -15,34 -27,46 -8,8 -26,30 -37,33 -5,3 -7,5 -13,0 -10,-3 -31,-27 -39,-34 -11,-11 -29,-21 -25,-44zm-256 -325c-25,8 -33,27 -33,58 0,104 -4,605 3,626 8,24 27,32 58,32l269 0c52,0 331,6 357,-3 24,-8 33,-28 33,-58 0,-104 4,-605 -3,-626 -8,-24 -28,-32 -58,-32 -103,0 -606,-4 -625,3z"/>
   <path class="fil5" d="M1525 714c19,-6 522,-2 625,-3 31,0 51,8 58,32 7,21 2,522 3,626 0,30 -8,51 -33,58 -27,8 -306,3 -357,3l-269 0c-31,0 -50,-8 -58,-32 -7,-21 -2,-522 -3,-626 0,-31 8,-50 33,-58zm-130 861l913 0 0 -1007 -913 0 0 1008z"/>
   <path class="fil6" d="M1637 1114l0 61 3 13 3 3 2 5 3 3 3 3c4,0 3,-1 3,3 23,15 60,10 92,10l209 0c33,0 72,6 95,-10 0,-4 -1,-3 3,-3l3 -3 3 -3 2 -5 3 -3 3 -13 0 -60c-2,-14 -12,-20 -29,-19l-4 2 -2 0 -3 3 -2 2 -3 3c-6,15 -3,42 -3,60l-336 0c0,-19 2,-45 -3,-60l-3 -3 -2 -2 -3 -3 -2 0 -4 -2c-17,-1 -26,4 -30,18z"/>
   <path class="fil6" d="M1840 835c-8,4 -7,3 -10,13 1,7 3,6 -2,6l0 182 -11 -8c-4,0 -3,1 -3,-3l-3 0 -13 0 -3 0 -3 3c-8,5 -3,-1 -7,8 0,5 1,4 -3,4 -4,23 14,33 25,44 8,7 28,31 39,34l13 0c12,-3 29,-25 37,-33 13,-13 29,-21 27,-46l-3 -4 -8 -7c-5,0 -4,2 -4,-3l-18 0c0,4 1,3 -3,3l-10 8 0 -183 -2 -6c-4,-10 -3,-8 -11,-12l-4 -3 -15 0 -4 3z"/>
   <path class="fil7" d="M1846 1312c30,0 132,4 143,-8 10,-11 7,-33 -8,-38 -14,-5 -164,-2 -181,-2 -21,0 -74,-6 -86,8 -9,9 -7,26 0,33 11,12 113,8 132,8z"/>
   <path class="fil8" d="M1707 476c4,27 50,19 90,19 28,0 85,9 77,-29 -6,-29 -62,-18 -88,-19 -29,0 -85,-12 -79,28z"/>
   <path class="fil8" d="M1819 1649c-21,9 -20,36 -2,43 10,4 58,4 68,0 18,-7 18,-36 -1,-43 -10,-4 -57,-4 -66,0z"/>
   <path class="fil8" d="M1993 482c19,-43 -56,-41 -66,-22 -23,43 55,47 66,22z"/>
   <path class="fil9" d="M2066 1175c6,-11 6,-49 0,-60l0 60z"/>
   <path class="fil9" d="M1637 1175l0 -61c-4,8 -3,19 -3,30 0,11 -2,22 3,30z"/>
   <path class="fil9" d="M1810 1026c-5,-7 -9,-3 -13,0l13 0z"/>
   <path class="fil10" d="M1858 1118l-13 0c6,5 7,3 13,0z"/>
   <path class="fil10" d="M1911 1028c0,-4 1,-3 -4,-3 0,4 -1,3 4,3z"/>
   <path class="fil9" d="M1890 1025c-4,0 -3,-1 -3,3 4,0 3,1 3,-3z"/>
   <path class="fil10" d="M1830 848l-2 6c5,0 3,1 2,-6z"/>
   <path class="fil9" d="M1844 833c-5,0 -4,-2 -4,3l4 -3z"/>
   <path class="fil9" d="M1863 835c0,-4 1,-3 -4,-3l4 3z"/>
   <path class="fil9" d="M1922 1039c0,-5 2,-4 -3,-4l3 4z"/>
   <path class="fil10" d="M1784 1036l-3 4c4,0 3,1 3,-4z"/>
   <path class="fil9" d="M1643 1191l-3 -3c0,4 -1,3 3,3z"/>
   <path class="fil9" d="M2064 1188l-3 3c4,0 3,1 3,-3z"/>
   <path class="fil10" d="M2053 1202c-4,0 -3,-1 -3,3l3 -3z"/>
   <path class="fil10" d="M1654 1205c0,-4 1,-3 -3,-3l3 3z"/>
   <path class="fil10" d="M1816 1028l-3 -3c0,4 -1,3 3,3z"/>
   <polygon class="fil10" points="1876,853 1874,847 "/>
   <polygon class="fil10" points="1795,1025 1791,1028 "/>
   <polygon class="fil10" points="2026,1104 2023,1107 "/>
   <polygon class="fil10" points="2037,1096 2033,1098 "/>
   <polygon class="fil9" points="1648,1199 1645,1197 "/>
   <polygon class="fil9" points="2058,1196 2055,1199 "/>
   <polygon class="fil10" points="1651,1202 1648,1199 "/>
   <polygon class="fil10" points="2055,1199 2053,1202 "/>
   <polygon class="fil10" points="1670,1098 1666,1096 "/>
   <polygon class="fil10" points="2031,1099 2028,1102 "/>
   <polygon class="fil10" points="1675,1102 1672,1099 "/>
   <polygon class="fil10" points="1681,1107 1677,1104 "/>
  </g>
 </g>
</svg>
