<?xml version="1.0" encoding="UTF-8"?>
<!DOCTYPE svg PUBLIC "-//W3C//DTD SVG 1.1//EN" "http://www.w3.org/Graphics/SVG/1.1/DTD/svg11.dtd">
<!-- Creator: CorelDRAW 2017 -->
<svg xmlns="http://www.w3.org/2000/svg" xml:space="preserve" width="3.70333in" height="2.08333in" version="1.1" style="shape-rendering:geometricPrecision; text-rendering:geometricPrecision; image-rendering:optimizeQuality; fill-rule:evenodd; clip-rule:evenodd"
viewBox="0 0 3703 2083"
 xmlns:xlink="http://www.w3.org/1999/xlink">
 <defs>
  <style type="text/css">
   <![CDATA[
    .fil92 {fill:#FEFEFE}
    .fil118 {fill:#FBDDEA}
    .fil117 {fill:#FAD5E2}
    .fil103 {fill:#FAD3E1}
    .fil125 {fill:#FAD3DF}
    .fil122 {fill:#FAD2E0}
    .fil61 {fill:#F9D0E2}
    .fil114 {fill:#F9CCDC}
    .fil65 {fill:#F8C8DD}
    .fil85 {fill:#F8C7DC}
    .fil126 {fill:#F9C6D7}
    .fil105 {fill:#F8C4D6}
    .fil58 {fill:#F8C0D8}
    .fil51 {fill:#F8C0D5}
    .fil49 {fill:#F7B8CC}
    .fil104 {fill:#F7B7D2}
    .fil73 {fill:#F6B2CB}
    .fil108 {fill:#F6AFCB}
    .fil59 {fill:#F6ABC9}
    .fil86 {fill:#F5A9C6}
    .fil76 {fill:#F5A7C5}
    .fil101 {fill:#EE3875}
    .fil124 {fill:#EE3870}
    .fil100 {fill:#EE3573}
    .fil9 {fill:#EE3670}
    .fil2 {fill:#EE366F}
    .fil111 {fill:#EE366E}
    .fil52 {fill:#EE366C}
    .fil106 {fill:#EE366B}
    .fil55 {fill:#EE366B}
    .fil43 {fill:#EE3669}
    .fil98 {fill:#EE3769}
    .fil19 {fill:#EE326C}
    .fil17 {fill:#EE336A}
    .fil18 {fill:#EE3368}
    .fil10 {fill:#EE3367}
    .fil4 {fill:#EE3365}
    .fil23 {fill:#EE3463}
    .fil89 {fill:#EE3462}
    .fil113 {fill:#F7DBE5}
    .fil115 {fill:#F6D4E0}
    .fil74 {fill:#F2BED0}
    .fil72 {fill:#F0ABC5}
    .fil22 {fill:#E63060}
    .fil116 {fill:#EBA5BB}
    .fil84 {fill:#E8E7F3}
    .fil25 {fill:#DF3881}
    .fil21 {fill:#DF325B}
    .fil37 {fill:#DE3161}
    .fil14 {fill:#D93257}
    .fil63 {fill:#E0DDEE}
    .fil38 {fill:#D63261}
    .fil62 {fill:#DEDAED}
    .fil57 {fill:#DED9EC}
    .fil36 {fill:#D53263}
    .fil110 {fill:#DBD8EC}
    .fil93 {fill:#D0335A}
    .fil24 {fill:#D03356}
    .fil47 {fill:#CE335E}
    .fil102 {fill:#CE335C}
    .fil109 {fill:#CE3359}
    .fil27 {fill:#CE3358}
    .fil46 {fill:#CE3358}
    .fil97 {fill:#CE3457}
    .fil95 {fill:#CE3456}
    .fil94 {fill:#CC3355}
    .fil56 {fill:#CC3452}
    .fil121 {fill:#D4D0E8}
    .fil69 {fill:#CD3361}
    .fil28 {fill:#CD3361}
    .fil48 {fill:#CD335F}
    .fil67 {fill:#CD335D}
    .fil6 {fill:#CD335D}
    .fil40 {fill:#CD335B}
    .fil91 {fill:#CD335A}
    .fil44 {fill:#CB3358}
    .fil41 {fill:#CB3357}
    .fil64 {fill:#D1CEE7}
    .fil68 {fill:#D1CCE5}
    .fil119 {fill:#CB3361}
    .fil66 {fill:#C8C2E0}
    .fil79 {fill:#BE3458}
    .fil71 {fill:#C4BDDE}
    .fil70 {fill:#BFBADC}
    .fil82 {fill:#B73466}
    .fil88 {fill:#99D3EE}
    .fil112 {fill:#9AD3EB}
    .fil107 {fill:#99D1ED}
    .fil87 {fill:#8EC2DD}
    .fil96 {fill:#8EC0DC}
    .fil8 {fill:#95A4B6}
    .fil26 {fill:#949FB1}
    .fil77 {fill:#81C8E8}
    .fil54 {fill:#83C1E5}
    .fil53 {fill:#7EB9DD}
    .fil50 {fill:#78B9DC}
    .fil45 {fill:#76B9DA}
    .fil34 {fill:#7C869E}
    .fil78 {fill:#749CBE}
    .fil80 {fill:#6C90B3}
    .fil83 {fill:#6C89AD}
    .fil7 {fill:#59718D}
    .fil75 {fill:#312D33}
    .fil99 {fill:#5755A2}
    .fil20 {fill:#5854A1}
    .fil3 {fill:#4A5F80}
    .fil5 {fill:#5654A1}
    .fil16 {fill:#5653A1}
    .fil39 {fill:#5751A0}
    .fil60 {fill:#5553A1}
    .fil32 {fill:#5551A0}
    .fil33 {fill:#56509F}
    .fil12 {fill:#53509F}
    .fil31 {fill:#544F9E}
    .fil15 {fill:#524B9C}
    .fil13 {fill:#4F499B}
    .fil11 {fill:#4D489A}
    .fil35 {fill:#4C4699}
    .fil120 {fill:#4B4397}
    .fil123 {fill:#4A4397}
    .fil29 {fill:#4A4196}
    .fil81 {fill:#473F95}
    .fil42 {fill:#323054}
    .fil90 {fill:#322F53}
    .fil30 {fill:#312E52}
    .fil0 {fill:#E6E7E8}
    .fil127 {fill:#373435;fill-opacity:0.031373}
    .fil1 {fill:#373435;fill-opacity:0.078431}
   ]]>
  </style>
 </defs>
 <g id="Layer_x0020_1">
  <metadata id="CorelCorpID_0Corel-Layer"/>
  <polygon class="fil0" points="0,0 3704,0 3704,2083 0,2083 "/>
  <polygon class="fil1" points="759,2083 751,2083 741,2083 738,2083 734,2083 717,2083 664,2083 657,2083 649,2083 648,2083 644,2083 644,2083 628,2083 589,2083 581,2083 533,2083 531,2083 527,2083 525,2083 525,2083 522,2083 522,2083 518,2083 518,2083 494,2083 464,2083 453,2083 440,2083 430,2083 428,2083 425,2083 424,2083 423,2083 423,2083 423,2083 415,2083 414,2083 411,2083 407,2083 393,2083 392,2083 391,2083 390,2083 388,2083 384,2083 384,2083 383,2083 383,2083 383,2083 382,2083 382,2083 377,2083 376,2083 376,2083 375,2083 367,2083 364,2083 364,2083 357,2083 357,2083 357,2083 357,2083 353,2083 353,2083 350,2083 349,2083 347,2083 338,2083 336,2083 325,2083 318,2083 313,2083 312,2083 312,2083 309,2083 300,2083 288,2083 287,2083 286,2083 286,2083 286,2083 282,2083 276,2083 267,2083 263,2083 261,2083 259,2083 254,2083 242,2083 237,2083 228,2083 224,2083 215,2083 215,2083 215,2083 214,2083 213,2083 212,2083 210,2083 209,2083 195,2083 195,2083 193,2083 192,2083 191,2083 188,2083 183,2083 182,2083 181,2083 181,2083 181,2083 180,2083 176,2083 176,2083 176,2083 171,2083 166,2083 162,2083 160,2083 157,2083 153,2083 152,2083 149,2083 146,2083 146,2083 145,2083 145,2083 139,2083 139,2083 138,2083 138,2083 138,2083 137,2083 137,2083 136,2083 133,2083 133,2083 131,2083 130,2083 129,2083 128,2083 128,2083 128,2083 124,2083 123,2083 112,2083 112,2083 111,2083 111,2083 100,2083 96,2083 95,2083 95,2083 95,2083 95,2083 95,2083 93,2083 93,2083 92,2083 90,2083 90,2083 90,2083 88,2083 87,2083 87,2083 85,2083 84,2083 83,2083 82,2083 80,2083 80,2083 77,2083 76,2083 76,2083 75,2083 74,2083 74,2083 73,2083 72,2083 69,2083 62,2083 62,2083 62,2083 61,2083 61,2083 60,2083 60,2083 59,2083 59,2083 59,2083 58,2083 57,2083 56,2083 55,2083 55,2083 55,2083 55,2083 55,2083 54,2083 53,2083 53,2083 53,2083 52,2083 51,2083 50,2083 47,2083 46,2083 46,2083 44,2083 44,2083 44,2083 44,2083 43,2083 43,2083 43,2083 43,2083 42,2083 42,2083 42,2083 40,2083 39,2083 39,2083 39,2083 38,2083 37,2083 37,2083 37,2083 37,2083 36,2083 35,2083 35,2083 35,2083 35,2083 34,2083 33,2083 33,2083 33,2083 33,2083 32,2083 31,2083 31,2083 31,2083 31,2083 29,2083 28,2083 28,2083 27,2083 27,2083 26,2083 26,2083 25,2083 25,2083 24,2083 24,2083 20,2083 20,2083 18,2083 17,2083 16,2083 16,2083 15,2083 12,2083 10,2083 9,2083 9,2083 8,2083 3,2083 3,2083 0,2083 0,2083 0,2083 0,2083 0,2082 0,2082 0,2081 0,2081 0,2081 0,2081 0,2080 0,2080 0,2078 0,2077 0,2077 0,2077 0,2076 0,2076 0,2076 0,2076 0,2074 0,2073 0,2073 0,2068 0,2068 0,2067 0,2067 0,2067 0,2066 0,2065 0,2065 0,2065 0,2064 0,2064 0,2064 0,2064 0,2064 0,2064 0,2062 0,2061 0,2059 0,2056 0,2055 0,2055 0,2053 0,2052 0,2049 0,2047 0,2047 0,2046 0,2045 0,2044 0,2043 0,2042 0,2041 0,2041 0,2039 0,2036 0,2033 0,2032 0,2031 0,2031 0,2029 0,2029 0,2028 0,2028 0,2027 0,2027 0,2025 0,2024 0,2019 0,2018 0,2017 0,2016 0,2013 0,2012 0,2011 0,2011 0,2011 0,2010 0,2009 0,2006 0,2006 0,2004 0,2003 0,2002 0,2002 0,2001 0,2000 0,1998 0,1996 0,1996 0,1995 0,1993 0,1989 0,1989 0,1988 0,1987 0,1977 0,1974 0,1974 0,1972 0,1971 0,1970 0,1970 0,1969 0,1965 0,1963 0,1962 0,1962 0,1962 0,1960 0,1960 0,1959 0,1959 0,1957 0,1956 0,1956 0,1955 0,1954 0,1953 0,1953 0,1953 0,1952 0,1951 0,1951 0,1948 0,1947 0,1947 0,1944 0,1943 0,1942 0,1942 0,1940 0,1940 0,1940 0,1939 0,1939 0,1938 0,1935 0,1935 0,1934 0,1934 0,1934 0,1934 0,1934 0,1934 0,1933 0,1933 0,1932 0,1932 0,1930 0,1929 0,1929 0,1929 0,1928 0,1928 0,1928 0,1928 0,1927 0,1925 0,1923 0,1922 0,1921 0,1921 0,1921 0,1921 0,1919 0,1909 0,1907 0,1903 0,1902 0,1901 0,1900 0,1899 0,1898 0,1896 0,1895 0,1894 0,1892 0,1885 0,1883 0,1856 0,1854 0,1852 0,1851 0,1851 0,1848 0,1847 0,1842 0,1831 0,1830 0,1829 0,1828 0,1826 0,1823 0,1818 0,1817 0,1816 0,1816 0,1816 0,1815 0,1811 0,1804 0,1804 0,1801 0,1799 0,1797 0,1797 0,1795 0,1789 0,1604 0,1588 1588,594 1582,598 1575,602 1569,607 1563,611 1557,616 1550,621 1544,626 1538,631 1533,636 1527,641 1521,647 1515,652 1510,658 1504,664 1497,671 1491,679 1484,687 1478,694 1472,702 1466,710 1461,718 1456,726 1450,735 1445,743 1441,751 1436,760 1432,768 1428,777 1424,786 1420,795 1417,804 1413,813 1410,822 1408,831 1405,840 1403,850 1400,859 1398,868 1396,878 1395,888 1393,897 1392,907 1391,917 1390,927 1390,937 1389,947 1389,951 1389,954 1389,957 1389,960 1389,963 1390,966 1390,970 1390,973 1390,976 1390,979 1391,982 1391,985 1391,989 1391,992 1392,995 1392,998 1392,1004 1393,1010 1394,1015 1395,1021 1396,1027 1397,1032 1398,1038 1399,1044 1400,1049 1401,1055 1403,1060 1404,1066 1406,1071 1407,1077 1409,1082 1411,1088 1412,1093 1414,1099 1416,1104 1418,1110 1421,1115 1423,1120 1425,1126 1428,1131 1428,1132 1428,1133 1429,1134 1429,1135 1429,1135 1429,1136 1429,1137 1428,1138 1391,1160 1392,1161 1394,1162 1395,1163 1397,1164 1400,1164 1402,1164 1404,1168 1424,1156 1425,1157 1427,1158 1428,1159 1430,1159 1431,1159 1433,1158 1434,1158 1436,1157 1438,1159 1440,1162 1441,1164 1443,1167 1444,1170 1446,1172 1447,1175 1449,1177 1448,1178 1447,1179 1446,1180 1445,1181 1445,1182 1444,1183 1444,1184 1443,1185 1442,1187 1441,1189 1440,1191 1439,1193 1438,1195 1437,1196 1436,1198 1434,1200 1413,1213 1414,1215 1417,1219 1417,1219 1415,1221 1413,1222 1461,1194 1462,1194 1462,1194 1463,1194 1463,1194 1463,1195 1464,1195 1464,1195 1464,1196 1467,1199 1468,1200 2404,642 2401,644 2399,646 2397,649 2396,653 2395,657 2395,657 2395,657 2395,658 2395,658 2428,638 2425,640 2422,642 2395,658 2395,658 2395,659 2395,659 2395,660 2395,660 2393,662 2488,605 2484,607 2481,610 2479,614 2479,614 2479,615 2478,615 2478,616 2478,616 2478,616 2478,617 2477,617 2370,681 2368,683 2363,689 2358,694 2354,699 2332,712 2332,712 2332,716 2332,718 2405,675 2405,675 2439,655 2442,654 2445,652 2447,651 2450,649 2453,648 2456,647 2459,645 2461,644 2464,643 2467,642 2470,641 2473,640 2474,640 2482,635 2483,636 2483,637 2484,638 2485,639 2487,639 2488,639 2489,639 2491,639 2491,638 2492,640 2512,628 2512,628 2513,628 2513,628 2513,628 2513,628 2513,629 2513,629 2513,629 2517,629 2521,628 2525,628 2529,628 2530,628 2857,435 2856,435 2856,435 2856,436 2856,436 2856,436 2856,437 2856,437 2856,437 2856,438 2856,438 2856,438 2857,438 2857,439 2857,439 2858,439 2858,438 2858,438 2784,482 2783,485 2781,488 2781,493 2782,497 2778,501 2775,505 2771,510 2768,514 2765,518 2762,523 2759,527 2756,532 2756,532 2738,542 2738,543 2816,497 2816,496 2817,496 2817,496 2817,496 2817,496 2817,496 2817,496 2738,543 2737,544 2737,544 2793,511 2794,512 2795,512 2796,512 2797,512 2798,512 2800,512 2800,512 2804,509 2807,512 2810,515 2813,518 2816,521 2819,524 2822,527 2825,530 2828,533 2833,539 2838,544 2843,549 2849,554 2854,560 2859,565 2864,570 2869,575 2872,578 2875,581 2878,584 2881,588 2884,591 2887,594 2890,597 2894,600 2896,603 2899,606 2902,608 2905,611 2908,614 2910,617 2913,620 2916,623 2919,625 2922,628 2924,631 2927,634 2930,637 2933,640 2936,642 2939,645 2939,646 2939,646 2940,647 2940,648 2941,648 2941,649 2941,650 2941,651 2908,670 2911,670 2916,670 2921,669 2926,669 2932,669 2937,668 2942,668 2947,667 2950,670 2953,672 2956,674 2960,675 2963,675 2966,674 2970,673 2297,1060 2296,1061 2296,1061 1732,1386 1735,1387 1735,1387 3044,632 3044,632 3044,633 3043,633 3043,633 3043,634 3043,634 3043,635 3044,635 3044,635 3044,636 3044,636 3044,636 3044,636 3045,636 3045,636 3046,636 3046,636 1740,1388 1742,1388 1749,1390 1757,1391 1764,1393 1772,1394 1779,1395 2238,1132 2239,1132 2239,1132 2240,1133 2241,1133 2241,1133 2242,1133 2243,1133 2244,1133 2247,1135 2250,1136 2254,1137 2257,1138 2261,1139 2264,1140 2268,1141 2271,1142 2271,1144 2271,1146 2271,1147 2271,1149 2271,1150 2272,1152 2272,1152 2395,1082 2394,1082 2393,1083 2392,1084 2391,1085 2391,1085 2390,1086 2390,1087 2389,1087 2388,1088 2388,1089 2274,1154 2274,1154 2275,1155 2276,1156 2277,1156 2279,1156 2280,1157 2281,1157 2283,1157 2284,1158 2287,1159 2290,1160 2293,1161 2297,1162 2300,1163 2303,1164 2306,1165 2309,1166 2312,1167 2315,1168 2318,1169 2321,1170 2324,1171 2328,1172 2331,1173 2334,1174 2335,1174 2336,1174 2347,1168 2349,1168 2351,1169 2353,1169 2355,1170 2357,1171 2359,1171 2360,1172 2362,1172 2362,1174 2362,1176 2362,1178 2362,1180 2363,1181 2363,1183 2365,1184 2366,1186 2370,1187 2373,1188 2377,1189 2380,1190 2383,1191 2387,1192 2390,1193 2394,1195 2394,1196 2395,1196 2396,1197 2397,1198 2398,1198 2399,1199 2400,1199 2401,1200 2406,1202 2412,1203 2418,1205 2424,1207 2429,1209 2435,1210 2441,1212 2447,1214 2452,1216 2458,1218 2464,1219 2470,1221 2475,1223 2481,1225 2487,1226 2493,1228 2498,1230 2504,1232 2509,1233 2514,1235 2520,1237 2525,1238 2531,1240 2536,1242 2542,1243 2547,1245 2552,1247 2558,1249 2563,1250 2569,1252 2574,1254 2580,1255 2585,1257 2590,1259 2596,1260 2601,1262 2607,1264 2612,1265 2618,1267 2623,1269 2629,1270 2634,1272 2639,1274 2645,1276 2650,1277 2656,1279 2661,1281 2667,1282 2672,1284 2678,1286 2684,1288 2690,1290 2695,1291 2701,1293 2707,1295 2713,1297 2719,1299 2724,1300 2730,1302 2736,1304 2742,1306 2748,1308 2753,1309 2759,1311 2764,1313 2770,1314 2775,1316 2780,1318 2785,1319 2791,1321 2796,1323 2801,1324 2807,1326 2812,1327 2817,1329 2822,1331 2828,1332 2833,1334 2838,1336 2843,1337 2849,1339 2854,1341 2859,1342 2864,1344 2870,1345 2875,1347 2880,1349 2885,1350 2891,1352 2896,1354 2901,1355 2906,1357 2912,1358 2917,1360 2922,1362 2927,1363 2935,1366 2942,1368 2949,1370 2956,1372 2963,1374 2970,1377 2977,1379 2984,1381 2992,1383 2999,1386 3006,1388 3013,1390 3020,1392 3027,1394 3034,1397 3041,1399 3042,1399 3043,1399 3044,1400 3045,1400 3046,1400 3047,1399 3048,1399 1770,2083 1764,2083 1596,2083 1352,2083 1218,2083 969,2083 838,2083 823,2083 784,2083 "/>
  <g id="_2320025647728">
   <circle class="fil2" cx="1585" cy="1109" r="40"/>
   <circle class="fil2" cx="1678" cy="1128" r="40"/>
   <circle class="fil2" cx="2080" cy="914" r="40"/>
   <path class="fil3" d="M2394 1195c-9,-4 -18,-6 -27,-9 1,-5 6,-7 8,-11 11,-18 17,-37 22,-58 2,-9 4,-19 3,-29 0,-2 0,-4 2,-5 13,3 25,7 38,11 163,51 327,102 490,152 39,12 77,24 116,36 1,0 3,1 4,1 0,38 0,77 0,115 -2,2 -5,2 -8,1 -38,-12 -76,-24 -114,-35 -56,-17 -112,-35 -168,-52 -31,-10 -62,-19 -93,-29 -58,-18 -116,-36 -174,-54 -31,-9 -61,-19 -92,-29 -3,-1 -5,-3 -7,-5z"/>
   <path class="fil4" d="M1059 1351c7,-13 14,-26 21,-39 3,-6 7,-12 10,-18 5,-1 7,2 9,6 1,4 -1,7 -3,10 -20,36 -37,74 -59,110 -2,4 -3,7 -1,11 0,1 0,2 0,2 -2,8 -6,14 -14,17 -1,0 -1,0 -2,0 -3,-1 -5,1 -7,3 -13,17 -26,33 -41,47 -3,3 -5,6 -6,10 -3,14 -9,18 -23,17 -1,0 -1,0 -2,0 -1,0 -2,1 -4,2 -13,11 -27,20 -42,29 -6,3 -10,7 -13,13 -3,6 -7,11 -15,10 -4,-1 -8,-4 -13,-2 -19,7 -37,15 -56,21 -3,1 -5,4 -6,6 -7,10 -15,12 -26,7 -3,-2 -7,-2 -10,-1 -18,4 -36,8 -55,10 -5,1 -10,3 -13,7 -5,6 -13,8 -20,4 -5,-2 -10,-5 -15,-9 0,-2 0,-5 0,-7 6,-4 7,-10 5,-17 -3,-9 -3,-19 -4,-28 0,-2 0,-5 -2,-7 0,-8 0,-16 0,-24 7,-6 10,-6 17,2 4,7 2,15 5,22 2,11 4,22 6,34 2,10 6,13 16,11 11,-2 21,-3 31,-6 2,0 4,-1 5,-1 1,0 1,0 2,0 4,-1 7,-2 11,-3 7,-1 11,-5 12,-12 2,-3 2,-6 1,-10 -7,-28 -15,-56 -23,-85 -1,-4 -2,-7 -1,-11 5,-5 9,-3 14,0 5,4 5,9 6,14 7,26 14,52 21,79 3,12 6,14 17,10 12,-4 23,-9 35,-13 9,-4 16,-9 18,-19 3,-3 2,-6 1,-10 -10,-30 -20,-60 -30,-90 -1,-4 -3,-9 -3,-14 0,-1 1,-2 1,-2 5,-5 9,-2 14,1 4,3 5,8 6,13 10,30 20,59 30,89 1,2 1,3 2,5 3,6 4,7 10,4 5,-3 10,-6 16,-9 6,-3 11,-8 17,-11 0,0 1,-1 1,-1 10,-6 15,-14 17,-25 3,-4 2,-7 0,-11 -12,-26 -24,-52 -36,-77 -1,-2 -2,-5 0,-7 3,-4 7,-3 11,-2 3,1 5,4 7,7 12,25 24,50 36,76 4,9 6,9 13,2 12,-13 23,-25 34,-39 4,-5 3,-11 4,-17 0,-1 0,-1 0,-2 0,-2 1,-3 2,-5 3,-4 0,-8 -2,-12 -6,-11 -13,-21 -19,-32 -1,-5 -7,-8 -5,-13 3,-5 7,-5 12,-3 4,2 5,5 7,8 7,12 14,23 22,35 3,5 5,5 8,0 10,-15 18,-32 27,-47 1,-3 3,-6 5,-9 1,-3 3,-4 5,-5z"/>
   <path class="fil5" d="M753 1488c-4,-3 -8,-5 -12,-1 -1,0 -1,0 -2,0 -6,-11 -7,-22 -10,-34 -4,-16 -9,-32 -13,-48 -1,-4 -2,-9 -5,-10 -4,-1 -5,4 -7,7 -14,18 -26,38 -36,58 -2,4 -3,7 0,11 3,7 3,15 0,22 -2,4 -2,8 -2,13 2,11 4,22 6,32 1,3 1,6 -2,8 -4,-6 -9,-5 -15,-3 0,-30 0,-61 0,-91 3,-1 4,-4 5,-6 11,-18 22,-36 35,-53 2,-3 3,-5 3,-9 0,-10 5,-17 16,-19 3,0 6,-2 8,-4 13,-13 27,-25 43,-33 2,-1 3,-3 4,-5 5,-12 14,-16 26,-10 3,1 5,1 8,0 10,-3 20,-5 30,-7 3,-1 6,-2 9,-5 6,-8 17,-9 25,-2 3,3 6,3 10,3 16,0 33,2 49,5 3,1 6,1 9,-1 10,-6 20,-4 26,6 1,2 3,4 6,5 32,9 62,22 93,33 -1,2 -1,4 -3,6 -4,3 -8,1 -11,-1 -25,-9 -50,-19 -75,-27 -2,-1 -3,-1 -5,-1 1,3 3,4 3,7 0,2 1,4 3,7 5,7 9,15 14,22 1,2 3,5 1,8 -4,-1 -7,-2 -11,1 -3,0 -4,-2 -6,-4 -7,-10 -13,-20 -19,-30 -3,-5 -6,-9 -12,-10 -3,-1 -6,-3 -8,-6 -3,-5 -7,-6 -12,-7 -13,-2 -27,-3 -40,-4 -8,0 -10,4 -7,11 5,14 12,26 18,39 6,12 11,25 17,37 2,4 5,8 1,12 -4,-2 -7,-1 -11,1 -4,0 -5,-3 -7,-5 0,-4 -2,-8 -4,-12 -10,-22 -20,-43 -31,-65 -2,-3 -3,-7 -6,-9 -5,-5 -11,-8 -19,-5 -7,2 -14,3 -21,6 -8,3 -10,9 -6,17 8,24 17,48 23,72 1,2 1,4 2,6 0,1 1,1 1,2 3,5 4,11 6,17 1,3 2,5 -1,7 -4,-3 -8,-3 -12,-1 -5,0 -5,-4 -6,-7 -10,-28 -18,-56 -28,-85 -1,-2 -1,-4 -2,-6 -5,-11 -9,-12 -20,-5 -11,7 -20,14 -29,24 -2,2 -4,5 -5,8 -1,5 -1,10 -3,15 -1,3 1,5 3,7 7,27 15,54 22,81 1,4 4,8 0,13z"/>
   <path class="fil6" d="M1021 1449c1,-1 1,-2 2,-2 6,-3 9,-8 10,-14 7,5 6,14 -2,19 -4,3 -9,6 -14,6 -1,0 -2,1 -2,2 0,2 0,3 -1,5 -6,9 -13,17 -20,26 -1,1 -2,1 -2,2 -1,1 -2,1 -3,0 -4,3 -7,6 -9,10 -5,9 -10,19 -14,29 -2,5 -8,8 -14,8 -9,0 -15,4 -22,9 -2,1 -3,2 -5,3 -1,0 -2,1 -3,1 -1,0 -1,0 -2,-1 -4,2 -8,4 -11,8 0,1 0,1 -1,2 -2,2 -5,4 -7,5 -6,4 -12,7 -15,15 -3,9 -12,13 -22,11 -6,-1 -11,-1 -16,1 -1,1 -3,0 -4,0 -4,1 -8,2 -11,4 -1,2 -2,3 -4,4 -8,4 -16,6 -25,9 -3,1 -6,2 -8,5 -10,13 -18,15 -33,7 -1,0 -2,0 -3,-1 -1,0 -2,-1 -3,-2 -6,1 -11,2 -17,4 -2,4 -5,4 -9,5 -6,1 -13,2 -19,3 -9,1 -17,2 -24,10 -5,6 -13,7 -21,3 -4,-3 -10,-4 -13,-8 0,-3 0,-7 0,-10 5,0 8,0 12,4 7,6 17,5 22,-4 2,-3 4,-4 8,-5 21,-4 43,-7 64,-12 3,-1 6,0 8,2 9,6 18,4 23,-6 1,-2 2,-4 5,-5 19,-6 38,-14 57,-22 1,0 2,0 3,-1 4,2 7,5 12,3 8,0 12,-5 14,-12 1,-4 3,-7 7,-9 17,-9 33,-20 48,-32 2,1 2,0 3,-2 2,-2 4,-1 6,0 9,1 17,-5 17,-14 0,-6 2,-10 6,-13 15,-14 28,-31 41,-47 2,-3 5,-5 9,-4 0,0 0,1 0,1 1,0 1,0 1,-1z"/>
   <path class="fil3" d="M2238 1132c-4,9 -9,18 -13,27 -6,13 -14,25 -21,37 1,3 0,5 -2,8 -8,12 -16,24 -25,36 -23,28 -50,54 -79,75 -48,35 -101,60 -160,73 -27,6 -54,9 -82,10 -41,2 -81,-2 -120,-12 -58,-14 -110,-39 -157,-75 -11,-8 -22,-15 -32,-25 -3,-6 -9,-11 -14,-16 -42,-41 -74,-89 -96,-143 -1,-3 -3,-7 -2,-11 -3,-13 -8,-25 -11,-37 -9,-33 -14,-66 -15,-99 -2,-41 3,-81 12,-121 14,-55 37,-106 71,-152 46,-61 103,-108 173,-139 49,-21 100,-34 153,-36 7,0 15,0 22,-3 2,-1 4,-1 7,0 43,4 86,11 127,24 105,35 185,101 241,196 8,13 14,27 21,41 2,2 4,3 5,6 4,8 6,17 9,25 3,9 5,17 9,25 3,7 2,15 7,21 2,2 5,2 5,5 0,0 0,1 0,1 -7,7 -6,14 -4,23 6,32 7,64 5,96 -1,19 -3,37 -7,56 1,28 -11,53 -20,78 -1,2 -3,4 -5,5z"/>
   <path class="fil7" d="M1435 1117c6,18 14,35 23,51 8,15 17,29 27,43 10,14 21,28 33,41 9,10 18,19 27,28 1,1 3,3 3,5 -4,2 -7,-1 -9,-3 -18,-15 -35,-30 -49,-49 -1,-1 -2,-2 -3,-3 -2,-2 -3,-5 -3,-8 -6,-9 -13,-17 -19,-26 -1,-1 -2,-2 -3,-2 -5,-1 -6,-6 -8,-9 -1,-2 -2,-5 -4,-7 -4,-7 -8,-14 -13,-21 -1,-7 -5,-12 -9,-17 -1,-1 0,0 0,-1 0,0 0,-1 1,0 4,-2 1,-5 0,-7 -6,-14 -12,-28 -17,-43 -9,-29 -16,-59 -19,-90 -2,-17 -3,-34 -2,-51 3,-109 41,-204 115,-284 58,-63 129,-104 213,-124 22,-5 45,-9 68,-10 14,-1 27,-1 41,-1 -1,5 -5,4 -8,4 -33,1 -66,7 -98,16 -47,13 -90,34 -130,62 -26,18 -50,39 -72,63 -36,40 -64,84 -83,134 -16,40 -25,82 -28,125 -4,60 3,119 24,176 1,3 2,6 4,9z"/>
   <path class="fil8" d="M1435 1117c-4,1 -5,-2 -6,-5 -7,-18 -12,-36 -16,-55 -9,-40 -11,-80 -9,-121 3,-45 13,-89 29,-131 14,-34 31,-66 53,-96 29,-39 63,-73 103,-101 47,-33 98,-55 153,-68 18,-4 37,-7 56,-9 9,-1 19,0 28,-2 7,0 13,-1 20,1 -3,1 -6,0 -8,4 -1,2 -4,1 -6,1 -12,1 -25,1 -37,2 -32,3 -62,10 -93,20 -55,19 -105,47 -148,86 -69,61 -113,137 -134,226 -6,26 -9,51 -10,78 -2,41 3,82 12,121 3,14 7,27 12,40 1,3 3,5 1,9z"/>
   <path class="fil9" d="M2271 800c6,2 12,3 18,5 6,-3 12,0 18,2 27,6 53,15 80,21 6,1 12,3 18,4 5,-3 1,-6 0,-8 -8,-14 -16,-28 -24,-42 -2,-4 -5,-8 -4,-13 3,-5 7,-4 12,-3 2,1 4,3 5,5 4,5 6,12 11,17 6,10 11,20 17,30 2,3 4,7 3,11 -5,5 -11,9 -16,14 -10,2 -20,-2 -29,-4 -20,-4 -40,-10 -60,-16 -9,-3 -19,-7 -28,1 -3,1 -6,0 -9,-1 -4,-2 -8,-2 -10,2 -6,2 -11,5 -16,6 -3,-2 -3,-6 -5,-9 0,-1 -1,-3 -1,-4 -3,-5 -2,-10 3,-13 5,-4 10,-3 14,0 1,0 1,1 2,1 1,-2 1,-6 4,-7z"/>
   <path class="fil10" d="M2705 628c7,-14 13,-28 20,-42 4,-9 9,-18 14,-26 5,0 7,2 9,6 0,3 0,5 -2,8 -22,43 -39,90 -61,133 -9,17 -18,33 -29,49 -2,3 -4,7 -9,7 -5,-5 -1,-10 2,-14 6,-9 12,-19 18,-29 2,-4 3,-8 2,-13 1,-9 6,-16 10,-24 6,-13 11,-26 17,-39 3,-6 4,-12 10,-16z"/>
   <path class="fil11" d="M2705 628c-2,6 -4,11 -7,16 -3,2 -6,2 -9,1 -26,-5 -52,-10 -78,-14 -1,0 -1,-1 -2,-1 -3,-7 0,-13 3,-19 31,4 62,11 93,16z"/>
   <path class="fil12" d="M2305 809c-6,-1 -11,-3 -17,-5 11,-21 21,-42 34,-62 4,-6 7,-12 11,-17 6,0 10,5 14,9 1,3 -1,6 -3,9 -12,19 -23,39 -33,58 -2,3 -3,6 -7,7z"/>
   <path class="fil11" d="M2509 610c24,-3 47,-4 71,-2 1,6 2,12 -2,18 -1,1 -3,1 -4,1 -20,0 -41,0 -61,1 -6,-5 -5,-12 -4,-19z"/>
   <path class="fil13" d="M2422 642c17,-11 36,-19 56,-25 4,5 6,10 6,16 -1,3 -4,4 -7,5 -16,6 -31,11 -45,22 -1,0 -1,0 -2,0 -3,-6 -6,-12 -8,-18z"/>
   <path class="fil14" d="M1238 1156c18,-6 36,-11 55,-14 3,5 5,11 4,17 -2,3 -4,4 -7,4 -13,3 -25,6 -38,10 -2,1 -5,1 -7,0 -4,-5 -7,-10 -6,-17z"/>
   <path class="fil15" d="M2354 699c12,-15 25,-28 41,-39 5,3 8,8 11,13 0,3 -2,5 -4,6 -11,9 -21,20 -31,30 -1,1 -2,2 -4,2 -6,-3 -10,-7 -13,-13z"/>
   <path class="fil16" d="M1296 1159c-3,-5 -3,-11 -3,-16 5,-10 11,-13 20,-12 6,1 9,4 13,8 2,1 4,3 4,6 1,4 0,7 0,11 -1,3 -3,5 -6,6 -3,0 -4,-2 -6,-3 -2,-2 -5,-2 -8,-1 -4,2 -1,7 -5,9 -5,1 -8,-1 -9,-7z"/>
   <path class="fil17" d="M2404 674c-4,-4 -8,-8 -10,-14 0,-1 0,-2 0,-4 1,-11 9,-17 20,-16 2,0 4,1 6,2 6,4 8,10 9,17 2,3 1,6 -2,9 -1,0 -1,1 -2,1 -8,-4 -14,-1 -17,7 -3,1 -5,0 -6,-2z"/>
   <path class="fil18" d="M2579 625c-2,-6 -1,-11 1,-17 3,-4 7,-7 13,-8 9,-1 15,3 19,11 1,6 0,12 -3,17 0,1 0,2 -1,3 -2,1 -4,0 -6,-2 -5,-5 -9,-4 -12,2 -1,1 -2,2 -3,3 -7,-1 -9,-2 -9,-10z"/>
   <path class="fil5" d="M2745 566c-2,-2 -5,-4 -7,-6 -1,-3 -2,-6 -2,-10 0,-8 6,-15 13,-17 2,-1 4,-1 7,-1 8,-3 12,2 16,8 3,5 5,10 1,16 -2,2 -5,1 -7,0 -3,-1 -5,-2 -7,1 -2,4 2,8 -1,12 -1,1 -3,1 -4,1 -3,0 -6,-1 -7,-4z"/>
   <path class="fil18" d="M2482 633c-3,-5 -5,-10 -5,-16 1,-1 1,-2 2,-3 6,-11 18,-14 27,-6 1,1 2,2 3,2 3,5 4,11 3,17 1,3 0,4 -2,6 0,0 -1,0 -1,0 -4,0 -6,-5 -11,-3 -4,2 -4,6 -7,9 -5,1 -8,0 -9,-5z"/>
   <path class="fil16" d="M2782 497c-3,-12 5,-22 15,-23 2,0 5,0 7,0 4,-1 7,1 10,4 2,2 2,5 4,7 2,4 2,8 -1,11 -2,1 -5,0 -7,0 -2,0 -5,-2 -7,1 -1,3 0,5 1,7 1,2 1,4 -1,6 -3,2 -6,2 -9,1 -6,-3 -13,-5 -12,-14z"/>
   <path class="fil16" d="M1238 1156c4,4 6,10 7,16 3,4 1,8 -2,11 -3,2 -5,-1 -7,-3 -2,-2 -5,-3 -8,-2 -4,2 -1,8 -5,10 -3,1 -6,0 -9,-2 -5,-5 -10,-9 -6,-17 0,-1 1,-3 1,-4 4,-10 14,-15 24,-11 2,1 3,2 5,2z"/>
   <path class="fil16" d="M1147 1214c0,-5 -1,-9 2,-14 5,-8 14,-11 22,-8 9,-1 11,6 14,12 1,7 0,13 -7,17 -3,0 -5,-2 -6,-4 -2,-3 -5,-4 -8,-2 -5,2 -1,7 -3,10 -1,1 -2,2 -4,2 -5,0 -6,-5 -9,-7 -2,-2 -3,-4 -1,-7z"/>
   <path class="fil19" d="M2354 699c5,2 10,6 12,12 5,4 4,9 1,14 -2,3 -5,2 -7,0 -3,-2 -5,-4 -9,-2 -3,2 -2,5 -1,8 0,1 0,2 -1,3 -1,1 -1,1 -2,0 -6,-2 -10,-4 -14,-9 -1,-2 -1,-4 -2,-6 -2,-12 6,-21 17,-21 1,0 3,0 4,0z"/>
   <path class="fil16" d="M1391 1137c4,-4 7,-7 13,-8 9,-1 15,3 19,9 5,5 5,9 2,17 -1,2 -2,4 -4,4 -4,0 -5,-3 -6,-6 -1,-2 -3,-4 -6,-3 -3,1 -3,3 -3,6 0,3 1,6 -2,8 -8,2 -11,-3 -14,-9 -2,-4 -3,-8 -1,-12 0,-3 1,-5 4,-6z"/>
   <path class="fil20" d="M1097 1300c-2,-2 -5,-4 -7,-6 -3,-8 -3,-16 4,-23 4,-3 8,-4 12,-4 4,-2 8,-2 11,2 2,2 4,4 6,6 4,10 3,17 -4,22 -3,1 -5,-1 -6,-4 -1,-2 -3,-4 -7,-4 -3,0 -4,3 -4,6 0,8 0,9 -5,6z"/>
   <path class="fil21" d="M1182 1205c-3,-5 -6,-10 -11,-12 11,-10 24,-17 38,-24 1,6 3,11 7,15 -3,6 -26,21 -33,21z"/>
   <path class="fil22" d="M2782 497c2,5 7,9 12,12 0,7 -17,29 -24,31 -4,-4 -8,-7 -14,-9 8,-12 17,-24 26,-35z"/>
   <path class="fil5" d="M2271 800c0,10 0,10 -3,15 -2,-1 -2,-4 -3,-5 -3,-3 -6,-4 -10,-3 -4,2 -6,5 -5,10 0,2 1,4 2,6 -1,1 -3,1 -4,0 -3,-9 -7,-17 -9,-25 -1,-3 1,-3 3,-4 13,-9 22,-6 30,8z"/>
   <path class="fil4" d="M1117 1270c-3,-2 -7,-3 -10,-4 12,-19 24,-36 40,-52 1,2 2,4 3,6 2,3 1,6 -1,9 -10,12 -19,25 -27,38 -1,2 -2,3 -4,2z"/>
   <path class="fil23" d="M1391 1137c-1,2 -1,4 -2,5 -2,2 -4,3 -7,3 -15,0 -30,0 -44,2 -3,0 -7,0 -9,-3 -1,-2 -1,-4 -2,-5 21,-2 43,-2 64,-1z"/>
   <path class="fil24" d="M1422 1155c2,-6 2,-11 0,-17 2,0 3,0 5,0 2,1 4,1 5,3 2,4 4,8 6,11 1,1 0,2 -1,3 -6,4 -10,4 -15,-1z"/>
   <path class="fil25" d="M2241 792c-1,1 -2,3 -3,4 -2,-2 -3,-4 -3,-6 2,0 4,1 6,1z"/>
   <path class="fil3" d="M2347 1168c-1,1 -2,2 -3,3 -3,3 -6,4 -11,3 -16,-5 -33,-10 -50,-16 -3,-1 -7,-1 -10,-4 20,-20 26,-47 31,-73 1,-7 2,-13 1,-20 0,-2 0,-4 2,-5 14,3 28,8 42,13 4,1 8,3 12,4 8,1 11,6 11,13 4,4 3,9 2,13 -3,20 -9,40 -18,58 -2,5 -4,10 -10,11z"/>
   <path class="fil26" d="M2271 1142c-9,-3 -18,-5 -27,-9 6,-12 12,-24 16,-37 3,-11 6,-23 8,-35 0,-3 1,-5 3,-6 6,1 11,3 17,5 3,1 5,2 8,1 7,1 8,7 8,12 -2,23 -8,45 -20,65 -3,4 -6,8 -12,4z"/>
   <path class="fil26" d="M2347 1168c15,-25 24,-53 26,-83 5,1 10,4 15,3 6,0 7,4 7,9 1,18 -4,35 -11,52 -3,7 -5,13 -10,19 -3,4 -6,9 -12,4 -5,-2 -10,-3 -15,-5z"/>
   <path class="fil27" d="M2745 566c3,1 5,1 8,2 2,2 1,5 0,7 -10,19 -18,39 -28,58 -3,5 -3,12 -9,15 -8,18 -16,36 -24,53 -11,25 -25,48 -41,70 -3,3 -5,7 -8,10 -4,0 -5,-3 -6,-6 1,-9 3,-11 10,-12 9,-11 16,-22 23,-35 19,-32 33,-66 47,-100 8,-18 15,-35 24,-52 1,-3 3,-6 4,-9z"/>
   <path class="fil28" d="M2289 822c2,-1 4,-2 5,-4 2,-5 5,-5 9,-3 8,3 17,5 25,7 24,7 48,13 72,18 2,1 5,1 7,1 3,4 4,8 0,12 -35,-6 -68,-16 -102,-26 -2,-1 -5,-1 -7,-2 -4,1 -7,2 -9,-3z"/>
   <path class="fil29" d="M2833 666c-13,0 -26,-3 -39,-5 -23,-3 -45,-7 -68,-12 -4,-3 -5,-7 -2,-12 9,-3 16,1 25,3 25,4 50,9 75,11 3,0 6,1 8,4 1,4 3,8 0,11z"/>
   <path class="fil30" d="M2362 1172c3,1 5,0 7,-2 2,-2 4,-4 5,-7 11,-19 17,-39 19,-61 0,-5 1,-11 -5,-14 2,-2 3,-4 5,-5 2,-2 5,-3 8,-1 2,9 2,18 0,27 -4,22 -10,43 -21,62 -2,4 -5,8 -8,11 -2,2 -4,3 -6,4 -6,-3 -4,-8 -4,-13z"/>
   <path class="fil31" d="M2522 856c-4,7 -8,13 -18,13 -5,0 -9,-1 -13,-5 -2,-2 -3,-3 -5,-4 -6,-6 -2,-11 -1,-17 0,-2 1,-3 2,-4 2,-2 5,-4 8,-6 3,-3 7,-2 11,-2 6,0 10,3 14,7 6,8 7,11 2,17z"/>
   <path class="fil32" d="M2639 774c1,2 2,4 3,6 3,16 -5,24 -22,24 -9,1 -11,-6 -15,-12 -2,-8 0,-15 6,-21 2,-1 4,-2 6,-4 10,-4 17,-1 21,7z"/>
   <path class="fil33" d="M2589 828c0,2 -1,4 -1,6 -3,9 -13,15 -22,12 -2,-1 -4,-1 -6,-2 -8,-1 -9,-8 -10,-15 0,-5 1,-10 5,-13 2,-2 5,-4 7,-6 3,-2 6,-2 9,-1 4,0 7,1 10,3 6,4 10,8 7,16z"/>
   <path class="fil34" d="M2271 1056c1,13 -3,26 -7,39 -3,10 -6,19 -11,29 -2,4 -4,9 -10,11 -2,0 -4,-1 -6,-2 1,-6 4,-12 6,-17 8,-21 14,-43 18,-65 0,0 1,-1 1,-1 0,5 5,5 8,7z"/>
   <path class="fil31" d="M2407 853c0,-4 0,-8 0,-12 3,-7 8,-11 15,-12 3,-4 7,-1 11,0 6,2 9,7 11,13 1,6 2,12 -5,16 -6,6 -13,9 -22,6 -5,-2 -8,-6 -10,-10z"/>
   <path class="fil30" d="M2271 1142c3,1 6,-1 8,-3 2,-3 4,-6 6,-9 8,-17 14,-34 16,-53 1,-6 0,-11 -4,-15 2,-2 3,-4 5,-5 2,-2 5,-2 7,0 3,10 2,19 0,29 -4,19 -9,37 -18,54 -2,4 -5,8 -7,11 -2,3 -5,5 -9,4 -4,-3 -3,-8 -3,-12z"/>
   <path class="fil35" d="M2947 667c-27,3 -54,3 -82,2 -3,-5 -1,-9 3,-12 2,-1 4,-1 6,-1 22,1 45,0 67,-2 1,0 2,0 3,1 3,4 4,8 3,13z"/>
   <path class="fil36" d="M2439 858c3,-5 3,-11 2,-16 2,-4 6,-4 9,-2 3,1 6,1 9,0 7,0 13,0 20,0 3,0 7,0 8,4 -1,5 -2,10 0,14 0,1 -1,2 -1,2 -16,1 -32,0 -47,-2z"/>
   <path class="fil37" d="M2589 828c-2,-6 -4,-11 -9,-14 -1,-4 2,-5 4,-7 4,-3 8,-7 12,-10 4,-2 6,-7 11,-6 2,5 7,9 12,12 -9,10 -20,17 -31,24z"/>
   <path class="fil38" d="M2553 829c1,6 3,11 7,15 -12,6 -25,10 -38,12 1,-6 0,-11 -4,-16 1,-3 3,-4 5,-4 6,-2 12,-4 18,-6 4,-2 7,-3 11,-1z"/>
   <path class="fil39" d="M2289 822c3,1 6,2 9,3 -4,6 -7,13 -11,19 -1,0 -1,0 -2,0 -7,-4 -15,-6 -23,-2 -1,1 -3,0 -4,0 -4,-3 -6,-7 -3,-11 5,-8 7,-8 16,-5 4,-1 6,-4 10,-6 3,1 6,1 8,2z"/>
   <path class="fil40" d="M2868 659c0,4 -2,7 -3,10 -4,4 -8,8 -15,8 -8,0 -13,-4 -17,-11 0,-3 -1,-7 -1,-10 -1,-1 0,-2 1,-2 2,0 4,2 5,4 1,1 2,2 3,3 7,4 13,2 19,-3 2,-2 4,-4 7,-3 2,1 2,3 1,5z"/>
   <path class="fil40" d="M2947 667c-2,-4 -4,-7 -2,-11 1,-1 2,-1 3,-1 2,1 3,4 6,3 8,3 14,2 19,-5 1,-2 3,-3 5,-3 3,4 1,9 1,13 -2,3 -3,6 -6,8 -8,6 -19,5 -26,-3z"/>
   <path class="fil41" d="M2286 845c0,0 1,0 1,0 0,1 1,2 1,3 4,12 -2,22 -15,24 -1,0 -2,0 -4,0 -2,-1 -5,-1 -7,-3 -1,-2 0,-4 1,-5 1,-1 2,-1 2,-2 0,-1 1,-2 1,-2 8,-3 13,-9 18,-16z"/>
   <path class="fil42" d="M2726 638c-1,4 1,8 1,12 -4,1 -8,-2 -12,-2 2,-6 4,-11 7,-16 1,-1 3,-1 4,0 1,2 1,4 0,6z"/>
   <path class="fil16" d="M1451 1176c5,5 8,11 10,17 -5,10 -10,19 -16,28 -9,-4 -19,-4 -29,-3 -6,-10 -9,-21 -9,-32 6,-9 10,-10 19,-5 3,2 4,5 5,9 1,3 2,6 3,10 4,-5 6,-11 9,-16 2,-3 3,-7 8,-8z"/>
   <path class="fil31" d="M1404 1284c-6,6 -11,13 -17,19 -1,0 -3,-1 -4,-2 -3,-4 -8,-6 -10,-11 0,-3 2,-5 3,-7 11,-12 20,-25 30,-38 2,-3 4,-6 8,-7 4,0 7,3 9,5 2,1 5,1 5,5 -2,4 -5,8 -7,12 0,4 -1,6 -5,7 -3,4 -7,8 -9,12 0,2 -1,3 -3,3z"/>
   <path class="fil15" d="M1364 1326c-5,4 -10,9 -15,13 0,1 -1,2 -3,2 -4,3 -8,5 -12,9 -6,3 -12,8 -18,11 -3,-1 -4,-4 -5,-6 -1,-3 -5,-5 -4,-9 2,-4 7,-6 11,-8 9,-6 18,-13 27,-20 2,-2 5,-4 8,-4 3,0 5,3 7,5 1,3 7,3 5,8z"/>
   <path class="fil13" d="M1274 1383c-1,0 -1,0 -1,0 -6,2 -11,4 -17,6 -8,1 -15,4 -24,5 -4,-2 -2,-7 -4,-10 -1,-3 -3,-5 -1,-8 6,-4 14,-4 21,-6 7,-2 13,-5 20,-7 4,-2 7,-3 11,-2 2,1 3,3 4,5 1,3 5,5 4,10 -5,2 -9,4 -14,7z"/>
   <path class="fil13" d="M1178 1398c-9,-1 -19,-2 -28,-3 -3,-4 1,-8 0,-12 0,-2 1,-4 2,-6 5,-3 11,-1 16,0 10,1 20,0 29,3 2,2 3,4 2,6 -1,4 3,9 -1,12 -1,0 -2,0 -3,0 -6,-3 -12,-1 -18,-1z"/>
   <path class="fil43" d="M1422 1247c-4,-1 -5,-4 -8,-6 -8,-7 -6,-18 3,-22 10,-6 18,-7 28,3 0,1 0,2 0,3 0,10 -2,14 -11,17 -5,1 -8,5 -13,5z"/>
   <path class="fil11" d="M1090 1380c-6,-2 -11,-4 -17,-6 -4,-4 -2,-8 -2,-13 0,-3 2,-5 5,-6 2,0 4,1 5,3 1,4 3,6 7,7 8,2 16,5 23,7 3,1 6,2 8,5 1,4 1,7 -2,11 -8,-1 -15,-4 -23,-6 -2,1 -3,-1 -4,-2z"/>
   <path class="fil40" d="M1117 1388c0,-3 1,-7 1,-10 1,0 1,-1 2,-1 2,1 3,3 5,5 5,7 10,8 18,5 3,-2 6,-5 10,-1 1,4 -1,7 -3,10 -10,9 -15,9 -27,3 -2,-3 -4,-6 -6,-10z"/>
   <path class="fil44" d="M1422 1247c3,-4 6,-7 12,-8 8,-1 11,-7 12,-14 4,7 2,13 -2,19 0,1 0,2 -1,3 -1,1 -2,2 -3,3 -1,1 -3,1 -4,0 -3,0 -6,1 -9,1 -2,-1 -4,-1 -6,-3z"/>
   <path class="fil45" d="M835 1603c-2,-1 -3,-2 -5,-3 -1,1 -2,1 -3,0 1,-1 3,-2 4,-2 2,1 3,2 3,5z"/>
   <path class="fil30" d="M2918 1341c-3,0 -6,-1 -9,-2 -40,-13 -80,-25 -121,-38 -57,-18 -114,-35 -171,-53 -42,-13 -84,-26 -126,-39 -2,-1 -4,-1 -6,-2 -3,-1 -4,-4 -3,-7 1,-3 3,-4 7,-4 2,1 4,1 6,2 69,22 139,43 208,65 67,21 135,42 202,63 4,1 7,2 11,3 2,1 3,1 5,2 3,1 4,4 3,7 -1,3 -3,3 -6,3z"/>
   <path class="fil30" d="M2938 1275c-2,0 -4,-1 -6,-1 -39,-12 -78,-24 -117,-36 -57,-18 -115,-36 -172,-53 -43,-13 -86,-27 -128,-40 -3,-1 -6,-2 -9,-3 -3,-1 -4,-3 -3,-7 1,-3 4,-5 7,-4 5,1 10,3 14,4 64,20 128,40 193,60 51,16 102,32 153,47 22,7 45,14 67,21 2,1 3,1 5,2 3,1 4,4 3,7 -1,3 -3,4 -6,4z"/>
   <path class="fil30" d="M2928 1308c-3,0 -6,-1 -8,-2 -40,-13 -80,-25 -121,-38 -71,-22 -143,-44 -214,-67 -27,-8 -53,-17 -80,-25 -2,-1 -5,-1 -7,-2 -5,-2 -6,-5 -5,-9 1,-3 3,-4 8,-2 11,3 22,7 33,10 42,13 83,26 125,39 63,20 127,39 190,59 26,8 51,16 77,24 2,1 3,1 5,2 3,1 5,3 4,6 -1,3 -3,5 -7,4z"/>
   <path class="fil29" d="M817 1448c-7,-17 -12,-34 -18,-51 -5,-15 -10,-31 -15,-46 -3,-8 -8,-10 -15,-6 -10,5 -18,12 -26,19 -3,3 -7,7 -10,10 -1,1 -2,2 -1,4 2,6 1,11 -3,16 -4,-4 -5,-7 -1,-12 3,-3 2,-7 1,-11 0,-3 1,-6 3,-8 10,-11 22,-21 35,-29 9,-6 16,-3 19,7 10,31 21,62 31,93 1,3 1,5 3,7 0,0 0,1 0,1 -1,2 0,5 -3,5z"/>
   <path class="fil46" d="M1076 1357c-1,1 -2,3 -2,4 -2,4 -1,9 -6,12 -10,17 -18,34 -29,50 -2,3 -4,6 -6,9 -2,-5 -1,-10 2,-15 10,-16 19,-32 28,-48 3,-5 5,-11 8,-17 8,-17 17,-33 26,-49 0,-1 0,-1 1,-2 2,0 5,1 3,-3 0,-1 0,-2 0,-4 4,-5 7,-1 8,2 4,11 9,23 10,35 0,3 -2,5 -4,5 -4,0 -5,-4 -6,-7 -2,-5 -3,-10 -5,-15 -7,12 -12,24 -19,36 -2,3 -3,7 -7,7z"/>
   <path class="fil29" d="M1051 1366c-23,-8 -45,-18 -68,-25 -6,-2 -11,-4 -17,-6 -3,-4 -6,-7 -8,-12 2,-1 3,0 5,0 24,8 48,16 72,25 7,3 14,5 22,8 -1,4 -3,7 -5,10z"/>
   <path class="fil47" d="M817 1448c1,-2 1,-4 3,-5 11,34 23,69 34,103 1,4 3,8 -1,11 -4,-8 -6,-16 -8,-24 -9,-26 -17,-51 -26,-77 -1,-3 -1,-5 -2,-8z"/>
   <path class="fil48" d="M934 1507c-10,-18 -18,-38 -27,-56 -3,-7 -6,-14 -10,-20 -1,-5 -4,-8 -5,-13 0,0 -1,-1 -1,-1 0,0 0,-1 0,-1 2,-1 3,2 5,2 9,16 16,34 25,51 4,8 8,17 12,26 2,5 2,9 0,13z"/>
   <path class="fil28" d="M765 1593c-5,-14 -8,-29 -12,-44 -5,-19 -10,-38 -15,-56 0,-2 -1,-5 2,-6 0,0 1,0 1,0 0,9 4,16 6,25 6,22 12,45 18,67 1,5 2,10 0,15z"/>
   <path class="fil48" d="M1000 1429c-9,-14 -17,-28 -26,-43 -1,-2 -2,-4 -4,-6 0,-1 -1,-3 0,-4 3,-2 3,1 4,2 1,3 3,5 5,7 8,11 15,24 22,35 2,4 0,7 -1,10 0,0 -1,1 -1,1 0,0 0,-1 0,-1z"/>
   <path class="fil49" d="M868 1581c-1,2 -3,3 -5,2 -3,-1 -6,-2 -7,-5 1,-1 2,-1 3,0 2,2 6,2 8,4z"/>
   <path class="fil50" d="M732 1609c1,-1 3,-1 5,-1 -1,1 -3,1 -5,1z"/>
   <path class="fil29" d="M970 1368c-1,1 -1,2 -1,3 1,2 2,3 2,5 0,1 0,3 -1,4 -8,-12 -15,-24 -23,-36 -2,-4 -4,-6 -9,-7 -5,-1 -9,-4 -11,-9 -1,-3 -3,-4 -6,-4 -15,-3 -31,-5 -47,-5 -3,0 -6,1 -8,3 -3,-2 -5,-5 -4,-8 1,-4 6,-7 10,-7 13,0 27,2 40,4 2,0 5,1 7,1 4,1 8,2 9,6 2,4 5,7 10,7 3,0 5,1 7,4 7,12 15,24 22,36 0,1 1,2 1,3z"/>
   <path class="fil29" d="M888 1411c-6,-13 -12,-26 -18,-39 -6,-12 -11,-24 -17,-36 -5,-10 -13,-14 -24,-12 -5,1 -10,2 -15,3 -7,1 -13,4 -15,11 -5,-6 -3,-15 4,-18 11,-5 22,-6 34,-9 1,0 2,0 3,0 4,4 11,6 14,12 12,26 24,51 36,77 1,2 1,4 -1,6 0,4 3,6 3,9 0,0 0,1 -1,1 -2,-1 -2,-5 -4,-6z"/>
   <path class="fil51" d="M3044 636c0,0 -1,-1 -1,-2 0,-1 1,-2 2,-2 1,0 2,2 2,3 0,1 0,1 -2,1z"/>
   <path class="fil30" d="M1455 964c-2,-207 168,-386 387,-384 210,1 383,171 382,388 -1,213 -176,382 -387,381 -211,-1 -384,-174 -382,-385z"/>
   <path class="fil52" d="M2286 845c0,10 -3,14 -14,16 -2,0 -4,1 -2,3 0,2 -1,2 -3,1 -2,1 -3,3 -3,4 -3,-1 -4,-4 -4,-6 -1,-5 -2,-11 -4,-16 0,-2 0,-5 3,-5 11,-7 19,-7 27,3z"/>
   <path class="fil53" d="M2259 842c-1,2 -2,4 -3,5 -3,-8 -6,-17 -8,-25 1,0 2,0 4,0 1,3 2,6 4,9 1,4 2,8 4,11z"/>
   <path class="fil33" d="M2364 726c5,10 11,20 16,30 2,4 5,8 7,12 -4,-1 -7,-2 -10,1 -1,3 0,6 -3,7 -7,-11 -13,-23 -20,-34 -2,-3 -3,-6 -5,-8 -1,-2 -1,-4 -2,-6 -1,-4 1,-8 4,-10 3,-2 8,-1 10,1 2,2 3,4 4,5z"/>
   <path class="fil48" d="M2374 777c0,-3 0,-6 3,-7 9,17 19,34 29,50 1,2 3,5 4,7 1,3 1,6 -3,8 -10,-18 -20,-36 -30,-54 -1,-2 -2,-3 -2,-5z"/>
   <path class="fil54" d="M2280 821c-2,4 -3,8 -6,12 -3,-2 -3,-4 -4,-6 -1,-3 -2,-5 -3,-9 5,0 9,2 12,3z"/>
   <path class="fil55" d="M2614 681c5,28 10,57 16,86 3,-1 4,-4 6,-6 12,-15 22,-32 31,-49 1,-2 2,-5 4,-6 2,1 1,3 1,5 -2,6 -3,12 -7,17 -5,8 -9,15 -14,22 -2,3 -4,7 -4,11 -3,4 -7,7 -8,12 -6,-5 -13,-7 -21,-5 -5,0 -4,-5 -5,-8 -4,-26 -9,-51 -14,-76 0,-2 0,-3 0,-5 5,-8 10,-7 15,1z"/>
   <path class="fil55" d="M1323 1160c4,15 11,29 16,43 1,4 3,8 4,11 -4,2 -8,2 -13,1 -5,-3 -5,-8 -7,-12 -5,-13 -10,-26 -14,-38 -1,-3 -3,-7 -1,-11 7,-4 10,-3 15,6z"/>
   <path class="fil56" d="M1390 1154c-21,0 -42,0 -63,1 0,-4 0,-8 1,-12 20,-1 41,-2 61,-1 0,4 0,8 1,12z"/>
   <path class="fil48" d="M1308 1155c6,20 14,39 21,58 0,1 1,1 1,2 1,3 0,6 -4,6 -7,-15 -12,-31 -18,-47 -1,-3 -2,-7 -4,-9 0,-4 -1,-7 3,-10z"/>
   <path class="fil57" d="M1299 1143c1,-1 1,0 2,1 0,1 0,2 -1,2 0,0 -2,0 -2,-1 0,-1 0,-2 1,-3z"/>
   <path class="fil32" d="M2427 668c5,10 9,20 14,30 6,12 11,24 17,35 3,2 5,4 3,8 -2,3 -6,3 -9,4 -3,1 -3,4 -6,5 -2,-3 -4,-7 -6,-10 -9,-21 -20,-42 -30,-63 0,-1 -1,-1 -1,-2 0,-1 0,-2 0,-4 0,-4 1,-6 5,-8 3,-2 7,-1 10,1 1,1 2,2 2,3z"/>
   <path class="fil58" d="M2400 658c0,2 0,3 -1,3 -2,0 -2,-1 -2,-2 0,-1 0,-3 1,-3 2,0 2,1 2,2z"/>
   <path class="fil16" d="M2598 684c-3,-13 -5,-26 -7,-38 -1,-4 -1,-8 -3,-12 0,0 0,-1 0,-1 1,-7 3,-9 7,-10 5,-1 7,1 10,7 0,1 1,1 1,2 -1,7 2,14 3,21 1,10 3,19 5,29 -6,-5 -7,-5 -13,-1 -1,1 -1,4 -3,4z"/>
   <path class="fil59" d="M2588 613c0,1 -1,2 -2,3 -1,0 -2,-1 -2,-2 0,-1 1,-2 2,-3 1,0 2,1 2,2z"/>
   <path class="fil55" d="M2771 555c7,10 16,19 24,28 6,7 12,13 17,20 -2,4 -5,3 -8,4 -6,-1 -9,-6 -13,-10 -12,-14 -25,-26 -35,-41 5,-6 8,-6 15,0z"/>
   <path class="fil6" d="M2755 556c3,0 5,2 7,4 11,12 22,25 33,37 2,3 4,6 7,8 2,4 1,7 -3,9 -12,-13 -24,-27 -36,-40 -2,-2 -4,-5 -6,-6 -2,-4 -5,-7 -2,-12z"/>
   <path class="fil57" d="M2744 546c0,2 0,4 -2,4 -1,0 -1,-1 -1,-2 0,-1 0,-3 2,-3 1,0 1,0 1,1z"/>
   <path class="fil60" d="M2519 715c-7,-21 -15,-41 -22,-62 -2,-5 -3,-11 -6,-15 0,0 0,-1 0,-1 0,-6 1,-9 5,-11 4,-2 8,0 12,5 0,0 1,1 1,1 0,2 1,4 1,6 9,26 18,51 28,77 0,1 1,1 1,2 0,0 0,1 -1,1 -3,2 -7,0 -10,2 -3,1 -2,5 -6,5 -5,-2 -2,-7 -4,-10z"/>
   <path class="fil61" d="M2487 617c0,1 0,3 -2,3 -1,0 -1,-1 -1,-2 0,-1 1,-2 2,-3 1,0 1,1 1,2z"/>
   <path class="fil52" d="M2816 496c9,11 19,20 29,30 12,13 24,25 37,37 -2,3 -5,3 -7,3 -6,1 -9,-3 -13,-7 -19,-18 -35,-38 -54,-55 -3,-2 -7,-4 -7,-8 5,-6 7,-6 15,0z"/>
   <path class="fil40" d="M2801 496c4,1 6,4 9,6 19,19 36,39 56,57 2,2 4,5 7,5 1,1 1,1 1,2 -1,3 0,7 -4,8 -14,-13 -27,-28 -41,-41 -8,-8 -17,-17 -25,-25 -3,-4 -7,-7 -3,-13z"/>
   <path class="fil62" d="M2791 492c0,0 -1,0 -1,0 -1,-2 -1,-4 1,-5 0,0 1,0 1,0 1,2 1,4 -1,5z"/>
   <path class="fil43" d="M1240 1182c7,20 15,41 22,61 1,3 2,5 2,8 -3,2 -7,1 -11,1 -5,-1 -6,-5 -7,-9 -7,-18 -14,-37 -20,-55 -1,-4 -3,-8 -1,-12 8,-4 10,-2 14,6z"/>
   <path class="fil48" d="M1226 1175c1,8 5,16 8,24 5,13 10,27 15,40 1,4 2,8 6,10 1,4 -1,6 -5,7 -7,-20 -15,-40 -22,-59 -1,-3 -2,-7 -4,-10 0,-4 -2,-9 2,-12z"/>
   <path class="fil63" d="M1222 1167c0,1 0,2 -1,2 -1,0 -1,0 -1,-1 0,-1 0,-2 1,-2 1,0 1,0 1,1z"/>
   <path class="fil64" d="M2859 437c0,1 -1,1 -1,1 -1,0 -2,-1 -2,-2 0,-1 0,-2 2,-2 1,0 1,1 1,2z"/>
   <path class="fil55" d="M1177 1222c5,21 11,43 18,64 1,1 1,2 0,3 -4,3 -9,2 -13,1 -5,-5 -5,-13 -7,-19 -4,-16 -9,-31 -13,-47 -1,-3 -1,-6 0,-9 7,-4 11,-3 14,4 1,1 1,3 2,4z"/>
   <path class="fil46" d="M1158 1227c-14,14 -26,31 -37,47 -2,-1 -3,-3 -4,-4 5,-12 14,-22 21,-33 4,-6 10,-9 12,-17 3,2 5,5 8,7z"/>
   <path class="fil28" d="M1162 1214c6,23 13,46 19,69 1,2 1,4 2,6 1,3 0,4 -3,5 -1,0 -1,0 -2,-1 -4,-16 -9,-32 -13,-48 -2,-6 -4,-12 -6,-18 0,-4 -3,-9 2,-12z"/>
   <path class="fil57" d="M1155 1206c1,1 1,2 0,3 0,1 -1,2 -2,2 -2,0 -1,-2 -1,-3 0,-1 1,-2 2,-2z"/>
   <path class="fil65" d="M2341 716c0,1 0,2 -2,2 -1,0 -2,-1 -2,-2 0,-1 0,-2 2,-2 1,0 1,1 1,2z"/>
   <path class="fil18" d="M1409 1188c-2,-8 -5,-16 -7,-24 0,-3 -1,-6 -1,-9 0,-4 2,-7 6,-8 4,-1 8,0 10,4 1,2 2,5 3,8 2,9 4,17 6,26 -8,-4 -9,-4 -16,3z"/>
   <path class="fil66" d="M1397 1140c1,0 2,1 2,2 0,1 0,2 -1,3 -1,0 -2,-1 -2,-2 0,-1 0,-2 1,-3z"/>
   <path class="fil52" d="M1118 1296c2,10 5,19 8,28 1,3 1,5 2,8 -4,1 -9,1 -13,-1 -3,-11 -7,-23 -10,-34 -1,-2 -1,-5 -5,-3 0,-6 2,-9 6,-9 5,-1 8,1 10,6 1,2 1,4 2,6z"/>
   <path class="fil16" d="M2799 614c0,-3 1,-6 3,-9 3,-2 6,-2 10,-2 11,11 20,22 30,34 3,3 5,5 9,5 0,1 0,1 0,1 -7,3 -12,7 -18,12 0,0 -1,1 -1,1 -6,-2 -13,-2 -20,-3 -17,-2 -35,-5 -52,-8 -10,-2 -19,-4 -29,-6 -2,0 -3,-1 -5,-2 0,-2 0,-4 0,-6 34,6 67,13 103,17 -11,-13 -21,-24 -30,-35z"/>
   <path class="fil55" d="M2956 639c8,-1 15,1 20,7 0,1 1,2 1,3 -1,2 -1,3 -2,5 -6,10 -13,11 -23,6 -3,0 -3,-3 -5,-4 -1,0 -2,0 -3,0 0,0 -1,0 -1,0 -2,-10 3,-17 13,-17z"/>
   <path class="fil55" d="M2467 750c2,6 5,12 8,18 10,22 20,43 31,65 -4,0 -7,1 -10,2 -4,0 -5,-3 -7,-6 -12,-26 -25,-51 -37,-77 -1,-3 -2,-6 -1,-9 3,-3 7,-2 11,-1 6,0 5,5 5,8z"/>
   <path class="fil67" d="M2451 743c15,31 30,62 45,93 -2,1 -4,3 -5,4 -12,-24 -23,-49 -35,-73 -1,-3 -3,-6 -5,-9 -1,-3 -2,-5 -3,-8 0,-3 1,-5 3,-7z"/>
   <path class="fil68" d="M2497 848c0,1 0,2 -1,2 -1,0 -2,0 -2,-1 0,-1 0,-2 1,-2 1,0 2,0 2,2z"/>
   <path class="fil69" d="M2614 772c-4,-20 -7,-40 -11,-60 0,-1 0,-3 -1,-4 0,-8 -3,-16 -3,-24 1,-2 1,-3 3,-4 1,12 4,24 6,36 3,17 6,33 9,50 0,1 1,3 2,4 -1,1 -3,2 -4,3z"/>
   <path class="fil57" d="M2618 787c0,1 0,2 -2,2 -1,0 -1,0 -1,-1 0,-1 1,-2 2,-2 0,0 1,1 1,2z"/>
   <path class="fil55" d="M2546 737c5,17 12,33 17,49 3,8 6,17 9,25 -3,1 -6,1 -10,2 -4,2 -5,-1 -6,-4 -10,-28 -20,-55 -30,-83 -1,-3 -2,-6 0,-8 4,-3 8,-2 11,0 3,6 5,13 8,19z"/>
   <path class="fil48" d="M2527 717c0,3 2,6 3,9 10,27 19,54 29,81 1,2 1,5 4,6 -2,1 -4,3 -6,4 -6,-17 -12,-34 -18,-50 -4,-11 -8,-21 -12,-32 -3,-3 -7,-6 -3,-11 1,-3 1,-5 3,-7z"/>
   <path class="fil70" d="M2563 825c0,1 0,2 -1,2 -1,0 -2,-1 -2,-2 0,-1 1,-1 1,-2 1,0 2,0 2,1z"/>
   <path class="fil71" d="M2411 847c0,-1 0,-2 2,-2 1,0 2,1 2,2 0,1 -1,2 -2,2 -1,0 -1,-1 -2,-2z"/>
   <path class="fil5" d="M2956 639c-7,3 -12,8 -13,17 -2,1 -4,1 -6,1 -23,2 -47,2 -70,1 0,-2 0,-3 -1,-5 0,0 0,-1 0,-1 0,0 0,-1 0,-1 25,0 50,1 74,-2 1,-3 -2,-3 -3,-5 3,-4 1,-6 -2,-9 -19,-21 -39,-41 -59,-61 -3,-3 -6,-5 -5,-10 0,0 0,-1 0,-1 3,-1 6,-2 9,-1 25,25 50,51 75,76z"/>
   <path class="fil52" d="M2867 652c0,1 0,1 0,2 -3,5 -8,9 -13,11 -5,2 -10,-1 -14,-3 -2,0 -3,-1 -3,-3 -1,-1 -2,-3 -3,-4 2,-9 9,-13 18,-13 7,1 12,5 16,11z"/>
   <path class="fil72" d="M2837 659c2,0 2,2 3,3 -1,1 -2,2 -4,1 -2,-1 -1,-3 0,-4z"/>
   <path class="fil73" d="M2947 656c5,-2 4,3 5,4 -5,2 -4,-2 -5,-4z"/>
   <path class="fil74" d="M2267 865c1,0 2,-1 3,-1 1,1 2,1 2,2 0,2 -1,2 -2,2 -2,0 -3,-1 -2,-3z"/>
   <path class="fil40" d="M1199 1399c-1,-4 -3,-7 -1,-11 3,-3 5,-1 8,1 9,7 13,6 21,-3 1,-2 3,-3 5,-3 2,3 1,7 1,11 -1,1 -1,3 -2,4 -6,10 -18,12 -27,5 -1,-1 -3,-2 -4,-3z"/>
   <path class="fil40" d="M1288 1376c-2,-2 -5,-4 -6,-8 2,-4 5,-6 9,-5 10,3 16,0 20,-9 0,-1 1,-1 2,-2 2,2 2,5 3,8 0,1 0,1 0,2 -4,14 -13,19 -27,13z"/>
   <path class="fil46" d="M1364 1326c-2,-2 -6,-3 -7,-6 1,-5 4,-7 8,-7 9,0 15,-3 18,-12 0,-1 1,-1 2,-1 1,1 1,2 2,3 2,11 -3,19 -11,22 -4,1 -8,1 -12,0z"/>
   <path class="fil75" d="M1067 1372c1,-4 3,-8 6,-12 0,4 0,9 0,13 -2,-1 -4,-1 -6,-2z"/>
   <path class="fil55" d="M1385 1300c-1,11 -5,15 -16,15 -5,0 -8,4 -12,5 -2,-1 -3,-4 -4,-6 -5,-6 -4,-11 2,-19 5,-5 10,-9 17,-4 1,0 2,0 3,1 4,2 8,4 10,9z"/>
   <path class="fil55" d="M1300 1344c3,1 5,2 8,3 2,2 4,4 5,6 -1,13 -10,18 -21,14 -4,-2 -6,1 -10,2 -1,-2 -2,-4 -2,-6 -4,-6 0,-10 3,-15 7,-7 9,-7 17,-4z"/>
   <path class="fil55" d="M1218 1371c4,2 7,3 10,6 1,2 2,3 2,5 -2,3 -2,6 -5,8 -7,7 -15,7 -22,0 -2,-2 -3,-5 -7,-4 0,-2 0,-4 0,-6 -1,-4 1,-6 4,-8 5,-4 10,-7 17,-2z"/>
   <path class="fil55" d="M1139 1367c6,2 11,6 14,12 0,2 0,4 0,6 -2,0 -4,1 -6,2 -12,8 -20,6 -26,-7 0,-1 -1,-2 -1,-3 0,-10 10,-15 19,-11z"/>
   <path class="fil76" d="M1420 1226c1,0 1,1 2,1 0,2 0,4 -1,5 -1,1 -2,0 -2,-1 -1,-2 0,-3 2,-4z"/>
   <path class="fil16" d="M1079 1359c9,3 17,5 26,8 5,1 10,3 16,4 -2,-13 -7,-24 -9,-35 1,-2 2,-3 3,-5 5,-3 9,-2 13,1 1,3 2,5 3,8 2,9 5,18 7,27 -8,0 -16,2 -19,11 0,0 -1,0 -1,0 -11,-2 -22,-7 -33,-9 -5,-1 -7,-4 -6,-9z"/>
   <path class="fil77" d="M1443 1245c0,2 0,4 -3,2 1,-1 2,-1 3,-2z"/>
   <path class="fil78" d="M2215 968c1,19 -1,37 -4,56 -10,63 -34,120 -74,170 -60,76 -137,125 -232,141 -115,20 -218,-8 -309,-82 -1,0 -1,-1 -1,-2 -1,-6 4,-6 7,-8 2,0 3,0 5,1 11,6 21,15 31,22 47,31 98,50 153,57 52,7 103,2 153,-13 50,-15 94,-39 133,-74 55,-48 93,-108 112,-178 2,-9 5,-18 6,-27 3,-13 4,-26 5,-40 1,-17 3,-34 0,-50 -1,-4 -1,-7 2,-11 7,-3 8,4 9,8 2,9 5,19 4,29z"/>
   <path class="fil78" d="M1494 811c7,-17 16,-33 26,-49 60,-91 143,-149 251,-169 135,-25 273,26 360,133 4,5 7,10 10,15 3,6 9,11 5,19 -5,3 -7,-1 -9,-4 -15,-21 -32,-41 -51,-59 -25,-23 -52,-42 -82,-57 -35,-17 -71,-29 -109,-35 -30,-5 -59,-5 -89,-2 -48,4 -92,17 -135,39 -28,15 -54,33 -78,55 -22,20 -41,43 -58,68 -4,5 -9,10 -11,16 -1,3 -3,6 -5,8 -1,5 -3,9 -8,13 -4,1 -6,5 -9,8 -2,2 -4,8 -8,2z"/>
   <path class="fil79" d="M2215 968c-1,-11 -4,-22 -9,-33 -1,-2 -2,-3 -3,-4 -4,0 -5,-3 -7,-6 -11,-14 -25,-24 -43,-27 -7,-1 -13,-3 -20,-4 -3,-1 -5,-2 -7,-4 -3,-5 -6,-9 -1,-15 25,5 51,7 71,29 -3,-16 -6,-30 -10,-44 -5,-18 -12,-35 -20,-52 -1,-3 -3,-6 -1,-9 5,-3 8,0 10,4 6,11 9,24 15,35 2,5 4,10 7,14 5,14 8,28 11,43 5,24 7,49 6,74z"/>
   <path class="fil80" d="M1494 811c4,1 5,-2 7,-4 2,-2 3,-5 6,-7 1,-1 2,-2 3,-1 3,3 1,6 0,9 -15,32 -25,65 -30,100 -2,12 -5,23 -5,35 0,4 0,9 1,13 -1,17 -1,34 2,51 0,3 1,6 -1,9 -5,4 -8,0 -9,-4 -3,-5 -3,-11 -4,-17 -6,-61 4,-120 27,-177 1,-3 2,-6 4,-8z"/>
   <path class="fil81" d="M1512 1152c-7,-9 -12,-20 -17,-31 -12,-27 -22,-55 -28,-85 0,-1 0,-2 0,-4 6,-3 9,2 13,5 0,1 1,1 1,2 5,10 6,21 9,31 3,10 7,20 11,31 0,-4 1,-8 3,-11 2,-4 5,-6 10,-6 4,0 8,1 11,3 8,3 15,6 23,9 3,1 6,3 7,6 1,3 1,6 0,10 -4,4 -8,2 -12,1 -7,-3 -15,-6 -22,-9 -6,-2 -9,-1 -10,6 -1,5 0,10 0,16 -2,5 1,10 2,15 1,4 3,8 -1,12z"/>
   <path class="fil80" d="M1512 1152c-1,-6 -2,-13 -4,-19 -1,-3 -1,-6 -1,-10 5,0 6,4 7,6 18,36 43,68 72,96 3,3 7,6 10,9 3,2 6,5 5,9 -1,4 -6,3 -8,6 -18,-15 -35,-32 -50,-50 -9,-11 -17,-22 -24,-33 -3,-5 -6,-10 -8,-16z"/>
   <path class="fil81" d="M2175 804c-3,-2 -5,-5 -9,-5 -1,1 -2,0 -3,0 -7,-11 -13,-22 -19,-32 -1,-2 -1,-3 -1,-5 0,0 0,-1 0,-1 1,-7 -2,-13 -3,-19 4,1 5,5 7,7 12,17 23,34 31,54 0,2 -1,2 -3,2z"/>
   <path class="fil82" d="M1479 1039c-4,-2 -8,-4 -12,-6 -2,-12 -5,-24 -5,-37 1,4 3,8 4,12 2,4 3,8 7,10 2,0 3,1 4,3 1,6 5,12 1,18z"/>
   <path class="fil83" d="M2175 804c1,-1 2,-1 3,-2 2,1 2,3 3,5 6,13 11,26 15,39 1,2 1,3 1,5 -8,-8 -12,-19 -16,-30 -2,-6 -4,-12 -6,-18z"/>
   <path class="fil64" d="M2355 734c-1,0 -1,0 -1,0 -1,-2 -3,-3 -2,-6 0,0 1,-1 1,0 2,1 3,3 2,6z"/>
   <path class="fil60" d="M1284 1349c-4,-9 -7,-18 -11,-28 -6,-14 -11,-29 -16,-43 -2,-7 -4,-13 -7,-20 0,-1 0,-2 0,-3 1,-3 3,-5 5,-7 4,-1 7,-1 10,1 1,2 2,4 3,6 5,17 12,33 18,50 5,13 9,25 14,38 -6,0 -11,2 -16,5z"/>
   <path class="fil60" d="M1356 1297c-7,-15 -12,-31 -18,-47 -1,-2 -1,-4 -3,-6 -2,-8 -6,-15 -8,-23 1,-2 2,-4 4,-6 4,-2 8,-2 12,1 8,19 15,39 23,59 2,6 4,12 6,17 -6,0 -11,2 -15,5z"/>
   <path class="fil57" d="M2414 671c4,3 5,5 5,8 -4,-2 -4,-2 -5,-8z"/>
   <path class="fil62" d="M2594 637c2,0 2,1 2,2 0,1 0,3 -1,3 -1,0 -2,-1 -2,-2 0,-1 -1,-2 1,-3z"/>
   <path class="fil35" d="M2872 566c5,7 12,13 18,19 9,9 18,18 27,27 9,10 18,19 27,29 1,1 1,1 1,3 -2,3 -5,2 -7,2 -15,-15 -30,-30 -45,-45 -8,-8 -17,-16 -24,-25 0,-3 -1,-7 3,-9z"/>
   <path class="fil84" d="M2495 636c3,1 4,3 3,6 -3,-2 -3,-4 -3,-6z"/>
   <path class="fil60" d="M1202 1376c-6,-19 -11,-39 -16,-58 -2,-8 -5,-16 -6,-24 1,-2 2,-3 3,-5 4,-3 9,-1 13,1 2,5 2,11 5,16 4,16 9,32 13,48 2,6 3,12 5,18 -6,-1 -11,1 -16,5z"/>
   <path class="fil85" d="M1358 1310c-1,-1 -1,-1 -1,-2 0,-1 1,-2 2,-2 1,0 1,1 1,2 0,1 -1,2 -2,2z"/>
   <path class="fil86" d="M1290 1356c0,1 -1,2 -2,2 -1,0 -1,-1 -1,-1 0,-1 1,-2 2,-3 1,0 1,1 1,1z"/>
   <path class="fil87" d="M1602 1245c-4,-5 -9,-8 -14,-13 -24,-23 -45,-47 -62,-75 -5,-8 -10,-17 -14,-26 -1,-2 -3,-5 -4,-7 -1,-6 -1,-11 0,-17 2,-9 6,-11 14,-7 10,4 21,10 32,13 1,0 2,0 2,1 4,8 10,15 15,22 3,10 9,20 12,30 1,3 3,5 4,8 1,4 4,6 8,7 10,2 19,8 24,18 5,11 16,10 25,12 4,1 2,-3 1,-5 -4,-10 -9,-20 -13,-30 -5,-11 -9,-22 -14,-33 -1,-4 -4,-7 0,-11 10,-2 19,2 28,5 5,8 13,13 18,21 -1,5 2,8 4,12 2,6 5,11 7,16 3,9 8,17 19,19 6,1 11,6 15,11 2,2 3,4 6,4 9,0 18,2 27,2 7,0 8,-2 5,-8 -9,-19 -18,-38 -27,-56 -1,-3 -3,-5 -6,-6 -2,-1 -6,-2 -2,-6 2,-1 4,-2 6,-1 11,1 21,1 32,2 5,1 7,4 9,8 0,5 2,8 5,12 5,10 9,20 14,30 3,5 6,9 11,10 4,1 9,3 12,5 5,4 10,4 16,3 6,-1 12,-3 18,-4 11,-3 14,-11 10,-21 -7,-14 -13,-28 -21,-42 -1,-2 -2,-4 -2,-6 9,-7 19,-8 30,-8 5,3 7,8 9,12 5,10 10,20 15,30 4,8 19,13 27,9 7,-3 13,-8 20,-12 5,-3 8,-6 8,-13 0,-2 0,-5 2,-6 5,-8 2,-15 -2,-22 -4,-8 -8,-15 -11,-24 0,-1 0,-1 0,-1 8,-7 16,-14 28,-16 4,2 5,6 6,10 4,8 8,17 13,25 3,6 7,6 12,1 2,-2 3,-3 5,-5 7,-6 11,-12 9,-22 -1,-6 1,-12 4,-18 2,-4 1,-7 0,-10 0,-1 0,-3 0,-4 2,-7 4,-13 2,-20 7,-10 15,-20 26,-27 10,0 19,-2 25,-10 9,-10 13,-20 8,-33 0,-1 0,-1 0,-2 6,-12 13,-23 22,-33 9,-2 18,-4 24,-12 7,-9 7,-19 3,-29 0,-1 0,-2 0,-2 3,-6 5,-12 12,-14 5,-1 9,2 13,5 9,3 18,4 28,6 21,5 37,16 47,35 0,13 3,27 2,40 -2,18 -2,36 -6,54 -1,3 0,7 -2,9 -8,-8 -19,-13 -20,-26 1,-13 1,-26 2,-39 0,-2 1,-5 -2,-5 -3,0 -3,3 -2,5 0,10 -1,19 -2,28 0,4 -1,8 -3,11 -3,3 -7,1 -10,1 -13,-3 -25,-5 -38,-8 -8,-2 -13,3 -12,11 1,5 1,11 0,16 -2,13 -10,22 -23,26 -7,2 -12,6 -15,12 -2,3 -3,5 -5,8 -5,6 -7,12 -6,21 2,22 -12,37 -34,40 -4,0 -8,2 -10,5 -1,2 -2,3 -4,4 -9,7 -14,16 -14,29 0,15 -17,29 -32,28 -14,-1 -24,4 -34,11 -5,4 -12,5 -12,13 0,2 -2,3 -4,3 -6,-1 -7,3 -9,7 -9,17 -30,25 -47,16 -8,-4 -15,-4 -22,-2 -4,1 -8,2 -12,3 -10,2 -17,5 -24,14 -12,15 -35,16 -50,2 -6,-5 -12,-8 -19,-7 -4,0 -8,0 -13,0 -9,-1 -17,1 -25,7 -15,12 -38,7 -49,-10 -4,-5 -8,-8 -14,-9 -9,-1 -17,-6 -26,-5 -1,0 -2,0 -3,1 -1,-1 -2,-1 -3,-2z"/>
   <path class="fil88" d="M2181 1009c0,5 2,8 6,12 5,4 10,7 11,14 -3,19 -8,37 -15,55 -10,27 -23,52 -38,76 -11,16 -22,31 -35,45 -22,24 -47,46 -75,63 -41,26 -85,43 -133,51 -23,4 -45,6 -68,6 -50,-1 -98,-11 -144,-32 -27,-12 -52,-28 -76,-45 -3,-2 -5,-5 -8,-7 2,-5 6,-5 10,-4 9,2 18,4 28,6 3,1 4,3 6,5 9,15 24,21 40,16 5,-2 10,-5 13,-9 2,-3 5,-3 8,-3 10,1 20,1 30,0 5,0 9,2 13,6 12,13 26,14 41,6 5,-3 8,-6 11,-11 2,-4 5,-6 10,-7 11,-2 21,-5 31,-7 4,-1 7,-1 11,1 6,4 13,6 20,5 15,-1 26,-9 31,-24 1,-2 1,-3 2,-5 1,1 2,1 2,1 2,2 3,5 6,3 2,-1 1,-4 0,-5 -1,-3 1,-4 3,-5 9,-5 18,-11 27,-16 3,-2 6,-2 10,-1 17,3 32,-5 38,-20 2,-4 2,-9 1,-13 0,-6 1,-10 6,-15 5,-4 10,-9 14,-15 2,-3 5,-4 9,-4 15,0 28,-10 32,-25 1,-5 2,-10 0,-16 -1,-5 0,-9 2,-13 5,-7 9,-14 14,-21 2,-3 4,-4 7,-5 3,-1 6,-1 9,-3 14,-7 20,-19 17,-37 -1,-3 -1,-6 1,-9 5,-8 5,-10 16,-7 15,4 30,6 45,11 5,4 2,9 1,13 -4,24 -11,47 -20,69 -21,51 -53,94 -94,129 -1,1 0,0 -1,0 -2,2 -5,3 -3,6 2,2 4,-1 6,-2 18,-15 34,-32 49,-50 34,-44 56,-93 67,-147 1,-4 1,-8 2,-13 1,-3 1,-6 4,-6z"/>
   <path class="fil87" d="M1472 957c-1,-22 2,-44 7,-66 5,-26 14,-51 24,-75 2,-5 6,-10 7,-16 3,-3 5,-8 7,-12 8,-3 12,-9 18,-15 5,-5 9,-10 14,-14 2,-1 4,-3 5,-1 2,2 1,3 0,5 -4,8 -10,15 -15,23 -3,4 -4,8 -3,13 0,2 0,4 2,4 2,1 4,-1 5,-3 1,-1 2,-2 3,-2 2,0 4,-1 5,-4 8,-14 18,-26 27,-39 4,-5 8,-10 13,-14 4,0 5,3 7,5 1,2 2,4 4,5 1,2 3,3 5,1 2,-1 2,-3 1,-5 -1,-4 -4,-8 -6,-11 -1,-2 -3,-4 -3,-7 4,-2 7,-5 6,-10 2,-4 4,-6 8,-6 3,1 5,0 7,-2 9,-10 19,-17 31,-24 21,-12 45,-19 68,-26 40,-12 82,-17 124,-17 19,0 38,1 57,5 5,1 9,1 12,-4 7,-4 8,-3 12,3 1,3 2,5 6,6 40,8 77,22 113,42 27,15 53,32 76,53 6,5 13,10 18,16 2,2 5,1 7,3 2,3 2,7 1,10 -3,11 -8,20 -14,29 -2,2 -4,4 -7,4 -5,-1 -6,-6 -9,-9 -26,-27 -56,-49 -89,-68 -38,-22 -80,-35 -123,-43 -8,-2 -17,-3 -26,-3 -2,0 -4,0 -6,-1 -5,-1 -10,-1 -15,-1 -4,0 -7,-1 -11,0 -5,-1 -10,-1 -15,0 -4,0 -8,0 -11,0 -15,0 -31,3 -46,5 -2,1 -4,1 -6,1 -30,5 -58,14 -86,26 -32,14 -61,32 -87,54 -21,17 -40,36 -57,57 -19,24 -36,49 -49,77 -6,13 -14,27 -13,42 -1,3 -1,7 -6,7z"/>
   <path class="fil88" d="M1922 651c0,-1 -1,-2 -1,-3 -2,-4 -2,-4 -6,0 -4,3 -9,2 -14,2 -52,-8 -103,-6 -154,6 -26,6 -52,14 -77,24 -3,1 -5,2 -8,1 -3,-6 3,-8 6,-10 15,-10 32,-17 48,-23 31,-12 63,-19 97,-21 8,0 16,0 24,-2 -3,-4 -6,-3 -8,-3 -21,-1 -42,3 -62,7 -43,9 -83,26 -119,50 -20,14 -39,29 -56,47 -2,2 -4,4 -6,5 -12,3 -18,14 -28,21 -11,8 -20,18 -30,28 -4,4 -4,4 -7,1 0,-2 1,-4 3,-6 14,-21 28,-41 45,-59 44,-47 96,-80 157,-100 25,-8 51,-13 77,-16 21,-2 42,-2 63,-1 33,2 64,9 95,20 43,16 82,38 116,68 10,8 19,17 27,26 13,14 25,29 36,45 1,1 2,2 2,3 0,0 0,0 0,0 1,2 1,4 1,7 0,1 -1,1 -2,1 -2,-1 -4,-2 -6,-3 -25,-24 -53,-45 -83,-62 -39,-23 -81,-39 -125,-48 -3,-1 -5,-2 -7,-4z"/>
   <path class="fil87" d="M1521 780c2,1 3,-1 4,-2 10,-10 20,-20 30,-29 8,-7 17,-14 25,-20 1,-1 2,-1 3,0 1,4 -2,6 -4,8 -14,17 -27,35 -38,54 -3,5 -3,9 3,11 -1,3 -2,6 -6,5 -4,-1 -5,-4 -6,-8 -2,-11 6,-17 10,-25 3,-5 6,-10 10,-16 -2,0 -3,2 -4,3 -8,8 -16,16 -24,24 -3,2 -5,5 -9,2 1,-3 2,-5 4,-8z"/>
   <path class="fil89" d="M2164 798c1,0 1,1 2,1 13,26 22,52 29,80 2,8 4,17 5,26 0,2 1,3 0,5 -1,1 -2,0 -3,-1 -14,-17 -33,-25 -55,-27 -4,-1 -8,-2 -12,-3 -2,0 -4,-1 -4,-4 -3,-9 3,-15 9,-21 10,-1 18,3 27,5 3,0 3,-2 2,-4 -4,-11 -8,-22 -11,-33 -1,-4 -6,-4 -7,-8 -2,-6 0,-12 5,-16 4,-3 8,-5 12,-1z"/>
   <path class="fil90" d="M2136 857c-5,5 -8,11 -9,18 -2,5 -1,9 2,14 -5,0 -9,-2 -13,-3 -2,-2 -2,-5 0,-7 4,-7 8,-14 14,-20 2,-2 4,-3 6,-3 1,0 1,1 1,2z"/>
   <path class="fil88" d="M1472 957c2,-2 3,-5 3,-7 8,-31 23,-59 41,-86 19,-29 41,-55 67,-78 28,-24 58,-45 92,-61 26,-12 53,-22 82,-28 22,-5 45,-8 68,-9 20,-1 40,0 60,2 21,2 42,7 63,13 25,7 49,17 72,29 37,19 70,44 99,74 2,2 5,5 6,8 0,2 0,4 -1,6 -6,9 -12,18 -19,26 -1,2 -3,3 -5,3 -10,0 -18,-3 -24,-12 -7,-11 -22,-15 -34,-8 -6,3 -12,4 -18,2 -13,-3 -26,-7 -38,-9 -5,-1 -9,-4 -11,-9 -9,-19 -33,-22 -47,-9 -4,4 -9,6 -15,5 -9,-2 -19,0 -29,-4 -2,0 -4,-2 -5,-3 -12,-16 -34,-20 -51,-10 -2,1 -3,4 -5,6 -2,3 -4,7 -8,8 -14,2 -28,4 -43,4 -4,0 -6,-2 -9,-4 -21,-17 -50,-3 -54,18 0,2 -1,3 -3,5 -11,6 -21,12 -33,16 -4,0 -7,-1 -10,-2 -20,-4 -39,9 -40,30 0,3 -1,6 -3,9 -14,14 -29,25 -43,39 -10,11 -21,22 -30,33 -4,4 -8,7 -13,7 -17,2 -28,15 -26,33 2,12 -4,20 -12,27 -6,6 -13,6 -19,0 -1,-1 -1,-2 -2,-2 1,-7 -1,-13 -2,-20 -2,-14 -1,-28 -1,-42z"/>
   <path class="fil2" d="M1476 1021c10,4 15,2 21,-7 1,-1 1,-2 2,-3 3,-4 5,-9 4,-15 -4,-20 10,-37 31,-37 4,0 6,-2 8,-5 21,-26 44,-49 70,-70 2,-1 3,-2 5,-4 7,5 8,14 12,21 0,4 -3,7 -6,10 -4,3 -7,6 -10,9 -4,3 -5,7 -2,11 5,11 10,22 14,33 6,12 11,24 16,36 1,3 3,6 1,9 -1,1 -2,1 -3,1 -7,-2 -13,1 -20,2 -5,-1 -6,-6 -7,-10 -6,-14 -12,-28 -18,-42 0,-3 -1,-5 -3,-7 -4,-6 -4,-6 -9,-1 -3,4 -6,8 -10,11 -4,5 -6,9 -5,16 1,7 -1,14 -4,20 -2,4 -3,7 0,11 4,7 6,14 9,21 2,4 5,8 3,13 -7,1 -15,0 -21,3 -5,0 -7,-4 -8,-7 -3,-6 -5,-12 -8,-18 -3,-6 -4,-6 -8,-1 -4,6 -7,12 -11,17 -6,9 -9,10 -20,8 -4,-1 -8,-2 -12,-2 -3,-1 -4,-2 -5,-4 0,0 0,-1 0,-1 -2,-6 -3,-12 -3,-18z"/>
   <path class="fil5" d="M1552 1045c9,-6 12,-7 22,0 1,0 2,0 2,0 6,9 12,17 11,29 -1,2 -4,3 -6,4 -12,3 -20,10 -24,21 0,1 -1,2 -2,3 -1,0 -1,1 -2,1 -11,-4 -22,-9 -32,-13 -8,-3 -13,-1 -16,8 -1,2 -1,5 -1,7 0,2 1,5 -1,7 -6,-6 -20,-47 -24,-71 2,1 4,1 5,2 9,3 19,6 27,13 14,6 27,13 41,18 -2,-6 -6,-11 -6,-17 1,-4 1,-9 6,-10z"/>
   <path class="fil91" d="M1569 1136c-8,-6 -14,-13 -16,-23 0,-4 0,-7 0,-11 0,0 1,0 1,0 2,-1 3,1 5,2 1,2 2,4 2,6 3,4 5,10 10,12 9,7 18,6 27,1 2,-1 5,-1 7,-3 4,-3 8,-3 12,1 3,7 -4,9 -6,14 -9,8 -19,10 -31,9 -4,0 -10,-1 -11,-8z"/>
   <path class="fil5" d="M2098 847c8,-11 16,-21 23,-33 1,-1 0,-4 3,-3 11,-12 18,-25 19,-42 -1,0 -1,-1 0,-1 0,0 0,0 1,0l0 0c1,-1 0,-2 1,-3 3,2 5,6 7,9 5,8 10,15 13,24 -2,1 -4,1 -6,2 -7,3 -9,8 -8,16 1,2 3,3 2,5 -15,23 -31,44 -45,67 -2,2 -4,4 -7,4 -4,0 -7,-2 -10,-4 -9,-4 -19,-4 -27,2 -3,2 -5,4 -9,3 -4,-2 -6,-7 -7,-11 -2,-4 -2,-8 -1,-13 0,-7 5,-11 11,-13 7,-2 12,0 17,5 1,1 3,3 3,5 2,3 4,3 5,0 3,-4 6,-8 8,-12 2,-3 4,-6 8,-7z"/>
   <path class="fil87" d="M2145 765c0,1 -1,2 -1,3 0,-2 0,-5 0,-7 1,1 1,3 2,4z"/>
   <path class="fil88" d="M1820 1142c2,1 4,2 5,4 8,16 15,31 23,47 1,3 1,5 0,8 -3,8 -8,12 -16,13 -8,1 -15,3 -23,5 -3,1 -5,1 -7,-1 -5,-5 -12,-8 -19,-9 -4,-1 -6,-3 -8,-7 -6,-13 -13,-26 -19,-40 -1,-2 -2,-4 0,-5 6,-1 11,5 17,5 4,1 7,2 11,0 9,-2 16,-7 21,-15 1,-2 3,-4 5,-5 4,-1 8,-4 11,0z"/>
   <path class="fil88" d="M1708 1148c9,0 12,6 15,13 8,18 17,36 26,54 3,6 1,10 -6,10 -5,0 -10,1 -14,0 -5,-1 -11,-1 -16,-1 -3,0 -6,-1 -8,-4 -5,-8 -13,-13 -22,-15 -3,-1 -6,-2 -7,-6 -6,-13 -11,-26 -17,-38 -1,-2 0,-3 1,-4 3,-2 7,-1 10,0 4,2 8,2 12,0 9,-1 14,-9 22,-12 1,0 2,0 3,1z"/>
   <path class="fil88" d="M1918 1108c2,0 3,2 4,4 5,9 9,18 14,27 2,4 2,7 0,11 -3,4 -4,9 -4,13 0,5 -2,7 -6,10 -7,5 -15,9 -23,14 -5,3 -9,3 -14,1 -2,-1 -5,-2 -8,-2 -5,0 -7,-3 -9,-7 -5,-11 -10,-22 -15,-32 -2,-4 -4,-8 -6,-11 0,-1 1,-1 2,-1 3,-1 6,1 8,2 19,9 37,1 44,-18 1,-2 1,-4 3,-6 3,-3 6,-6 11,-4z"/>
   <path class="fil92" d="M2181 1009c-2,7 -3,15 -4,22 -12,59 -38,112 -77,157 -12,14 -26,28 -40,40 -2,2 -4,3 -6,4 -2,0 -4,0 -6,-2 -1,-2 -1,-4 1,-6 1,-1 3,-3 4,-4 38,-32 68,-71 89,-117 14,-30 23,-61 27,-94 2,-12 3,-25 3,-37 0,-2 0,-4 0,-6 0,-5 2,-8 6,-8 4,0 6,3 5,8 0,10 -1,20 -2,30 0,4 -1,8 -1,13z"/>
   <path class="fil88" d="M1569 1136c13,7 25,6 37,-2 1,-1 3,-2 4,-3 3,-2 5,-1 7,2 11,25 22,51 33,76 2,5 1,7 -4,6 -8,-2 -15,-4 -23,-6 -2,0 -3,-2 -4,-3 -5,-12 -14,-20 -27,-22 -3,0 -5,-3 -6,-6 -5,-12 -11,-24 -16,-36 -1,-2 -2,-4 0,-6z"/>
   <path class="fil52" d="M2056 975c0,0 0,1 0,1 2,5 2,11 0,16 -1,4 -2,7 -7,8 -4,-1 -3,-5 -3,-8 0,-2 0,-5 -2,-5 -3,0 -3,2 -3,4 -3,11 -8,13 -17,7 -3,-2 -6,-4 -8,-7 -5,-8 -3,-15 6,-17 2,0 4,0 5,-2 -7,-4 -14,-2 -17,5 -5,11 0,22 12,27 4,2 9,1 12,6 0,3 -2,3 -4,4 -7,0 -12,4 -18,7 -12,0 -16,-9 -20,-18 -5,-13 -3,-25 5,-36 7,-9 16,-13 27,-14 2,0 3,-1 5,0 10,1 17,5 24,13 3,3 4,6 4,10z"/>
   <path class="fil88" d="M1994 1072c5,5 4,5 2,10 -3,7 -6,15 -4,23 1,5 0,9 -4,13 -4,4 -8,7 -11,12 -4,6 -12,5 -16,-1 -5,-10 -10,-21 -16,-31 -1,-2 -1,-3 -1,-5 -1,-5 3,-5 6,-7 5,-1 10,1 15,1 8,0 15,-3 21,-9 2,-2 4,-6 8,-5z"/>
   <path class="fil55" d="M2054 893c5,-4 9,-8 15,-9 12,-3 22,0 30,8 4,1 6,3 5,8l0 0c1,5 2,9 1,14 -6,2 -11,5 -15,10 -2,3 -6,3 -9,0 -3,-3 -3,-6 -1,-9 2,-3 5,-4 5,-9 -4,-1 -5,3 -8,5 -3,3 -7,5 -11,1 -4,-4 -1,-7 1,-11 2,-2 4,-3 5,-6 -6,0 -10,4 -14,11 -2,4 -1,8 2,12 4,5 9,8 14,12 4,3 6,6 1,10 -3,1 -5,3 -8,4 -9,0 -14,-6 -18,-12 -1,-2 -2,-4 -3,-6 -3,-8 -3,-17 0,-25 1,-4 3,-7 8,-7z"/>
   <path class="fil32" d="M1950 1087c-2,2 -4,3 -6,5 -9,5 -18,11 -27,16 -3,1 -6,3 -8,4 -5,-2 -1,-8 -4,-11 -2,-5 -4,-9 -7,-13 -2,-2 -3,-4 -3,-7 1,-3 4,-5 7,-6 7,-3 13,-8 19,-12 3,-2 6,-3 9,-4 1,0 1,0 2,0 5,5 6,13 12,18 1,4 8,4 7,9z"/>
   <path class="fil33" d="M1852 1134c-1,0 -1,0 -2,0 -10,2 -20,5 -30,7 -4,1 -7,1 -11,2 -3,-2 -2,-5 -1,-7 1,-3 0,-6 -1,-8 0,-6 -6,-11 -4,-18 0,-1 1,-2 2,-3 11,-4 22,-5 33,-8 2,0 3,0 5,1 3,3 2,8 3,12 0,3 2,6 2,9 1,4 7,7 4,12z"/>
   <path class="fil33" d="M1708 1148c-1,0 -2,0 -2,-1 -3,-5 2,-8 2,-13 1,-4 0,-8 -1,-13 -1,-3 -2,-7 2,-10 8,-2 16,0 24,-1 5,0 11,-1 16,1 3,2 2,5 1,8 -1,4 -2,9 -2,13 -1,5 5,9 1,14 -11,1 -21,0 -32,-1 -3,0 -6,0 -9,0z"/>
   <path class="fil16" d="M2049 925c5,8 10,15 20,17 3,-1 6,-2 8,2 -6,11 -13,21 -21,31 -6,-11 -15,-18 -27,-20 -1,-1 -1,-2 -1,-3 4,-10 11,-19 18,-27 1,-1 2,-1 3,0z"/>
   <path class="fil60" d="M1617 1134c-2,-1 -4,-1 -7,-2 2,-3 6,-6 7,-10 -2,-8 -1,-15 2,-22 5,-4 10,0 14,1 7,1 13,2 19,5 1,0 1,1 2,2 0,7 -6,12 -6,19 -1,2 -2,5 -1,8 1,2 1,5 -2,6 -10,-1 -19,-4 -29,-6z"/>
   <path class="fil32" d="M1994 1001c4,7 9,14 17,17 4,0 8,-2 10,3 -8,8 -15,18 -23,25 -3,0 -4,-2 -5,-4 -3,-6 -8,-11 -14,-15 -2,-1 -5,-2 -5,-6 4,-9 11,-14 17,-21 1,-1 3,-1 4,0z"/>
   <path class="fil93" d="M1748 1149c-1,-4 -4,-8 -4,-13 7,-3 9,2 12,6 1,1 1,2 2,2 1,1 2,1 3,1 2,1 3,2 4,3 1,1 2,2 3,1 2,-1 2,-2 2,-4 0,-1 0,-2 0,-3 0,-3 0,-6 3,-7 3,-1 5,1 7,3 2,2 3,3 4,5 4,6 5,6 10,0 4,-3 5,-8 8,-12 2,-3 4,-6 8,-7 2,6 0,11 -1,17 -5,12 -14,19 -26,21 -4,1 -8,1 -12,0 -6,-2 -12,-3 -16,-8 -2,-3 -4,-5 -6,-8z"/>
   <path class="fil40" d="M1645 1139c0,-5 -3,-10 0,-15 6,2 7,8 9,13 0,2 0,4 3,4 2,1 5,3 7,4 10,6 19,7 28,-1 3,-1 4,-4 6,-6 4,-3 7,-6 12,-2 0,4 -3,8 -4,12 -6,7 -13,12 -22,14 -4,1 -9,1 -13,0 -3,-1 -7,-1 -10,-3 -7,-5 -12,-11 -16,-19z"/>
   <path class="fil29" d="M2105 899c-2,-3 -4,-5 -5,-8 3,-2 4,-5 6,-7 13,-20 26,-40 41,-59 1,-2 2,-3 4,-4 4,1 5,5 5,8 -5,11 -12,20 -21,27 -7,5 -10,13 -15,20 -2,3 -5,6 -5,10 -5,3 -6,9 -10,13z"/>
   <path class="fil46" d="M1994 1041c1,2 2,4 3,5 1,9 1,17 -3,25 -8,12 -19,19 -34,17 -3,0 -6,-1 -9,-2 -3,-2 -7,-4 -9,-7 4,-7 8,-8 15,-4 0,1 1,1 2,0 4,-2 8,0 11,-1 4,-1 7,-4 10,-5 7,-5 10,-11 11,-19 0,-3 0,-7 3,-9z"/>
   <path class="fil94" d="M2020 1022c-3,-1 -7,-1 -10,-3 1,-1 2,-1 2,-2 4,-5 8,-7 14,-6 2,0 4,0 6,-1 4,-5 9,-8 15,-11 7,-6 7,-15 7,-23 9,17 -1,45 -30,46 -2,0 -3,0 -5,0z"/>
   <path class="fil95" d="M2077 944c-3,-1 -6,0 -8,-2 1,-2 3,-4 6,-3 3,-2 7,-5 11,-6 6,-2 9,-7 13,-12 1,-2 2,-5 5,-7 4,-4 1,-10 2,-14 9,17 -1,42 -25,44 -1,0 -2,0 -4,0z"/>
   <path class="fil92" d="M2019 1254c0,3 -1,4 -3,5 -6,3 -12,7 -18,10 -3,2 -6,1 -8,-2 -1,-3 -1,-6 2,-8 6,-4 13,-8 19,-11 4,-2 8,1 8,5z"/>
   <path class="fil92" d="M1545 802c-2,1 -5,3 -7,0 -3,-3 -2,-6 0,-9 6,-11 13,-21 20,-31 8,-12 17,-24 27,-34 8,-7 15,-15 23,-22 50,-45 108,-73 174,-84 17,-3 35,-5 52,-4 2,0 4,0 6,0 3,0 4,2 4,5 0,3 -1,5 -4,5 -1,0 -2,0 -4,0 -13,0 -25,1 -38,3 -32,4 -62,12 -92,25 -15,7 -30,14 -43,23 0,3 -2,4 -4,6 -12,6 -21,15 -32,22 -4,3 -6,8 -12,8 -2,2 -4,4 -6,6 -1,5 -5,7 -8,10 -1,4 -4,6 -6,8 -1,1 -2,1 -3,2 -13,14 -25,30 -35,46 -3,4 -4,10 -9,13 0,1 -1,1 -1,2z"/>
   <path class="fil87" d="M2124 811c-1,1 -1,3 -3,3 0,-2 -2,-4 -3,-6 -12,-12 -25,-24 -38,-35 -13,-10 -26,-20 -40,-28 -20,-12 -41,-22 -62,-31 -23,-9 -47,-15 -71,-20 -11,-2 -22,-3 -32,-4 -15,-2 -31,-1 -46,-1 -18,0 -35,2 -53,5 -19,3 -37,8 -54,13 -12,4 -23,8 -35,13 -23,10 -45,22 -65,36 -15,11 -29,22 -43,35 -9,8 -16,17 -24,25 -10,10 -19,22 -27,34 -12,17 -23,35 -33,54 -5,11 -10,22 -14,33 -1,3 -2,7 -5,10 0,-10 3,-20 7,-29 11,-27 26,-51 43,-74 16,-23 35,-43 55,-62 8,-8 18,-15 27,-22 18,-14 37,-26 57,-36 12,-6 24,-11 36,-16 21,-8 43,-14 65,-18 1,0 2,0 4,0 1,-1 3,0 4,-1 10,-1 21,-3 31,-4 6,-1 11,0 17,0 3,-2 7,0 10,-1 5,0 11,0 16,0 3,2 7,0 10,1 5,0 11,0 16,0 1,1 3,0 4,1 16,1 32,4 48,8 21,5 42,11 62,20 18,8 36,17 53,27 19,11 36,25 53,39 6,6 12,12 19,17 4,4 8,8 11,13z"/>
   <path class="fil87" d="M1614 715c15,-13 31,-26 48,-36 5,0 9,-3 13,-4 32,-13 64,-22 98,-27 16,-2 32,-4 47,-4 7,0 13,-2 20,-1 13,1 26,2 39,3 12,1 23,4 35,3 -4,6 -10,5 -16,4 -27,-4 -54,-5 -81,-4 -24,1 -48,5 -71,10 -31,7 -60,17 -88,30 -9,4 -18,10 -25,17 -4,3 -8,5 -11,10 -1,3 -5,4 -8,1z"/>
   <path class="fil87" d="M2144 768c0,0 0,1 0,1 -4,0 -8,0 -10,-5 -2,-3 -5,-4 -8,-7 -18,-16 -37,-30 -57,-43 -25,-16 -51,-29 -79,-40 -20,-7 -40,-13 -60,-18 -4,-1 -7,-2 -7,-6 11,1 21,4 32,7 32,8 62,21 90,36 24,13 47,28 68,46 11,9 21,19 31,28z"/>
   <path class="fil96" d="M1591 738c2,-3 4,-6 7,-8 1,-1 1,-1 2,0 4,4 7,8 10,13 1,2 2,4 2,6 0,3 0,6 -4,8 -4,2 -6,0 -9,-2 -2,-3 -4,-6 -6,-9 -1,-1 -2,-2 -3,-4 0,0 0,0 -1,-1 0,-1 0,-3 1,-4z"/>
   <path class="fil87" d="M1546 801c2,-6 6,-10 9,-15 10,-16 21,-32 35,-45 1,1 1,2 1,3 0,2 -1,3 -2,5 -14,15 -27,32 -37,51 -1,2 -2,5 -6,3z"/>
   <path class="fil87" d="M1600 731c-1,0 -1,0 -2,0 2,-4 6,-6 9,-9 -1,7 -1,8 -7,9z"/>
   <path class="fil87" d="M1858 686c-4,0 -7,1 -10,-1 4,0 7,-1 10,1z"/>
   <path class="fil87" d="M1831 684c-3,2 -7,1 -10,1 3,-2 7,-1 10,-1z"/>
   <path class="fil87" d="M1772 690c-1,1 -3,1 -4,1 1,-1 3,-1 4,-1z"/>
   <path class="fil87" d="M1879 687c-2,0 -3,0 -4,-1 2,0 3,0 4,1z"/>
   <path class="fil96" d="M2134 856c5,-10 12,-18 19,-27 1,0 3,1 3,2 4,9 7,18 9,28 0,1 -1,2 -2,3 -10,-1 -19,-4 -28,-5 -1,0 -1,0 -2,-1z"/>
   <path class="fil97" d="M2165 862c-3,-11 -7,-22 -11,-33 -1,-3 -2,-6 -3,-9 0,-1 -1,-3 -1,-4 2,1 5,-1 6,3 4,13 9,26 14,40 1,5 1,5 -5,4z"/>
   <path class="fil98" d="M2098 847c-6,10 -12,19 -19,29 -3,-3 -4,-6 -5,-9 -5,-10 -17,-12 -24,-4 -2,2 -2,4 -3,6 -2,5 -6,3 -10,2 -6,-3 -10,-7 -13,-12 -2,-3 -3,-5 -6,-6 -16,-4 -33,-8 -49,-11 -2,3 1,4 1,6 6,11 11,22 18,33 2,4 6,8 3,13 -1,1 -2,1 -3,1 -7,-2 -13,0 -19,3 -3,0 -6,-2 -7,-5 -6,-10 -11,-21 -16,-32 -1,-1 -1,-2 0,-4 0,-1 0,-2 -2,-3 -4,-2 -5,-6 -7,-9 -4,-9 -11,-12 -20,-13 -9,-1 -18,-2 -27,-3 -4,0 -7,-2 -8,-6 0,-7 -5,-13 -1,-21 11,1 21,2 32,3 4,0 6,0 9,-3 17,-18 44,-13 54,10 1,3 3,4 6,5 15,3 31,7 46,11 3,1 6,0 8,-1 17,-10 35,-5 44,12 1,3 3,4 6,5 4,1 8,2 12,4z"/>
   <path class="fil99" d="M1703 827c1,-2 1,-4 2,-6 8,-26 40,-35 60,-17 1,1 3,2 4,3 8,4 11,12 9,21 -2,2 -4,5 -5,8 -2,8 -7,12 -14,12 -3,-6 -6,-8 -13,-4 -4,2 -9,2 -11,-3 -2,-6 2,-8 6,-10 1,0 1,0 2,-1 2,-1 5,-2 5,-4 -1,-3 -4,-1 -6,0 -1,0 -3,1 -4,1 -4,1 -7,0 -8,-4 -1,-4 0,-7 4,-9 3,-2 7,-3 11,-5 -7,-3 -17,0 -21,5 -2,2 -1,5 -1,8 1,8 4,16 8,23 2,3 4,6 2,10 -4,3 -8,1 -12,-1 -4,-3 -8,-4 -13,-4 -1,0 -1,-1 -2,-1 -7,-8 -7,-15 -3,-23z"/>
   <path class="fil5" d="M1627 901c-5,-6 -9,-14 -10,-22 0,-2 0,-4 0,-6 0,-22 22,-42 48,-33 2,1 4,2 6,2 10,0 14,8 17,16 1,2 2,4 2,6 -1,15 -6,28 -20,35 -8,4 -17,6 -27,3 -5,-2 -10,-2 -15,0 -1,0 -1,-1 -2,-1z"/>
   <path class="fil99" d="M1881 803c2,7 4,13 4,21 0,1 -1,2 -1,3 -3,1 -4,4 -6,6 -2,2 -4,6 -9,3 -3,-8 1,-15 2,-22 0,-3 1,-6 0,-10 0,-2 -1,-3 -3,-3 -2,0 -2,1 -3,2 -7,10 -9,10 -16,1 -3,-4 -5,-4 -7,1 0,1 -1,2 -1,3 -3,7 -7,7 -13,2 -1,-1 -2,-3 -3,-2 -2,1 -1,3 -1,4 1,8 5,15 8,21 1,3 4,6 2,10 -5,2 -8,-1 -11,-4 -5,-4 -8,-10 -14,-13 -1,-4 -1,-8 -2,-11 0,-5 2,-8 6,-11 2,-3 3,-6 5,-8 15,-18 43,-17 58,2 1,2 3,4 4,6z"/>
   <path class="fil100" d="M1814 803c-1,4 -2,8 -3,11 -1,15 -1,16 -17,16 -5,0 -11,4 -17,0 0,0 -1,-1 -1,-1 0,-8 -4,-14 -8,-21 15,-3 30,-4 45,-5z"/>
   <path class="fil101" d="M1688 859c-4,-7 -9,-12 -15,-17 10,-6 20,-11 31,-15 0,8 1,16 5,23 -4,8 -13,12 -20,9z"/>
   <path class="fil92" d="M1505 946c-1,6 0,11 -1,17 -1,3 -2,6 -6,6 -3,0 -5,-2 -5,-7 0,-10 0,-19 1,-29 0,-4 3,-6 6,-6 3,0 5,3 5,6 0,4 0,8 0,13z"/>
   <path class="fil87" d="M1732 1115c-8,0 -16,0 -24,-1 -1,0 -3,0 -3,-1 -7,-9 -17,-13 -27,-17 -9,-11 -12,-25 -18,-38 -6,-13 -11,-26 -17,-39 -1,-3 -3,-6 -1,-10 -5,-13 -10,-25 -16,-37 -1,-3 -2,-6 -3,-8 3,-10 14,-17 26,-18 8,-1 17,1 25,2 2,0 3,1 4,3 6,12 12,23 17,35 0,1 0,2 0,4 -3,6 -4,13 -7,19 -2,3 1,6 2,9 13,27 25,53 38,80 3,5 7,11 5,17z"/>
   <path class="fil87" d="M1633 1102c-5,0 -9,-2 -14,-3 -3,0 -4,-3 -6,-5 -5,-8 -11,-15 -21,-17 -2,-1 -5,-1 -6,-4 -4,-10 -8,-19 -12,-29 -2,-4 -3,-9 -5,-13 6,-11 16,-18 25,-26 3,-3 6,-8 12,-9 7,2 7,9 9,14 1,3 3,7 5,10 1,4 3,7 2,11 -9,9 -8,18 -2,28 5,10 9,21 14,32 1,4 4,7 0,11z"/>
   <path class="fil60" d="M1619 1032c0,-4 -3,-7 -3,-10 0,-4 -3,-8 2,-10 8,-7 13,-7 22,-1 9,22 19,43 28,65 3,7 6,14 9,21 0,2 -2,3 -4,3 -6,1 -12,4 -17,7 -1,1 -3,1 -5,0l0 0c-4,-2 -6,-5 -7,-8 -8,-19 -16,-38 -24,-57 -1,-3 -2,-6 -1,-9z"/>
   <path class="fil88" d="M1674 950c-1,3 -3,2 -5,2 -4,-1 -8,-2 -12,-2 -12,-1 -22,3 -31,12 -1,1 -3,2 -4,3 -5,-11 -10,-22 -14,-33 1,-4 3,-7 6,-10 7,-6 13,-13 21,-16 8,1 16,2 23,6 6,9 11,20 16,30 1,3 1,5 0,8z"/>
   <path class="fil88" d="M1605 997c0,3 -2,5 -4,7 -9,7 -17,16 -25,24 -2,2 -3,4 -6,4 -4,-7 -6,-14 -9,-21 0,-3 0,-6 1,-8 4,-8 5,-16 4,-24 0,-2 0,-5 1,-6 4,-6 9,-12 14,-16 4,-3 7,-4 10,2 6,10 10,22 15,33 1,2 1,4 -1,6z"/>
   <path class="fil102" d="M1605 997c-6,-14 -12,-28 -18,-43 -4,4 -7,8 -10,11 -3,3 -6,7 -9,10 -2,2 -3,5 -2,8 3,10 0,20 -6,28 -4,-4 -4,-8 -1,-14 4,-6 7,-14 4,-22 -1,-4 0,-7 2,-10 6,-7 11,-14 18,-20 4,-4 5,-3 7,1 1,2 2,4 2,6 1,2 3,4 3,6 5,8 8,17 12,25 4,9 7,18 12,27 -2,3 -2,7 -2,10 -4,-8 -8,-16 -11,-24z"/>
   <path class="fil40" d="M1552 1045c-2,3 -3,7 -4,11 -4,0 -5,-4 -6,-6 -2,-5 -4,-10 -7,-15 -1,-2 -1,-5 -4,-5 -2,0 -3,3 -4,4 -4,6 -7,11 -11,17 -2,3 -3,6 -7,6 -9,-4 -18,-9 -26,-14 5,1 10,1 15,2 6,1 10,-1 13,-6 4,-7 9,-14 14,-21 1,-1 1,-2 2,-3 3,-4 5,-4 8,1 4,8 7,15 10,23 1,3 2,6 6,7z"/>
   <path class="fil28" d="M1635 907c-9,8 -18,16 -27,24 -4,-6 -2,-11 3,-16 5,-5 12,-9 16,-15 0,0 1,0 1,0 3,1 7,1 7,6z"/>
   <path class="fil103" d="M1551 954c0,-5 4,-6 7,-8 -1,4 -4,6 -7,8z"/>
   <path class="fil104" d="M1512 989c2,0 2,2 2,3 0,1 0,2 -1,2 -2,0 -3,-1 -3,-3 0,-1 0,-2 2,-3z"/>
   <path class="fil105" d="M1594 959c-2,-2 -3,-4 -3,-6 4,2 5,3 3,6z"/>
   <path class="fil106" d="M1587 1073c17,1 28,10 33,26 0,8 1,15 -3,22 -5,-1 -11,-1 -15,3 -1,1 -2,1 -3,1 -1,-3 1,-5 2,-8 3,-8 0,-13 -8,-14 -2,0 -5,0 -7,-1 -3,-1 -6,-3 -6,-7 0,-4 3,-6 7,-7 3,-1 5,0 10,0 -6,-4 -11,-4 -15,-2 -5,2 -8,6 -8,12 0,4 2,6 5,7 3,1 6,1 9,2 4,1 7,3 7,7 0,5 -3,6 -7,7 -2,0 -4,0 -7,0 -4,-1 -7,0 -11,2 -5,-4 -9,-8 -10,-14 2,-3 0,-4 -2,-6 -1,-1 -2,-2 -3,-3 0,-11 11,-24 24,-27 3,-1 6,-1 9,-2z"/>
   <path class="fil107" d="M1510 1056c7,-11 14,-23 23,-35 6,12 10,23 16,34 3,7 6,14 8,21 -7,0 -33,-12 -47,-20z"/>
   <path class="fil108" d="M1557 1105c3,-2 4,0 4,2 1,2 0,4 -3,3 -1,-2 -1,-4 -2,-6z"/>
   <path class="fil88" d="M1991 894c-5,-11 -11,-22 -17,-33 -2,-4 -4,-8 -6,-12 3,-4 8,-2 11,-1 13,3 25,6 38,9 4,1 8,3 11,7 3,6 8,10 14,13 3,1 5,3 7,5 2,4 3,7 5,11 -7,10 -8,21 -5,32 -7,10 -14,20 -21,30 -2,0 -3,0 -5,0 -3,-2 -6,-4 -8,-8 -7,-15 -15,-29 -22,-43 -1,-3 -4,-6 -2,-10z"/>
   <path class="fil109" d="M2049 882c-11,-1 -18,-7 -24,-16 -1,-2 -2,-5 -5,-5 -17,-4 -34,-9 -51,-12 -2,-2 -3,-5 -5,-8 -1,-3 -1,-5 3,-4 5,1 10,2 15,3 12,3 24,6 36,8 4,1 8,3 10,7 3,6 7,9 13,12 2,1 5,2 7,0 -1,5 1,9 2,13z"/>
   <path class="fil110" d="M2102 856c-1,5 -4,8 -6,10 -1,1 -1,1 -2,0 -1,-1 -1,-1 0,-2 2,-3 3,-6 8,-9z"/>
   <path class="fil87" d="M1771 1165c4,0 8,0 12,0 -4,2 -8,2 -12,0z"/>
   <path class="fil87" d="M1671 1162c4,0 9,0 13,0 -4,2 -9,2 -13,0z"/>
   <path class="fil27" d="M1852 1134c-1,-4 -5,-6 -6,-10 2,-5 6,-4 10,-3 3,1 5,3 7,5 2,1 4,2 6,2 3,-1 6,2 9,2 3,0 6,-1 9,-3 8,-6 14,-12 16,-22 1,-2 2,-5 4,-5 2,4 1,9 2,13 -2,15 -10,25 -25,29 -11,3 -21,2 -30,-6 -1,-1 -2,-1 -3,-1z"/>
   <path class="fil87" d="M1994 1001c-7,7 -14,14 -21,22 -3,3 -6,3 -10,1 -3,-2 -6,-6 -7,-9 -13,-30 -29,-59 -43,-88 -2,-4 -5,-8 -1,-12 8,-4 15,-1 23,0 13,2 26,4 39,7 4,0 6,3 7,6 5,10 11,20 16,30 1,3 2,6 2,9 -7,11 -8,22 -5,34z"/>
   <path class="fil16" d="M1998 967c-7,-12 -13,-25 -20,-37 -1,-2 -3,-5 -4,-7 -7,-4 -9,-11 -10,-18 0,-4 1,-8 5,-9 8,-7 12,-8 22,-3 5,7 8,16 13,23 7,12 13,25 20,37 -10,1 -18,6 -25,13z"/>
   <path class="fil92" d="M2048 999c-3,7 -8,10 -15,11 -10,0 -17,-4 -24,-11 -7,-7 -7,-22 1,-29 4,-4 17,-6 22,-3 2,1 2,3 1,4 -2,3 -4,6 -8,5 -1,0 -2,0 -3,0 -3,0 -5,1 -6,3 -1,2 -1,5 1,7 3,4 7,8 11,11 2,2 5,3 8,1 3,-2 3,-4 3,-7 -1,-5 2,-8 5,-11 2,-2 4,-1 4,2 2,6 1,11 0,17z"/>
   <path class="fil87" d="M1930 1060c-8,6 -17,12 -27,17 -2,-1 -3,-3 -4,-5 -15,-32 -31,-63 -47,-95 -2,-5 -6,-8 -12,-9 -8,-1 -16,-5 -21,-12 -1,-2 -3,-3 -5,-4 -1,-1 -2,-1 -2,-2 -4,-8 -9,-16 -13,-25 -1,-3 -4,-7 -2,-11 1,-1 1,-2 2,-2 11,-1 17,-8 25,-14 11,-10 28,-11 41,-4 2,1 4,1 6,2 8,7 10,17 15,25 1,2 2,4 4,6 2,4 4,9 6,13 1,2 2,5 1,8 -2,3 -6,3 -9,3 -7,0 -8,2 -5,9 5,10 10,20 15,30 9,18 18,36 27,54 2,5 4,10 6,15 0,0 0,1 0,1z"/>
   <path class="fil88" d="M1814 950c1,-3 3,-1 4,0 4,7 11,11 19,14 2,1 4,1 6,1 5,-1 8,2 10,7 14,28 28,57 42,85 1,3 3,5 4,8 2,4 3,7 3,11 -3,2 -5,3 -8,5 -8,2 -15,-2 -22,-5 -7,-8 -11,-18 -15,-28 -14,-29 -28,-57 -42,-86 -2,-4 -5,-7 -2,-12z"/>
   <path class="fil43" d="M1963 1022c3,0 7,1 10,1 9,4 17,8 21,18 0,8 1,16 -4,22 -3,4 -5,8 -10,8 -7,-8 -12,-17 -19,-25 -1,-1 -2,-3 -3,-4 -1,-2 -3,-4 -6,-2 -3,2 -1,4 0,6 4,6 10,12 14,18 3,4 7,7 6,12 -5,0 -10,1 -15,1l0 0c-3,-3 -6,-4 -10,-1 -2,1 -3,2 -5,2 -7,-5 -9,-12 -11,-20 -2,-2 -2,-4 -3,-7 0,-8 3,-14 8,-20 2,-2 3,-5 6,-6 6,-5 12,-10 21,-6z"/>
   <path class="fil111" d="M1874 1075c7,1 14,3 21,6 5,5 11,10 12,18 -1,4 -2,8 -3,11 -3,8 -9,14 -16,19 -4,-2 -3,-5 -3,-8 0,-8 0,-15 0,-23 0,-2 0,-5 -1,-7 -1,-1 -1,-2 -3,-2 -1,0 -2,1 -2,2 0,1 0,2 0,3 0,4 -1,8 -5,9 -5,2 -8,-1 -10,-4 -1,-1 -3,-4 -5,-2 -2,2 -1,4 1,6 4,6 9,12 14,17 3,3 7,6 6,12 -4,1 -7,-1 -10,-1 -2,-1 -4,-3 -7,-2 -5,-3 -9,-8 -16,-5 -5,-7 -4,-15 -4,-22 -3,-6 1,-10 4,-15 3,-2 5,-5 7,-7 6,-4 12,-9 20,-5z"/>
   <path class="fil87" d="M1931 1053c0,2 0,5 0,7 0,0 -1,0 -1,0l0 0c-1,-3 -3,-5 2,-7z"/>
   <path class="fil87" d="M1839 1102c-11,3 -22,6 -33,7 -4,-3 -5,-7 -7,-10 -18,-35 -35,-71 -52,-106 -3,-6 -6,-11 -14,-12 -6,0 -11,-5 -16,-8 -8,-10 -15,-21 -17,-35 1,-2 2,-4 3,-6 6,-24 32,-38 57,-25 1,1 3,1 4,2 3,1 4,4 6,7 5,9 9,18 14,28 1,3 3,6 1,9 -8,5 -13,14 -7,26 19,36 36,73 54,110 2,5 6,9 8,14z"/>
   <path class="fil88" d="M1839 1102c-3,0 -5,-2 -6,-4 -11,-22 -22,-44 -32,-66 -9,-19 -19,-38 -28,-57 -3,-5 -4,-9 0,-14 1,-2 2,-4 3,-6 2,-4 4,-5 8,-3 5,1 4,7 7,9 21,38 39,79 59,117 1,3 2,6 1,9 -3,4 -5,9 -7,14 -1,0 -3,0 -4,0z"/>
   <path class="fil88" d="M1717 972c5,2 10,6 16,6 10,0 13,7 17,14 18,36 36,73 54,109 1,3 3,5 3,8 -1,0 -1,1 -2,1 -3,1 -5,0 -7,-2 -4,-4 -9,-6 -14,-7 -2,-1 -5,-2 -7,-3 -2,-1 -4,-3 -5,-5 -18,-38 -37,-76 -55,-114 0,-3 -2,-5 0,-8z"/>
   <path class="fil98" d="M1784 1099c7,3 14,7 19,12 3,5 6,10 6,16 -4,7 -7,14 -14,20 -7,-3 -10,-9 -7,-17 3,-10 -1,-16 -11,-17 -12,-1 -16,2 -16,14 0,5 0,9 1,14 0,3 0,6 -2,7 -1,0 -3,0 -4,0 -2,0 -2,-2 -2,-3 -3,-4 -5,-8 -10,-8 -1,-7 0,-14 3,-21 -1,-3 0,-5 2,-8 2,-2 4,-4 6,-6 6,-5 13,-8 21,-5 2,0 5,0 7,1z"/>
   <path class="fil88" d="M1751 1110c-1,2 -3,4 -4,6 -5,0 -10,0 -16,-1 -14,-29 -28,-58 -42,-88 -2,-4 -4,-8 -6,-13 -1,-2 -2,-5 0,-7 3,-5 5,-10 7,-16 0,-1 1,-2 3,-2 2,0 3,1 4,3 12,22 23,45 34,67 6,12 12,24 18,36 2,4 5,9 4,14z"/>
   <path class="fil112" d="M1619 1032c6,11 10,23 15,34 6,13 12,27 17,40 -7,0 -13,-2 -19,-4 -1,-7 -5,-13 -8,-20 -5,-12 -10,-23 -15,-35 -1,-3 -1,-6 1,-9 3,-2 5,-5 8,-7z"/>
   <path class="fil113" d="M1754 1145c1,1 2,2 2,3 -1,1 -2,2 -3,1 -1,-1 -1,-3 1,-4z"/>
   <path class="fil92" d="M1662 1147c-1,-9 -3,-18 -2,-27 2,-13 4,-15 17,-15 4,0 7,0 10,1 2,1 4,2 5,4 1,3 0,5 -3,5 -4,0 -9,0 -13,0 -3,0 -4,2 -4,4 0,3 1,3 4,3 3,0 6,0 10,0 3,0 5,1 5,5 0,3 -2,5 -5,5 -3,0 -5,0 -8,1 -3,0 -6,-1 -5,4 0,4 1,4 6,4 3,0 5,0 8,0 6,0 6,0 6,6 -2,3 -4,4 -8,5 -6,1 -11,0 -17,0 -3,0 -5,-2 -7,-5z"/>
   <path class="fil114" d="M1651 1139c2,1 4,2 3,5 -3,0 -5,-2 -3,-5z"/>
   <path class="fil115" d="M1956 1078c0,0 1,1 1,1 1,1 3,0 3,2 0,2 -2,1 -3,1 -2,0 -4,-1 -3,-4 0,0 1,0 2,-1 0,0 0,0 0,0z"/>
   <path class="fil116" d="M2035 1016c0,1 -1,2 -3,2 -2,0 -3,0 -3,-2 0,-1 1,-1 2,-2 1,0 3,0 4,2z"/>
   <path class="fil87" d="M1591 743c-1,-1 -1,-2 -1,-3 0,-1 1,-1 1,-2 0,1 0,3 0,4z"/>
   <path class="fil67" d="M1970 897c-1,3 -3,7 -3,10 -5,0 -6,-4 -8,-8 -6,-12 -12,-24 -18,-35 -2,-3 -4,-6 -8,-7 -4,-1 -7,-3 -9,-6 -6,-8 -14,-8 -23,-9 -7,0 -14,0 -21,-4 -2,-5 0,-9 4,-12 0,-1 1,-1 1,-2 1,2 2,3 4,3 10,1 20,2 29,3 11,1 19,5 23,15 1,4 4,7 6,10l1 0 0 1c7,14 12,29 22,41z"/>
   <path class="fil117" d="M1948 856c0,0 0,-1 -1,-1 0,-1 0,-3 1,-3 2,0 4,2 3,4 -1,1 -2,0 -3,0z"/>
   <path class="fil118" d="M2034 837c1,0 1,0 1,1 0,1 -1,1 -1,2 -1,0 -2,0 -2,-1 0,-1 0,-2 2,-2z"/>
   <path class="fil29" d="M1732 856c10,2 19,-3 27,-7 7,-2 9,-7 12,-13 1,-3 1,-6 5,-6 0,0 1,0 1,0 3,3 3,7 2,11 -1,8 -5,14 -10,19 -7,8 -16,12 -27,12 -11,1 -21,-2 -29,-10 -2,-3 -7,-6 -4,-11 6,-4 6,-4 10,0 4,3 8,5 13,6z"/>
   <path class="fil119" d="M1709 851c1,3 4,5 5,8 -5,9 -14,11 -23,12 -4,-1 -1,-5 -3,-7 0,-1 -1,-3 -1,-4 8,-1 14,-6 20,-9 0,0 1,0 1,0z"/>
   <path class="fil68" d="M1712 818c2,1 2,3 1,4 0,1 -1,2 -2,2 -2,0 -1,-2 -1,-3 0,-1 0,-2 2,-3z"/>
   <path class="fil29" d="M1689 864c2,2 1,5 3,7 4,2 3,6 3,9 -1,8 -4,15 -9,22 -5,5 -10,9 -17,12 -4,1 -8,2 -11,0 -7,-1 -14,-2 -21,-5 -2,-2 -5,-3 -7,-6 1,0 1,-1 2,-1 3,-3 6,-4 10,-2 10,4 19,4 29,-1 10,-5 16,-13 18,-24 1,-3 2,-6 1,-9z"/>
   <path class="fil120" d="M1834 843c1,1 3,2 4,3 4,1 6,-1 7,-5 0,-2 0,-5 1,-7 0,-1 1,-3 3,-3 2,0 3,0 4,2 1,2 2,4 3,7 1,3 2,5 6,5 3,0 6,-2 6,-5 0,-1 1,-2 1,-3 3,-2 5,-4 6,-6 2,-3 4,-4 7,-4 1,4 -2,8 -3,11 1,4 -1,7 -4,9 -7,8 -16,12 -27,13 -17,1 -30,-7 -38,-21 -1,-4 -5,-7 -1,-11 3,0 5,1 7,3 4,5 9,10 15,13z"/>
   <path class="fil28" d="M1812 826c0,4 2,7 3,10 -1,2 -3,3 -5,4 -10,2 -19,3 -29,3 -2,0 -3,-1 -4,-2 0,-4 0,-8 1,-12 10,-1 19,-2 29,-3 3,0 4,-2 4,-4 0,-2 0,-5 1,-7 0,4 1,8 1,12z"/>
   <path class="fil121" d="M1829 796c0,1 -1,3 -2,2 -1,0 -1,-1 -1,-2 0,-1 0,-2 2,-2 1,0 1,1 1,2z"/>
   <path class="fil67" d="M1657 913c9,-2 18,-6 25,-13 3,0 4,2 4,5 -2,9 -9,12 -15,17 -1,2 1,3 2,5 8,19 18,36 26,55 0,1 0,2 0,3 -2,2 0,7 -4,8 -1,-1 -1,-2 -2,-3 -6,-14 -12,-27 -19,-40 -5,-13 -12,-25 -17,-37z"/>
   <path class="fil122" d="M1862 1129c0,-1 0,-3 2,-2 2,1 5,0 5,4 -2,1 -4,-1 -7,-2z"/>
   <path class="fil88" d="M1875 844c2,-2 3,-5 5,-7 11,1 22,2 33,3 3,0 5,1 6,3 4,6 9,10 16,11 3,1 5,3 6,6 7,14 15,29 22,43 1,1 2,3 2,4 3,6 5,11 8,17 -1,1 -3,1 -5,1 -15,-3 -31,-5 -46,-8 -4,-1 -8,0 -12,0 -1,0 -1,0 -2,0 -3,-3 -5,-7 -7,-11 -9,-19 -19,-37 -28,-56 -1,-2 0,-4 0,-6z"/>
   <path class="fil5" d="M1911 916c0,0 1,0 1,0 8,16 16,33 24,49 9,19 18,38 28,57 -7,1 -14,3 -20,8 -4,-1 -6,-4 -7,-7 -15,-31 -31,-61 -46,-92 -2,-3 -3,-7 -3,-11 0,-1 0,-2 1,-2 7,-9 14,-10 23,-1z"/>
   <path class="fil88" d="M1777 841c13,-1 25,-3 38,-4 7,10 15,17 28,19 3,0 5,0 8,1 1,0 2,1 2,1 9,12 17,24 17,40 -1,3 -3,1 -4,0 -12,-7 -25,-7 -37,1 -5,3 -9,7 -12,12 -1,2 -2,3 -5,3 -5,1 -10,1 -15,2 -5,0 -6,-4 -8,-8 -7,-14 -13,-28 -20,-42 -2,-2 -1,-5 -1,-8 4,-5 6,-10 9,-16z"/>
   <path class="fil5" d="M1874 1075c-7,1 -14,4 -20,7 -5,0 -6,-4 -7,-7 -16,-30 -29,-61 -45,-91 -5,-10 -10,-21 -14,-31 0,-1 0,-2 1,-4 8,-10 16,-11 24,-1 1,1 1,1 2,2 2,7 6,13 9,19 17,35 34,70 51,105z"/>
   <path class="fil112" d="M1931 1053c-2,2 -1,5 -2,7 -2,-1 -3,-3 -4,-5 -16,-31 -31,-63 -47,-94 -1,-1 -1,-2 -2,-3 -2,-5 2,-9 7,-9 4,0 7,0 11,0 3,1 5,3 6,6 12,24 25,47 36,71 1,3 2,6 2,9 -4,6 -6,12 -7,18z"/>
   <path class="fil52" d="M1813 949c-9,-6 -14,-5 -22,2 -3,1 -5,-1 -6,-3 -10,-21 -22,-41 -30,-63 0,-3 -2,-5 -3,-8 0,-2 1,-4 2,-5 6,-3 11,-7 17,-8 8,14 15,30 22,44 1,2 2,4 4,7 4,9 8,17 12,26 1,3 3,5 3,8z"/>
   <path class="fil123" d="M1938 1034c-9,-18 -18,-35 -26,-53 -6,-11 -11,-23 -17,-34 -3,-6 -6,-13 -9,-19 -1,-3 -2,-7 3,-8 1,1 1,3 2,4 17,35 35,70 52,105 -2,2 -3,3 -5,5z"/>
   <path class="fil40" d="M1889 921c-2,2 -2,5 -3,8 -5,-9 -9,-18 -14,-27 -1,-1 -1,-3 -3,-4 -6,-14 -13,-27 -19,-41 10,-2 18,-6 25,-12 1,2 2,3 2,5 2,9 -6,11 -11,15 -2,1 -1,3 0,5 7,14 13,28 20,41 2,3 2,6 2,9 0,0 0,1 0,1z"/>
   <path class="fil123" d="M1790 953c4,5 6,12 9,18 8,17 17,33 25,50 9,18 18,36 26,54 1,2 2,5 4,7 -1,2 -3,4 -5,5 -17,-34 -34,-69 -50,-103 -4,-8 -9,-14 -12,-22 0,-3 -3,-7 2,-9z"/>
   <path class="fil88" d="M1684 906c-1,-2 -1,-4 -2,-6 7,-9 10,-19 9,-30 8,-4 16,-8 23,-11 8,7 18,10 28,10 7,2 7,9 10,13 4,6 6,13 10,20 1,2 2,5 0,8 -2,2 -4,0 -6,-1 -22,-9 -44,1 -51,23 -1,3 -2,5 -5,6 -1,0 -1,0 -1,0 -8,-10 -15,-20 -15,-33z"/>
   <path class="fil52" d="M1684 906c4,9 9,17 13,26 1,2 3,5 4,7 5,11 10,22 16,33 0,3 2,5 2,7 -7,1 -14,2 -21,3 -1,-1 -2,-3 -3,-4 -8,-16 -16,-32 -23,-49 0,-1 -1,-2 -1,-3 -1,-2 -2,-4 -3,-6 -1,-1 -1,-2 0,-3 7,-2 12,-7 16,-12z"/>
   <path class="fil67" d="M1762 910c-6,-14 -13,-27 -19,-41 10,-1 18,-5 25,-12 2,2 3,4 3,7 -3,5 -7,8 -12,9 -3,1 -6,1 -6,5 2,2 3,4 4,6 1,3 1,5 3,8 9,19 19,38 28,57 1,1 2,2 2,3 0,1 0,2 0,2 -2,3 -1,6 -2,9 -2,-3 -4,-6 -5,-10 -2,-7 -6,-13 -9,-19 -4,-8 -7,-16 -12,-23z"/>
   <path class="fil5" d="M1698 982c6,-6 13,-7 21,-3 6,9 10,19 15,28 12,25 24,50 36,75 2,5 4,11 8,15l0 1c-7,1 -14,3 -20,7 -4,-1 -5,-4 -7,-7 -17,-34 -33,-68 -50,-102 -2,-4 -3,-8 -3,-12 0,-1 0,-2 0,-2z"/>
   <path class="fil87" d="M1777 1098c0,0 0,-1 0,-1 3,0 5,-1 7,1 -3,0 -5,0 -8,-1z"/>
   <path class="fil123" d="M1697 985c12,25 25,51 37,76 7,15 14,29 22,44 -1,2 -3,3 -5,5 -5,-11 -11,-22 -16,-33 -12,-25 -25,-50 -37,-76 -1,-3 -3,-5 -3,-8 1,-3 0,-6 2,-8z"/>
   <path class="fil124" d="M1777 1119c3,0 5,1 6,4 1,3 -2,4 -4,5 0,0 -1,0 -1,0 -5,1 -6,1 -6,-3 -1,-5 0,-6 5,-6 0,0 1,0 1,0z"/>
   <path class="fil125" d="M1668 921c3,1 4,3 3,6 -3,-1 -4,-3 -3,-6z"/>
   <path class="fil43" d="M1864 862c3,-3 7,-4 10,-8 2,-2 3,-3 4,-6 8,14 15,29 22,44 4,8 8,16 11,24 -2,-1 -4,-2 -5,-2 -7,-2 -12,0 -17,5 -2,-1 -3,-3 -4,-5 -7,-14 -14,-29 -21,-43 0,-1 -1,-2 -1,-3 0,-2 -1,-4 0,-6z"/>
   <path class="fil105" d="M1757 883c-3,-1 -4,-3 -4,-6 4,0 5,2 4,6z"/>
   <path class="fil126" d="M1864 862c1,2 4,4 0,6 -1,-2 -4,-4 0,-6z"/>
   <circle class="fil2" cx="1587" cy="1107" r="40"/>
   <circle class="fil2" cx="1676" cy="1128" r="40"/>
   <circle class="fil2" cx="1777" cy="1129" r="40"/>
   <circle class="fil2" cx="1876" cy="1108" r="40"/>
   <circle class="fil2" cx="1964" cy="1059" r="40"/>
   <circle class="fil2" cx="2024" cy="990" r="40"/>
   <circle class="fil99" cx="1849" cy="819" r="40"/>
   <circle class="fil99" cx="1742" cy="831" r="40"/>
   <circle class="fil99" cx="1654" cy="871" r="40"/>
  </g>
 </g>
 <g id="Layer_x0020_1_0">
  <metadata id="CorelCorpID_1Corel-Layer"/>
  <path class="fil127" d="M216 1826c7,11 12,21 16,32 3,7 5,19 21,19 5,0 11,-1 17,-5 7,-3 12,-9 14,-17l6 -21 15 -7 1 1c-2,8 -3,16 -3,21 0,18 15,24 27,24 7,0 13,-4 13,-10 0,-8 -4,-23 -8,-35 7,-7 14,-14 22,-20l1 1c4,15 6,30 6,40 0,10 -4,20 -8,27 -7,14 -20,25 -36,25 -12,0 -25,-6 -34,-17l-1 0c-9,11 -22,20 -43,20l-7 0c-1,14 -4,24 -9,33 -13,25 -50,42 -85,42 -49,0 -73,-28 -73,-66 0,-23 8,-45 19,-60l10 4c-7,14 -12,27 -12,40 0,35 29,52 62,52 31,0 68,-19 75,-42 -3,-25 -12,-36 -26,-59 4,-7 10,-15 17,-23l1 0 0 0 0 0 0 0 0 0zm564 -133c10,6 20,14 30,23 -6,8 -12,15 -21,21 -10,-8 -20,-15 -30,-22 7,-8 14,-15 20,-22l0 0 0 0 0 0 0 0zm5 96c-17,0 -30,11 -30,19 0,17 33,23 73,23 -5,-20 -22,-42 -43,-42zm-37 93c22,0 41,-1 55,-4 16,-4 30,-12 30,-18 0,-2 0,-3 -1,-5 -9,1 -19,1 -29,1 -29,0 -52,-7 -61,-23 -2,-5 -4,-10 -4,-16 0,-16 7,-32 19,-42 10,-9 21,-14 33,-14 20,0 37,16 48,42 6,14 11,30 11,51 0,14 -4,25 -12,34 -16,15 -45,21 -90,21l-20 0 0 0 -5 0c-11,0 -19,-2 -25,-7l-1 0c0,3 1,5 1,7 0,10 -3,23 -10,33 -20,30 -42,43 -60,43 -19,0 -42,-7 -63,-17l4 -7c7,3 16,5 29,5 34,0 78,-33 84,-64 -1,-3 -4,-6 -7,-10 -10,-12 -16,-22 -22,-32 5,-10 10,-18 14,-25l2 0c14,29 28,46 57,46l5 0 0 0 21 0 0 0 0 0 0 0 0 0zm-146 31c2,-14 3,-29 3,-43l0 -21c0,-39 -5,-96 -9,-133 7,-8 17,-17 25,-23l2 1c5,47 7,101 7,151 0,13 -1,26 -2,35 -1,12 -8,21 -22,35l-3 -1 0 0 0 0 0 0 0 0zm-151 -62c1,18 10,33 41,33 20,0 36,-5 55,-14 3,-1 5,-3 5,-5 0,-12 -9,-27 -24,-41 -14,-13 -34,-25 -52,-32 -6,-3 -8,-5 -8,-8 0,-5 7,-16 13,-24l2 0c20,11 43,27 60,44 15,16 25,33 25,51 0,13 -4,26 -11,38 -22,11 -46,20 -70,20 -29,0 -48,-14 -48,-45 0,-3 0,-9 1,-16l10 0 0 0 0 0 0 0 0 0zm-52 -52l18 29c7,11 13,22 13,41l0 24c0,19 -12,39 -32,60 -15,14 -29,20 -42,20 -19,0 -40,-6 -65,-17l3 -7c8,2 17,4 28,4 36,0 72,-26 89,-58 2,-4 3,-7 3,-9 0,-4 -2,-8 -4,-11 -9,-17 -19,-33 -30,-47 6,-9 12,-18 18,-27l1 0z"/>
 </g>
</svg>
