<?xml version="1.0" encoding="UTF-8"?>
<!DOCTYPE svg PUBLIC "-//W3C//DTD SVG 1.0//EN" "http://www.w3.org/TR/2001/REC-SVG-20010904/DTD/svg10.dtd">
<!-- Creator: CorelDRAW 2017 -->
<svg xmlns="http://www.w3.org/2000/svg" xml:space="preserve" width="356px" height="200px" version="1.0" shape-rendering="geometricPrecision" text-rendering="geometricPrecision" image-rendering="optimizeQuality" fill-rule="evenodd" clip-rule="evenodd"
viewBox="0 0 35600 20025"
 xmlns:xlink="http://www.w3.org/1999/xlink">
 <g id="Layer_x0020_1">
  <metadata id="CorelCorpID_0Corel-Layer"/>
  <g id="_1878674338864">
   <path fill="#E6E7E8" d="M0 0l35600 0 0 20025 -35600 0 0 -20025z"/>
   <path fill="#E6E7E8" d="M22424 20025l-22424 0 0 -8846 12720 -8819 -37 34 -34 37 -30 40 -27 44 -22 46 -17 48 -13 51 -8 52 -3 54 0 3419 3938 -2730 2299 0 0 343 495 -343 2299 0 0 2299 -619 429 619 0 0 2298 -2114 1466 0 617 1592 -1103 0 1034 -627 435 627 0 0 305 441 -305 1034 0 -1475 1022 0 18 441 0 -643 445 1343 0 54 -2 52 -8 50 -13 49 -18 46 -22 43 -26 -291 202 442 0 46 -3 44 -7 43 -11 41 -15 39 -18 38 -23 -2309 1601 0 202 -434 301 0 398 434 0 0 657 947 -657 650 0 -1597 1108 0 165 2608 -1809 -43 30 -42 33 -40 34 -38 36 -37 38 -36 40 -33 43 -33 44 -30 46 -29 48 -27 50 -26 52 -24 55 -22 56 -21 58 -19 60 659 109 428 -297 38 -22 40 -20 44 -16 48 -13 51 -10 55 -8 58 -4 62 -2 46 1 44 1 42 2 41 3 38 4 37 5 35 5 33 7 31 7 29 8 27 9 26 10 23 10 22 12 20 12 18 13 31 30 28 35 23 39 19 44 14 48 11 53 6 57 2 62 0 89 -2192 1520 12 44 14 40 1073 -744 16 -9 19 -9 20 -9 23 -10 24 -9 28 -10 29 -9 31 -10 33 -9 36 -10 37 -9 40 -10 42 -10 44 -9 46 -10 49 -10 48 -10 47 -9 45 -10 44 -9 42 -9 40 -9 38 -9 37 -8 36 -9 33 -8 32 -8 30 -8 29 -8 27 -7 25 -8 23 -7 0 176 0 39 0 37 -1 36 -1 34 -1 32 -2 31 -2 30 -2 27 -2 26 -3 25 -3 23 -3 21 -4 19 -4 18 -4 17 -5 14 -15 43 -19 41 -22 39 -27 37 -30 36 -34 34 -37 33 -42 31 -1087 753 52 8 62 8 64 5 66 4 68 1 39 -1 39 -1 38 -2 38 -3 38 -4 38 -5 37 -6 37 -6 37 -8 36 -8 36 -9 36 -10 36 -11 35 -11 35 -12 35 -14 34 -14 34 -15 34 -16 5 -2 411 -286 3 7 3 9 3 10 4 12 5 14 4 15 6 18 5 18 13 42 13 39 12 36 12 33 11 31 10 28 10 26 9 23 941 0 -3513 2435z"/>
   <path fill="#373435" fill-opacity="0.031373" d="M2102 17538c67,103 111,202 155,311 31,64 48,183 198,183 44,0 107,-14 163,-45 63,-33 111,-82 135,-159l61 -201 145 -72 10 10c-19,76 -24,148 -24,206 0,169 145,233 262,233 68,0 128,-33 128,-95 0,-81 -34,-216 -78,-338 68,-68 136,-136 214,-191l12 6c34,144 53,286 53,381 0,92 -41,195 -75,263 -70,132 -194,237 -344,237 -114,0 -240,-57 -327,-163l-5 0c-83,101 -209,194 -412,194l-63 0c-10,134 -39,229 -81,313 -122,237 -480,404 -818,404 -470,0 -705,-272 -705,-632 0,-223 72,-431 184,-577l92 37c-70,134 -116,261 -116,385 0,338 274,499 591,499 293,0 657,-188 722,-404 -24,-237 -114,-348 -250,-565 42,-72 95,-144 160,-220l13 0 0 0 0 0 0 0zm5414 -1273c99,62 196,136 290,221 -53,74 -118,142 -201,201 -94,-76 -189,-142 -286,-212 66,-74 131,-146 197,-210l0 0zm51 925c-160,0 -291,105 -291,183 0,167 320,219 702,217 -48,-196 -215,-400 -411,-400l0 0zm-359 894c208,0 390,-6 528,-41 155,-39 286,-118 286,-171 0,-15 0,-31 -5,-46 -87,9 -186,9 -274,9 -281,0 -496,-64 -581,-223 -22,-43 -36,-93 -36,-148 0,-153 65,-303 181,-406 97,-84 204,-138 313,-138 196,0 354,159 463,408 60,136 101,292 101,490 0,132 -36,243 -118,326 -153,148 -434,204 -865,204l-197 0 0 0 -51 0c-106,0 -184,-19 -244,-66l-10 0c2,24 5,49 5,72 0,97 -32,220 -97,319 -192,286 -400,410 -579,410 -182,0 -405,-70 -606,-161l36 -70c65,27 155,45 279,45 325,0 751,-313 804,-617 -12,-25 -33,-58 -65,-93 -94,-113 -155,-208 -211,-307 49,-95 92,-171 134,-239l16 -2c139,282 265,445 546,445l43 0 0 0 204 0 0 0 0 0 0 0zm-1406 299c24,-130 26,-276 26,-412l0 -202c0,-377 -48,-925 -87,-1281 68,-75 163,-161 238,-219l21 6c51,449 64,970 64,1450 0,126 -5,250 -17,340 -8,114 -73,200 -214,332l-31 -14 0 0 0 0 0 0zm-1447 -596c7,177 94,317 397,317 189,0 349,-49 526,-133 31,-15 48,-33 48,-50 0,-111 -84,-257 -228,-391 -138,-126 -322,-237 -494,-311 -58,-25 -77,-52 -77,-76 0,-52 68,-159 123,-235l20 -2c196,103 416,255 579,426 148,157 240,315 240,488 0,128 -39,250 -102,361 -216,109 -446,191 -674,191 -276,0 -465,-129 -465,-434 0,-33 0,-85 12,-151l95 0 0 0 0 0 0 0zm-500 -502l172 278c63,103 121,214 121,391l0 227c0,183 -117,379 -306,572 -147,132 -278,188 -399,188 -180,0 -386,-56 -623,-159l26 -70c76,21 163,37 270,37 341,-2 690,-251 850,-556 19,-35 27,-68 27,-91 0,-35 -20,-74 -34,-109 -87,-165 -184,-316 -291,-453 56,-88 111,-173 172,-257l15 2 0 0 0 0 0 0z"/>
   <path fill="#373435" fill-opacity="0.078431" d="M20838 5736l0 -87 0 0 -5 -46 0 0 -13 -42 -21 -39 -27 -33 -34 -28 -38 -21 -43 -13 -46 -5 -45 5 -43 13 -38 21 -34 28 -27 33 -124 154 -81 -21 -94 -30 -93 -33 -90 -38 -89 -43 -87 -46 -85 -51 -82 -55 -81 -59 -78 -64 -69 -54 -74 -47 -78 -40 -80 -34 -84 -26 -85 -19 -88 -12 -89 -4 -182 0 -48 0 -46 10 -6 3 -28 -51 -59 -71 -71 -59 -42 -23 0 -392 -5 -46 -13 -42 -21 -39 -27 -33 -34 -28 -38 -21 -43 -13 -46 -5 -45 5 -43 13 -38 21 -34 28 -28 33 -577 713 -72 6 -122 22 -130 42 -134 66 -135 97 -53 44 -57 43 -61 44 -66 44 -70 42 -74 42 -80 40 -83 37 -88 35 -92 31 -97 29 -102 23 -3 1 0 -42 -4 -46 -13 -42 -21 -39 -28 -33 -33 -28 -39 -21 -42 -13 -46 -4 -46 4 -42 13 -39 21 -33 28 -28 33 -1764 2181 0 -3877 1066 -1318 -95 0 -110 0 -124 0 -135 0 -145 0 -151 0 -156 0 -158 0 -158 0 -155 0 -151 0 -145 0 -135 0 -124 0 -110 0 -95 0 -220 23 -203 65 -182 101 -158 133 -129 158 0 0 -11649 14397 0 1 0 0 0 359 0 0 0 263 0 2017 11 0 291 0 0 0 213 0 3137 0 33 0 74 0 33 0 377 0 443 0 90 0 58 0 47 0 33 0 325 0 108 0 65 0 11 0 73 0 76 0 1 0 183 0 18 0 21 0 4 0 1 0 6 0 100 0 64 0 426 0 133 0 74 0 34 0 32 0 42 0 24 0 54 0 10 0 6 0 2 0 53 0 54 0 17 0 152 0 465 0 826 0 51 0 211 0 0 0 27 0 41 0 59 0 67 0 40 0 9 0 0 0 36 0 37 0 33 0 13 0 45 0 8 0 41 0 15 0 40 0 31 0 102 0 145 0 165 0 48 0 85 0 17 0 15 0 51 0 7 0 23 0 26 0 47 0 11 0 31 0 1 0 7 0 224 0 3 0 32 0 232 0 11 0 14 0 50 0 55 0 5 0 47 0 42 0 17 0 121 0 21 0 11 0 59 0 88 0 113 0 0 0 13 0 256 0 64 0 103 0 104 0 31 0 97 0 55 0 71 0 54 0 65 0 102 0 248 0 25 0 5 0 78 0 884 0 409 0 64 0 296 0 410 0 64 0 296 0 410 0 63 0 3949 0 564 0 11 0 100 0 161 0 15 0 563 0 111 0 162 0 20 0 563 0 111 0 162 0 2167 -2678 70 -86 54 -99 34 -108 12 -117 0 -1058 -459 567 -5 1 -117 12 -51 0 -68 0 -79 0 -84 0 -83 0 -79 0 -67 0 -52 0 0 -18 974 -1203 71 -86 53 -98 34 -109 12 -117 -458 566 -5 2 -117 11 -41 0 -112 0 -168 0 -218 0 -25 0 -241 0 -309 0 -348 0 -383 0 -413 0 -441 0 -464 0 -483 0 -497 0 -369 0 1371 -1695 21 -38 13 -43 5 -46 -5 -45 -13 -43 -21 -38 -27 -34 -34 -27 -38 -21 -43 -13 -45 -5 -297 0 484 -598 21 -39 13 -42 5 -46 -5 -46 -13 -42 -21 -39 -27 -33 -34 -28 -38 -21 -43 -13 -45 -4 -297 0 484 -598 21 -39 13 -42 5 -46 -5 -46 -13 -42 -21 -39 -27 -33 -34 -28 -38 -21 -43 -13 -45 -5 -1240 0 2491 -3078 37 -57 31 -63 23 -66 15 -71 4 -32 3 -31 3 -28 2 -25 1 -21 1 -16 1 -10 0 -3 -1 -14 -4 -14 -6 -12 -8 -10 -10 -9 -12 -6 -13 -5 -14 -1 -2 0 1 -10 -4 -45 -13 -43 -603 -1438 190 -235 26 -34 19 -40 11 -43 3 -45 -7 -46 -15 -42 -22 -37 -29 -32 -35 -26 -39 -20 -43 -11 -46 -3 -76 2zm-9189 -2748l0 0 0 0"/>
   <g>
    <path fill="#A54E42" d="M12541 2508c-605,0 -1074,505 -1066,1055l-1 0 0 12896c9,-582 483,-1052 1067,-1052l0 0c429,0 11473,0 11005,0 320,0 580,-259 580,-579 0,-142 0,-11922 0,-11789 0,-293 -238,-531 -531,-531l-5331 0 -5723 0z"/>
    <path fill="#97453D" d="M13622 3563l0 0c-8,-548 459,-1055 1066,-1055 -458,0 -1689,0 -2147,0 -605,0 -1074,506 -1066,1055l-1 0 0 12896c9,-582 483,-1052 1067,-1052l0 0 1081 0 0 -11844z"/>
    <path fill="#8A403A" d="M12614 2508l-39 0 -34 0c-604,0 -1074,505 -1066,1055l-1 0 0 12896c9,-582 483,-1052 1067,-1052l0 0 73 0 0 -12899z"/>
    <path fill="#D4D3D3" d="M19147 5581c-208,-176 -438,-116 -560,-128 -127,0 -232,-105 -226,-237 5,-128 118,-230 250,-216l182 0c238,0 468,84 647,236 410,349 924,523 1474,498 125,-5 231,92 236,217 6,125 -91,230 -216,236 -693,30 -1321,-210 -1787,-606z"/>
    <path fill="#D4D3D3" d="M15353 6190c-125,0 -226,-102 -226,-227 0,-125 101,-226 226,-226 649,0 1105,-272 1373,-501 358,-304 746,-222 853,-236 125,0 226,102 226,227 0,125 -101,226 -226,226 -126,13 -351,-48 -560,129 -267,227 -838,608 -1666,608z"/>
    <path fill="#FCC397" d="M19928 8100c-161,0 -272,-165 -209,-315l666 -1589 0 -547c0,-125 101,-227 226,-227 125,0 227,102 227,227 -6,599 13,607 -18,681l-683 1631c-36,86 -121,139 -209,139z"/>
    <path fill="#FCC397" d="M21086 7961l-683 -1631c-31,-74 -13,-80 -18,-681 0,-125 101,-227 226,-227 125,0 227,102 227,227l0 547 666 1590c48,115 -6,248 -122,296 -114,48 -247,-5 -296,-121z"/>
    <path fill="#FCC397" d="M14803 8082c-115,-48 -170,-181 -121,-296l665 -1589 0 -548c0,-125 102,-226 227,-226 125,0 226,101 226,226 -5,600 13,607 -17,681l-684 1631c-48,115 -181,169 -296,121z"/>
    <path fill="#FCC397" d="M16048 7961c-705,-1699 -701,-1636 -701,-1719l0 -593c0,-125 102,-226 227,-226 125,0 226,101 226,226l0 548 666 1589c49,115 -6,248 -121,296 -115,48 -248,-5 -297,-121z"/>
    <path fill="#FAA83C" d="M21261 8546c164,-77 286,-231 314,-425 12,-86 15,-168 15,-166 1,-39 -30,-71 -68,-71l-1821 0c-38,0 -70,32 -68,71 11,263 78,471 331,593 170,81 187,163 318,163l659 0c84,0 146,-50 146,-50 52,-46 113,-86 174,-115z"/>
    <path fill="#FAA83C" d="M16224 8546c206,-97 300,-273 322,-495 4,-49 6,-101 6,-96 2,-39 -29,-71 -68,-71l-1820 0c-69,0 -70,75 -68,71 2,59 8,120 18,184 29,171 137,324 313,409 169,80 186,163 317,163l660 0c131,0 152,-86 320,-165z"/>
    <path fill="#F89A39" d="M15816 8546c-246,-116 -314,-324 -328,-591 -2,-39 29,-71 68,-71l-892 0c-69,0 -70,75 -68,71 2,64 9,125 18,184 29,171 137,325 313,409 169,81 186,163 317,163 625,-14 670,27 776,-32 -46,-25 -87,-78 -204,-133z"/>
    <path fill="#848688" d="M12541 15407c-584,0 -1058,470 -1067,1052 9,582 483,1052 1067,1052l0 6c568,0 9900,0 10441,0l0 -2110c-599,0 -9805,0 -10441,0z"/>
    <path fill="#727376" d="M13287 16459c8,-582 482,-1052 1066,-1052 -224,0 -1605,0 -1812,0 -584,0 -1058,470 -1067,1052 9,582 483,1052 1067,1052l0 6 1812 0 0 -6c-584,0 -1058,-470 -1066,-1052z"/>
    <path fill="#8A403A" d="M23546 15407c-111,0 -453,0 -564,0l0 2110c111,0 451,0 563,0 321,0 581,-260 581,-580l0 -2109c0,320 -260,579 -580,579z"/>
    <path fill="#97453D" d="M23545 16459c-112,0 -452,0 -563,0l0 1058c111,0 451,0 563,0 321,0 581,-260 581,-580l0 -1058c0,320 -260,580 -581,580z"/>
    <path fill="#BF5F52" d="M20218 11909l-4267 0c-125,0 -226,-101 -226,-226 0,-125 101,-227 226,-227l4267 0c125,0 226,102 226,227 0,125 -101,226 -226,226z"/>
    <path fill="#BF5F52" d="M20218 12861l-4267 0c-125,0 -226,-102 -226,-227 0,-125 101,-226 226,-226l4267 0c125,0 226,101 226,226 0,125 -101,227 -226,227z"/>
    <path fill="#BF5F52" d="M20218 13812l-4267 0c-125,0 -226,-101 -226,-227 0,-125 101,-226 226,-226l4267 0c125,0 226,101 226,226 0,126 -101,227 -226,227z"/>
    <path fill="#EF4D59" d="M13622 15407l0 1166c0,72 79,115 139,77l554 -352c51,-32 115,-32 166,0l546 347c64,41 148,-5 148,-81l0 -1157 -1553 0 0 0z"/>
    <path fill="#EF4952" d="M14398 15407l-776 0 0 1166c0,72 79,115 139,77 568,-351 558,-376 637,-376l0 -867 0 0z"/>
    <path fill="#D4D3D3" d="M18084 8706c-125,0 -226,-102 -226,-227l0 -4062c0,-125 101,-227 226,-227 125,0 227,102 227,227l0 4062c0,125 -101,227 -227,227z"/>
    <path fill="#6B6C6E" d="M18084 4750c266,0 481,215 481,481 0,266 -215,481 -481,481 -265,0 -481,-215 -481,-481 0,-266 216,-481 481,-481z"/>
    <path fill="#5B5C60" d="M18085 4750c-367,0 -603,399 -417,721 133,230 427,309 657,177 76,-44 135,-106 176,-177 -370,0 -601,-399 -416,-721z"/>
    <path fill="#FAA83C" d="M18265 8479l-362 0c-246,0 -446,200 -446,447l0 509 1255 0 0 -509c0,-247 -200,-447 -447,-447z"/>
    <path fill="#F89A39" d="M18398 8499c-106,-33 -162,-15 -495,-20 -246,0 -446,200 -446,447l0 509 627 0 0 -509c0,-201 132,-370 314,-427z"/>
    <path fill="#6B6C6E" d="M19175 9819l0 0c0,-246 -200,-446 -447,-446l-1268 0c-247,0 -447,200 -447,446l0 0c0,247 200,447 447,447l1268 0c247,0 447,-200 447,-447z"/>
    <path fill="#5B5C60" d="M18049 9819c0,-246 200,-446 447,-446l-1036 0c-247,0 -447,200 -447,446 0,247 200,447 447,447l1036 0c-247,0 -447,-200 -447,-447z"/>
    <path fill="#F89A39" d="M20856 8548c-246,-118 -316,-318 -331,-593 -2,-39 30,-71 68,-71l-892 0c-38,0 -70,32 -68,71 13,249 66,465 331,593 170,81 187,163 318,163 625,-14 669,27 775,-32 -47,-26 -81,-74 -201,-131z"/>
   </g>
  </g>
 </g>
</svg>
