<?xml version="1.0" encoding="UTF-8"?>
<!DOCTYPE svg PUBLIC "-//W3C//DTD SVG 1.1//EN" "http://www.w3.org/Graphics/SVG/1.1/DTD/svg11.dtd">
<!-- Creator: CorelDRAW 2017 -->
<svg xmlns="http://www.w3.org/2000/svg" xml:space="preserve" width="3.70333in" height="2.08333in" version="1.1" style="shape-rendering:geometricPrecision; text-rendering:geometricPrecision; image-rendering:optimizeQuality; fill-rule:evenodd; clip-rule:evenodd"
viewBox="0 0 3703 2083"
 xmlns:xlink="http://www.w3.org/1999/xlink">
 <defs>
  <style type="text/css">
   <![CDATA[
    .fil4 {fill:#FEFEFE}
    .fil6 {fill:#5B5B5B}
    .fil0 {fill:#E6E7E8}
    .fil5 {fill:#FEFEFE}
    .fil34 {fill:#FEFEFE;fill-rule:nonzero}
    .fil36 {fill:#FCFDFE;fill-rule:nonzero}
    .fil35 {fill:#FCFDFC;fill-rule:nonzero}
    .fil37 {fill:#FAFDFC;fill-rule:nonzero}
    .fil38 {fill:#FAFCFB;fill-rule:nonzero}
    .fil42 {fill:#F3F6F0;fill-rule:nonzero}
    .fil121 {fill:#F7E706;fill-rule:nonzero}
    .fil41 {fill:#F0F5F0;fill-rule:nonzero}
    .fil45 {fill:#EEF0EC;fill-rule:nonzero}
    .fil64 {fill:#F0E40E;fill-rule:nonzero}
    .fil81 {fill:#EDE30C;fill-rule:nonzero}
    .fil47 {fill:#E4EEE4;fill-rule:nonzero}
    .fil58 {fill:#E5EEE2;fill-rule:nonzero}
    .fil49 {fill:#E3E6E1;fill-rule:nonzero}
    .fil33 {fill:#E9E225;fill-rule:nonzero}
    .fil31 {fill:#E5E02B;fill-rule:nonzero}
    .fil46 {fill:#DEE7DB;fill-rule:nonzero}
    .fil114 {fill:#E2DE07;fill-rule:nonzero}
    .fil32 {fill:#DFD201;fill-rule:nonzero}
    .fil55 {fill:#DCD606;fill-rule:nonzero}
    .fil25 {fill:#D8D337;fill-rule:nonzero}
    .fil27 {fill:#D4D63B;fill-rule:nonzero}
    .fil28 {fill:#893C2C;fill-rule:nonzero}
    .fil18 {fill:#7B2D29;fill-rule:nonzero}
    .fil40 {fill:#7A2B26;fill-rule:nonzero}
    .fil13 {fill:#7D3532;fill-rule:nonzero}
    .fil39 {fill:#793130;fill-rule:nonzero}
    .fil19 {fill:#743330;fill-rule:nonzero}
    .fil20 {fill:#6B2B27;fill-rule:nonzero}
    .fil95 {fill:#A4D8E5;fill-rule:nonzero}
    .fil94 {fill:#9ED6E4;fill-rule:nonzero}
    .fil73 {fill:#A2B141;fill-rule:nonzero}
    .fil84 {fill:#9BA065;fill-rule:nonzero}
    .fil117 {fill:#908B83;fill-rule:nonzero}
    .fil93 {fill:#84CDDF;fill-rule:nonzero}
    .fil23 {fill:#8E8F8F;fill-rule:nonzero}
    .fil9 {fill:#8D888A;fill-rule:nonzero}
    .fil104 {fill:#8D8889;fill-rule:nonzero}
    .fil70 {fill:#8C8688;fill-rule:nonzero}
    .fil17 {fill:#8B8F92;fill-rule:nonzero}
    .fil66 {fill:#898688;fill-rule:nonzero}
    .fil99 {fill:#898487;fill-rule:nonzero}
    .fil96 {fill:#7ECBDC;fill-rule:nonzero}
    .fil54 {fill:#7ECBD9;fill-rule:nonzero}
    .fil57 {fill:#889A78;fill-rule:nonzero}
    .fil69 {fill:#878688;fill-rule:nonzero}
    .fil80 {fill:#878588;fill-rule:nonzero}
    .fil56 {fill:#869B81;fill-rule:nonzero}
    .fil30 {fill:#84917E;fill-rule:nonzero}
    .fil122 {fill:#848C87;fill-rule:nonzero}
    .fil50 {fill:#775E65;fill-rule:nonzero}
    .fil26 {fill:#81897C;fill-rule:nonzero}
    .fil63 {fill:#838489;fill-rule:nonzero}
    .fil29 {fill:#7F907C;fill-rule:nonzero}
    .fil24 {fill:#81888C;fill-rule:nonzero}
    .fil71 {fill:#80858A;fill-rule:nonzero}
    .fil43 {fill:#73C5C5;fill-rule:nonzero}
    .fil130 {fill:#7F868C;fill-rule:nonzero}
    .fil106 {fill:#7E838B;fill-rule:nonzero}
    .fil131 {fill:#7D858C;fill-rule:nonzero}
    .fil65 {fill:#7C848A;fill-rule:nonzero}
    .fil11 {fill:#7C8389;fill-rule:nonzero}
    .fil67 {fill:#7A828B;fill-rule:nonzero}
    .fil116 {fill:#75838F;fill-rule:nonzero}
    .fil62 {fill:#6E8389;fill-rule:nonzero}
    .fil15 {fill:#708290;fill-rule:nonzero}
    .fil72 {fill:#6F808D;fill-rule:nonzero}
    .fil105 {fill:#6D828D;fill-rule:nonzero}
    .fil22 {fill:#6C8189;fill-rule:nonzero}
    .fil16 {fill:#6E818F;fill-rule:nonzero}
    .fil120 {fill:#637F90;fill-rule:nonzero}
    .fil100 {fill:#607E91;fill-rule:nonzero}
    .fil113 {fill:#5D7C92;fill-rule:nonzero}
    .fil48 {fill:#3FB494;fill-rule:nonzero}
    .fil119 {fill:#5A7E91;fill-rule:nonzero}
    .fil12 {fill:#5B798B;fill-rule:nonzero}
    .fil51 {fill:#537D4E;fill-rule:nonzero}
    .fil126 {fill:#587B92;fill-rule:nonzero}
    .fil14 {fill:#587486;fill-rule:nonzero}
    .fil97 {fill:#557D96;fill-rule:nonzero}
    .fil115 {fill:#557D94;fill-rule:nonzero}
    .fil107 {fill:#567A93;fill-rule:nonzero}
    .fil90 {fill:#55798F;fill-rule:nonzero}
    .fil110 {fill:#567A93;fill-rule:nonzero}
    .fil79 {fill:#567890;fill-rule:nonzero}
    .fil83 {fill:#56768C;fill-rule:nonzero}
    .fil102 {fill:#517C96;fill-rule:nonzero}
    .fil118 {fill:#527B95;fill-rule:nonzero}
    .fil21 {fill:#527A92;fill-rule:nonzero}
    .fil78 {fill:#527990;fill-rule:nonzero}
    .fil125 {fill:#527992;fill-rule:nonzero}
    .fil74 {fill:#53768B;fill-rule:nonzero}
    .fil85 {fill:#4F7A96;fill-rule:nonzero}
    .fil101 {fill:#507A95;fill-rule:nonzero}
    .fil60 {fill:#507892;fill-rule:nonzero}
    .fil91 {fill:#50778F;fill-rule:nonzero}
    .fil103 {fill:#4C7A96;fill-rule:nonzero}
    .fil98 {fill:#4C7A95;fill-rule:nonzero}
    .fil124 {fill:#4C7996;fill-rule:nonzero}
    .fil109 {fill:#4D7995;fill-rule:nonzero}
    .fil108 {fill:#4D7894;fill-rule:nonzero}
    .fil89 {fill:#4D7892;fill-rule:nonzero}
    .fil77 {fill:#4C778F;fill-rule:nonzero}
    .fil61 {fill:#4D7692;fill-rule:nonzero}
    .fil75 {fill:#4D758C;fill-rule:nonzero}
    .fil53 {fill:#45953D;fill-rule:nonzero}
    .fil111 {fill:#497997;fill-rule:nonzero}
    .fil76 {fill:#4B738C;fill-rule:nonzero}
    .fil123 {fill:#467899;fill-rule:nonzero}
    .fil112 {fill:#467895;fill-rule:nonzero}
    .fil128 {fill:#477695;fill-rule:nonzero}
    .fil127 {fill:#477694;fill-rule:nonzero}
    .fil86 {fill:#477592;fill-rule:nonzero}
    .fil52 {fill:#3E903D;fill-rule:nonzero}
    .fil129 {fill:#447899;fill-rule:nonzero}
    .fil68 {fill:#45728D;fill-rule:nonzero}
    .fil82 {fill:#46728D;fill-rule:nonzero}
    .fil87 {fill:#427392;fill-rule:nonzero}
    .fil44 {fill:#338C3E;fill-rule:nonzero}
    .fil92 {fill:#25823D;fill-rule:nonzero}
    .fil7 {fill:#1B6E39;fill-rule:nonzero}
    .fil59 {fill:#126AA6;fill-rule:nonzero}
    .fil10 {fill:#1C6496;fill-rule:nonzero}
    .fil88 {fill:#1D6196;fill-rule:nonzero}
    .fil8 {fill:#185B8A;fill-rule:nonzero}
    .fil3 {fill:#373435;fill-rule:nonzero}
    .fil2 {fill:#373435;fill-opacity:0.031373}
    .fil1 {fill:#2B2A29;fill-opacity:0.078431}
   ]]>
  </style>
 </defs>
 <g id="Layer_x0020_1">
  <metadata id="CorelCorpID_0Corel-Layer"/>
  <polygon class="fil0" points="0,0 3704,0 3704,2083 0,2083 "/>
  <path class="fil1" d="M1921 950l0 0 0 1 0 1 -1 1 -1 1 -1 1 -1 1 -1 0 -1 1m-697 -312l362 -205 0 0m-413 1645l-6 0 -1 0 0 0 -14 0 -3 0 -2 0 -7 0 -6 0 -5 0 -15 0 -3 0 -7 0 -3 0 -2 0 -1 0 -2 0 -4 0 0 0 -1 0 -1 0 -3 0 -3 0 -4 0 -2 0 -4 0 -19 0 -1 0 -5 0 -1 0 -13 0 0 0 -1 0 -9 0 -4 0 -1 0 -4 0 -12 0 -17 0 0 0 0 0 -11 0 -1 0 -10 0 -6 0 -9 0 -8 0 -1 0 -26 0 -10 0 -7 0 0 0 -9 0 -29 0 -2 0 -1 0 -11 0 -22 0 -2 0 -12 0 -31 0 -1 0 -8 0 -22 0 -25 0 -1 0 -5 0 -8 0 -6 0 -32 0 -25 0 -4 0 -3 0 -3 0 -3 0 -11 0 0 0 -4 0 -21 0 -1 0 -3 0 -19 0 -8 0 -4 0 0 0 -16 0 0 0 -7 0 -8 0 -2 0 -2 0 -5 0 -7 0 0 0 -1 0 -4 0 -14 0 -8 0 -1 0 -2 0 -1 0 -1 0 0 0 -7 0 -4 0 -3 0 -12 0 0 0 -2 0 -4 0 -3 0 -5 0 0 0 -2 0 -9 0 -4 0 -3 0 -12 0 -4 0 -5 0 -1 0 0 0 -8 0 -5 0 -8 0 -1 0 -8 0 -3 0 -13 0 0 0 -1 0 -3 0 0 0 -1 0 0 0 -1 0 -1 0 0 0 -1 0 -2 0 0 0 0 0 -1 0 -1 0 0 0 0 0 0 0 0 0 0 0 -1 0 0 0 0 0 0 0 0 0 0 0 0 0 0 0 0 0 0 0 0 0 -1 0 0 0 -1 0 0 0 0 0 0 0 0 0 -1 0 -7 0 -1 0 -3 0 0 0 -1 0 -4 0 -1 0 -4 0 0 0 -4 0 0 0 0 0 0 0 -2 0 0 0 -1 0 -4 0 0 0 -1 0 -1 0 -4 0 -1 0 -4 0 -5 0 -5 0 0 0 0 0 0 0 0 0 0 0 -2 0 0 0 -2 0 0 0 -1 0 0 0 0 0 -1 0 -4 0 -1 0 0 0 -2 0 0 0 0 0 -1 0 -1 0 0 0 0 0 0 0 0 0 -1 0 0 0 -1 0 0 0 -3 0 -2 0 -3 0 -6 0 -1 0 0 0 -5 0 -1 0 -1 0 -2 0 -8 0 -1 0 -1 0 -4 0 0 0 -1 0 -3 0 -1 0 -2 0 -1 0 -2 0 -1 0 -1 0 -2 0 0 0 -1 0 -2 0 -1 0 -3 0 0 0 0 0 -1 0 -1 0 -2 0 0 0 -1 0 -4 0 -7 0 -8 0 0 0 0 0 0 0 0 0 -3 0 0 0 -4 0 -1 0 -6 0 0 0 -4 0 0 0 -6 0 -1 0 0 0 -4 0 -1 0 -10 0 -1 0 -3 0 0 0 -1 0 0 0 -5 0 -1 0 -1 0 -1 0 -4 0 0 0 -6 0 -3 0 -2 0 -2 0 -2 0 -9 0 -3 0 -4 0 -9 0 -1 0 -2 0 -2 0 -5 0 -3 0 -5 0 -1 0 -3 0 -3 0 -1 0 -10 0 0 0 -1 0 -10 0 -9 0 -1 0 -7 0 -3 0 0 0 -1 0 -2 0 -1 0 -1 0 -4 0 -1 0 -1 0 0 0 0 -1 0 -3 0 -1 0 -4 0 0 0 0 0 -2 0 -1 0 -1 0 -1 0 -2 0 0 0 -1 0 -1 0 -1 0 -2 0 -5 0 -1 0 -2 0 -1 0 0 0 0 0 -1 0 -2 0 -3 0 -1 0 -2 0 -4 0 -9 0 -3 0 -1 0 -3 0 0 0 -1 0 0 0 0 0 -4 0 -1 0 -3 0 0 0 -3 0 -1 0 -2 0 -12 0 -1 0 -1 0 -1 0 -1 0 0 0 -1 0 0 0 -6 0 -2 0 -1 0 -1 0 -1 0 -1 0 -1 0 0 0 -2 0 -8 0 -1 0 -4 0 0 0 -2 0 -1 0 -1 0 -2 0 0 0 -2 0 -2 0 0 0 -1 0 -2 0 -1 0 0 0 0 0 -2 0 0 0 0 0 0 0 0 0 0 0 0 0 -1 0 -1 0 0 0 0 0 0 0 0 0 0 0 0 0 0 0 -1 0 0 0 0 0 0 0 0 0 0 0 -1 0 0 0 0 0 0 0 0 0 -1 0 0 0 -1 0 -1 0 0 0 0 0 0 0 0 0 0 0 -1 0 0 0 0 0 0 0 0 0 0 0 0 0 0 0 -1 0 0 0 0 0 -1 0 0 0 0 0 0 0 -2 0 0 0 0 0 -1 0 0 0 -1 0 -1 0 0 0 0 0 0 0 0 0 0 0 0 0 0 0 0 0 -1 0 0 0 0 0 0 0 -1 0 -1 0 -1 0 -1 0 0 0 -1 0 -1 0 0 0 0 0 -1 0 0 0 0 0 0 0 0 0 0 0 -1 0 0 0 -2 0 -3 0 0 0 0 0 0 0 0 0 0 0 0 0 -1 0 0 0 -2 0 -1 0 -1 0 0 0 0 0 -1 0 -1 0 0 0 -1 0 0 0 0 0 -2 0 -1 0 0 0 0 0 0 0 0 0 -1 0 -4 0 -1 0 0 0 -2 0 -3 0 -11 0 -1 0 0 0 -1 0 0 0 -1 0 0 0 -1 0 -4 0 0 0 0 0 -1 0 -2 0 -1 0 0 0 0 0 0 0 0 0 -1 0 0 0 -4 0 0 0 0 0 -1 0 -1 0 -2 0 -1 0 -1 0 -1 0 -3 0 -1 0 -1 0 0 0 -8 0 -1 0 -1 0 -2 0 -2 0 -1 0 -7 0 -8 0 -5 0 -1 0 0 0 0 0 0 0 -1 0 0 0 -2 0 0 0 -2 0 -1 0 0 0 0 0 -1 0 -1 0 0 0 -1 0 -2 0 -1 0 -1 0 -2 0 -7 0 -7 0 -7 0 -8 0 0 0 -3 0 -1 0 -1 0 -2 0 0 0 -6 0 -4 0 -2 0 0 0 -1 0 -3 0 -2 0 -4 0 0 0 -2 0 -9 0 -1 0 -4 0 -2 0 -4 0 0 0 -2 0 -8 0 -5 0 0 0 -1 0 -1 0 -6 0 -2 0 -1 0 -1 0 -4 0 -1 0 -4 0 -2 0 0 0 -3 0 -2 0 -1 0 -1 0 -5 0 -1 0 0 0 -1 0 -4 0 -1 0 0 0 0 0 -3 0 -1 0 -2 0 0 0 -5 0 -4 0 -11 0 0 0 -4 0 0 0 -15 0 -5 0 0 0 0 0 -2 0 0 0 -2 0 -1 0 -2 0 0 0 -1 0 -1 0 -7 0 -3 0 -3 0 -1 0 -10 0 -5 0 -6 0 -2 0 0 0 -2 0 0 0 0 0 -7 0 0 0 -5 0 -2 0 -2 0 -1 0 -1 0 -5 0 -5 0 -2 0 -5 0 -3 0 -4 0 -7 0 -2 0 -4 0 -5 0 0 0 -1 0 -18 0 -8 0 -7 0 0 0 -1 0 -4 0 -2 0 0 0 -12 0 -3 0 0 0 0 0 -2 0 -1 0 -1 0 -3 0 -14 0 -2 0 0 0 -1 0 -9 0 -12 0 -1 0 -1 0 -5 0 -1 0 -1 0 -1 0 0 0 0 0 -1 0 0 0 -3 0 0 0 -1 0 0 0 0 0 -1 0 0 0 -1 0 0 0 -6 0 0 0 -5 0 -6 0 -2 0 0 0 0 0 -2 0 -3 0 -1 0 0 0 -1 0 -1 0 0 0 0 0 -1 0 -2 0 0 0 -1 0 0 0 -2 0 0 0 0 0 -1 0 0 0 -8 0 -1 0 -2 0 -4 0 0 0 -1 0 0 0 -1 0 -89 1460 -836 -25 15 -25 16 -24 17 -23 18 -22 19 -21 20 -20 21 -19 22 -18 23 -17 24 -16 25 -9 16 353 -200 1 0 1 0 1 0 1 0 1 0 1 0 1 0 1 0 -362 205 0 1 -3 5 0 1 338 -191 2 -1 3 -1 4 -1 -348 197 -1 1 -6 13 342 -193 0 1 1 1 1 1 1 1 1 1 1 1 0 1 0 0 2 0 3 0 3 1 3 1 3 1 3 1 3 1 3 1 2 1 2 1 2 1 2 1 2 1 2 1 2 1 0 0 2 1 0 0 4 -2 1 0 1 0 1 0 1 0 -1 1 1 0 0 0 1 0 1 1 0 1 0 1 0 1 0 1 0 1 0 0 0 0 0 0 0 0 0 0 0 0 -2 1 0 0 0 0 0 0 0 0 0 0 0 0 0 0 0 0 -4 3 0 1 0 1 0 1 0 1 0 1 0 1 0 1 0 1 16 -9 2 1 2 1 2 1 2 0 2 0 2 0 2 0 2 0 -35 20 0 1 0 3 0 3 0 3 0 0 0 0 0 0 0 0 0 0 0 0 0 0 0 0 0 3 0 3 0 3 0 3 0 3 0 1 71 -39 -1 3 -2 2 -68 38 0 1 73 -41 0 2 1 -1 1 3 0 3 0 3 0 3 0 3 0 3 0 3 1 2 -2 1 0 1 0 3 0 3 0 3 0 3 0 3 0 3 0 3 0 2 0 2 0 2 0 2 0 2 0 2 1 2 1 2 -71 39 0 1 72 -40 1 1 1 1 1 1 0 1 0 1 0 1 0 1 0 1 -74 41 0 3 0 4 0 4 0 4 0 4 0 4 -1 1 0 2 0 2 0 2 1 2 1 2 0 2 0 2 -1 2 -1 2 1 2 1 2 0 0 1 -1 0 0 4 -2 1 0 1 0 1 0 1 0 1 0 1 1 1 1 0 1 2 0 2 0 2 1 2 1 2 1 2 0 2 0 2 0 -25 13 0 2 0 3 0 3 0 3 0 3 1 3 0 3 48 -26 2 0 2 1 2 1 2 1 2 1 2 1 2 1 2 1 1 0 0 0 0 0 0 0 0 0 0 0 0 0 1 0 1 0 1 0 1 0 1 0 0 4 0 4 0 0 14 -8 4 0 4 0 4 0 4 0 4 0 4 0 4 0 4 0 -44 24 0 0 0 4 0 4 0 4 0 4 0 4 0 4 0 1 85 -46 1 2 0 0 6 -3 1 0 1 0 2 0 1 0 1 0 1 0 1 0 1 0 1 0 -16 9 0 1 0 2 0 2 0 2 0 2 -86 47 0 0 0 1 0 1 0 1 0 1 0 1 0 1 0 1 0 1 -1 1 -1 1 0 1 0 1 0 2 0 1 0 1 0 1 0 3 0 4 0 4 0 4 0 4 0 4 0 4 0 4 0 4 0 0 0 0 0 0 0 0 0 0 0 0 0 0 0 0 -2 1 0 0 -28 15 3 1 3 1 1 0 1 0 1 0 1 0 1 0 1 0 1 0 1 0 1 1 1 1 1 1 2 1 2 1 2 1 2 0 2 0 -2 1 2 0 2 0 0 0 0 0 -59 31 0 1 0 3 0 3 0 3 0 0 0 0 0 0 0 0 0 0 0 0 0 0 0 0 0 0 0 1 0 1 0 1 0 1 0 1 0 5 0 2 60 -32 0 2 1 0 0 1 37 -20 4 1 4 1 4 0 4 0 4 0 5 0 5 0 4 0 -72 38 0 3 0 5 0 5 0 3 84 -44 0 6 4 -2 0 6 41 -22 1 0 7 -4 0 2 -1 2 -1 1 -1 1 -46 24 0 3 0 7 0 7 0 7 0 7 0 7 0 7 0 7 0 7 0 7 0 7 0 7 0 7 0 7 0 7 0 2 0 2 0 2 1 2 1 1 1 1 1 1 0 0 1 0 1 0 4 0 4 0 4 0 4 -1 4 -1 2 0 49 -25 -1 1 3 -1 -1 1 -1 1 0 1 0 1 0 1 64 -33 0 3 0 3 0 3 0 3 -1 3 -1 3 -1 3 -1 2 0 0 0 0 0 0 0 0 1 0 1 0 1 1 0 1 0 1 0 1 0 1 0 1 0 0 0 0 -1 1 -2 1 -8 4 -1 1 -1 2 0 0 0 1 0 1 0 1 0 1 0 1 0 1 0 1 0 1 0 3 0 3 0 3 0 3 0 3 0 3 0 3 0 3 0 3 0 3 0 3 0 3 0 3 0 3 0 3 0 3 0 4 0 4 0 4 0 4 0 4 0 4 0 4 0 4 0 4 0 4 0 4 0 4 0 4 0 4 0 3 224 -115 -13 7 -13 7 -12 8 -12 9 -12 9 -11 10 -11 10 -10 11 -10 11 -9 12 -9 12 -8 12 -7 13 -7 13 -6 14 -6 14 -5 14 0 1 290 -147 0 3 12 -6 4 11 4 11 4 11 4 10 4 10 4 10 4 9 4 9 4 9 4 8 4 8 4 8 4 8 4 7 4 7 4 7 4 7 4 7 4 6 4 6 4 6 4 6 4 6 4 6 4 6 4 6 3 5 3 5 3 5 3 5 3 5 2 5 -68 33 11 0 14 0 12 -1 11 0 10 0 10 0 9 0 8 1 7 2 6 3 5 4 4 5 3 6 2 7 2 9 1 10 -119 57 0 47 114 -54 -2 8 -2 8 -3 7 -3 7 -4 7 -4 6 -4 6 -5 6 -5 5 -5 5 -5 5 -5 4 -6 4 -6 4 -6 4 -6 3 -6 3 -6 3 -169 80 14 3 15 3 15 2 16 1 16 0 16 0 16 -1 15 -2 15 -3 15 -3 15 -4 14 -5 14 -6 14 -6 -302 141 7 0 0 6 42 -19 8 26 56 -26 -8 32 16 -8 0 1 55 -26 -10 33 60 -28 -2 1 -2 1 -2 1 -2 1 -2 2 -1 2 -1 2 -1 2 -1 2 -1 2 -1 2 -1 3 -1 3 0 2 27 -13 2 -1 2 -1 2 -1 2 -1 3 0 3 0 3 0 3 0 3 0 3 0 3 1 2 1 2 1 2 1 2 2 1 1 1 1 48 -22 0 14 31 -14 -1 1 -1 1 -1 1 -1 1 -1 1 -1 2 -1 2 -1 2 -2 2 -2 3 -16 8 0 9 31 -14 1 0 1 0 1 0 2 0 2 0 2 0 2 0 2 0 2 0 2 0 2 1 2 1 1 0 42 -19 -4 2 -4 3 -4 3 -4 3 -3 4 -3 4 -2 5 -2 5 0 1 35 -16 3 -1 3 -1 3 0 3 0 3 0 3 0 3 1 3 1 3 1 3 2 2 2 2 2 1 2 1 2 1 2 1 2 1 3 1 3 1 3 0 3 -33 15 52 0 -82 37 2 2 2 2 59 -27 0 1 -1 3 -1 3 -1 2 -1 2 -2 2 -2 2 -2 2 -2 1 -2 1 -2 1 -2 1 -29 13 2 1 5 1 5 1 6 0 4 0 4 0 4 -1 4 -1 4 -1 4 -1 -753 338 -13 0 -23 0 -2 0 -24 0 -2 0 -11 0 -5 0 -28 0 -16 0 -1 0 0 0 -16 0 -8 0 -10 0 -12 0 -5 0 -2 0 -1 0 -8 0 0 0 -3 0 -4 0 -4 0 -16 0 0 0 0 0 -6 0 -8 0 -14 0 -7 0 -6 0 -2 0 -6 0 -11 0 -1 0 -3 0 0 0 -3 0 -11 0 -4 0 0 0 -3 0 0 0 -7 0 -9 0 -1 0 -1 0 -5 0 -12 0 -1 0 -5 0 0 0 -6 0 -6 0 -3 0 -3 0 -11 0 -8 0 -7 0 -6 0 -1 0 -1 0 -1 0 -7 0 -21 0 -1 0 -5 0 -5 0 -14 0 0 0 -16 0 -17 0 -7 0 -1 0 -5 0 -41 0 -11 0 -2 0 -24 0 -6 0 -6 0 -17 0 -6 0 -6 0 -7 0 -6 0zm45 -1429l344 -194 -1 1 -1 2 -1 3 -1 4 36 -20 3 -1 2 -1 2 -1 -42 24 0 0 0 0 0 0 0 0 0 0 1 0 2 -1 2 -1 2 -1 45 -26 -4 3 -40 23 1 0 2 0 2 0 2 -1 1 0 1 0 1 0 1 -1 1 -1 0 0 3 -2 4 -1 2 0 2 -1 3 -2 4 -1 4 -1 4 -1 2 0 1 0 3 -1 -2 1 0 0 4 0 4 -2 -3 2 0 0 -42 23 1 1 5 2 5 2 4 1 88 -50 0 0 0 0 0 0 4 0 4 0 4 -1 4 -1 4 -1 4 -1 3 -2 -103 58 0 0 -7 4m304 479l12 -6m-284 -292l0 0 0 0z"/>
  <path class="fil2" d="M219 1825c7,11 12,21 16,32 3,7 5,19 21,19 5,0 11,-1 17,-5 7,-3 12,-9 14,-17l6 -21 15 -7 1 1c-2,8 -2,15 -2,21 0,18 15,24 27,24 7,0 13,-3 13,-10 0,-8 -4,-22 -8,-35 7,-7 14,-14 22,-20l1 1c4,15 6,30 6,40 0,10 -4,20 -8,27 -7,14 -20,25 -36,25 -12,0 -25,-6 -34,-17l-1 0c-9,11 -22,20 -43,20l-7 0c-1,14 -4,24 -9,33 -13,25 -50,42 -85,42 -49,0 -73,-28 -73,-66 0,-23 7,-45 19,-60l10 4c-7,14 -12,27 -12,40 0,35 29,52 61,52 30,0 68,-20 75,-42 -2,-25 -12,-36 -26,-59 4,-7 10,-15 17,-23l1 0 0 0 0 0 2 1zm563 -132c10,6 20,14 30,23 -6,8 -12,15 -21,21 -10,-8 -20,-15 -30,-22 7,-8 14,-15 20,-22l1 0zm5 96c-17,0 -30,11 -30,19 0,17 33,23 73,23 -5,-20 -22,-42 -43,-42zm-37 93c22,0 41,-1 55,-4 16,-4 30,-12 30,-18 0,-2 0,-3 -1,-5 -9,1 -19,1 -29,1 -29,0 -52,-7 -60,-23 -2,-4 -4,-10 -4,-15 0,-16 7,-32 19,-42 10,-9 21,-14 33,-14 20,0 37,17 48,42 6,14 11,30 11,51 0,14 -4,25 -12,34 -16,15 -45,21 -90,21l-20 0 0 0 -5 0c-11,0 -19,-2 -25,-7l-1 0c0,2 1,5 1,7 0,10 -3,23 -10,33 -20,30 -42,43 -60,43 -19,0 -42,-7 -63,-17l4 -7c7,3 16,5 29,5 34,0 78,-33 84,-64 -1,-3 -3,-6 -7,-10 -10,-12 -16,-22 -22,-32 5,-10 10,-18 14,-25l2 0c14,29 28,46 57,46l4 0 0 0 21 0 0 0 0 0 -3 0zm-146 31c2,-14 3,-29 3,-43l0 -21c0,-39 -5,-96 -9,-133 7,-8 17,-17 25,-23l2 1c5,47 7,101 7,151 0,13 -1,26 -2,35 -1,12 -8,21 -22,35l-3 -1 0 0 0 0 -1 -1zm-151 -62c1,18 10,33 41,33 20,0 36,-5 55,-14 3,-2 5,-3 5,-5 0,-12 -9,-27 -24,-41 -14,-13 -34,-25 -51,-32 -6,-3 -8,-5 -8,-8 0,-5 7,-17 13,-24l2 0c20,11 43,27 60,44 15,16 25,33 25,51 0,13 -4,26 -11,38 -22,11 -46,20 -70,20 -29,0 -48,-13 -48,-45 0,-3 0,-9 1,-16l10 0 0 0 0 0 0 -1zm-52 -52l18 29c7,11 13,22 13,41l0 24c0,19 -12,39 -32,60 -15,14 -29,20 -42,20 -19,0 -40,-6 -65,-17l3 -7c8,2 17,4 28,4 35,0 72,-26 88,-58 2,-4 3,-7 3,-9 0,-4 -2,-8 -4,-11 -9,-17 -19,-33 -30,-47 6,-9 12,-18 18,-27l2 0 0 0 0 0 0 -2z"/>
  <g id="_1974358775616">
   <path class="fil3" d="M1135 1749l0 -147 44 0 26 100 26 -100 45 0 0 147 -28 0 0 -115 -29 115 -29 0 -29 -115 0 115 -28 0 0 0 0 0zm171 -147l59 0c11,0 20,1 26,2 6,1 10,3 16,6 4,3 9,7 11,12 3,5 4,10 4,17 0,7 -2,13 -5,19 -3,6 -9,10 -15,13 9,3 16,7 21,13 5,6 7,14 7,23 0,7 -2,13 -4,19 -3,6 -8,11 -13,15 -5,3 -12,6 -20,7 -5,1 -16,1 -36,1l-50 0 0 -147 0 0 -1 0zm30 24l0 34 19 0c11,0 19,0 22,-1 5,-1 9,-3 12,-5 3,-3 4,-7 4,-11 0,-4 -1,-8 -3,-11 -3,-3 -6,-4 -11,-5 -3,0 -11,-1 -25,-1l-17 0 0 0 0 1zm0 58l0 39 28 0c10,0 17,0 20,-1 4,-1 8,-3 10,-6 3,-3 4,-7 4,-12 0,-4 -1,-8 -3,-11 -2,-3 -5,-5 -10,-7 -4,-2 -13,-2 -26,-2l-24 0 0 0 1 0zm251 64l-32 0 -13 -34 -59 0 -12 34 -31 0 57 -147 31 0 59 147zm-55 -58l-21 -55 -20 55 40 0 1 0zm71 58l0 -146 30 0 0 121 74 0 0 25 -103 0zm173 -47l18 -2c1,7 3,14 6,18 3,5 8,9 15,11 7,3 14,4 23,4 8,0 14,-1 20,-3 5,-2 10,-5 13,-10 3,-3 4,-8 4,-12 0,-4 -2,-9 -4,-12 -3,-3 -7,-6 -13,-9 -4,-2 -13,-4 -26,-7 -14,-3 -23,-6 -29,-10 -7,-3 -12,-9 -16,-14 -3,-5 -5,-11 -5,-18 0,-8 2,-15 6,-21 4,-6 10,-11 18,-15 8,-3 17,-5 27,-5 10,0 21,2 29,5 9,3 15,9 19,16 4,7 7,15 7,23l-19 2c-1,-10 -4,-16 -10,-21 -6,-5 -15,-7 -26,-7 -12,0 -21,2 -26,6 -5,4 -8,10 -8,16 0,5 2,10 6,13 3,3 14,7 30,10 16,3 27,7 32,10 9,4 15,9 19,15 4,6 6,13 6,21 0,8 -3,15 -7,22 -4,7 -11,12 -19,16 -9,3 -17,6 -29,6 -13,0 -24,-2 -33,-6 -9,-3 -16,-10 -21,-17 -5,-8 -8,-16 -8,-26l0 0 1 0zm134 -6c0,-20 5,-34 16,-43 10,-8 20,-12 34,-12 15,0 27,5 36,15 10,10 14,23 14,40 0,14 -2,24 -6,32 -4,8 -10,14 -18,18 -8,4 -16,6 -26,6 -15,0 -27,-5 -36,-15 -10,-10 -14,-23 -14,-41l0 0 1 0zm18 0c0,14 3,23 9,30 6,7 14,10 23,10 9,0 16,-3 23,-10 6,-7 9,-17 9,-31 0,-13 -3,-23 -9,-29 -6,-7 -14,-10 -23,-10 -9,0 -16,3 -23,10 -6,7 -9,16 -9,30l0 0zm107 53l0 -93 -16 0 0 -14 16 0 0 -11c0,-7 1,-12 2,-16 2,-4 4,-9 10,-11 4,-3 10,-4 18,-4 5,0 10,1 16,2l-3 16c-3,-1 -7,-1 -10,-1 -5,0 -10,1 -11,3 -3,3 -3,7 -3,13l0 10 21 0 0 14 -21 0 0 93 -18 0 0 0zm92 -16l3 16c-5,1 -10,2 -14,2 -7,0 -11,-1 -16,-3 -3,-2 -6,-5 -8,-8 -2,-3 -2,-10 -2,-22l0 -62 -13 0 0 -14 13 0 0 -26 18 -10 0 37 18 0 0 14 -18 0 0 62c0,5 0,9 1,10 1,2 2,3 3,3 2,1 3,1 6,1 2,0 4,0 8,-1l0 0 0 1zm37 16l-32 -107 19 0 17 62 6 23c0,-1 2,-9 5,-22l16 -62 18 0 16 62 5 20 6 -21 18 -62 17 0 -33 107 -19 0 -16 -63 -4 -18 -22 82 -19 0 0 0 1 1zm199 -13c-7,6 -13,10 -19,12 -6,3 -13,3 -20,3 -12,0 -21,-3 -27,-9 -6,-6 -10,-13 -10,-22 0,-5 1,-10 3,-14 3,-4 5,-8 10,-10 3,-3 8,-4 13,-6 3,-1 9,-2 16,-3 15,-2 25,-3 32,-6 0,-3 0,-4 0,-4 0,-7 -2,-12 -5,-16 -4,-4 -11,-6 -21,-6 -9,0 -15,2 -19,4 -4,3 -7,8 -9,16l-17 -3c2,-8 4,-14 8,-18 3,-4 9,-8 16,-10 7,-3 15,-3 24,-3 10,0 16,1 23,3 6,2 10,5 12,8 3,3 4,7 6,12 1,3 1,9 1,16l0 24c0,16 0,28 1,32 1,4 3,9 4,13l-19 0c-2,-3 -3,-9 -3,-13l0 0 -1 -2zm-2 -40c-6,3 -16,5 -30,7 -8,1 -13,3 -16,3 -3,2 -5,3 -7,6 -2,3 -3,5 -3,9 0,4 2,9 5,12 3,3 9,5 16,5 7,0 13,-2 18,-4 5,-3 10,-7 12,-12 2,-4 3,-10 3,-18l0 -6 1 -2zm46 53l0 -107 16 0 0 16c4,-8 8,-12 11,-15 3,-3 8,-3 11,-3 6,0 12,2 18,6l-6 16c-4,-3 -9,-3 -13,-3 -4,0 -8,1 -10,3 -3,3 -5,6 -7,10 -2,6 -3,14 -3,21l0 56 -18 0 0 0zm141 -35l19 3c-3,10 -9,19 -16,25 -8,6 -18,9 -30,9 -16,0 -28,-5 -37,-15 -10,-10 -14,-23 -14,-40 0,-18 4,-32 14,-42 10,-10 21,-15 36,-15 14,0 26,5 35,15 9,10 14,23 14,41 0,1 0,3 0,5l-79 0c1,11 4,21 10,27 6,6 13,10 23,10 7,0 12,-2 16,-5 4,-3 9,-9 11,-16l0 0 0 -1zm-59 -29l59 0c-1,-9 -3,-16 -7,-20 -6,-7 -13,-10 -23,-10 -8,0 -15,3 -21,9 -5,5 -9,13 -10,23l1 -1z"/>
   <g>
    <circle class="fil4" cx="1749" cy="938" r="606"/>
    <g id="_2146981719504">
     <circle class="fil5" cx="2253" cy="1236" r="308"/>
     <path class="fil6" d="M2259 1478l26 0c19,-10 126,-29 142,-117 -24,28 -57,60 -114,68l-1 -118 119 0c-3,-60 -37,-44 -118,-44l0 -91c31,17 46,40 71,58 -25,-56 -87,-115 -124,-238l-1 482 -1 0z"/>
     <path class="fil6" d="M2151 1265c7,-10 18,-26 26,-39 4,-7 9,-12 13,-19l13 -17c1,-1 1,-1 2,-2 1,79 13,85 -57,77l1 0zm84 213l11 0c-28,-29 -130,-70 -123,-167 127,0 126,12 126,-92 0,-69 4,-151 -1,-219 -21,51 -41,90 -68,134 -40,68 -46,67 -84,123 -52,75 -10,156 59,195 26,15 58,18 79,28l0 0z"/>
    </g>
    <g>
     <path class="fil7" d="M1672 1381c-1,-20 -1,-40 -3,-60 -2,-23 -3,-47 -4,-70 -2,-27 -4,-54 -6,-81 -1,-18 -3,-37 -4,-55 -2,-29 -4,-57 -6,-86 -1,-19 -4,-38 -4,-57 0,-4 -4,-6 -3,-10 5,-3 9,-2 13,1 4,5 1,11 4,16 1,1 1,2 1,3 1,24 3,48 4,70 5,-11 10,-24 16,-36 5,-11 12,-22 7,-35 0,-1 0,-2 1,-3 1,-1 2,-1 3,-1 3,5 8,1 12,3 1,1 1,1 1,2 -3,8 -2,16 2,23 3,6 5,5 9,2 7,-6 11,-15 18,-21 1,-1 3,-3 4,-3 3,-1 5,0 6,4 0,4 -3,7 -6,10 -7,6 -12,13 -18,20 -3,4 -5,8 -2,13 2,4 5,6 9,3 9,-6 19,-12 28,-17 8,-5 7,-6 1,-13 -4,-4 -10,-8 -9,-15 2,-1 4,-1 6,-1 4,2 7,5 9,9 0,-3 0,-5 3,-7 4,-1 7,-1 11,0 3,2 3,5 2,8 4,-3 7,-8 12,-10 3,-1 5,-1 7,2 -1,7 -6,11 -11,16 -4,4 -5,6 0,9 11,6 22,12 32,20 2,1 4,1 6,0 3,-3 4,-6 4,-10 -1,-4 -3,-8 -6,-11 -6,-6 -11,-13 -17,-18 -2,-2 -4,-5 -3,-9 3,-4 6,-2 9,0 8,5 11,15 18,21 6,5 6,5 10,-2 4,-7 5,-15 2,-22 0,-1 0,-2 1,-2 5,-1 10,1 14,-2 1,0 1,1 2,2 -4,13 3,23 8,34 5,13 12,25 16,37 1,-23 3,-47 3,-71 0,-6 3,-12 5,-17 7,-7 9,-7 13,0 -1,2 -2,3 -2,5 1,15 -2,30 -3,46 -1,21 -3,42 -4,63 -1,16 -2,32 -4,48 -3,22 -3,45 -6,67 -2,17 -2,35 -3,53 -5,1 -9,2 -13,-2 -10,-6 -19,-12 -28,-19 -8,-6 -9,-5 -14,3 -3,6 -7,13 -9,20 -1,2 -2,4 -2,7 1,13 7,15 18,9 12,-6 22,-15 35,-19 4,1 8,2 12,5 1,23 -1,45 -4,67 0,1 0,3 0,5 -1,19 -2,39 -3,58 -4,1 -7,4 -11,2 -10,-9 -23,-13 -34,-19 -4,-2 -5,3 -6,6 -11,24 -23,48 -34,72 -4,9 -11,18 -11,29 0,3 -3,3 -5,3 -2,0 -5,0 -5,-3 -1,-18 -13,-31 -19,-47 -7,-18 -17,-35 -25,-53 -2,-5 -4,-8 -11,-4 -10,5 -21,9 -30,17 -4,2 -7,0 -11,-2z"/>
     <path class="fil8" d="M1966 793c-2,24 -4,49 -7,73 -4,1 -3,4 -3,7 -1,12 -3,23 -4,35 0,3 -1,5 -2,8 -2,5 -6,8 -10,12 -5,5 -12,9 -16,15 -2,2 -4,4 -8,2 -2,-11 0,-23 0,-34 3,-9 0,-18 2,-27 1,-13 2,-27 3,-40 0,-4 0,-7 1,-11 3,-4 3,-8 3,-13 2,-8 0,-17 1,-26 1,-13 2,-27 3,-40 1,-7 0,-15 1,-22 3,-9 0,-18 2,-27 2,-7 0,-15 2,-23 1,-6 3,-11 5,-16 -3,-10 0,-20 1,-29 1,-10 1,-20 2,-29 0,-1 0,-2 1,-3 2,-7 0,-14 1,-21 0,-1 0,-2 1,-3 2,-7 0,-15 1,-23 0,-1 0,-2 1,-3 2,-7 0,-15 1,-23 0,-1 0,-2 1,-3 2,-8 0,-15 1,-23 0,-2 0,-5 1,-7 2,-3 4,-6 7,-9 1,-1 3,-1 4,-1 8,-2 15,-7 22,-9 3,-1 7,-3 10,-1 5,4 0,8 1,12 -1,21 -4,43 -5,64 -2,26 -5,52 -8,77 0,2 0,5 0,7 0,3 -3,6 -1,10 -1,12 -2,24 -3,36 0,3 1,7 -1,10 -4,8 -3,17 -4,26 -2,18 -5,36 -5,54 -1,4 -2,8 -2,12 0,2 1,3 1,5z"/>
     <path class="fil8" d="M1583 826c-1,-12 -4,-23 -3,-35 3,-5 -1,-10 0,-15 -1,-20 -4,-40 -7,-61 -1,-10 -2,-20 -3,-30 -1,-14 0,-28 -5,-42 -5,-50 -9,-101 -14,-151 0,-4 -4,-8 0,-12 8,-1 15,3 22,6 5,2 10,4 15,7 3,2 5,4 7,7 1,2 1,5 1,7 0,8 -1,15 1,23 0,1 0,2 1,3 1,8 -1,15 1,23 0,1 1,2 1,3 1,7 0,14 1,21 2,12 2,24 3,36 1,12 3,23 2,35 0,6 5,11 0,17 3,5 3,10 5,15 1,8 -1,16 2,24 2,8 -1,16 2,25 1,21 3,42 4,63 0,8 5,15 2,22 0,1 2,2 3,3 2,3 2,7 1,11 -1,17 2,34 2,51 0,1 1,2 1,3 0,18 2,36 3,55 0,2 0,4 -1,5 -1,1 -2,1 -3,1 -12,-9 -23,-18 -31,-30 -3,-21 -6,-43 -7,-64 -1,-9 -2,-17 -5,-26z"/>
     <path class="fil9" d="M1657 422c21,-5 42,-5 63,-10 16,-4 33,-4 49,-8 7,-2 14,2 22,3 16,2 31,6 47,8 12,2 24,3 35,4 7,1 14,2 20,5 0,5 -5,3 -7,4 -13,-1 -25,-2 -38,-6 -6,2 -12,0 -17,-2 -8,-3 -13,2 -20,1 -12,-3 -25,-3 -36,-10 -3,-1 -5,-1 -7,1 -12,4 -25,5 -37,8 -3,0 -6,-1 -9,-1 -1,0 -2,-3 -4,-1 -1,1 -2,2 -4,2 -8,-2 -15,2 -22,1 -8,2 -16,5 -24,6 -4,1 -9,2 -13,-1 -1,-1 -1,-3 0,-4z"/>
     <path class="fil10" d="M1657 425c13,1 25,-4 38,-7 2,9 -6,6 -10,9 -3,2 -6,2 -10,2 -10,0 -19,2 -28,6 -5,3 -11,5 -17,4 -7,0 -15,1 -21,5 -12,9 -26,9 -39,12 -13,3 -14,0 -16,15 -1,1 -2,1 -2,0 -4,-4 -2,-9 -4,-13 -1,-2 0,-3 2,-3 10,-4 17,-11 26,-16 2,-2 5,0 7,-1 24,-4 47,-11 72,-13 2,0 3,0 4,0z"/>
     <path class="fil10" d="M1849 419c13,4 26,6 40,7 26,1 50,9 76,13 10,1 17,7 24,14 1,4 -2,4 -4,5 -15,-2 -31,-3 -45,-11 -7,-6 -16,-5 -24,-8 -5,-1 -10,0 -14,-2 -9,-6 -19,-6 -29,-8 -1,0 -2,0 -3,-1 -4,-1 -9,-2 -13,-3 -4,-1 -8,-2 -7,-7z"/>
     <path class="fil11" d="M1566 644c5,3 4,9 5,13 0,18 3,36 5,53 2,15 3,31 5,46 1,8 1,15 1,22 -3,0 -2,-2 -3,-3 -1,-9 -5,-18 -3,-28 0,-1 -1,-2 -2,-3 -4,-8 -2,-17 -3,-26 -1,-20 -5,-40 -4,-60 0,-5 -4,-9 -1,-14z"/>
     <path class="fil12" d="M1583 826c1,-1 2,-3 2,-4 1,9 4,17 5,26 2,22 4,43 6,65 0,1 1,3 1,4 -1,2 0,4 -2,5 -7,-8 -3,-17 -5,-26 -6,-23 -5,-46 -7,-70z"/>
     <path class="fil13" d="M1858 980l-1 0c0,0 -1,0 -1,-1 0,-3 -1,-6 1,-9 18,-8 36,-15 54,-21 1,0 2,0 3,0 2,1 3,3 3,5 -3,5 -12,3 -13,10 -4,-7 -8,0 -12,1 -11,6 -21,13 -34,14z"/>
     <path class="fil14" d="M1964 778c-1,-20 3,-39 4,-59 0,-7 3,-14 3,-21 0,-4 2,-2 4,-2 -1,14 -2,28 -2,41 0,2 1,4 -1,6 -3,3 -2,6 -2,9 2,8 -3,15 -3,23 0,1 -1,2 -3,2z"/>
     <path class="fil15" d="M1657 425c-4,5 -9,2 -13,3 -21,5 -41,9 -63,10 17,-5 34,-10 52,-13 8,-1 16,-3 24,-4 0,1 0,2 0,3z"/>
     <path class="fil16" d="M1964 439c-17,-2 -35,-3 -52,-8 -8,-2 -16,-1 -24,-5 1,-2 5,2 6,-2 24,1 47,8 70,15z"/>
     <path class="fil17" d="M1948 917c2,-7 4,-14 4,-22 -1,-10 2,-19 2,-29 0,-8 4,1 5,-1 2,15 -6,30 -5,45 0,4 -2,8 -5,11 -2,-1 -1,-4 -2,-5z"/>
     <path class="fil18" d="M1688 979l0 1c-7,0 -13,-4 -19,-7 -5,-5 -11,-6 -17,-9 -4,-1 -7,-1 -11,-2 -1,-4 -6,-2 -8,-5 -1,-2 -4,-3 -2,-6 1,-1 1,-1 2,-1 11,3 21,9 33,12 5,4 12,5 18,7 2,1 3,2 4,4 1,2 1,4 -1,6z"/>
     <path class="fil19" d="M1948 917c2,1 2,3 2,5 -9,10 -17,21 -29,28 -2,0 -3,-1 -3,-3 0,-1 0,-1 1,-2 10,-9 19,-19 29,-28z"/>
     <path class="fil20" d="M1596 922c0,-2 0,-4 2,-5 8,11 20,17 27,28 0,2 0,3 -2,2 -12,-6 -18,-17 -27,-26z"/>
     <path class="fil21" d="M1984 457c1,-1 3,-3 4,-4 1,0 1,0 2,0 12,5 12,5 7,18 -1,3 -3,4 -6,5 -10,-1 -19,-1 -26,-10 2,-4 6,-2 9,-1 4,1 7,2 11,3 3,0 6,1 7,-2 1,-3 -1,-5 -4,-6 -1,-1 -3,-1 -4,-3z"/>
     <path class="fil22" d="M1551 473c1,0 1,-1 2,-1 1,0 2,1 3,2 12,6 24,14 38,15 1,0 1,1 2,2 -1,3 -4,4 -7,5 -12,-3 -23,-11 -36,-13 -1,-3 -5,-4 -4,-8 1,0 1,-1 2,-1z"/>
     <path class="fil23" d="M1964 778c1,-9 5,-17 4,-26 0,-3 -2,-8 4,-8 2,12 -3,24 -2,37 0,2 0,4 -2,6 -2,1 0,6 -5,5 1,-4 -1,-9 2,-12z"/>
     <path class="fil24" d="M1574 744c5,1 4,6 3,9 -1,9 3,17 4,26 2,5 5,9 -1,13 -4,-16 -5,-32 -6,-48z"/>
     <path class="fil25" d="M1991 475c1,-2 3,-3 5,-3 3,7 1,14 -2,21 -2,-3 3,-7 -1,-11 -3,-1 -2,-4 -2,-6 0,0 0,-1 0,-1z"/>
     <path class="fil26" d="M1871 1244c3,1 5,6 9,1 1,1 2,2 3,3 -1,1 -1,3 -2,4 -4,-1 -8,-2 -12,-4 -1,-2 0,-3 2,-4z"/>
     <path class="fil27" d="M1549 474c-1,4 7,3 4,8 -4,3 2,7 -1,11 -3,-6 -4,-12 -3,-18z"/>
     <path class="fil28" d="M1623 948c1,-1 2,-2 2,-2 1,0 1,0 2,0 3,1 5,2 6,5 0,2 1,4 1,6 -5,-2 -8,-5 -11,-10z"/>
     <path class="fil29" d="M1863 1382c4,1 7,-4 11,-2 -3,7 -6,7 -11,2z"/>
     <path class="fil30" d="M1672 1381c4,-3 7,2 11,2 -5,6 -8,5 -11,-2z"/>
     <path class="fil31" d="M1980 651c-6,-4 -3,-7 1,-10 3,4 1,7 -1,10z"/>
     <path class="fil32" d="M1919 948c1,1 2,2 3,3 -1,2 -2,4 -5,5 -1,-1 -2,-3 -3,-4 1,-2 2,-4 5,-3z"/>
     <path class="fil33" d="M1962 790c2,-1 1,-5 5,-5 2,3 1,5 -1,7 -2,0 -4,0 -4,-3z"/>
     <path class="fil34" d="M1662 1082c18,-11 35,-21 53,-32 3,-2 3,-1 5,2 3,9 7,18 12,26 5,9 5,16 -1,24 -1,1 -1,2 -1,2 -3,6 -4,15 -9,17 -6,2 -11,-6 -17,-10 -14,-9 -28,-20 -42,-30z"/>
     <path class="fil34" d="M1883 1082c-18,13 -36,26 -53,39 -3,2 -5,1 -7,-2 -4,-9 -8,-18 -13,-27 -1,-3 0,-5 2,-7 5,-11 11,-21 15,-32 2,-5 4,-2 5,-1 13,8 27,16 40,24 4,2 8,5 12,8z"/>
     <path class="fil34" d="M1807 1353c14,6 14,6 7,20 -12,26 -25,52 -39,78 0,-24 0,-47 0,-71 -1,-2 0,-3 2,-5 6,-2 9,-7 13,-11 1,0 3,0 4,-1 -3,-1 -4,1 -6,3 -4,3 -5,8 -11,8 -8,-3 -2,-10 -4,-15 0,-6 -1,-13 1,-19 1,-1 1,-2 2,-2 8,6 16,11 26,14 3,-1 -1,7 4,3z"/>
     <path class="fil34" d="M1737 1348c2,0 0,4 4,3 8,-2 15,-6 21,-10 6,-4 5,1 6,4 1,2 2,3 2,5 0,3 0,7 0,10 0,5 7,10 -1,14 -6,-1 -9,-6 -13,-11 -1,-2 -2,-3 -5,-1 1,1 3,-1 4,1 3,4 6,9 12,11 1,0 2,1 2,2 -3,3 -2,6 -2,9 0,21 0,42 -1,63 -14,-30 -28,-59 -42,-87 2,-7 15,-2 11,-13l1 -1 1 0z"/>
     <path class="fil34" d="M1843 1174c-4,9 -8,19 -13,27 -2,3 -6,-1 -8,-2 -11,-9 -22,-18 -34,-27 -4,-3 -5,-6 -1,-9 11,-8 22,-17 32,-25 2,-2 5,-2 6,1 6,12 11,24 17,36z"/>
     <path class="fil34" d="M1703 1173c5,-11 11,-23 16,-34 2,-4 3,-2 6,0 12,7 22,17 34,25 4,2 3,5 0,8 -12,9 -24,18 -35,28 -4,3 -8,4 -10,-3 -2,-6 -5,-11 -8,-17 -1,-2 -3,-4 -2,-7z"/>
     <path class="fil34" d="M1883 1105c-3,43 -5,84 -9,127 -8,-18 -16,-35 -24,-53 -1,-2 -1,-5 1,-7 11,-22 21,-44 32,-67z"/>
     <path class="fil34" d="M1858 980c11,-5 22,-11 34,-14 -3,25 -4,50 -5,75 0,6 -2,13 -2,22 -8,-18 -15,-35 -23,-51 0,-1 -1,-2 -1,-3 -5,-9 -9,-18 -3,-29z"/>
     <path class="fil35" d="M1672 1232c-3,-43 -6,-84 -8,-125 3,3 5,7 6,11 8,18 17,35 25,53 2,3 2,6 1,9 -8,17 -15,33 -24,52z"/>
     <path class="fil36" d="M1737 1348c0,0 -1,0 -1,0 0,0 -1,0 -1,0 -5,0 -9,8 -14,4 -4,-3 -6,-9 -7,-14 -2,-7 -9,-11 -6,-19 2,-5 1,-13 7,-16 5,-11 5,-11 14,-4 11,9 23,18 34,27 3,3 4,4 -1,7 -8,5 -18,7 -25,15z"/>
     <path class="fil34" d="M1670 971c6,2 12,5 18,9 9,16 -4,27 -8,40 -5,14 -12,27 -19,42 0,-14 -2,-27 -3,-39 -1,-14 0,-29 -3,-43 -2,-5 -1,-9 0,-15 6,2 10,4 15,6z"/>
     <path class="fil34" d="M1804 1346c-5,-7 -13,-8 -20,-12 -5,-3 -4,-4 -1,-7 12,-10 24,-19 35,-29 6,-5 9,-5 12,2 2,6 5,13 8,19 1,3 0,4 -1,6 -4,8 -7,15 -11,23 -2,5 -5,7 -10,3 -3,-2 -6,-3 -10,-4 -1,1 -3,2 -4,-1z"/>
     <path class="fil36" d="M1779 1298c0,-36 0,-71 0,-108 10,21 20,40 27,60 1,3 0,5 -1,7 -4,10 -8,19 -12,28 -3,6 -7,10 -14,13z"/>
     <path class="fil34" d="M1749 1227c6,-11 12,-23 18,-35 0,35 0,70 0,106 -14,-5 -15,-19 -20,-29 -6,-11 -8,-21 -2,-32 1,-4 2,-7 5,-10z"/>
     <path class="fil36" d="M1871 1244c-1,1 -1,3 -2,4 -14,8 -28,15 -42,23 -5,3 -6,1 -8,-3 -5,-9 -6,-17 0,-26 3,-4 4,-8 6,-13 7,-14 7,-14 20,-4 9,6 18,13 27,19z"/>
     <path class="fil36" d="M1732 1252c0,9 -4,14 -7,20 -1,3 -3,1 -5,0 -15,-6 -29,-17 -44,-24 -4,-2 -2,-3 0,-5 12,-8 24,-16 36,-24 2,-1 3,-3 4,0 6,12 11,24 16,34z"/>
     <path class="fil36" d="M1779 1143c0,-38 0,-74 0,-111 10,18 15,36 24,52 1,2 1,5 0,8 -8,17 -14,34 -24,51z"/>
     <path class="fil34" d="M1748 989c3,7 9,11 14,17 4,4 6,6 -1,10 -11,6 -22,14 -33,20 -3,2 -6,7 -9,2 -3,-5 -9,-9 -4,-17 6,-11 16,-18 24,-28 1,-2 3,-3 4,-5 2,-2 3,-2 5,0z"/>
     <path class="fil36" d="M1803 988c6,10 15,16 22,25 8,9 9,12 4,22 -2,5 -5,5 -9,3 -14,-9 -27,-17 -41,-26 7,-7 13,-14 20,-22 1,-2 1,-5 4,-2z"/>
     <path class="fil34" d="M1879 1096c-13,23 -21,47 -34,72 -5,-11 -10,-22 -15,-32 -1,-3 -1,-4 1,-6 15,-12 30,-24 46,-35 1,1 1,1 2,2z"/>
     <path class="fil34" d="M1765 1036c0,35 0,68 0,102 -9,-15 -15,-32 -22,-47 -1,-3 -1,-6 0,-9 7,-15 14,-30 22,-47z"/>
     <path class="fil34" d="M1700 1168c-11,-25 -22,-49 -33,-72 0,0 1,-1 1,-1 10,8 20,15 30,23 1,1 1,2 2,3 17,13 17,13 8,31 -3,5 -5,10 -9,17z"/>
     <path class="fil35" d="M1674 1265c10,20 18,37 27,55 1,2 1,5 0,7 -8,11 -9,25 -18,38 -5,-33 -5,-65 -9,-100z"/>
     <path class="fil35" d="M1850 1340c-8,-12 -4,-23 3,-34 7,-12 12,-25 19,-38 -3,20 -1,41 -5,61 -2,8 2,17 -2,25 -2,3 1,9 -3,9 -4,0 -5,-5 -7,-9 -2,-5 -4,-9 -5,-14z"/>
     <path class="fil35" d="M1781 1180c14,10 29,21 43,31 2,2 1,2 0,3 -5,10 -9,20 -15,32 -12,-21 -19,-44 -30,-64 0,-1 1,-1 1,-2z"/>
     <path class="fil34" d="M1807 1083c-10,-22 -19,-42 -29,-64 15,9 29,17 42,25 3,2 2,5 1,7 -5,10 -9,21 -15,32z"/>
     <path class="fil34" d="M1742 1234c-3,2 -1,9 -6,9 -2,0 -4,-6 -6,-9 -1,-2 -2,-5 -3,-7 -7,-16 -7,-16 7,-26 10,-7 20,-14 33,-22 -7,16 -13,30 -19,44 -1,4 -1,9 -5,11z"/>
     <path class="fil35" d="M1739 1083c-5,-11 -10,-21 -15,-31 -2,-4 -1,-7 3,-9 12,-7 25,-15 39,-21 -9,20 -18,40 -27,62z"/>
     <path class="fil35" d="M1806 1094c4,9 8,18 13,27 2,3 2,6 -1,8 -12,9 -24,17 -37,25 8,-20 18,-38 26,-59z"/>
     <path class="fil35" d="M1740 1094c8,20 18,39 27,60 -15,-8 -26,-18 -39,-26 -3,-2 -2,-5 0,-8 4,-8 8,-17 12,-26z"/>
     <path class="fil35" d="M1706 1316c-1,0 -2,2 -3,-1 -9,-19 -18,-39 -28,-60 10,8 17,13 25,20 2,2 4,4 7,6 9,4 12,12 7,21 -2,5 -2,11 -7,14z"/>
     <path class="fil37" d="M1841 1317c-4,-8 -8,-14 -10,-20 -2,-4 -2,-8 4,-12 12,-8 22,-18 34,-26 -9,19 -18,37 -28,58z"/>
     <path class="fil35" d="M1737 986c-8,10 -16,19 -24,29 -2,2 -4,3 -5,0 -4,-10 -13,-19 -5,-31 12,-5 23,-3 34,2z"/>
     <path class="fil36" d="M1843 983c9,12 0,21 -4,31 -2,5 -4,2 -7,0 -9,-7 -13,-18 -22,-25 0,-2 1,-4 3,-4 10,-3 20,-5 30,-1z"/>
     <path class="fil35" d="M1851 1002c9,20 17,39 26,60 -8,-3 -9,-9 -13,-13 -5,-5 -9,-10 -14,-14 -13,-12 -11,-16 0,-33z"/>
     <path class="fil38" d="M1704 1328c4,8 8,16 12,24 2,4 2,6 -3,8 -10,4 -19,10 -30,16 6,-17 15,-31 21,-47z"/>
     <path class="fil37" d="M1868 1232c-10,-3 -16,-11 -24,-17 -2,-1 -4,-4 -6,-5 -3,-1 -4,-4 -2,-8 3,-7 7,-14 10,-20 10,15 14,33 23,49z"/>
     <path class="fil35" d="M1696 1000c4,8 6,13 8,18 3,5 -2,8 -4,11 -9,12 -21,21 -30,34 6,-21 16,-41 25,-63z"/>
     <path class="fil37" d="M1700 1183c4,7 7,14 11,21 1,2 1,5 -1,6 -9,6 -18,13 -26,21 -1,1 -3,1 -6,0 9,-15 13,-32 23,-48z"/>
     <path class="fil35" d="M1861 1368c1,2 1,4 2,7 -11,-6 -21,-11 -32,-16 -4,-2 -2,-5 -1,-7 3,-8 7,-15 11,-23 2,4 4,8 6,12 6,8 9,18 13,27z"/>
     <path class="fil39" d="M1737 986c-11,0 -22,-4 -34,-2 0,0 0,-1 0,-1 -2,-3 -6,0 -8,-2 -1,-3 0,-5 2,-6 2,-1 4,-1 6,-1 13,2 26,1 39,4 6,4 13,1 19,2 1,0 2,0 3,1 4,1 7,3 11,3 3,1 5,1 7,3 0,3 -2,4 -4,4 -4,0 -8,0 -12,0 -4,0 -8,-1 -12,-2 -2,0 -5,0 -7,0 -2,0 -3,0 -5,0 -1,-3 -3,-3 -6,-3z"/>
     <path class="fil40" d="M1783 988c-3,0 -6,-1 -8,-2 1,-5 5,-4 8,-5 20,-2 39,-7 59,-7 2,0 4,0 6,0 3,2 5,3 4,7 -3,2 -7,-2 -9,2 0,0 0,0 0,0 -10,-1 -20,1 -30,2 -2,0 -2,1 -3,3 -2,-3 -4,-3 -7,0 -2,0 -3,1 -4,2 -2,0 -5,-1 -7,-1 -3,1 -6,1 -9,-1z"/>
     <path class="fil37" d="M1869 1067c-12,-8 -25,-15 -37,-23 -5,-4 1,-9 3,-13 3,-4 5,0 7,2 9,11 19,21 28,32 -1,1 -1,1 -2,2z"/>
     <path class="fil37" d="M1675 1066c11,-10 17,-23 28,-33 2,-2 4,-7 7,-3 3,3 8,10 4,13 -12,10 -25,17 -39,23z"/>
     <path class="fil37" d="M1763 1319c-13,-10 -25,-19 -37,-29 -2,-2 -4,-4 -3,-7 2,-3 4,-1 7,0 16,7 29,17 32,36z"/>
     <path class="fil37" d="M1783 1319c4,-19 16,-29 33,-36 2,-1 4,-3 6,0 2,2 1,5 -2,7 -12,10 -24,19 -37,29z"/>
     <path class="fil41" d="M1747 1287c-2,-1 -4,-2 -6,-3 -14,-8 -14,-8 -5,-24 4,9 8,17 12,26 -1,0 -1,1 -2,1z"/>
     <path class="fil42" d="M1810 1259c9,17 9,17 -5,25 -2,1 -4,2 -8,4 5,-10 9,-19 13,-29z"/>
     <path class="fil43" d="M1767 1373c5,0 4,-4 2,-6 -2,-2 -3,-4 -2,-6 1,-2 1,-6 5,-6 3,0 3,3 3,4 4,4 -3,9 2,12 1,1 1,3 0,4 -1,1 -2,2 -2,4 -3,2 -5,1 -7,-2 -1,-1 -2,-1 -2,-2 0,-1 0,-1 0,-2z"/>
     <path class="fil44" d="M1861 1368c-5,-9 -9,-18 -13,-27 1,-1 1,-1 2,-2 5,7 6,16 12,23 1,-3 1,-6 2,-9 0,5 2,11 -3,14z"/>
     <path class="fil45" d="M1783 988c3,0 6,-1 9,1 -4,4 -8,9 -13,14 0,-5 -1,-8 -1,-12 2,-1 4,0 5,-3z"/>
     <path class="fil46" d="M1702 1269c8,1 13,6 18,9 1,1 2,2 1,3 -2,2 -4,2 -6,0 -4,-5 -10,-6 -14,-13z"/>
     <path class="fil47" d="M1844 1267c-4,8 -11,10 -14,14 -1,2 -4,1 -5,-1 -1,-2 1,-3 2,-4 5,-3 10,-5 17,-9z"/>
     <path class="fil48" d="M1768 1351c0,-2 0,-4 0,-6 0,-3 6,-5 1,-8 -1,-1 0,-3 1,-3 3,0 6,-3 8,2 0,1 -1,1 -1,1 -1,3 -2,6 -2,9 1,7 -2,7 -7,5z"/>
     <path class="fil49" d="M1755 989c4,-3 8,-1 12,2 0,3 -1,6 -1,10 -4,-4 -7,-8 -11,-12z"/>
     <path class="fil50" d="M1670 971c-5,-2 -9,-3 -14,-5 -2,5 -1,9 0,13 -4,-5 0,-11 -3,-16 7,0 13,2 18,7z"/>
     <path class="fil51" d="M1765 1163c6,3 11,7 16,-3 -1,6 -3,9 -7,10 -5,1 -6,-3 -9,-7z"/>
     <path class="fil52" d="M1706 1316c1,-5 4,-10 7,-14 1,1 1,1 2,2 -3,5 -3,12 -7,16 0,-2 -1,-3 -2,-4z"/>
     <path class="fil53" d="M1742 1234c1,-4 3,-8 5,-11 1,1 1,2 2,4 0,4 -2,7 -5,10 -1,-1 -2,-2 -2,-2z"/>
     <path class="fil54" d="M1804 1346c1,0 2,1 4,1 1,2 -3,4 0,7 1,5 -4,3 -5,5 -2,-3 2,-5 1,-8 0,-2 0,-3 1,-5z"/>
     <path class="fil55" d="M1697 975c-1,2 -2,3 -2,5 -2,2 -3,1 -5,0 0,0 -1,-1 -1,-1 0,-2 -1,-4 -1,-7 1,0 2,-1 2,-1 3,0 5,1 7,3z"/>
     <path class="fil56" d="M1843 983c2,-4 6,-2 9,-3 1,-1 3,-1 4,0 0,0 1,0 1,0 -3,3 -4,3 -13,3z"/>
     <path class="fil57" d="M1690 980c2,0 3,0 5,0 3,1 6,-1 8,3 -1,0 -2,-1 -3,0 -5,7 -7,1 -10,-2z"/>
     <path class="fil58" d="M1779 1313c-1,-8 -1,-8 5,-12 0,5 -3,8 -5,12z"/>
     <path class="fil58" d="M1762 1301c7,2 6,7 5,11 -3,-3 -4,-7 -5,-11z"/>
     <path class="fil59" d="M1964 466c8,6 17,8 27,9l0 0c-2,8 -9,7 -14,10 -5,3 -11,5 -17,8 -1,0 -3,0 -4,0 -4,1 -6,3 -5,7 0,2 0,4 0,7 -3,9 1,18 -2,26l0 0c-3,8 1,17 -2,25l0 0c-3,8 1,17 -2,25l0 0c-3,8 1,16 -2,24l0 0c-3,3 -2,7 -2,10 0,14 -2,28 -3,43 0,9 -4,12 -11,15 -3,1 -5,2 -8,3 -3,1 -7,1 -10,2 -6,1 -12,1 -17,5 -3,1 -6,2 -9,3 -6,0 -11,4 -18,2 -5,-7 -2,-15 -2,-22 2,-11 1,-22 1,-33 0,-3 0,-7 1,-10 2,-12 1,-23 1,-35 0,-4 0,-8 1,-12 3,-14 0,-28 2,-42 2,-7 4,-14 3,-21 1,-4 0,-6 -3,-8 -6,-8 -13,-13 -18,-18 3,3 8,8 13,13 2,2 6,4 5,8 -1,1 -2,1 -3,1 -18,1 -36,3 -54,2 -10,-1 -19,2 -29,2 -4,0 -8,1 -11,-3 -2,-3 -2,-7 -2,-11 0,-26 0,-53 0,-79 0,-4 -2,-9 4,-11 1,0 1,-1 2,0 11,6 23,5 34,10 10,2 21,4 31,7 1,0 2,1 2,1 6,3 13,4 20,6 1,0 2,0 2,1 9,1 17,8 26,9 5,1 10,2 14,4 8,6 17,5 26,8 1,0 2,1 2,1 9,4 18,6 27,9 0,0 1,1 1,1z"/>
     <path class="fil60" d="M1933 756c-1,12 -4,23 -3,35 1,8 -6,17 1,25 0,0 -2,4 -4,6 -1,1 -2,2 -4,3 -5,2 -11,6 -16,0 0,-2 1,-3 3,-3 11,-3 13,-12 13,-21 0,-11 2,-23 2,-34 0,-4 0,-8 5,-10 1,0 2,0 3,0z"/>
     <path class="fil60" d="M1919 675c1,-1 1,-1 2,-2 17,-5 18,-7 18,-24 0,-13 3,-25 2,-38 0,-3 0,-5 4,-5 0,18 -1,36 -4,54 -1,3 3,5 2,8 -2,2 -4,4 -6,6 -6,2 -12,6 -18,2z"/>
     <path class="fil61" d="M1919 948c-2,1 -3,2 -5,3 -1,0 -1,0 -2,0 -2,-12 2,-24 2,-36 0,-5 1,-11 2,-16 0,-3 0,-7 5,-7 1,7 1,13 0,20 0,10 1,20 -2,30 -1,2 0,4 2,4 0,1 0,2 -1,2z"/>
     <path class="fil62" d="M1961 493c0,-4 4,-4 6,-5 9,-4 17,-7 25,-13 8,1 -2,5 2,7 -9,1 -17,5 -25,9 -2,1 -5,2 -7,2z"/>
     <path class="fil63" d="M1925 832c2,17 -3,33 -2,49 0,1 -1,2 -2,3 0,0 -1,-1 -1,-1 -2,-5 -2,-9 -1,-14 0,-10 2,-20 2,-30 0,-2 1,-5 3,-6 1,0 1,0 2,0z"/>
     <path class="fil64" d="M1952 500c-1,-2 -6,-4 -3,-7 2,-4 6,-2 9,0 0,4 -3,5 -5,7z"/>
     <path class="fil65" d="M1919 911c0,-7 0,-13 0,-20 -2,-3 -3,-6 2,-7 0,0 0,0 0,0 -1,9 2,18 -2,27z"/>
     <path class="fil66" d="M1935 706c-1,9 2,18 -2,27 0,0 -1,-1 -1,-1 -2,-9 -3,-17 1,-26 1,0 1,0 2,0z"/>
     <path class="fil67" d="M1948 558c1,-8 -2,-17 2,-25 -1,8 2,17 -2,25z"/>
     <path class="fil68" d="M1960 656c-2,3 -4,7 -10,6 2,-4 5,-6 10,-6z"/>
     <path class="fil67" d="M1950 532c1,-9 -2,-18 2,-26 -1,9 2,18 -2,26z"/>
     <path class="fil69" d="M1946 583c1,-8 -2,-17 2,-25 -1,8 2,17 -2,25z"/>
     <path class="fil70" d="M1937 682c-1,8 2,16 -2,24l0 0c-4,-8 -4,-16 0,-23 1,0 1,0 2,0z"/>
     <path class="fil71" d="M1933 756c-1,0 -1,0 -2,0 -5,-10 -4,-19 2,-23 0,0 0,0 0,0 0,8 0,16 0,23z"/>
     <path class="fil72" d="M1944 606c1,-8 -2,-16 2,-24 -1,8 2,16 -2,24z"/>
     <path class="fil73" d="M1937 672c1,-3 3,-4 6,-4 -3,4 -4,10 -6,14 0,0 0,0 0,0 -3,-3 -2,-7 0,-11z"/>
     <path class="fil74" d="M1924 821c1,0 3,0 4,0 -1,4 3,9 -4,11l0 0c-3,-3 -2,-7 0,-11z"/>
     <path class="fil75" d="M1974 647c-4,5 -7,6 -11,6 2,-5 5,-5 11,-6z"/>
     <path class="fil76" d="M1948 799c4,-2 6,-6 13,-7 -5,4 -8,7 -11,10 -1,-1 -1,-2 -2,-2z"/>
     <path class="fil59" d="M1690 973c-1,0 -2,0 -3,0 -1,0 -2,-1 -3,-1 -5,-4 -12,-5 -18,-8 -11,-3 -22,-7 -33,-13 -6,-6 -5,-13 -5,-20 0,-14 -3,-27 -2,-41 0,-2 0,-4 -2,-6l0 0c-1,-14 -2,-28 -3,-42 0,-4 1,-8 -1,-12 0,-3 0,-6 0,-9 1,-3 3,-1 5,-1 4,1 8,2 12,3 8,5 16,6 25,8 3,1 6,1 9,2 4,3 8,4 12,5 1,0 2,1 2,1 5,3 10,-1 15,1 21,2 41,6 62,7 7,1 11,4 10,12 0,38 0,75 0,113 0,9 -1,10 -10,9l0 0c-7,-3 -15,1 -22,-2 -10,-1 -20,-2 -30,-3 -3,0 -7,1 -9,-2 -7,0 -9,-4 -9,-12 -2,-30 -3,-60 -4,-90 -1,-3 0,-6 -2,-9 -1,-5 0,-9 -1,-14 0,-1 -1,0 -1,0 3,5 -1,11 3,16 2,14 1,27 1,41 1,3 2,7 2,10 0,15 0,31 2,46 0,3 2,7 -3,9z"/>
     <path class="fil59" d="M1594 506c0,-2 0,-5 0,-7 0,-2 2,-3 4,-4 1,0 2,0 3,0 4,1 9,0 13,2 6,3 12,3 19,4 5,1 10,1 15,3 8,9 10,10 23,5 2,0 4,1 5,3 2,7 0,14 2,20 2,14 -1,29 2,43 1,12 0,23 1,35 0,4 0,8 1,12 1,18 0,36 2,54 0,3 0,7 -2,10 -6,3 -12,-2 -18,-1 -2,0 -5,0 -7,-1 -5,-5 -12,-6 -19,-6 -6,-1 -13,-2 -19,-5 -12,-4 -11,-15 -12,-24 -2,-21 -4,-41 -4,-62 0,-3 -1,-5 -2,-7 -1,-8 1,-16 -1,-23l0 0c-3,-8 1,-17 -2,-25l0 0c-3,-9 1,-18 -2,-26z"/>
     <path class="fil77" d="M1625 823c-1,0 -2,-1 -3,-1 -4,0 -5,-5 -9,-8 6,0 8,-1 5,-7 -5,-9 -3,-19 -3,-29 -1,-15 -4,-31 -2,-46 -2,-6 -1,-12 0,-18 5,0 4,4 5,7 3,24 4,49 6,74 0,6 1,13 3,19 1,3 2,6 0,9z"/>
     <path class="fil78" d="M1600 581c2,1 3,3 3,6 1,21 2,41 4,62 0,5 1,11 2,16 0,3 2,5 4,5 3,0 5,1 6,4 -4,3 -7,2 -11,0 -2,-2 -4,-4 -6,-5 -1,-1 -5,-3 0,-3 5,0 4,-3 3,-5 -5,-12 -3,-24 -4,-36 -1,-13 -3,-25 -2,-38 0,-2 -1,-3 -1,-5 1,-1 1,-1 2,0z"/>
     <path class="fil79" d="M1625 884c3,1 4,3 3,6 -1,13 3,26 2,38 0,8 2,15 3,23l-1 0c0,0 -1,0 -1,0 -3,-1 -4,-3 -6,-5 4,-4 0,-8 0,-12 1,-17 -3,-33 -2,-50z"/>
     <path class="fil80" d="M1621 831c1,1 2,3 2,5 -1,16 3,32 2,48 -2,-1 -2,-2 -2,-4 1,-17 -3,-33 -2,-50z"/>
     <path class="fil81" d="M1598 496c-1,1 -3,2 -4,3 -2,-2 -3,-3 -5,-5 2,-2 4,-5 7,-4 0,0 1,0 1,0 2,2 3,3 1,5z"/>
     <path class="fil70" d="M1596 532c4,8 1,17 2,25 -4,-8 -1,-17 -2,-25z"/>
     <path class="fil63" d="M1611 707c-4,-8 -1,-17 -2,-25 1,0 1,0 2,0 5,8 3,16 1,24 0,0 -1,1 -1,1z"/>
     <path class="fil82" d="M1583 656c7,-1 9,2 14,5 -7,2 -9,-2 -14,-5z"/>
     <path class="fil63" d="M1612 715c0,6 0,12 0,18 -4,-8 -1,-17 -2,-25l0 0c5,1 4,4 2,7z"/>
     <path class="fil66" d="M1594 506c4,8 1,17 2,26 -4,-8 -1,-17 -2,-26z"/>
     <path class="fil76" d="M1598 800c4,3 8,7 13,10 -6,0 -9,-4 -13,-8 0,0 -1,-1 0,-1 0,0 0,-1 1,-1z"/>
     <path class="fil76" d="M1584 652c-6,1 -8,-1 -13,-5 6,0 10,1 13,5z"/>
     <path class="fil65" d="M1600 581c-1,0 -1,0 -2,0 0,-8 0,-16 0,-23 4,8 1,16 2,24z"/>
     <path class="fil83" d="M1598 800c0,1 0,1 0,2 -5,-1 -7,-6 -11,-9 5,0 8,4 11,7z"/>
     <path class="fil84" d="M1603 668c3,0 5,1 6,4 2,4 3,7 -1,10l0 0c-2,-5 -2,-10 -5,-14z"/>
     <path class="fil59" d="M1669 509c-3,9 -10,4 -15,5 -5,0 -7,-3 -7,-8 -9,-5 -19,-4 -28,-6 -2,0 -5,0 -7,-2 -4,0 -8,1 -12,-1 0,0 -1,-1 -1,-1 1,-4 1,-4 -3,-4 0,0 0,0 0,0 -16,0 -28,-8 -41,-16 5,-4 11,-4 16,-6 3,-1 7,-2 10,-4 10,-2 18,-6 28,-9 1,0 2,-1 2,-1 8,-3 18,-3 25,-8 1,-1 3,-2 5,-2 10,-1 20,-4 30,-8 1,0 1,-1 2,-1 9,-2 18,-4 27,-8 1,0 2,-1 2,-1 10,-3 21,-5 31,-7 11,-3 23,-5 34,-7 1,0 1,-1 2,-2 4,0 3,3 4,5 0,31 0,63 0,94 0,1 0,1 -1,2 -6,5 -13,3 -19,2 -9,-1 -18,-2 -27,-1 -16,1 -32,-2 -48,-2 -1,0 -2,-1 -3,-1 -1,-6 5,-7 7,-11 3,-5 8,-8 11,-11 -6,6 -12,12 -18,19 -2,2 -5,3 -7,5z"/>
     <path class="fil85" d="M1771 510c0,-32 0,-63 0,-95 0,-2 0,-4 -2,-6 2,-3 5,-2 7,0 -2,1 -2,4 -2,6 0,32 0,63 0,95 1,2 0,2 -2,3 -1,0 -2,0 -3,-1 -1,-1 -1,-2 0,-2z"/>
     <path class="fil86" d="M1845 428c-11,-2 -22,-4 -32,-9 2,0 4,0 5,-1 8,-3 16,-1 23,2 2,1 5,0 8,-1 2,6 8,4 12,5 3,1 7,0 10,3 -8,4 -16,0 -23,-2 -3,-1 -2,1 -2,2z"/>
     <path class="fil87" d="M1733 419c-10,5 -21,7 -32,9 -1,0 1,-3 -1,-2 -5,2 -10,4 -16,0 2,-4 11,1 11,-7 7,2 16,0 21,-2 7,-2 11,3 17,1z"/>
     <path class="fil88" d="M1684 426c8,1 15,-3 22,-3 0,4 -5,2 -6,5l0 0c-10,3 -19,6 -29,9l0 0c-10,3 -20,8 -31,9 -1,1 -2,1 -3,2 -9,4 -19,5 -27,9l0 0c-10,2 -19,6 -29,10 -7,7 -17,6 -26,8 -1,-1 -2,-2 -3,-3 -3,-12 -2,-13 10,-15 9,-2 18,-4 27,-5 7,-1 12,-8 19,-7 6,-3 14,-2 20,-5 6,1 12,-2 18,-4 9,-4 20,-4 29,-7 3,0 6,0 9,-2z"/>
     <path class="fil89" d="M1676 428c-7,6 -16,5 -24,7 -2,1 -3,0 -5,0 7,-6 16,-5 24,-7 2,-1 3,0 5,0z"/>
     <path class="fil90" d="M1629 438c-6,5 -13,6 -20,5 6,-6 13,-5 20,-5z"/>
     <path class="fil88" d="M1845 428c-1,-3 -6,-1 -6,-5 11,2 21,6 31,5l0 0c7,3 15,4 23,5 3,1 6,0 8,4 5,0 10,0 15,0 5,4 10,5 16,5 3,0 6,0 8,4 14,6 30,6 45,11 10,1 13,4 10,11 -2,4 -4,3 -7,3 -8,-1 -14,-5 -22,-5l0 0c-10,-2 -19,-7 -29,-9l0 0c-9,-4 -19,-5 -27,-9 -5,-1 -9,-2 -14,-3 -9,-4 -18,-8 -27,-9l0 0c-7,-4 -15,-4 -22,-7l0 0z"/>
     <path class="fil89" d="M1901 437c-9,-2 -17,-4 -26,-5 -2,0 -5,0 -5,-4 10,-1 18,4 27,4 2,0 3,2 3,5z"/>
     <path class="fil91" d="M1939 446c-5,-1 -10,-3 -15,-3 -4,-1 -7,-2 -8,-6 6,1 12,4 18,4 3,0 5,2 5,5z"/>
     <path class="fil59" d="M1924 821c0,4 0,7 0,11 -1,1 -2,2 -2,3 1,17 -3,33 -2,49 -3,2 -2,5 -2,7 -2,11 -3,22 -3,33 0,9 -2,18 -4,26 -18,7 -37,14 -55,21 -1,1 -2,1 -3,1 -4,-7 -2,-14 -2,-21 0,-1 0,-2 1,-3 1,-2 1,-5 1,-7 -1,-26 3,-52 2,-78 1,-6 1,-12 3,-18 5,-9 15,-10 23,-13 1,0 2,-1 2,-1 8,-2 16,-4 23,-7 0,0 1,0 1,0 6,1 11,-1 16,-3z"/>
     <path class="fil32" d="M1856 980c-1,0 -3,0 -4,0 -1,-2 -2,-3 -3,-5 1,-3 5,-1 7,-2 0,0 1,0 1,0 2,3 1,5 0,7z"/>
     <path class="fil50" d="M1666 964c7,0 13,2 18,8 -6,-2 -13,-2 -18,-8z"/>
     <path class="fil92" d="M1768 1351c1,-1 8,3 4,-4 -1,-2 2,-6 5,-9 0,7 0,14 0,22 -4,-7 -6,0 -8,2 0,-3 0,-7 0,-10z"/>
     <path class="fil93" d="M1789 1365c1,-5 5,-6 9,-5 -2,9 -3,9 -7,5 -1,1 -2,1 -2,0z"/>
     <path class="fil94" d="M1789 1365c1,0 2,0 2,0 -4,4 -7,9 -13,11 0,-1 0,-3 0,-4 5,0 7,-5 10,-7z"/>
     <path class="fil95" d="M1767 1373c0,1 0,1 0,2 -6,-1 -9,-6 -12,-10 1,-1 1,-2 2,-2 3,4 6,8 10,10z"/>
     <path class="fil96" d="M1757 1363c-1,1 -1,1 -2,2 -7,6 -5,-3 -8,-4 5,-3 7,1 10,2z"/>
     <path class="fil97" d="M1771 512c1,0 1,0 2,0 2,1 3,2 4,4 1,5 1,10 1,14 0,49 0,97 0,146 0,9 1,16 11,18 1,4 -2,4 -4,4 -6,1 -7,5 -7,10 0,43 0,85 0,128 0,9 1,9 9,8 9,-1 19,-2 29,-3 4,0 8,0 11,2 0,7 -5,6 -9,6 -10,1 -20,2 -30,3 -7,0 -9,4 -9,10 0,35 0,70 0,105 0,5 2,9 5,12 -2,3 -6,1 -8,3 -4,0 -8,-1 -11,-3 5,1 7,-1 7,-7 0,-39 0,-77 0,-116 0,-8 -6,-6 -10,-9 0,0 1,-1 1,-1 4,-2 5,-6 5,-11 0,-43 0,-86 0,-130 0,-5 -1,-9 -7,-10 -2,0 -5,-1 -4,-4 10,-3 11,-10 11,-19 0,-49 0,-97 0,-146 0,-5 0,-10 1,-14 0,-1 1,-2 2,-3z"/>
     <path class="fil98" d="M1690 973c3,-4 2,-9 1,-13 -3,-15 -1,-30 -2,-45 0,-2 -1,-5 -1,-7 2,-9 0,-18 1,-27 0,-3 -1,-7 1,-9 0,2 1,3 1,5 -1,22 3,45 2,67 0,8 3,16 2,25 -1,6 6,3 7,6 -2,0 -4,0 -6,0 -2,-1 -5,1 -7,-2z"/>
     <path class="fil99" d="M1742 979c7,2 15,-2 22,2 -7,-2 -15,2 -22,-2z"/>
     <path class="fil59" d="M1782 982c-6,1 -8,-2 -8,-8 0,-38 0,-76 0,-115 0,-5 1,-7 7,-8 12,-1 25,-3 37,-4 3,0 7,0 8,-4 0,0 1,-1 1,-1 6,-3 12,0 18,-2 1,0 2,0 3,-1 4,0 9,-1 11,5 0,6 1,12 -2,17 -1,2 -1,3 -1,5 1,26 -3,53 -2,79 0,1 0,3 -1,4l0 0c-3,3 -2,7 -2,11 1,8 -1,12 -9,13 -8,3 -17,2 -26,3 -12,2 -23,5 -35,4z"/>
     <path class="fil100" d="M1843 975c7,-2 8,-7 8,-14 0,-3 -3,-8 3,-10 1,7 -2,15 2,22 -2,3 -5,1 -7,2 -2,0 -4,0 -6,0z"/>
     <path class="fil59" d="M1937 672c1,3 1,7 0,11 -4,8 -1,16 -2,24 -4,9 -1,18 -2,27 -4,8 -1,16 -2,23 -4,2 -3,6 -3,9 0,15 -2,29 -3,44 -1,10 -6,12 -13,14 -1,0 -3,0 -4,2l0 0c-8,4 -17,6 -25,9l0 0c-5,1 -10,3 -14,4 -7,2 -10,0 -11,-7 -1,-4 -1,-8 0,-11 4,-10 3,-21 3,-31 1,-30 2,-61 4,-91 0,-3 1,-7 4,-9 6,-2 11,-4 17,-5 3,-2 6,-2 9,-2 5,-4 12,-2 17,-5 3,-2 5,-2 8,-2 6,1 12,-1 18,-3z"/>
     <path class="fil101" d="M1870 689c-2,1 -4,3 -4,6 0,9 -2,17 -2,26 0,29 -4,57 -2,86 0,8 -5,15 -4,23 1,7 3,9 10,7 4,-2 9,-3 14,-3 -8,5 -17,6 -24,12 -4,-2 -8,-3 -13,-3 12,-10 9,-24 9,-36 0,-26 3,-53 2,-79 0,-7 1,-13 2,-20 1,-11 0,-12 -10,-16 -3,-4 0,-6 3,-6 7,-1 8,-6 8,-12 0,-4 0,-7 4,-9 0,0 1,0 1,0 1,7 -2,15 2,22 2,-1 2,0 2,2z"/>
     <path class="fil102" d="M1775 514c-1,-1 -1,-1 -2,-2 1,-1 1,-2 2,-2 25,-1 50,0 74,-3 7,-1 14,0 21,0 2,1 4,3 1,5 -10,3 -20,2 -29,3 -18,1 -37,0 -55,2 -4,0 -8,1 -12,-3z"/>
     <path class="fil85" d="M1896 506c12,-4 24,-9 37,-7 0,1 0,2 0,2 -12,2 -25,3 -37,5z"/>
     <path class="fil101" d="M1908 447c10,1 19,3 27,9 -9,-2 -20,-1 -27,-9z"/>
     <path class="fil89" d="M1935 457c11,-1 20,5 29,9 -10,-1 -20,-3 -29,-9z"/>
     <path class="fil103" d="M1870 505c-9,-7 -17,-17 -25,-26 8,8 19,14 25,26l0 0z"/>
     <path class="fil104" d="M1870 576c0,13 0,26 0,39 0,3 1,6 -2,8 0,0 -1,-1 -1,-1 -2,-15 -4,-30 1,-45 1,0 1,0 2,0z"/>
     <path class="fil105" d="M1872 532c0,12 0,25 0,37 0,2 1,5 -2,6l0 0c-5,-9 -2,-19 -3,-28 0,-5 -1,-11 3,-15 1,0 1,0 2,0z"/>
     <path class="fil106" d="M1869 623c0,12 0,23 0,35 0,3 1,6 -2,8l0 0c-4,-4 -3,-9 -3,-14 0,-7 0,-14 0,-21 0,-3 0,-8 5,-8l0 0z"/>
     <path class="fil107" d="M1867 435c10,1 20,2 27,9 -10,-1 -18,-6 -27,-9z"/>
     <path class="fil101" d="M1921 478c-8,-1 -16,-5 -23,-10 9,0 16,4 23,9l0 0z"/>
     <path class="fil108" d="M1845 428c8,0 16,1 22,7 -8,-1 -16,-1 -22,-7z"/>
     <path class="fil101" d="M1874 455c7,2 13,5 20,11 -10,-2 -16,-6 -23,-11 1,-1 1,-1 2,0z"/>
     <path class="fil107" d="M1835 435c7,2 13,6 20,11 -10,-2 -16,-7 -22,-11 1,-1 1,-1 2,0z"/>
     <path class="fil105" d="M1876 510c0,7 1,15 -3,22l0 0c-4,-6 -3,-12 -2,-18 1,-2 2,-3 5,-3z"/>
     <path class="fil109" d="M1874 455c-1,0 -2,0 -2,0 -5,-2 -9,-3 -14,-5 0,-1 1,-2 1,-3 6,0 11,3 15,7z"/>
     <path class="fil110" d="M1910 677c-4,6 -11,5 -17,5 4,-6 11,-5 17,-5z"/>
     <path class="fil111" d="M1820 455c-5,-5 -9,-10 -14,-15 0,0 0,0 1,-1 5,5 10,10 16,15 -1,1 -1,1 -2,0z"/>
     <path class="fil112" d="M1835 435c-1,0 -2,0 -2,0 -4,-1 -9,-2 -11,-6 5,0 10,2 14,6z"/>
     <path class="fil113" d="M1870 689c-1,-1 -1,-1 -2,-2 5,-3 11,-4 17,-4 -5,2 -9,5 -15,5z"/>
     <path class="fil21" d="M1921 478c5,1 8,3 13,7 -6,-1 -11,-2 -13,-7 0,0 0,0 0,0z"/>
     <path class="fil114" d="M1876 510c-1,1 -2,1 -3,2 -1,0 -1,-1 -1,-1 -1,-1 -1,-3 -2,-4 0,-1 0,-1 0,-2l0 0c2,-1 3,-2 6,0 2,2 1,4 0,5z"/>
     <path class="fil115" d="M1820 455c1,0 2,0 2,0 4,1 7,4 8,8 -3,-3 -7,-5 -10,-8z"/>
     <path class="fil59" d="M1609 682c0,-3 0,-7 1,-10 3,2 7,1 11,2 5,1 10,4 16,3 5,4 14,1 18,7 2,0 5,0 7,0 6,1 12,3 17,5 1,1 2,2 3,4 1,18 2,35 3,53 1,22 1,45 2,67 0,0 1,1 1,1 1,1 1,2 1,3 1,6 1,11 0,17 0,3 0,6 -4,7l0 0c-4,-3 -9,-2 -13,-5 -3,0 -6,1 -9,-2 -9,-3 -17,-5 -25,-9 -4,-1 -8,-1 -13,-2 -4,-9 -5,-19 -5,-29 -2,-26 -2,-53 -7,-79 0,-3 1,-5 -2,-7 -1,-8 2,-17 -2,-25z"/>
     <path class="fil97" d="M1762 850c-12,-1 -24,0 -36,-3 -9,-2 -19,-1 -27,-5 0,0 1,-1 1,-1 12,-4 24,1 36,1 6,0 12,1 18,2 4,0 8,0 9,6l0 1z"/>
     <path class="fil116" d="M1684 841c4,-8 1,-17 2,-25 4,0 4,3 4,6 -1,9 1,16 9,21 0,0 0,0 0,0 -3,0 -6,0 -9,2 -3,1 -5,0 -5,-3z"/>
     <path class="fil104" d="M1690 872c-2,12 2,24 -2,36 0,-14 0,-29 0,-43l0 0c3,2 2,5 2,7z"/>
     <path class="fil110" d="M1637 825c10,0 17,5 25,9 -9,-2 -19,-1 -25,-9z"/>
     <path class="fil116" d="M1672 836c5,1 10,1 13,5 -5,-1 -10,1 -13,-5z"/>
     <path class="fil117" d="M1688 864c-4,-5 -1,-11 0,-17 0,6 0,11 0,17 0,0 0,0 0,0z"/>
     <path class="fil101" d="M1679 691c-1,-1 -1,-1 -2,-2 -1,-1 -1,-2 0,-3 3,-5 2,-11 1,-16 -3,-16 -1,-32 -2,-48 -1,-1 -1,-3 1,-4 6,3 5,8 5,13 0,14 0,28 2,42 1,7 2,12 10,12 2,0 4,2 5,4 1,2 0,3 -2,4 -5,1 -10,0 -15,0 -2,0 -3,-1 -4,-2z"/>
     <path class="fil118" d="M1612 498c13,0 26,3 41,7 -3,1 -5,1 -6,1 -10,-1 -20,-3 -30,-4 -2,0 -4,-1 -4,-4z"/>
     <path class="fil106" d="M1677 619c0,1 0,2 0,4 -4,-5 -1,-12 -2,-17 0,-10 0,-20 0,-30 1,0 1,0 2,0 3,2 3,6 3,9 -1,11 3,23 -2,34z"/>
     <path class="fil70" d="M1676 576c-4,-6 -1,-13 -2,-19 -1,-8 0,-16 0,-24 1,0 1,0 2,0 5,9 2,19 3,28 0,5 1,11 -3,15l0 0z"/>
     <path class="fil21" d="M1654 684c-5,-1 -9,-3 -14,-4 -2,0 -4,-1 -4,-4 7,1 15,-1 18,7z"/>
     <path class="fil119" d="M1596 491c4,0 7,-4 12,-3 0,6 -9,3 -8,9 -1,0 -1,0 -2,0 1,-2 -1,-4 -1,-5z"/>
     <path class="fil120" d="M1677 687c0,1 0,2 0,3 -6,-1 -11,-3 -16,-6 6,-1 11,1 16,3z"/>
     <path class="fil121" d="M1675 505c0,1 0,1 1,2 1,2 0,3 -1,4 0,1 -1,1 -2,2 -1,0 -1,0 -2,-1 -1,-1 -2,-2 -3,-3 1,-4 2,-7 6,-4l0 0z"/>
     <path class="fil122" d="M1672 512c0,0 1,0 1,0 5,7 4,14 0,20 0,0 0,0 0,0 -4,-7 -1,-14 -2,-20z"/>
     <path class="fil102" d="M1674 511c1,-1 1,-3 2,-4 23,0 45,2 68,2 9,0 18,2 27,1 0,1 0,1 0,2 0,1 0,1 0,2 -6,4 -12,3 -18,2 -22,-3 -45,0 -67,-3 -4,-1 -8,0 -12,-3z"/>
     <path class="fil123" d="M1675 505c5,-11 16,-17 25,-26 -8,9 -14,19 -25,26l0 0z"/>
     <path class="fil89" d="M1641 446c10,-3 20,-9 31,-9 -9,7 -19,10 -31,9z"/>
     <path class="fil124" d="M1726 454c6,-11 16,-17 24,-26 -6,11 -15,18 -23,26l0 0z"/>
     <path class="fil101" d="M1672 437c9,-4 18,-10 29,-9 -8,7 -19,8 -29,9z"/>
     <path class="fil101" d="M1610 457c8,-6 17,-9 27,-9 -8,8 -18,7 -27,9z"/>
     <path class="fil125" d="M1582 466c9,-6 18,-10 29,-10 -9,5 -19,9 -29,10z"/>
     <path class="fil126" d="M1714 435c-8,5 -16,11 -25,13l0 0c8,-5 16,-11 25,-13l0 0z"/>
     <path class="fil107" d="M1726 427c8,-3 14,-9 22,-10 -7,5 -13,10 -22,10l0 0z"/>
     <path class="fil107" d="M1674 455c-6,4 -13,8 -20,10 6,-5 12,-10 20,-10l0 0z"/>
     <path class="fil127" d="M1632 474c4,-5 10,-5 16,-6 -3,5 -8,7 -13,7 -1,1 -2,1 -2,0z"/>
     <path class="fil107" d="M1632 474c1,0 2,0 2,0 -6,4 -13,8 -20,10 5,-5 11,-8 18,-11z"/>
     <path class="fil109" d="M1688 448c-3,6 -10,5 -14,7 0,0 0,0 0,0 3,-6 8,-7 14,-7 0,0 0,0 0,0z"/>
     <path class="fil128" d="M1713 435c2,-5 7,-6 13,-7 0,0 0,0 0,0 -2,5 -8,6 -13,7 0,0 0,0 0,0z"/>
     <path class="fil129" d="M1763 416c-2,4 -3,9 -9,9 2,-4 5,-7 9,-9z"/>
     <path class="fil118" d="M1726 455c-3,3 -7,5 -10,8 1,-5 4,-8 10,-8 0,0 0,0 0,0z"/>
     <path class="fil63" d="M1854 951c-2,-28 3,-56 2,-85 0,-2 0,-3 2,-4 2,28 -3,56 -2,84 0,2 0,4 -2,5z"/>
     <path class="fil107" d="M1883 834c8,-4 16,-9 25,-9 -7,8 -17,7 -25,9z"/>
     <path class="fil59" d="M1872 511c0,0 1,1 1,1 0,7 0,14 0,20 -4,5 -2,10 -2,15 0,9 0,19 0,28 -4,5 -2,10 -2,15 0,10 0,21 0,31 -4,4 -2,9 -2,14 0,10 0,20 0,30 -6,3 -4,8 -3,13 0,6 -1,10 -8,9 -3,0 -5,0 -6,4 0,0 -1,1 -1,1 -9,3 -19,0 -28,2 -1,0 -2,1 -3,1 -9,1 -18,1 -26,0 0,0 -1,0 -1,0 -14,0 -14,0 -14,-15 0,-55 0,-110 0,-165 22,0 44,-2 67,-2 10,0 20,-2 30,-1z"/>
     <path class="fil59" d="M1674 511c32,1 65,3 97,4 0,55 0,110 0,165 0,15 0,15 -14,15 0,0 -1,0 -1,0 -9,0 -18,1 -26,0 -1,0 -2,0 -3,-1 -6,-1 -11,0 -17,-1 -4,0 -7,1 -10,-3 -2,-4 -6,-4 -9,-3 -6,1 -7,-2 -7,-7 -1,-17 -2,-34 -2,-52 0,-4 -1,-7 -3,-10 0,-12 0,-23 0,-35 0,-3 1,-6 -2,-8 0,-12 0,-23 0,-35 0,-3 1,-6 -2,-8 0,-7 0,-14 0,-20 0,-1 0,-1 1,-1z"/>
     <path class="fil59" d="M1849 691c16,0 15,-3 14,15 -2,35 -3,69 -4,104 0,8 -2,17 -2,25 0,4 -1,6 -5,5 -2,0 -4,0 -6,2l0 0c-6,2 -13,-1 -20,2l0 0c-15,0 -30,0 -45,5 -4,1 -7,0 -7,-5 0,-47 0,-94 0,-141 0,-4 1,-7 6,-6 3,0 6,1 8,-2l0 0c10,-3 20,1 29,-2l0 0c7,-2 14,0 21,-1 3,0 7,1 10,-1l0 0z"/>
     <path class="fil59" d="M1683 691c5,0 10,-1 14,1 10,-1 20,-1 31,0l0 0c10,3 20,-1 29,2l0 0c0,0 1,1 1,1 4,2 10,-2 12,3 2,4 1,10 1,15 0,42 0,85 0,127 0,7 -2,10 -9,9 -1,-2 -3,-3 -5,-3 -20,0 -39,-5 -58,-4 -1,-2 -3,-2 -5,-2 -5,1 -6,-2 -6,-7 0,-6 2,-12 -2,-18l0 0c-3,-4 -2,-9 -2,-13 0,-12 0,-23 0,-35 -1,-3 -2,-6 -2,-10 0,-19 0,-38 -2,-57 0,-3 -1,-7 2,-10z"/>
     <path class="fil97" d="M1827 845c6,-4 13,-1 20,-2 -6,4 -13,1 -20,2z"/>
     <path class="fil103" d="M1683 691c0,23 3,47 2,70 0,2 1,4 2,6 -2,12 0,25 -1,37 0,4 1,8 -1,11 -2,-1 -2,-3 -2,-5 1,-22 -2,-44 -2,-66 0,-18 -2,-35 -2,-53 1,0 3,0 4,0z"/>
     <path class="fil116" d="M1685 816c0,-13 0,-27 0,-40 0,-3 -1,-6 2,-8 0,16 0,32 0,49 -1,0 -1,0 -2,0z"/>
     <path class="fil130" d="M1728 693c-10,0 -20,0 -31,0 1,-1 1,-1 2,-2 10,1 19,-2 29,2z"/>
     <path class="fil131" d="M1849 691c-10,4 -21,1 -31,2 10,-4 21,-1 31,-2z"/>
     <path class="fil70" d="M1818 693c-9,4 -19,1 -29,2 9,-4 19,-1 29,-2z"/>
     <path class="fil104" d="M1757 695c-10,-1 -20,2 -29,-2 10,1 20,-2 29,2z"/>
    </g>
   </g>
  </g>
 </g>
</svg>
