<?xml version="1.0" encoding="UTF-8"?>
<!DOCTYPE svg PUBLIC "-//W3C//DTD SVG 1.1//EN" "http://www.w3.org/Graphics/SVG/1.1/DTD/svg11.dtd">
<!-- Creator: CorelDRAW 2017 -->
<svg xmlns="http://www.w3.org/2000/svg" xml:space="preserve" width="3.70333in" height="2.08333in" version="1.1" style="shape-rendering:geometricPrecision; text-rendering:geometricPrecision; image-rendering:optimizeQuality; fill-rule:evenodd; clip-rule:evenodd"
viewBox="0 0 3703 2083"
 xmlns:xlink="http://www.w3.org/1999/xlink">
 <defs>
  <style type="text/css">
   <![CDATA[
    .fil4 {fill:#05A6F0}
    .fil3 {fill:#81BC06}
    .fil0 {fill:#E6E7E8}
    .fil2 {fill:#F35325}
    .fil5 {fill:#FFBA08}
    .fil6 {fill:#2B2A29;fill-rule:nonzero}
    .fil7 {fill:#373435;fill-opacity:0.031373}
    .fil1 {fill:#2B2A29;fill-opacity:0.078431}
   ]]>
  </style>
 </defs>
 <g id="Layer_x0020_1">
  <metadata id="CorelCorpID_0Corel-Layer"/>
  <polygon class="fil0" points="0,0 3703,0 3703,2083 0,2083 "/>
  <polygon class="fil1" points="0,1449 0,1338 0,1325 0,1321 0,1309 0,1058 0,947 0,908 0,757 1087,257 1074,263 1063,269 1051,277 1040,285 1030,294 1021,303 1012,314 1003,325 996,337 989,350 983,363 978,377 973,392 969,407 966,423 965,432 964,441 963,451 962,462 961,469 1149,383 1160,379 1173,376 1187,374 1203,372 1220,371 1239,370 1265,370 958,510 958,510 958,524 957,539 956,554 956,570 956,586 955,604 955,621 955,626 1280,479 1280,738 1862,479 1862,495 2438,239 2438,370 2464,370 2483,371 2500,372 2516,374 2530,376 2543,379 2554,383 2563,388 2571,393 2577,399 2583,406 2588,414 2593,423 2597,434 2600,445 2602,457 2604,471 2604,475 2604,481 2604,487 2605,495 2605,503 2605,513 2605,524 2605,535 2605,548 2605,562 2605,576 2606,592 2606,609 2606,627 2606,645 2606,665 2606,687 2606,709 2607,729 2608,749 2609,767 2611,785 2613,803 2615,819 2618,835 2621,849 2624,863 2628,876 2632,889 2636,900 2640,911 2645,921 2650,930 2656,939 2662,948 2669,957 2676,965 2683,973 2691,981 2699,989 2708,996 2717,1003 2727,1010 2737,1017 2748,1024 2759,1030 2770,1036 2782,1042 2764,1050 2747,1059 2731,1069 2717,1079 2703,1090 2690,1102 2678,1115 2668,1128 2663,1136 2658,1143 2654,1151 2649,1159 2645,1167 2641,1175 2638,1184 2634,1193 2631,1203 2628,1212 2626,1219 2851,1125 2863,1120 2877,1116 2891,1113 2906,1111 2922,1110 2622,1236 2620,1243 2618,1254 2616,1265 2614,1277 2613,1284 2613,1293 2612,1303 2611,1314 2611,1326 2610,1340 2610,1355 2609,1371 2609,1388 2608,1406 2608,1426 2608,1446 2608,1468 2607,1491 2607,1516 2607,1541 2607,1554 2607,1567 2606,1579 2606,1591 2605,1602 2603,1612 2602,1622 2600,1631 2598,1639 2596,1647 2594,1654 2591,1661 2589,1667 2586,1672 2583,1677 2579,1681 2571,1689 2561,1695 2550,1701 2438,1746 2438,1845 2485,1845 2502,1845 2518,1844 2533,1843 2547,1842 2559,1841 2570,1840 2580,1838 2589,1836 2600,1832 2611,1828 1981,2083 1851,2083 1613,2083 1534,2083 1240,2083 718,2083 695,2083 674,2083 602,2083 567,2083 317,2083 152,2083 0,2083 0,2044 0,1867 0,1825 0,1807 0,1624 0,1581 0,1456 "/>
  <g id="_2533410421616">
   <g>
    <polygon class="fil0" points="1280,755 1818,515 1818,645 1280,883 "/>
    <polygon class="fil0" points="1280,883 1818,645 1818,1019 1280,1019 "/>
    <polygon class="fil0" points="1280,738 1818,498 1818,1019 1280,1019 "/>
   </g>
   <g>
    <polygon class="fil0" points="1862,495 1899,479 2194,479 1862,625 "/>
    <polygon class="fil0" points="1862,625 2194,479 2400,479 2400,1019 1862,1019 "/>
   </g>
   <g>
    <polygon class="fil0" points="1707,1605 1818,1558 1818,1573 1743,1605 "/>
    <polygon class="fil0" points="1818,1449 1450,1605 1280,1605 1280,1064 1818,1064 "/>
    <polygon class="fil0" points="1450,1605 1818,1449 1818,1605 "/>
    <polygon class="fil0" points="1280,1271 1759,1064 1818,1064 1818,1268 1280,1498 "/>
    <polygon class="fil0" points="1759,1064 1280,1271 1280,1064 "/>
    <polygon class="fil0" points="1280,1315 1818,1083 1818,1605 1280,1605 "/>
    <polygon class="fil0" points="1715,1064 1280,1252 1280,1064 "/>
   </g>
   <g>
    <polygon class="fil0" points="1862,1540 2400,1314 2400,1329 1862,1555 "/>
    <polygon class="fil0" points="2400,1203 1862,1431 1862,1064 2400,1064 "/>
    <polygon class="fil0" points="1862,1431 2400,1203 2400,1605 1862,1605 "/>
    <polygon class="fil0" points="2296,1064 1862,1249 1862,1064 "/>
   </g>
   <g>
    <path class="fil0" d="M2626 1219l225 -94c-12,5 -24,12 -34,21 -6,5 -12,10 -17,16l-178 75c1,-6 3,-12 4,-17z"/>
    <path class="fil0" d="M2606 665l0 22c0,-7 0,-15 0,-22zm0 22l0 21c0,-7 0,-14 0,-21zm0 21l1 20c0,-7 -1,-13 -1,-20zm1 20l1 20c0,-6 -1,-13 -1,-20zm1 20l1 19c-1,-6 -1,-12 -1,-19zm1 19l2 18c-1,-6 -1,-12 -2,-18zm2 18l2 17c-1,-6 -1,-11 -2,-17zm2 17l2 16c-1,-5 -2,-11 -2,-16zm2 16l3 16c-1,-5 -2,-10 -3,-16zm3 16l3 15c-1,-5 -2,-10 -3,-15zm3 15l3 14c-1,-5 -2,-9 -3,-14zm3 14l4 13c-1,-4 -2,-9 -4,-13zm4 13l4 12c-1,-4 -3,-8 -4,-12zm4 12l4 12c-1,-4 -3,-8 -4,-12zm4 12l4 11c-2,-3 -3,-7 -4,-11zm4 11l5 10c-2,-3 -3,-6 -5,-10zm5 10l5 9c-2,-3 -4,-6 -5,-9zm5 9l6 9c-2,-3 -4,-6 -6,-9zm6 9l6 9c-2,-3 -4,-6 -6,-9zm6 9l7 9c-2,-3 -4,-6 -7,-9zm7 9l7 8c-2,-3 -5,-6 -7,-8zm7 8l7 8c-3,-3 -5,-5 -7,-8zm7 8l8 8c-3,-3 -5,-5 -8,-8zm8 8l8 8c-3,-3 -6,-5 -8,-8zm8 8l9 7c-3,-2 -6,-5 -9,-7zm9 7l9 7c-3,-2 -6,-5 -9,-7zm9 7l10 7c-3,-2 -7,-5 -10,-7zm10 7l10 7c-3,-2 -7,-4 -10,-7zm10 7l11 7c-4,-2 -7,-4 -11,-7zm11 7l11 6c-4,-2 -7,-4 -11,-6zm11 6l11 6c-4,-2 -8,-4 -11,-6zm11 6l12 6c-4,-2 -8,-4 -12,-6z"/>
    <path class="fil0" d="M2782 1042l-18 8c6,-3 12,-6 18,-8zm-18 8l-17 9c5,-3 11,-6 17,-9zm-17 9l-16 10c5,-3 10,-7 16,-10zm-16 10l-15 10c5,-4 10,-7 15,-10zm-15 10l-14 11c4,-4 9,-8 14,-11zm-14 11l-13 12c4,-4 8,-8 13,-12zm-13 12l-12 13c4,-4 8,-9 12,-13zm-12 13l-11 14c3,-5 7,-9 11,-14zm-11 14l-5 7c2,-2 3,-5 5,-7zm-5 7l-5 7c2,-3 3,-5 5,-7zm-5 7l-5 8c1,-3 3,-5 5,-8zm-5 8l-4 8c1,-3 3,-5 4,-8zm-4 8l-4 8c1,-3 3,-6 4,-8zm-4 8l-4 9c1,-3 3,-6 4,-9zm-4 9l-4 9c1,-3 2,-6 4,-9zm-4 9l-3 9c1,-3 2,-6 3,-9zm-3 9l-3 9c1,-3 2,-6 3,-9zm-3 9l-3 10c1,-3 2,-6 3,-10zm-3 10l-3 10c1,-3 2,-7 3,-10zm-3 10l-3 10c1,-3 2,-7 3,-10zm-3 10l-2 11c1,-4 2,-7 2,-11zm-2 11l-2 11c1,-4 1,-7 2,-11zm-2 11l-2 11c1,-4 1,-7 2,-11zm-2 11l-2 11c1,-4 1,-8 2,-11zm-2 11l-1 8c0,-3 1,-5 1,-8zm-65 424l-112 46 0 -33 26 0c36,0 65,-4 86,-12z"/>
    <path class="fil0" d="M2485 1845l17 0c-6,0 -11,0 -17,0zm17 0l16 0c-5,0 -11,0 -16,0zm16 0l15 -1c-5,0 -10,1 -15,1zm15 -1l14 -1c-4,0 -9,1 -14,1zm14 -1l12 -1c-4,0 -8,1 -12,1zm12 -1l11 -2c-3,1 -7,1 -11,2zm11 -2l10 -2c-3,1 -6,1 -10,2zm10 -2l9 -2c-3,1 -5,1 -9,2zm9 -2l11 -4c-4,1 -8,2 -11,4zm11 -4l11 -4c-4,1 -7,3 -11,4z"/>
   </g>
   <g>
    <path class="fil0" d="M781 977l9 -4c39,-2 71,-14 96,-35 6,-5 11,-10 16,-15l181 -81c-6,32 -15,58 -26,79 -25,47 -67,86 -125,116l-151 67 0 -127z"/>
    <path class="fil0" d="M1144 1841l121 -51 0 15 -92 39c-11,-1 -21,-1 -29,-3z"/>
    <path class="fil0" d="M961 469l183 -83c-4,2 -8,4 -11,7 -14,11 -23,28 -29,51l-146 66c1,-15 2,-29 3,-41z"/>
    <path class="fil0" d="M781 1103l151 -67c-4,2 -8,4 -12,6 49,21 87,49 114,86 27,37 45,86 54,148 5,37 7,125 7,265 0,73 9,120 28,140 14,16 39,25 75,29l-174 74c-15,-15 -27,-34 -38,-55 -14,-28 -23,-66 -28,-113 -3,-30 -4,-91 -4,-184 -1,-93 -5,-158 -14,-197 -9,-38 -27,-68 -54,-90 -27,-22 -62,-34 -105,-35l0 -7z"/>
    <path class="fil0" d="M1025 1784l174 -74c12,1 26,2 40,2l26 0 0 132 -47 0c-48,0 -83,-3 -104,-9 -31,-9 -57,-22 -77,-39 -5,-4 -9,-8 -13,-12z"/>
    <path class="fil0" d="M955 1412l139 -60c2,46 2,109 2,189 0,12 0,24 1,35l-135 58c-1,-6 -2,-12 -2,-18 -3,-30 -4,-91 -4,-184l0 -20z"/>
    <path class="fil0" d="M921 899l166 -74c-7,40 -16,72 -29,96 -27,50 -72,91 -137,121 49,21 87,49 114,86 27,37 45,86 54,148 2,16 3,41 5,75l-139 60c-1,-82 -6,-141 -14,-176 -9,-38 -27,-68 -54,-90 -27,-22 -62,-34 -105,-35l0 -137c43,-1 78,-13 105,-35 14,-11 25,-24 34,-40z"/>
    <path class="fil0" d="M955 626l143 -65c0,29 0,63 0,104 0,120 -13,205 -40,255 -27,50 -72,91 -137,121 49,21 86,49 113,85l-118 52c-8,-13 -18,-24 -30,-34 -27,-22 -62,-34 -105,-35l0 -137c43,-1 78,-13 105,-35 27,-22 45,-52 54,-91 9,-38 14,-107 14,-207l0 -14z"/>
    <path class="fil0" d="M955 1455l140 -60c1,40 1,89 1,146 0,73 9,120 28,140 19,21 57,31 115,31l26 0 0 132 -47 0c-48,0 -83,-3 -104,-9 -31,-9 -57,-22 -77,-39 -20,-17 -37,-40 -51,-68 -14,-28 -23,-66 -28,-113 -2,-27 -4,-81 -4,-161z"/>
    <path class="fil0" d="M917 1179l118 -52 1 1c27,37 45,86 54,148 2,13 3,32 4,57l-139 60c-2,-73 -6,-125 -14,-158 -5,-21 -13,-40 -24,-57z"/>
    <path class="fil0" d="M987 1729l131 -56c2,3 4,6 6,8 19,21 57,31 115,31l26 0 0 123 -21 9 -26 0c-48,0 -83,-3 -104,-9 -31,-9 -57,-22 -77,-39 -20,-17 -37,-40 -51,-68l0 0z"/>
    <path class="fil0" d="M935 1215l121 -53c16,32 27,70 33,114 5,37 7,125 7,265 0,64 7,109 22,132l-131 56c-14,-28 -23,-66 -28,-113 -3,-30 -4,-91 -4,-184 -1,-93 -5,-158 -14,-197 -2,-7 -4,-14 -6,-21z"/>
    <path class="fil0" d="M1075 263l12 -5 -12 6c-4,2 -8,4 -12,7l-11 7c-4,3 -7,5 -11,8l-10 9c-3,3 -7,6 -10,10l-9 11c-3,4 -6,7 -8,11l-8 12c-2,4 -5,8 -7,13l-6 13c-2,5 -4,9 -5,14l-4 15c-1,5 -3,10 -4,15l-3 16c1,-6 2,-11 3,-16l4 -15c1,-5 3,-10 4,-15l5 -14c2,-5 4,-9 6,-13l7 -13c2,-4 5,-8 8,-12l8 -11c3,-4 6,-7 9,-11l10 -10c3,-3 7,-6 10,-9l11 -8c4,-3 7,-5 11,-7l12 -7 1 0zm-222 696l-71 32 0 -17c27,-1 51,-6 71,-15z"/>
    <path class="fil0" d="M959 1616l2 17c1,6 2,11 2,16l3 15c1,5 2,10 3,15l4 14c1,4 3,9 4,13l4 12c2,4 3,8 5,11l5 10c2,3 4,7 6,10l6 9c2,3 4,6 6,9l6 8c2,3 4,5 7,8l7 7c2,2 5,5 7,7l8 6c3,2 5,4 8,6l9 5c3,2 6,3 9,5l10 5c3,2 7,3 10,4l11 4c4,1 8,2 11,4l9 2c3,1 6,1 10,2l11 2c4,0 8,1 12,1l14 1c5,0 10,1 15,1l16 0c6,0 11,0 17,0l-17 0c-6,0 -11,0 -16,0l-15 -1c-5,0 -9,-1 -14,-1l-12 -1c-4,0 -8,-1 -11,-2l-10 -2c-3,-1 -6,-1 -9,-2l-11 -4c-4,-1 -7,-3 -11,-4l-10 -4c-3,-2 -7,-3 -10,-5l-9 -5c-3,-2 -6,-4 -9,-5l-8 -6c-3,-2 -5,-4 -8,-6l-7 -7c-2,-2 -5,-5 -7,-7l-7 -8c-2,-3 -4,-5 -6,-8l-6 -9c-2,-3 -4,-6 -6,-9l-6 -10c-2,-3 -4,-7 -5,-10l-5 -11c-2,-4 -3,-8 -4,-12l-4 -13c-1,-4 -3,-9 -4,-14l-3 -15c-1,-5 -2,-10 -3,-15l-2 -16c-1,-6 -1,-11 -2,-17z"/>
   </g>
  </g>
  <g id="_2533410418608">
   <g>
    <rect class="fil2" x="1280" y="479" width="538" height="541"/>
    <rect class="fil3" x="1862" y="479" width="538" height="541"/>
    <rect class="fil4" x="1280" y="1064" width="538" height="541"/>
    <rect class="fil5" x="1862" y="1064" width="538" height="541"/>
   </g>
   <path class="fil6" d="M2922 973l0 137c-43,1 -78,13 -105,35 -27,22 -45,53 -54,90 -9,38 -14,104 -14,197 0,93 -2,154 -4,184 -5,47 -14,85 -28,113 -14,28 -30,51 -51,68 -20,17 -46,30 -77,39 -21,6 -56,9 -104,9l-47 0 0 -132 26 0c58,0 96,-11 115,-31 19,-21 28,-68 28,-140 0,-139 2,-227 7,-265 9,-62 27,-111 54,-148 27,-37 65,-66 114,-86 -65,-31 -110,-71 -137,-121 -27,-51 -40,-136 -40,-255 0,-108 -1,-174 -2,-195 -4,-37 -15,-63 -33,-78 -18,-15 -54,-22 -107,-22l-26 0 0 -132 47 0c54,0 94,5 119,13 36,12 65,33 88,62 23,29 38,65 45,109 7,44 11,116 11,217 1,100 5,170 14,207 9,38 27,68 54,91 27,22 62,34 105,35z"/>
   <path class="fil6" d="M781 973l0 137c43,1 78,13 105,35 27,22 45,53 54,90 9,38 14,104 14,197 0,93 2,154 4,184 5,47 14,85 28,113 14,28 30,51 51,68 20,17 46,30 77,39 21,6 56,9 104,9l47 0 0 -132 -26 0c-58,0 -96,-11 -115,-31 -19,-21 -28,-68 -28,-140 0,-139 -2,-227 -7,-265 -9,-62 -27,-111 -54,-148 -27,-37 -65,-66 -114,-86 65,-31 110,-71 137,-121 27,-51 40,-136 40,-255 0,-108 1,-174 2,-195 4,-37 15,-63 33,-78 18,-15 54,-22 107,-22l26 0 0 -132 -47 0c-54,0 -94,5 -119,13 -36,12 -65,33 -88,62 -23,29 -38,65 -45,109 -7,44 -11,116 -11,217 -1,100 -5,170 -14,207 -9,38 -27,68 -54,91 -27,22 -62,34 -105,35z"/>
  </g>
 </g>
 <g id="Layer_x0020_1_0">
  <metadata id="CorelCorpID_1Corel-Layer"/>
  <path class="fil7" d="M219 1825c7,11 12,21 16,32 3,7 5,19 21,19 5,0 11,-1 17,-5 7,-3 12,-9 14,-17l6 -21 15 -7 1 1c-2,8 -2,15 -2,21 0,18 15,24 27,24 7,0 13,-3 13,-10 0,-8 -4,-22 -8,-35 7,-7 14,-14 22,-20l1 1c4,15 6,30 6,40 0,10 -4,20 -8,27 -7,14 -20,25 -36,25 -12,0 -25,-6 -34,-17l-1 0c-9,11 -22,20 -43,20l-7 0c-1,14 -4,24 -8,33 -13,25 -50,42 -85,42 -49,0 -73,-28 -73,-66 0,-23 7,-45 19,-60l10 4c-7,14 -12,27 -12,40 0,35 29,52 61,52 30,0 68,-20 75,-42 -2,-25 -12,-36 -26,-59 4,-7 10,-15 17,-23l1 0 0 0 0 0 0 0 0 0 1 1zm563 -132c10,6 20,14 30,23 -6,8 -12,15 -21,21 -10,-8 -20,-15 -30,-22 7,-8 14,-15 20,-22l0 0 1 0zm5 96c-17,0 -30,11 -30,19 0,17 33,23 73,23 -5,-20 -22,-42 -43,-42l0 0zm-37 93c22,0 41,-1 55,-4 16,-4 30,-12 30,-18 0,-2 0,-3 -1,-5 -9,1 -19,1 -29,1 -29,0 -52,-7 -60,-23 -2,-4 -4,-10 -4,-15 0,-16 7,-32 19,-42 10,-9 21,-14 33,-14 20,0 37,17 48,42 6,14 11,30 11,51 0,14 -4,25 -12,34 -16,15 -45,21 -90,21l-20 0 0 0 -5 0c-11,0 -19,-2 -25,-7l-1 0c0,2 1,5 1,7 0,10 -3,23 -10,33 -20,30 -42,43 -60,43 -19,0 -42,-7 -63,-17l4 -7c7,3 16,5 29,5 34,0 78,-33 84,-64 -1,-3 -3,-6 -7,-10 -10,-12 -16,-22 -22,-32 5,-10 10,-18 14,-25l2 0c14,29 28,46 57,46l4 0 0 0 21 0 0 0 0 0 0 0 0 0 -3 0zm-146 31c2,-14 3,-29 3,-43l0 -21c0,-39 -5,-96 -9,-133 7,-8 17,-17 25,-23l2 1c5,47 7,101 7,151 0,13 -1,26 -2,35 -1,12 -8,21 -22,35l-3 -1 0 0 0 0 0 0 0 0 -1 -1zm-151 -62c1,18 10,33 41,33 20,0 36,-5 55,-14 3,-2 5,-3 5,-5 0,-12 -9,-27 -24,-41 -14,-13 -34,-25 -51,-32 -6,-3 -8,-5 -8,-8 0,-5 7,-17 13,-24l2 0c20,11 43,27 60,44 15,16 25,33 25,51 0,13 -4,26 -11,38 -22,11 -46,20 -70,20 -29,0 -48,-13 -48,-45 0,-3 0,-9 1,-16l10 0 0 0 0 0 0 0 0 0 0 -1zm-52 -52l18 29c7,11 13,22 13,41l0 24c0,19 -12,39 -32,60 -15,14 -29,20 -42,20 -19,0 -40,-6 -65,-17l3 -7c8,2 17,4 28,4 35,0 72,-26 88,-58 2,-4 3,-7 3,-9 0,-4 -2,-8 -4,-11 -9,-17 -19,-33 -30,-47 6,-9 12,-18 18,-27l2 0 0 0 0 0 0 0 0 0 0 -2z"/>
 </g>
</svg>
