<?xml version="1.0" encoding="UTF-8"?>
<!DOCTYPE svg PUBLIC "-//W3C//DTD SVG 1.1//EN" "http://www.w3.org/Graphics/SVG/1.1/DTD/svg11.dtd">
<!-- Creator: CorelDRAW 2017 -->
<svg xmlns="http://www.w3.org/2000/svg" xml:space="preserve" width="3.70333in" height="2.08333in" version="1.1" style="shape-rendering:geometricPrecision; text-rendering:geometricPrecision; image-rendering:optimizeQuality; fill-rule:evenodd; clip-rule:evenodd"
viewBox="0 0 3703 2083"
 xmlns:xlink="http://www.w3.org/1999/xlink">
 <defs>
  <style type="text/css">
   <![CDATA[
    .str0 {stroke:#2B2A29;stroke-width:6.94488}
    .fil2 {fill:none}
    .fil4 {fill:#2B2A29}
    .fil0 {fill:#E6E7E8}
    .fil5 {fill:#FEFEFE}
    .fil6 {fill:#2B2A29;fill-rule:nonzero}
    .fil3 {fill:#373435;fill-opacity:0.031373}
    .fil1 {fill:#2B2A29;fill-opacity:0.078431}
   ]]>
  </style>
 </defs>
 <g id="Layer_x0020_1">
  <metadata id="CorelCorpID_0Corel-Layer"/>
  <polygon class="fil0" points="0,0 3703,0 3703,2083 0,2083 "/>
  <polygon class="fil1" points="0,1926 0,1910 0,1870 0,1867 0,1856 0,1838 0,1834 0,1834 0,1833 0,1815 0,1813 0,1804 0,1774 0,1774 0,1750 0,1722 0,1713 0,1687 0,1647 0,1646 0,1641 0,1548 0,1508 0,1411 0,1259 1639,450 1618,461 1598,473 1578,486 1558,499 1540,514 1522,529 1505,545 1489,562 1474,580 1459,599 1445,618 1433,638 1421,658 1410,679 1400,701 1391,723 1387,735 1557,653 1619,726 1619,769 1761,878 2051,741 2052,742 2053,744 2055,748 2056,753 2058,759 2060,766 2062,773 2065,782 2067,791 2069,801 2072,811 2075,822 2077,832 2080,843 2083,854 2086,865 2089,875 2092,885 2095,895 2098,904 2101,913 2104,921 2108,928 2111,933 2114,938 2117,942 2120,945 2123,949 2127,953 2131,957 2136,962 2141,967 2145,973 2151,978 2156,984 2161,990 2166,996 2172,1002 2177,1008 2183,1015 2188,1021 2194,1027 2199,1033 2204,1039 2209,1045 2214,1050 2219,1055 2223,1060 2227,1065 2231,1070 2234,1074 2237,1077 2240,1080 2242,1083 2244,1085 2246,1087 2246,1088 2247,1088 2159,1128 2180,1128 1686,1353 1706,1360 1729,1367 1753,1372 1777,1376 1802,1379 1826,1381 1852,1382 1877,1381 1902,1379 1926,1376 1950,1372 1974,1367 1997,1360 2020,1352 2042,1343 1525,1577 1522,1587 1592,1555 1592,1591 1672,1555 1672,1597 1762,1557 1757,1559 1753,1562 1748,1566 1744,1570 1742,1572 1740,1574 1739,1577 1737,1579 1736,1582 1734,1585 1733,1588 1732,1591 1731,1594 1730,1597 1730,1600 1730,1600 1777,1579 1779,1578 1782,1578 1784,1577 1787,1577 1789,1577 1791,1578 1794,1578 1796,1579 1798,1580 1800,1582 1802,1583 1804,1585 1805,1587 1807,1589 1808,1591 1809,1594 1810,1597 1810,1600 1811,1603 1811,1604 1922,1555 1940,1580 2094,1511 2091,1513 2088,1514 2085,1516 2082,1518 2079,1521 2077,1523 2075,1526 2073,1528 2071,1531 2070,1534 2069,1537 2068,1540 2067,1543 2066,1546 2066,1549 2066,1553 2066,1556 2109,1537 2111,1536 2114,1535 2117,1535 2120,1534 2124,1534 2127,1534 2131,1534 2134,1534 2137,1534 2140,1535 2142,1536 2145,1537 2147,1538 2149,1539 2151,1541 2152,1543 2154,1545 2155,1547 2156,1550 2157,1552 2158,1555 2158,1557 2261,1511 2228,1531 2228,1555 2213,1562 2213,1581 2228,1581 2228,1588 2304,1555 2304,1575 2352,1555 2350,1555 2349,1556 2347,1557 2345,1559 2344,1560 2342,1562 2340,1564 2338,1567 2336,1570 2335,1573 2304,1586 2304,1603 2351,1583 2352,1583 2354,1582 2356,1582 2357,1582 2359,1582 2361,1582 2362,1582 2364,1582 2423,1557 2418,1559 2413,1562 2409,1566 2405,1570 2403,1572 2401,1574 2399,1577 2398,1579 2396,1582 2395,1585 2394,1588 2393,1591 2392,1594 2391,1597 2390,1600 2438,1579 2440,1578 2442,1578 2445,1577 2447,1577 2450,1577 2452,1578 2454,1578 2457,1579 2459,1580 2461,1582 2462,1583 2464,1585 2466,1587 2467,1589 2469,1591 2469,1592 2549,1557 2546,1559 2542,1561 2540,1563 2537,1566 2534,1569 2532,1572 2530,1576 2528,1579 2527,1583 2525,1588 2540,1590 2565,1579 2567,1579 2569,1578 2570,1578 2572,1578 2574,1577 2576,1577 2579,1577 2582,1578 2585,1578 2587,1578 2589,1579 2591,1580 2593,1580 2594,1581 2595,1583 2595,1583 2660,1555 2660,1578 2713,1555 2708,1557 2703,1560 2699,1563 2694,1567 2690,1572 2660,1585 2660,1600 2707,1580 2709,1579 2711,1578 2712,1578 2714,1578 2716,1577 2718,1577 2719,1577 2721,1578 2722,1578 2723,1578 2725,1578 2726,1579 2727,1579 2728,1580 2728,1580 2783,1556 2781,1557 2779,1559 2776,1560 2774,1562 2772,1563 2770,1565 2768,1567 2766,1570 2763,1572 2732,1585 2733,1586 2733,1588 2733,1589 2734,1591 2734,1593 2734,1596 2734,1599 2735,1600 2783,1579 2785,1578 2787,1578 2788,1578 2790,1577 2792,1577 2794,1577 2796,1578 2798,1578 2800,1579 2801,1580 2803,1581 2804,1583 2806,1584 2806,1586 2807,1588 2808,1590 2808,1593 2808,1596 2809,1600 2809,1604 2809,1608 2809,1678 2841,1678 1887,2083 1856,2083 1816,2083 1785,2083 1744,2083 1713,2083 1691,2083 1660,2083 1636,2083 1626,2083 1608,2083 1589,2083 1574,2083 1557,2083 1537,2083 1530,2083 1521,2083 1508,2083 1503,2083 1488,2083 1474,2083 1466,2083 1454,2083 1446,2083 1442,2083 1438,2083 1421,2083 1401,2083 1401,2083 1381,2083 1371,2083 1370,2083 1368,2083 1348,2083 1337,2083 1279,2083 1235,2083 1230,2083 1215,2083 1204,2083 1165,2083 1155,2083 1143,2083 1134,2083 1123,2083 1113,2083 1098,2083 1085,2083 1082,2083 1068,2083 1036,2083 1026,2083 1013,2083 1011,2083 999,2083 996,2083 977,2083 973,2083 966,2083 962,2083 904,2083 893,2083 873,2083 866,2083 831,2083 815,2083 812,2083 808,2083 803,2083 791,2083 762,2083 739,2083 738,2083 734,2083 734,2083 722,2083 693,2083 647,2083 617,2083 585,2083 582,2083 505,2083 495,2083 441,2083 419,2083 408,2083 401,2083 341,2083 310,2083 291,2083 278,2083 232,2083 163,2083 160,2083 105,2083 104,2083 88,2083 69,2083 52,2083 29,2083 0,2083 0,2074 0,2062 0,2055 0,2034 0,2017 0,2001 0,1994 0,1984 0,1965 0,1953 0,1928 "/>
  <g id="_1704746778736">
   <g>
    <path class="fil0" d="M1389 1054l661 -314 1 1 1 2 2 4 2 5 2 6 2 7 2 8 2 9 2 9 2 10 3 10 3 11 3 11 3 11 3 11 3 11 3 11 3 10 3 10 3 9 3 9 3 8 3 7 3 6 3 5 3 4 -620 288c-47,-50 -85,-109 -108,-176z"/>
    <path class="fil0" d="M1425 1134l622 -293 0 0 0 1 -1 1 -1 1 -1 2 -1 2 -2 2 -2 3 -2 3 -3 3 -3 3 -3 3 -3 4 -4 4 -4 4 -4 4 -5 4 -5 4 -5 4 -6 4 -6 4 -6 4 -6 4 -7 4 -7 4 -7 4 -8 4 -503 236c-6,-9 -12,-18 -17,-28z"/>
    <path class="fil0" d="M1497 1230l620 -288 3 3 4 4 4 4 4 4 4 5 5 5 5 5 5 6 5 6 5 6 5 6 5 6 5 6 5 6 5 6 5 6 5 6 5 6 5 6 5 6 5 5 4 5 4 5 4 4 3 4 3 4 3 3 2 3 2 2 1 2 1 1 0 0 -572 261c-68,-26 -129,-67 -178,-119z"/>
    <polygon class="fil0" points="1440,1158 1902,942 1902,942 1903,941 1905,940 1908,939 1911,938 1915,936 1441,1159 "/>
    <polygon class="fil0" points="1440,1158 1902,941 1902,942 1440,1158 "/>
    <path class="fil0" d="M1430 1141l417 -196 44 41 -430 201c-11,-15 -21,-30 -31,-46z"/>
    <path class="fil0" d="M1387 735l170 -83 62 73 -255 123c3,-39 11,-77 24,-114z"/>
    <path class="fil0" d="M1364 849l255 -123 0 43 -257 124 0 -1c0,-14 1,-29 2,-43z"/>
    <path class="fil0" d="M1362 893l257 -124 228 176 -417 196c-43,-73 -68,-158 -68,-248z"/>
    <path class="fil0" d="M1460 1187l430 -201 45 42 -437 203c-13,-14 -26,-29 -38,-44z"/>
    <path class="fil0" d="M1498 1231l437 -203 180 100 -463 212c-58,-26 -111,-63 -155,-109z"/>
    <path class="fil0" d="M1402 1087l291 -137 3 2 3 3 4 4 5 4 5 4 6 5 6 5 6 5 7 6 7 6 7 6 8 6 8 6 8 6 8 6 8 6 8 6 8 6 7 6 7 6 7 6 7 5 6 5 6 5 5 4 5 4 4 3 4 3 3 2 2 2 1 1 0 0 -345 160c-53,-47 -95,-105 -124,-171z"/>
    <path class="fil0" d="M1653 1340l463 -212 64 0 -493 225c-11,-4 -23,-9 -33,-13z"/>
    <path class="fil0" d="M1392 1063l292 -138 -2 1 -2 2 -1 2 0 2 1 2 1 3 2 3 3 3 3 4 4 4 -291 137c-4,-8 -7,-16 -10,-25z"/>
    <path class="fil0" d="M1430 1142l267 -126 151 112 -307 142c-44,-36 -82,-80 -111,-129z"/>
    <path class="fil0" d="M1371 987l203 -97 -2 1 -2 2 -2 3 -1 3 -1 3 -1 4 -1 4 -1 4 0 4 0 4 0 4 0 4 1 4 1 4 1 3 -185 88c-4,-14 -8,-29 -11,-44z"/>
    <path class="fil0" d="M1382 1031l185 -88 1 3 2 4 2 4 2 4 3 5 3 5 3 5 3 5 3 5 4 5 4 5 4 5 4 4 4 4 4 4 4 3 -205 97c-12,-25 -22,-51 -30,-78z"/>
    <path class="fil0" d="M1412 1108l205 -97 4 3 5 4 5 5 5 5 5 6 5 6 5 6 5 6 5 6 5 5 4 5 4 4 3 4 2 3 1 2 0 1 -222 104c-18,-24 -33,-49 -47,-76z"/>
    <path class="fil0" d="M1412 1108l171 -80 53 62 -183 86c-15,-21 -29,-44 -40,-67z"/>
    <polygon class="fil0" points="1372,992 1469,946 1471,946 1372,993 "/>
    <path class="fil0" d="M1639 450l-21 11c-7,4 -14,8 -21,12l-20 13c-7,4 -13,9 -19,14l-19 15c-6,5 -12,10 -18,15l-17 16c-6,6 -11,11 -16,17l-15 18c-5,6 -10,12 -15,19l-14 19c-4,7 -9,13 -13,20l-12 21c-4,7 -7,14 -11,21l-10 22c-3,7 -6,15 -9,22l-8 23c-2,8 -5,15 -7,23l-5 24c-2,8 -3,16 -4,24l-3 25c-1,8 -1,17 -2,25l-1 25c0,8 0,17 1,25l2 25c1,8 2,16 3,25l4 24c2,8 3,16 5,24l7 23c2,8 5,15 8,23l9 22c3,7 6,15 10,22l11 21c4,7 8,14 12,21l13 20c4,7 9,13 14,19l15 19c5,6 10,12 15,18l16 17c6,6 11,11 17,16l18 15c6,5 12,10 19,15l19 14c7,4 13,9 20,13l21 12c7,4 14,7 21,11l22 10c7,3 15,6 22,9l23 8c8,2 15,5 23,7l24 5c8,2 16,3 24,4l25 3c8,1 17,1 25,2l25 1c8,0 17,0 25,-1l25 -2c8,-1 16,-2 25,-3l24 -4c8,-2 16,-3 24,-5l23 -7c8,-2 15,-5 23,-8l22 -9c-7,3 -15,6 -22,9l-23 8c-8,2 -15,5 -23,7l-24 5c-8,2 -16,3 -24,4l-25 3c-8,1 -17,1 -25,2l-25 1c-8,0 -17,0 -25,-1l-25 -2c-8,-1 -16,-2 -25,-3l-24 -4c-8,-2 -16,-3 -24,-5l-23 -7c-8,-2 -15,-5 -23,-8l-22 -9c-7,-3 -15,-6 -22,-10l-21 -11c-7,-4 -14,-8 -21,-12l-20 -13c-7,-4 -13,-9 -19,-14l-19 -15c-6,-5 -12,-10 -18,-15l-17 -16c-6,-6 -11,-11 -16,-17l-15 -18c-5,-6 -10,-12 -15,-19l-14 -19c-4,-7 -9,-13 -13,-20l-12 -21c-4,-7 -7,-14 -11,-21l-10 -22c-3,-7 -6,-15 -9,-22l-8 -23c-2,-8 -5,-15 -7,-23l-5 -24c-2,-8 -3,-16 -4,-24l-3 -25c-1,-8 -1,-17 -2,-25l-1 -25c0,-8 0,-17 1,-25l2 -25c1,-8 2,-16 3,-25l4 -24c2,-8 3,-16 5,-24l7 -23c2,-8 5,-15 8,-23l9 -22c3,-7 6,-15 10,-22l11 -21c4,-7 8,-14 12,-21l13 -20c4,-7 9,-13 14,-19l15 -19c5,-6 10,-12 15,-18l16 -17c6,-6 11,-11 17,-16l18 -15c6,-5 12,-10 19,-15l19 -14c7,-4 13,-9 20,-13l21 -12c7,-4 14,-7 21,-11z"/>
   </g>
   <g>
    <path class="fil0" d="M1522 992l57 -27c10,17 25,37 38,47 21,16 64,69 64,69l-98 -53 53 62 -114 -98zm130 -61l109 -52 86 67 44 41 44 41 -21 10 -136 -76c0,0 -21,-43 -62,-41 -41,2 -46,7 -23,30 16,16 99,84 145,122l-1 1 -186 -142z"/>
    <path class="fil0" d="M1594 1054l8 -4 22 26 -3 1 -27 -23zm20 -9l25 -12c8,8 16,17 23,25l-12 6 -36 -19zm116 -55l6 -3c9,7 18,15 28,23l-4 2 -29 -22zm54 -26l55 -26 8 6 19 18 -46 22 -35 -20z"/>
    <path class="fil0" d="M1837 1072l1 -1c19,16 33,26 33,26l-34 -26zm76 -36l21 -10 1 1 180 100 43 0 7 -3 -172 -43 -81 -45z"/>
    <path class="fil0" d="M1618 1075l3 -2 0 0 -3 2 0 0zm27 -13l14 -6 0 0 -13 6 -1 0zm110 -52l5 -2 0 0 -5 2 0 0zm60 -28l47 -22 0 0 -47 22 -1 0z"/>
    <path class="fil0" d="M1617 1074l3 -2 1 1 -3 2 -1 -1zm27 -13l14 -7 1 1 -14 6 -1 -1zm111 -52l5 -2 1 1 -5 2 -1 -1zm60 -28l47 -22 1 1 -47 22 -1 -1z"/>
    <path class="fil0" d="M1601 1060l6 -3 28 33 -34 -30zm22 -10l22 -10c18,20 36,41 36,41l-57 -31zm114 -54l6 -3c15,12 31,26 47,39l-3 1 -50 -38zm56 -26l53 -25 44 41 -37 17 -60 -33z"/>
    <polygon class="fil0" points="1557,653 1619,726 1483,792 1496,774 1523,703 "/>
    <polygon class="fil0" points="1483,792 1619,726 1619,769 1459,846 1457,827 "/>
    <path class="fil0" d="M1459 846l160 -77 228 176 -53 25 -16 -9c0,0 -21,-43 -62,-41 -41,2 -46,7 -23,30 7,7 27,24 50,44l-6 3 -139 -106c0,0 -11,0 -23,0 -11,0 -16,37 -9,53 7,16 30,53 50,69 8,6 18,16 28,28l-22 10 -41 -22 25 29 -6 3 -133 -114 2 0 -12 -100z"/>
    <path class="fil0" d="M1787 1034l3 -1c18,15 35,29 49,40l-1 1 -51 -39zm66 -31l37 -17 45 42 -21 10 -61 -34z"/>
    <path class="fil0" d="M1838 1073l1 -1c19,15 31,25 31,25l-32 -25zm77 -36l21 -10 128 71 -69 -17 -80 -44z"/>
    <path class="fil0" d="M1551 1017l48 -23c6,7 12,13 17,18 21,16 64,69 64,69l-98 -53 53 62 -85 -73zm132 -62l10 -5c1,1 2,2 3,2 1,1 2,2 3,3l4 4 5 4 5 4 6 5 6 5 6 5 7 6 7 6 7 6 8 6 8 6 8 6 8 6 8 6 8 6 8 6 7 6 7 6 7 6 7 5 6 5 6 5 5 4 5 4 4 3 4 3 3 2 2 2 1 1 0 0 -188 -143z"/>
    <path class="fil0" d="M1529 998l54 -26c5,7 10,15 16,22l-48 23 -22 -19zm130 -62l24 -11c0,0 -1,0 -1,1 -1,0 -1,1 -2,2 0,1 -1,1 -1,2 0,1 0,1 0,2 0,1 0,2 1,2 0,1 1,2 1,3 1,1 1,2 2,3 1,1 2,2 3,3 1,1 2,2 3,4 1,1 3,3 4,4l-10 5 -24 -18z"/>
    <path class="fil0" d="M1603 1062l6 -3 27 31 -33 -28zm23 -11l21 -10c18,19 34,40 34,40l-55 -30z"/>
    <path class="fil0" d="M1470 940l104 -50c-1,0 -1,1 -2,1 -1,1 -1,1 -2,2 -1,1 -1,2 -2,3 0,1 -1,2 -1,3 0,1 -1,2 -1,3 0,1 -1,3 -1,4 0,1 -1,3 -1,4l0 0 0 0 0 0c0,1 0,3 -1,4 0,1 0,3 0,4 0,1 0,3 0,4 0,1 0,3 0,4 0,1 0,3 0,4 0,1 0,3 1,4 0,1 1,2 1,4 0,1 1,2 1,3l-65 31 -33 -28 2 0 -1 -6z"/>
    <path class="fil0" d="M1501 974l65 -31c0,1 1,2 1,3 1,1 1,2 2,4 1,1 1,3 2,4 1,1 2,3 2,4 1,1 2,3 3,5 1,2 2,3 3,5 1,2 2,3 3,5 1,2 2,3 3,5 1,2 2,3 3,5 1,2 2,3 4,5 1,2 2,3 4,5 1,2 3,3 4,5 1,1 3,3 4,4 1,1 3,3 4,4 1,1 3,3 4,4 1,1 3,2 4,3l-34 16 0 0 0 0 -12 6 -69 -60z"/>
    <path class="fil0" d="M1570 1034l12 -6 53 62 -65 -56zm12 -6l34 -16 4 3 5 4 5 5 5 5 5 6 5 6 5 6 5 6 1 1 1 1 1 1 1 1 1 1 1 1 2 3 4 5 1 1 1 1 1 1 1 1 1 1 1 1 1 1 1 1 1 1 1 1 1 1 0 1 0 1 0 0 0 0 0 0 0 0 0 0 0 0 0 0 -98 -53z"/>
    <polygon class="fil0" points="1570,1034 1583,1028 1636,1090 "/>
    <polygon class="fil0" points="1469,946 1471,946 1469,947 "/>
   </g>
   <g>
    <path class="fil0" d="M2050 741l1 0 1 1 1 2 2 4 2 5 2 6 2 7 2 8 2 9 2 9 2 10 3 10 3 11 3 11 3 11c1,4 2,7 3,11 1,4 2,7 3,11 1,4 2,7 3,11 1,3 2,7 3,10 1,3 2,7 3,10 1,3 2,6 3,9 1,3 2,6 3,9 1,3 2,5 3,8 1,2 2,5 3,7 1,2 2,4 3,6 1,2 2,3 3,5 1,1 2,3 3,4l-14 7 -55 -108c0,0 -43,73 -146,100l0 1c0,0 148,-55 146,-171 0,-19 0,-28 2,-30z"/>
    <path class="fil0" d="M2021 853l27 -12 0 0 0 1 -1 1 -1 1 -1 2 -1 2 -2 2 -2 3 -2 3 -3 3 -3 3 -3 3 -3 4 -4 4 -4 4 -4 4 -5 4 -5 4 -5 4 -6 4 -6 4 -6 4 -6 4 -7 4 -7 4 -7 4 -8 4c-13,6 -28,11 -44,16l0 1c0,0 77,-29 119,-89z"/>
    <polygon class="fil0" points="2102,949 2117,942 2120,945 2123,949 2127,953 2131,957 2136,962 2141,967 2145,973 2151,978 2156,984 2161,990 2166,996 2172,1002 2177,1008 2183,1015 2188,1021 2194,1027 2199,1033 2204,1039 2209,1045 2214,1050 2219,1055 2223,1060 2227,1065 2231,1070 2234,1074 2237,1077 2240,1080 2242,1083 2244,1085 2246,1087 2246,1088 2247,1088 2121,985 "/>
    <polygon class="fil0" points="1908,939 1909,939 1910,939 1915,936 1911,938 "/>
   </g>
   <g>
    <line class="fil2" x1="1698" y1="1017" x2="1797" y2= "1091" />
    <line class="fil2" x1="1698" y1="1017" x2="1718" y2= "1032" />
    <line class="fil2" x1="1797" y1="1091" x2="1849" y2= "1129" />
    <line class="fil2" x1="1715" y1="1030" x2="1715" y2= "1030" />
    <line class="fil2" x1="1714" y1="1029" x2="1715" y2= "1030" />
    <line class="fil2" x1="1698" y1="1017" x2="1747" y2= "1053" />
    <line class="fil2" x1="1747" y1="1053" x2="1799" y2= "1092" />
    <line class="fil2" x1="1799" y1="1092" x2="1849" y2= "1129" />
    <line class="fil2" x1="1698" y1="1017" x2="1831" y2= "1116" />
    <line class="fil2" x1="1698" y1="1017" x2="1849" y2= "1129" />
   </g>
   <g>
    <polygon class="fil0" points="899,1508 862,1526 862,1508 "/>
    <path class="fil0" d="M1933 1661l79 -35 13 19 -30 13 -11 -17 -21 31 -16 7 -27 0 12 -18zm156 -69l46 -20 1 0c13,3 24,6 32,10l-49 22c-13,-3 -22,-7 -30,-11zm77 -34l26 -11c1,3 1,7 1,10l-27 1zm63 -3l-15 7 0 -7 15 0zm-151 66l-17 7c0,-2 -1,-4 -1,-6l17 -2z"/>
    <path class="fil0" d="M1937 1654l72 -32 3 4 -79 35 5 -7zm146 -64l43 -19c2,1 5,1 7,2l-46 20c-2,-1 -3,-2 -4,-3zm74 -33l32 -14c0,1 1,3 1,4l-26 11 -7 0 0 -2z"/>
    <path class="fil0" d="M2086 1671l42 -18 2 0c11,0 19,-2 25,-7 3,-2 5,-5 6,-7l36 -16c0,2 0,4 0,7 0,1 0,2 0,4l-101 44c-4,-1 -8,-3 -11,-5zm142 -62l33 -14 0 10 -33 14 0 -10zm76 -33l30 -13 0 10 -30 13 0 -10zm47 -21l-2 1c1,0 1,-1 2,-1zm-2 1l-2 1c1,0 1,-1 2,-1zm-2 1l-2 1c1,0 1,-1 2,-1zm-2 1l-2 1c1,-1 1,-1 2,-1zm-2 1l-2 2c1,-1 1,-1 2,-2zm-2 2l-2 2c1,-1 1,-1 2,-2zm-2 2l-2 2c1,-1 1,-1 2,-2zm-2 2l-2 2c1,-1 1,-2 2,-2zm-2 2l-2 3c1,-1 1,-2 2,-3zm-2 3l-2 3c1,-1 1,-2 2,-3z"/>
    <path class="fil0" d="M2263 1681l22 -10 1 5c-7,3 -14,4 -22,5zm41 -18l33 -14 0 20 -21 9 -12 0 0 -15zm85 -37l47 -20 35 0c0,-5 -1,-10 -3,-14l27 -12c3,5 5,11 6,17l-65 28 -14 0c0,2 0,4 0,6l-30 13c-2,-6 -3,-12 -4,-18zm160 -69l0 0 -4 2c1,-1 2,-1 3,-2zm-3 2l-3 2c1,-1 2,-1 3,-2zm-3 2l-3 2c1,-1 2,-2 3,-2zm-3 2l-3 3c1,-1 2,-2 3,-3zm-3 3l-2 3c1,-1 2,-2 2,-3zm-2 3l-2 3c1,-1 1,-2 2,-3zm-2 3l-2 3c1,-1 1,-2 2,-3zm-2 3l-2 4c1,-1 1,-3 2,-4zm-2 4l-2 4c0,-1 1,-3 2,-4zm-2 4l-1 4c0,-2 1,-3 1,-4z"/>
    <path class="fil0" d="M2005 1672l30 -13 4 5 -30 13 -3 -5zm60 -26l31 -14c1,2 2,4 3,5l-31 14c-1,-2 -2,-4 -3,-5zm80 -35l39 -17c1,1 3,3 4,5l-35 16c-2,-1 -4,-2 -6,-2 -1,0 -1,0 -2,-1z"/>
    <path class="fil0" d="M1932 1678l36 -16 -11 16 -26 0zm59 -26l30 -13 14 20 -30 13 -13 -20zm117 -51l50 -22c5,2 10,4 13,6 5,2 9,6 12,9l-39 17c-5,-1 -13,-4 -25,-7 -4,-1 -8,-2 -11,-3zm-13 31l-31 14c-3,-7 -5,-14 -6,-23l34 -3c1,5 2,9 3,12z"/>
    <path class="fil0" d="M1935 1656l75 -33 7 11 -29 13 -5 -7 -8 13 -54 24 14 -20zm150 -66l44 -19c2,0 4,1 5,1 5,1 10,3 15,4l-50 22c-6,-2 -11,-5 -15,-7z"/>
    <path class="fil0" d="M1782 1681l53 -23c-4,6 -8,11 -14,14 -9,6 -20,9 -34,9 -2,0 -4,0 -6,0zm175 -77l77 -34 -31 43 7 10 -75 33 29 -42 -8 -11zm109 -48l43 -19c-2,1 -3,2 -5,3 -4,3 -5,6 -5,11 0,4 2,7 5,10 4,3 13,7 26,10l-44 19c-2,-1 -3,-2 -4,-3 -10,-9 -15,-19 -16,-31z"/>
    <path class="fil0" d="M2427 1678l75 -32c-1,3 -2,6 -4,9l-60 26c-4,0 -7,-1 -11,-2zm96 -41l108 -46c0,2 0,4 0,7l-109 47c0,-3 0,-5 1,-7zm138 -59l30 -13 0 7 -30 13 0 -7zm48 -21l5 -2 -5 2 0 0zm0 0l-5 3c2,-1 3,-2 5,-3zm-5 3l-5 3c1,-1 3,-2 5,-3zm-5 3l-4 4c1,-1 3,-3 4,-4zm-4 4l-4 5c1,-2 3,-3 4,-5z"/>
    <path class="fil0" d="M2232 1669l34 -15c1,0 2,1 3,1 3,0 7,-1 13,-3l3 25c-8,3 -16,5 -26,5 -6,0 -11,-1 -16,-3 -5,-2 -8,-5 -10,-8 0,-1 -1,-1 -1,-2zm72 -31l33 -14c0,5 0,11 0,17l0 24 -32 14 -1 0 0 -41zm86 -37l47 -21c-3,1 -6,3 -8,6 -5,5 -7,12 -7,21l49 0 -46 20 -3 0 0 1 -31 13c-2,-7 -3,-15 -3,-23 0,-6 1,-12 2,-18z"/>
    <path class="fil0" d="M2528 1666l31 -13 1 1c2,2 4,3 6,4l-33 14c-2,-2 -3,-3 -5,-5zm70 -30l32 -14 0 7 -34 14c0,-1 0,-1 1,-2 0,-1 1,-3 1,-6zm62 -27l35 -15c-1,2 -1,5 -2,8l-33 14 0 -7zm67 -29l32 -14c1,2 3,4 4,6l-31 13c-1,-2 -3,-4 -4,-5zm56 -24l-2 1c1,0 2,-1 2,-1zm-2 1l-2 1c1,0 2,-1 2,-1zm-2 1l-2 1c1,-1 2,-1 2,-1zm-2 1l-2 2c1,-1 2,-1 2,-2zm-2 2l-2 2c1,-1 1,-1 2,-2zm-2 2l-2 2c1,-1 1,-1 2,-2zm-2 2l-2 2c1,-1 1,-1 2,-2zm-2 2l-2 2c1,-1 1,-2 2,-2zm-2 2l-2 2c1,-1 1,-2 2,-2z"/>
    <path class="fil0" d="M2549 1680l82 -35c0,7 1,13 1,17 1,5 3,11 6,17l-32 0c-1,-2 -2,-5 -3,-10 -1,-2 -1,-3 -1,-4 -6,5 -11,10 -18,12 -6,3 -13,4 -20,4 -5,0 -10,-1 -14,-2zm112 -48l33 -14 0 1 0 60 -33 0 0 -47zm74 -32l48 -21c-1,1 -3,1 -4,2 -4,3 -7,7 -9,12 -2,5 -3,14 -3,25l0 59 -33 0 0 -68c0,-4 0,-8 0,-11z"/>
    <path class="fil0" d="M2524 1658l31 -13c1,3 2,6 5,8 3,3 8,5 13,5 6,0 11,-2 17,-6 4,-3 7,-7 8,-11 1,-3 1,-8 1,-15l32 -14 0 25c0,11 1,19 2,24 1,5 3,11 6,17l-32 0c-1,-2 -2,-5 -3,-10 -1,-2 -1,-3 -1,-4 -6,5 -11,10 -18,12 -6,3 -13,4 -20,4 -13,0 -23,-3 -30,-10 -4,-4 -7,-8 -9,-13zm136 -59l47 -20c-1,1 -2,1 -3,2 -4,3 -7,7 -9,12 -2,5 -3,14 -3,25l0 60 -33 0 0 -79z"/>
    <path class="fil0" d="M2405 1665l29 -13c4,3 9,4 14,4 5,0 9,-1 13,-4 3,-3 6,-7 8,-13l33 5c-4,12 -11,21 -20,27 -9,6 -20,9 -34,9 -19,0 -33,-5 -44,-16zm90 -39l9 -4c0,1 0,2 0,4l-9 0zm100 -43l30 -13 0 1c3,5 4,15 4,29l0 38c0,11 1,19 2,24 1,5 3,11 6,17l-32 0c-1,-2 -2,-5 -3,-10 -1,-2 -1,-3 -1,-4 -6,5 -11,10 -18,12 -6,3 -13,4 -20,4 -13,0 -23,-3 -30,-10 -7,-7 -11,-16 -11,-26 0,-7 2,-13 5,-19 3,-5 8,-10 14,-13 6,-3 15,-5 26,-8 15,-3 26,-6 32,-8l0 -3c0,-5 -1,-9 -3,-12zm3 36c-4,1 -11,3 -20,5 -9,2 -15,4 -18,6 -4,3 -6,7 -6,11 0,5 2,9 5,12 3,3 8,5 13,5 6,0 11,-2 17,-6 4,-3 7,-7 8,-11 1,-3 1,-8 1,-16l0 -6z"/>
    <path class="fil0" d="M2442 1681l54 -23c-2,3 -4,6 -7,9l-34 15c-2,0 -4,0 -6,0 -2,0 -5,0 -7,0zm80 -35l42 -18c-1,0 -2,1 -3,1 -3,2 -5,5 -6,8l-32 14c0,-2 -1,-4 -1,-6z"/>
    <path class="fil0" d="M2336 1678l1 0 0 0 -1 0zm60 -26l29 -12c1,3 3,6 5,9 5,5 11,8 19,8 5,0 9,-1 13,-4 3,-3 6,-7 8,-13l24 4 -75 32c-7,-3 -13,-9 -18,-15 -2,-3 -3,-5 -5,-8zm61 -26l46 -20c1,6 1,13 1,20l-47 0zm83 -36l26 -11c-1,0 -2,1 -3,2 -3,2 -6,6 -8,12l-15 -3zm59 8l-73 32c1,-1 1,-2 2,-4 3,-5 8,-10 14,-13 6,-3 15,-5 26,-8 15,-3 26,-6 32,-8z"/>
    <path class="fil0" d="M2455 1681l34 -15c-2,2 -4,4 -7,6 -8,5 -17,8 -27,9zm68 -29l32 -14c0,1 0,2 0,3 0,5 2,9 5,12 3,3 8,5 13,5 4,0 7,-1 11,-2l-45 19c-2,-1 -4,-3 -6,-4 -6,-5 -9,-12 -10,-19z"/>
    <path class="fil0" d="M2316 1678l21 -9 0 9 -21 0zm77 -33l30 -13c1,6 3,11 6,15l-28 12c-3,-4 -6,-9 -7,-15zm43 -19l65 -28c1,5 2,11 2,17l-26 11 -41 0z"/>
    <path class="fil0" d="M2563 1681l38 -16c-6,5 -11,10 -18,12 -6,3 -13,4 -20,4l0 0z"/>
    <path class="fil0" d="M2304 1677l33 -14 0 15 -33 0 0 -1zm87 -38l31 -13c0,10 3,17 8,23 2,3 5,4 8,6l-30 13c-2,-2 -5,-5 -7,-7 -4,-6 -8,-13 -10,-21zm81 0l-3 1c0,-1 0,-1 1,-2l3 0z"/>
    <path class="fil0" d="M2410 1670l32 -14c2,0 4,1 6,1 5,0 9,-1 13,-4 2,-2 4,-4 6,-7l11 -5 24 4c-4,12 -11,21 -20,27 -9,6 -20,9 -34,9 -16,0 -28,-4 -38,-11zm132 -57l0 0 0 0 0 0 0 0 -2 1 1 -1zm-1 1l-2 1c1,0 1,-1 2,-1zm-2 1l-2 1c1,0 1,-1 2,-1zm-2 1l-2 1c1,0 1,-1 2,-1zm-2 1l-2 2c1,-1 1,-1 2,-2zm-2 2l-2 2c1,-1 1,-1 2,-2zm-2 2l-2 2c1,-1 1,-1 2,-2zm-2 2l-1 2c0,-1 1,-1 1,-2zm-1 2l-1 2c0,-1 1,-1 1,-2zm-1 2l-1 2c0,-1 1,-1 1,-2zm-1 2l-1 2c0,-1 1,-1 1,-2zm-1 2l-1 2c0,-1 1,-1 1,-2zm-1 2l-1 2c0,-1 0,-2 1,-2zm-1 2l-1 2c0,-1 0,-2 1,-2zm-1 2l0 2c0,-1 0,-2 0,-2zm0 2l0 3c0,-1 0,-2 0,-3zm0 3l0 3c0,-1 0,-2 0,-3zm0 3l0 4c0,-1 0,-3 0,-4zm0 4l1 4c0,-1 0,-2 -1,-4zm1 4l1 4c0,-1 -1,-2 -1,-4zm1 4l1 3c0,-1 -1,-2 -1,-3zm1 3l2 3c-1,-1 -1,-2 -2,-3zm2 3l2 3c-1,-1 -1,-2 -2,-3zm2 3l2 3c-1,-1 -2,-2 -2,-3zm2 3l3 3c-1,-1 -2,-2 -3,-3zm3 3l3 2c-1,-1 -2,-2 -3,-2zm3 2l3 2c-1,-1 -2,-1 -3,-2zm3 2l3 2c-1,-1 -2,-1 -3,-2zm3 2l4 1c-1,0 -2,-1 -4,-1zm4 1l4 1c-1,0 -3,-1 -4,-1zm4 1l4 1c-1,0 -3,0 -4,-1zm4 1l4 0c-1,0 -3,0 -4,0zm4 0l5 0c-2,0 -3,0 -5,0zm5 0l3 0c-1,0 -2,0 -3,0zm3 0l3 0c-1,0 -2,0 -3,0zm3 0l3 0c-1,0 -2,0 -3,0zm3 0l3 0c-1,0 -2,0 -3,0zm3 0l3 -1c-1,0 -2,0 -3,1zm3 -1l2 -1c-1,0 -2,0 -2,1zm2 -1l2 -1c-1,0 -2,1 -2,1zm2 -1l2 -1c-1,0 -2,1 -2,1z"/>
    <path class="fil0" d="M2406 1667l30 -13c4,2 8,3 13,3 3,0 6,-1 8,-2l-42 18c-3,-2 -6,-4 -9,-7z"/>
    <path class="fil0" d="M2137 1681l50 -22c-5,7 -12,12 -21,16 -8,3 -18,5 -29,6zm91 -40l33 -14 0 3c0,10 0,16 1,18 0,2 1,3 3,4 2,1 3,2 6,2 3,0 7,-1 13,-3l3 25c-8,3 -16,5 -26,5 -6,0 -11,-1 -16,-3 -5,-2 -8,-5 -10,-8 -2,-3 -4,-7 -5,-13 -1,-3 -1,-8 -1,-16zm76 -33l38 -17c-1,2 -2,4 -3,7 -2,7 -3,20 -3,41l0 38 -33 0 0 -70zm60 -26l14 -6 -4 11c-3,-2 -7,-4 -10,-5zm58 -25l1 0 -5 2c1,-1 3,-2 4,-2zm-4 2l-5 3c2,-1 3,-2 5,-3zm-5 3l-4 4c1,-1 3,-2 4,-4zm-4 4l-4 4c1,-1 3,-3 4,-4zm-4 4l-2 2c1,-1 1,-1 2,-2zm-2 2l-2 2c1,-1 1,-2 2,-2zm-2 2l-2 2c1,-1 1,-2 2,-2zm-2 2l-2 3c1,-1 1,-2 2,-3zm-2 3l-1 3c0,-1 1,-2 1,-3zm-1 3l-1 3c0,-1 1,-2 1,-3zm-1 3l-1 3c0,-1 1,-2 1,-3zm-1 3l-1 3c0,-1 1,-2 1,-3zm-1 3l-1 3c0,-1 1,-2 1,-3zm-1 3l-1 3c0,-1 1,-2 1,-3zm-1 3l-1 3c0,-1 0,-2 1,-3zm-1 3l-1 3c0,-1 0,-2 1,-3zm-1 3l0 3c0,-1 0,-2 0,-3zm0 3l0 4c0,-1 0,-2 0,-4zm0 4l0 4c0,-1 0,-2 0,-4zm0 4l0 4c0,-1 0,-3 0,-4zm0 4l0 6c0,-2 0,-4 0,-6zm0 6l1 6c0,-2 0,-4 -1,-6zm1 6l1 6c0,-2 -1,-4 -1,-6zm1 6l1 5c-1,-2 -1,-4 -1,-5zm1 5l2 5c-1,-2 -1,-3 -2,-5zm2 5l2 5c-1,-2 -1,-3 -2,-5zm2 5l2 5c-1,-2 -2,-3 -2,-5zm2 5l3 4c-1,-1 -2,-3 -3,-4zm3 4l2 3c-1,-1 -1,-2 -2,-3zm2 3l2 2c-1,-1 -1,-2 -2,-2zm2 2l2 2c-1,-1 -2,-1 -2,-2zm2 2l2 2c-1,-1 -2,-1 -2,-2zm2 2l3 2c-1,-1 -2,-1 -3,-2zm3 2l3 2c-1,-1 -2,-1 -3,-2zm3 2l3 2c-1,0 -2,-1 -3,-2zm3 2l3 1c-1,0 -2,-1 -3,-1zm3 1l3 1c-1,0 -2,-1 -3,-1zm3 1l3 1c-1,0 -2,-1 -3,-1zm3 1l3 1c-1,0 -2,-1 -3,-1zm3 1l3 1c-1,0 -2,0 -3,-1zm3 1l4 1c-1,0 -2,0 -4,-1zm4 1l4 0c-1,0 -2,0 -4,0zm4 0l4 0c-1,0 -3,0 -4,0zm4 0l4 0c-1,0 -3,0 -4,0zm4 0l5 0c-2,0 -3,0 -5,0zm5 0l5 0c-2,0 -3,0 -5,0zm5 0l5 -1c-1,0 -3,1 -5,1zm5 -1l4 -1c-1,0 -3,1 -4,1zm4 -1l4 -1c-1,0 -3,1 -4,1zm4 -1l4 -2 -2 1c-1,0 -1,0 -2,1z"/>
    <path class="fil0" d="M2126 1681l66 -29c-1,1 -1,2 -2,4 -5,9 -13,15 -23,19 -10,4 -22,6 -37,6 -1,0 -3,0 -4,0zm102 -45l33 -14 0 8 0 6 -32 14c0,-4 0,-8 0,-14zm76 -33l46 -20c-1,1 -2,1 -3,2 -3,3 -6,7 -7,14 0,1 -1,2 -1,3l-35 15 0 -14z"/>
    <path class="fil0" d="M2023 1678l20 -9 6 9 -26 0zm49 -21l32 -14c1,1 1,1 2,2 6,5 14,8 25,8 11,0 19,-2 25,-7 6,-5 8,-10 8,-16 0,-4 -1,-7 -4,-10l0 0 33 -14c4,7 5,15 5,25 0,10 -3,19 -8,27 -5,9 -13,15 -23,19 -10,4 -22,6 -37,6 -22,0 -38,-5 -50,-15 -3,-3 -6,-6 -9,-9zm157 -69l55 -24 0 17 -22 0 0 50c0,10 0,16 1,18 0,2 1,3 3,4 2,1 3,2 6,2 3,0 7,-1 13,-3l3 25c-8,3 -16,5 -26,5 -6,0 -11,-1 -16,-3 -5,-2 -8,-5 -10,-8 -2,-3 -4,-7 -5,-13 -1,-4 -1,-11 -1,-23l0 -46z"/>
    <path class="fil0" d="M2038 1678l8 -4 3 4 -11 0zm37 -16l34 -15c4,2 8,4 12,4l-39 17c-1,-1 -2,-1 -3,-2 -2,-1 -3,-3 -5,-5zm87 -38l32 -14c1,3 2,6 2,9l-34 15c0,-1 1,-3 1,-4 0,-2 0,-4 -1,-5zm66 -29l33 -14 0 10 -33 14 0 -10z"/>
    <path class="fil0" d="M2008 1677l30 -13 10 14 -40 0 -1 -1zm59 -26l31 -14c2,3 4,5 6,7 6,5 14,8 25,8 11,0 19,-2 25,-7 6,-5 8,-10 8,-16 0,-4 -1,-7 -4,-10 -1,-2 -4,-3 -7,-5l35 -16c1,1 2,2 2,3 5,7 7,16 7,27 0,10 -3,19 -8,27 -5,9 -13,15 -23,19 -10,4 -22,6 -37,6 -22,0 -38,-5 -50,-15 -5,-4 -9,-9 -12,-15zm161 3l0 2c0,-1 0,-1 0,-2zm0 2l0 2c0,0 0,-1 0,-2zm0 2l0 2c0,-1 0,-1 0,-2zm0 2l0 2c0,-1 0,-1 0,-2zm0 2l0 2c0,-1 0,-1 0,-2zm0 2l1 2c0,-1 0,-1 -1,-2zm1 2l1 2c0,-1 0,-1 -1,-2zm1 2l1 1c0,0 0,-1 -1,-1zm1 1l1 1c0,0 -1,-1 -1,-1zm1 1l1 1c0,0 -1,-1 -1,-1zm1 1l1 1c0,0 -1,-1 -1,-1zm1 1l1 1c0,0 -1,-1 -1,-1zm1 1l1 1c0,0 -1,-1 -1,-1zm1 1l1 1c0,0 -1,-1 -1,-1zm1 1l1 1c0,0 -1,-1 -1,-1zm1 1l1 1c-1,0 -1,-1 -1,-1zm1 1l2 1c-1,0 -1,-1 -2,-1zm2 1l2 1c-1,0 -1,-1 -2,-1zm2 1l2 1c-1,0 -1,0 -2,-1zm2 1l2 1c-1,0 -1,0 -2,-1zm2 1l2 1c-1,0 -1,0 -2,-1zm2 1l2 0c-1,0 -1,0 -2,0zm2 0l2 0c-1,0 -1,0 -2,0zm2 0l2 0c-1,0 -1,0 -2,0zm2 0l2 0c-1,0 -1,0 -2,0zm2 0l2 0c-1,0 -1,0 -2,0zm2 0l4 0c-1,0 -2,0 -4,0zm4 0l3 0c-1,0 -2,0 -3,0zm3 0l3 0c-1,0 -2,0 -3,0zm3 0l3 -1c-1,0 -2,0 -3,1zm3 -1l3 -1c-1,0 -2,0 -3,1zm3 -1l3 -1c-1,0 -2,1 -3,1zm3 -1l3 -1c-1,0 -2,1 -3,1zm3 -1l3 -1c-1,0 -2,1 -3,1z"/>
    <path class="fil0" d="M1745 1666l29 -13c4,3 9,4 14,4 5,0 9,-1 13,-4 3,-3 6,-7 8,-13l33 5c-4,12 -11,21 -20,27 -9,6 -20,9 -34,9 -18,0 -33,-5 -43,-16zm89 -40l9 -4c0,1 0,3 0,4l-9 0zm105 -47l30 -13 14 22 23 -34 38 0 -42 58 46 65 -40 0 -25 -38 -25 38 -38 0 44 -64 -25 -35zm154 -68l1 0 -3 2c1,0 1,-1 2,-1zm-2 1l-3 2c1,-1 2,-1 3,-2zm-3 2l-3 2c1,-1 2,-1 3,-2zm-3 2l-3 2c1,-1 2,-1 3,-2zm-3 2l-3 2c1,-1 2,-2 3,-2zm-3 2l-2 2c1,-1 2,-2 2,-2zm-2 2l-2 3c1,-1 1,-2 2,-3zm-2 3l-2 3c1,-1 1,-2 2,-3zm-2 3l-2 3c1,-1 1,-2 2,-3zm-2 3l-1 3c0,-1 1,-2 1,-3zm-1 3l-1 3c0,-1 1,-2 1,-3zm-1 3l-1 3c0,-1 1,-2 1,-3zm-1 3l-1 3c0,-1 0,-2 1,-3zm-1 3l-1 3c0,-1 0,-2 1,-3zm-1 3l0 3c0,-1 0,-2 0,-3zm0 3l0 3c0,-1 0,-2 0,-3zm0 3l0 5c0,-2 0,-3 0,-5zm0 5l1 5c0,-2 -1,-3 -1,-5zm1 5l1 5c0,-1 -1,-3 -1,-5zm1 5l2 4c-1,-1 -1,-3 -2,-4zm2 4l2 4c-1,-1 -2,-3 -2,-4zm2 4l3 4c-1,-1 -2,-3 -3,-4zm3 4l3 4c-1,-1 -2,-3 -3,-4zm3 4l4 4c-1,-1 -3,-2 -4,-4zm4 4l3 2c-1,-1 -2,-2 -3,-2zm3 2l4 2c-1,-1 -2,-2 -4,-2zm4 2l4 2c-1,-1 -3,-1 -4,-2zm4 2l5 2c-2,-1 -3,-1 -5,-2zm5 2l5 2c-2,-1 -3,-1 -5,-2zm5 2l6 2c-2,-1 -4,-1 -6,-2zm6 2l6 2c-2,-1 -4,-1 -6,-2zm6 2l7 2c-2,-1 -5,-1 -7,-2zm34 48l-56 24c-4,-2 -8,-5 -12,-8 -12,-10 -18,-24 -21,-43l34 -3c2,11 6,19 12,25 6,5 14,8 25,8 7,0 13,-1 17,-3z"/>
    <path class="fil0" d="M1749 1669l31 -14c3,1 6,1 9,1 5,0 9,-1 13,-4 3,-2 5,-5 7,-10l7 -3 27 5c-1,3 -2,6 -4,8l-62 27c-11,-2 -20,-5 -27,-11zm194 -86l29 -13 12 18 -28 13 -13 -18z"/>
    <path class="fil0" d="M1638 1681l28 -13c-3,3 -6,5 -10,7 -6,3 -12,5 -18,6zm36 -16l30 -13 0 27 -30 0 0 -13zm57 -25l76 -34 4 0 0 -2 28 -13c3,10 4,21 4,35l-82 0c0,10 3,17 8,23 5,5 11,8 19,8 5,0 9,-1 13,-4 3,-3 6,-7 8,-13l33 5c-4,12 -11,21 -20,27 -9,6 -20,9 -34,9 -21,0 -37,-7 -48,-21 -4,-6 -7,-13 -10,-20z"/>
    <path class="fil0" d="M1934 1678l34 -15 -10 15 -24 0zm58 -26l30 -13 27 39 -40 0 -17 -26zm67 -30l0 4c0,-1 0,-2 0,-4zm0 4l1 3c0,-1 0,-2 -1,-3zm1 3l1 3c0,-1 0,-2 -1,-3zm1 3l1 3c0,-1 -1,-2 -1,-3zm1 3l1 3c0,-1 -1,-2 -1,-3zm1 3l1 3c0,-1 -1,-2 -1,-3zm1 3l1 3c0,-1 -1,-2 -1,-3zm1 3l1 3c0,-1 -1,-2 -1,-3zm1 3l1 3c0,-1 -1,-2 -1,-3zm1 3l1 3c-1,-1 -1,-2 -1,-3zm1 3l2 2c-1,-1 -1,-2 -2,-2zm2 2l2 2c-1,-1 -1,-2 -2,-2zm2 2l2 2c-1,-1 -1,-1 -2,-2zm2 2l2 2c-1,-1 -1,-1 -2,-2zm2 2l2 2c-1,-1 -1,-1 -2,-2zm2 2l2 2c-1,-1 -1,-1 -2,-2zm2 2l2 2c-1,-1 -2,-1 -2,-2zm2 2l2 2c-1,-1 -2,-1 -2,-2zm2 2l2 2c-1,-1 -2,-1 -2,-2zm2 2l3 1c-1,0 -2,-1 -3,-1zm3 1l3 1c-1,0 -2,-1 -3,-1zm3 1l3 1c-1,0 -2,-1 -3,-1zm3 1l3 1c-1,0 -2,-1 -3,-1zm3 1l3 1c-1,0 -2,-1 -3,-1zm3 1l3 1c-1,0 -2,-1 -3,-1zm3 1l3 1c-1,0 -2,0 -3,-1zm3 1l3 1c-1,0 -2,0 -3,-1zm3 1l4 1c-1,0 -2,0 -4,-1zm4 1l4 0c-1,0 -2,0 -4,0zm4 0l4 0c-1,0 -3,0 -4,0zm4 0l4 0c-1,0 -3,0 -4,0zm4 0l4 0c-1,0 -3,0 -4,0zm4 0l5 0c-2,0 -4,0 -5,0zm5 0l5 0c-2,0 -3,0 -5,0zm5 0l5 0c-2,0 -3,0 -5,0zm5 0l5 -1c-2,0 -3,0 -5,1zm5 -1l5 -1c-1,0 -3,1 -5,1zm5 -1l4 -1c-1,0 -3,1 -4,1zm4 -1l4 -1c-1,0 -3,1 -4,1zm4 -1l4 -1c-1,1 -3,1 -4,1z"/>
    <path class="fil0" d="M1596 1660l31 -14c1,3 3,5 6,7 3,2 7,3 12,3 6,0 11,-2 15,-5 4,-3 7,-7 9,-11 1,-3 2,-7 2,-14l33 -15 0 42 -30 13 0 -7c-4,5 -8,10 -14,13l-15 7c-4,1 -8,2 -12,2 -8,0 -16,-2 -22,-5 -7,-4 -11,-9 -14,-15l0 -1zm133 -60l47 -21c-3,1 -6,3 -8,6 -5,5 -7,12 -7,21l49 0 -45 20 -4 0c0,1 0,1 0,2l-30 14c-2,-7 -3,-15 -3,-24 0,-6 1,-12 1,-17z"/>
    <path class="fil0" d="M1638 1681l28 -12c-3,3 -6,5 -10,7 -6,3 -12,5 -18,6zm36 -16l30 -13 0 27 -30 0 0 -13zm57 -25l31 -14c0,10 3,17 8,23 3,3 5,5 9,6l-30 13c-3,-2 -5,-5 -7,-8 -4,-6 -7,-13 -10,-20zm82 0l-4 2c0,-1 1,-2 1,-2l3 1z"/>
    <path class="fil0" d="M1746 1667l30 -13c4,2 8,3 12,3 3,0 6,-1 9,-2l-42 18c-3,-2 -6,-4 -9,-7z"/>
    <path class="fil0" d="M1490 1678l40 -18 -6 18 -33 0zm102 -45l33 -15c0,14 1,22 2,25 1,4 3,7 7,9 3,2 7,3 12,3 6,0 11,-2 15,-5 4,-3 7,-7 9,-11 2,-5 2,-16 2,-33l0 -10 33 -15 0 96 -30 0 0 -18c-5,7 -10,12 -18,16 -7,4 -15,6 -23,6 -8,0 -16,-2 -22,-5 -7,-4 -11,-9 -14,-15 -3,-7 -4,-16 -4,-27l0 0zm169 -76l1 -1 -5 2c1,-1 2,-1 4,-2zm-4 2l-5 3c2,-1 3,-2 5,-3zm-5 3l-4 4c1,-1 3,-2 4,-4zm-4 4l-4 4c1,-1 3,-3 4,-4zm-4 4l-2 2c1,-1 1,-1 2,-2zm-2 2l-2 2c1,-1 1,-2 2,-2zm-2 2l-2 2c1,-1 1,-2 2,-2zm-2 2l-2 3c1,-1 1,-2 2,-3zm-2 3l-1 3c0,-1 1,-2 1,-3zm-1 3l-1 3c0,-1 1,-2 1,-3zm-1 3l-1 3c0,-1 1,-2 1,-3zm-1 3l-1 3c0,-1 1,-2 1,-3zm-1 3l-1 3c0,-1 1,-2 1,-3zm-1 3l-1 3c0,-1 1,-2 1,-3zm-1 3l-1 3c0,-1 0,-2 1,-3zm-1 3l-1 3c0,-1 0,-2 1,-3zm-1 3l0 3c0,-1 0,-2 0,-3zm0 3l0 4c0,-1 0,-2 0,-4zm0 4l0 4c0,-1 0,-2 0,-4zm0 4l0 4c0,-1 0,-3 0,-4zm0 4l0 6c0,-2 0,-4 0,-6zm0 6l1 6c0,-2 0,-4 -1,-6zm1 6l1 6c0,-2 -1,-4 -1,-6zm1 6l1 5c-1,-2 -1,-4 -1,-5zm1 5l2 5c-1,-2 -1,-3 -2,-5zm2 5l2 5c-1,-2 -1,-3 -2,-5zm2 5l2 5c-1,-2 -2,-3 -2,-5zm2 5l3 4c-1,-1 -2,-3 -3,-4zm3 4l2 3c-1,-1 -1,-2 -2,-3zm2 3l2 2c-1,-1 -1,-2 -2,-2zm2 2l2 2c-1,-1 -2,-1 -2,-2zm2 2l2 2c-1,-1 -2,-1 -2,-2zm2 2l3 2c-1,-1 -2,-1 -3,-2zm3 2l3 2c-1,-1 -2,-1 -3,-2zm3 2l3 2c-1,0 -2,-1 -3,-2zm3 2l3 1c-1,0 -2,-1 -3,-1zm3 1l3 1c-1,0 -2,-1 -3,-1zm3 1l3 1c-1,0 -2,-1 -3,-1zm3 1l3 1c-1,0 -2,-1 -3,-1zm3 1l3 1c-1,0 -2,0 -3,-1zm3 1l4 1c-1,0 -2,0 -4,-1zm4 1l4 0c-1,0 -2,0 -4,0zm4 0l4 0c-1,0 -3,0 -4,0zm4 0l4 0c-1,0 -3,0 -4,0zm4 0l5 0c-2,0 -3,0 -5,0zm5 0l5 0c-2,0 -3,0 -5,0zm5 0l5 -1c-1,0 -3,1 -5,1zm5 -1l4 -1c-1,0 -3,1 -4,1zm4 -1l4 -1c-1,0 -3,1 -4,1zm4 -1l4 -2 -1 1c-1,0 -2,1 -3,1z"/>
    <path class="fil0" d="M1626 1681l48 -21c-5,7 -10,12 -18,16 -7,4 -15,6 -23,6 -2,0 -4,0 -7,0z"/>
    <path class="fil0" d="M1474 1644l31 -14 1 4 2 -6 40 -18 -24 68 -37 0 -12 -35zm118 -53l33 -15 0 36c0,17 1,28 2,32 1,4 3,7 7,9 3,2 7,3 12,3 4,0 7,-1 10,-2l-46 20c-6,-4 -10,-8 -13,-14 -3,-7 -4,-16 -4,-27l0 -42z"/>
    <path class="fil0" d="M1318 1678l22 -10 0 10 -22 0zm145 -65l31 -14 12 35 16 -48 41 -19 -39 110 -37 0 -23 -65zm129 20l0 4c0,-1 0,-3 0,-4zm0 4l0 4c0,-1 0,-3 0,-4zm0 4l0 4c0,-1 0,-2 0,-4zm0 4l0 4c0,-1 0,-2 0,-4zm0 4l1 3c0,-1 0,-2 -1,-3zm1 3l1 3c0,-1 -1,-2 -1,-3zm1 3l1 3c0,-1 -1,-2 -1,-3zm1 3l1 3c0,-1 -1,-2 -1,-3zm1 3l1 2c0,-1 -1,-2 -1,-2zm1 2l1 2c0,-1 -1,-1 -1,-2zm1 2l2 2c-1,-1 -1,-1 -2,-2zm2 2l2 2c-1,-1 -1,-1 -2,-2zm2 2l2 2c-1,-1 -1,-1 -2,-2zm2 2l2 2c-1,-1 -1,-1 -2,-2zm2 2l2 2c-1,-1 -2,-1 -2,-2zm2 2l2 1c-1,0 -2,-1 -2,-1zm2 1l3 1c-1,0 -2,-1 -3,-1zm3 1l3 1c-1,0 -2,-1 -3,-1zm3 1l3 1c-1,0 -2,-1 -3,-1zm3 1l3 1c-1,0 -2,0 -3,-1zm3 1l3 1c-1,0 -2,0 -3,-1zm3 1l3 0c-1,0 -2,0 -3,0zm3 0l3 0c-1,0 -2,0 -3,0zm3 0l3 0c-1,0 -2,0 -3,0zm3 0l3 0c-1,0 -2,0 -3,0zm3 0l3 0c-1,0 -2,0 -3,0zm3 0l3 0c-1,0 -2,0 -3,0zm3 0l3 -1c-1,0 -2,0 -3,1zm3 -1l3 -1c-1,0 -2,1 -3,1zm3 -1l3 -1c-1,0 -2,1 -3,1zm3 -1l3 -1 0 0 0 0 0 0c-1,0 -1,0 -2,1z"/>
    <path class="fil0" d="M862 1526l37 -17 89 0 0 29 -92 0 0 38 85 0 0 29 -85 0 0 46 95 0 0 12 -36 17 -93 0 0 -153zm465 -17l-19 8 0 -8 19 0zm-69 32l-53 24 0 -56 33 0 19 32zm-81 37l-34 16c0,-19 -4,-34 -13,-43 -9,-10 -20,-14 -34,-14 -14,0 -26,5 -34,15 -9,10 -13,24 -13,44 0,16 3,29 9,38l-32 15c-9,-14 -13,-31 -13,-52 0,-17 3,-32 8,-44 4,-9 9,-16 16,-23 7,-7 14,-12 22,-15 11,-4 23,-7 37,-7 25,0 45,8 60,23 12,12 19,28 22,48z"/>
    <polygon class="fil0" points="903,1508 862,1527 862,1508 "/>
    <polygon class="fil0" points="1931,1664 1984,1640 1958,1678 1920,1678 "/>
    <path class="fil0" d="M862 1527l41 -19 85 0 0 29 -92 0 0 38 85 0 0 29 -85 0 0 46 80 0 -63 29 -52 0 0 -151zm387 -2l-44 20 0 -37 33 0 10 17zm-75 34l-32 15c-2,-10 -6,-19 -11,-25 -9,-10 -20,-14 -34,-14 -14,0 -26,5 -34,15 -9,10 -13,24 -13,44 0,8 1,16 2,22l-32 15c-4,-11 -5,-22 -5,-36 0,-17 3,-32 8,-44 4,-9 9,-16 16,-23 7,-7 14,-12 22,-15 11,-4 23,-7 37,-7 25,0 45,8 60,23 8,8 14,19 18,31z"/>
    <polygon class="fil0" points="985,1508 923,1537 896,1537 896,1549 862,1565 862,1508 "/>
    <path class="fil0" d="M913 1678l63 -29 15 0 0 21 -17 8 -61 0zm105 -48l32 -15c2,9 6,16 11,22l1 1 -32 15c-5,-7 -9,-14 -12,-22zm123 -56l32 -15c2,8 4,17 5,26l-36 16c0,-3 0,-6 0,-9 0,-7 -1,-13 -2,-19zm64 -29l44 -20 14 22 -57 26 0 -28zm135 -34l-32 15 0 -18 32 0 0 3z"/>
    <polygon class="fil0" points="988,1527 967,1537 896,1537 896,1570 862,1585 862,1508 988,1508 "/>
    <path class="fil0" d="M862 1678l0 -170 126 0 0 29 -92 0 0 38 85 0 0 29 -85 0 0 46 95 0 0 29 -129 0zm705 -120l-41 19 23 -68 37 0 -18 50zm-75 34l-31 14 -35 -98 37 0 29 84zm-151 68l-36 16 -67 -109 0 112 -32 0 0 -170 33 0 70 114 0 -114 32 0 0 152zm-327 -65c0,-17 3,-32 8,-44 4,-9 9,-16 16,-23 7,-7 14,-12 22,-15 11,-4 23,-7 37,-7 25,0 45,8 60,23 15,16 23,37 23,65 0,28 -7,49 -22,65 -15,16 -35,23 -60,23 -25,0 -45,-8 -60,-23 -15,-15 -22,-37 -22,-64zm35 -1c0,19 4,34 13,44 9,10 20,15 34,15 14,0 25,-5 34,-15 9,-10 13,-25 13,-44 0,-20 -4,-34 -13,-44 -9,-10 -20,-14 -34,-14 -14,0 -26,5 -34,15 -9,10 -13,24 -13,44z"/>
    <polygon class="fil0" points="862,1553 896,1537 896,1575 906,1575 862,1595 "/>
    <path class="fil0" d="M1205 1663l32 -14 0 30 -32 0 0 -15zm72 -32l29 -13 3 5 0 -6 32 -14 0 76 -34 0 -29 -48zm166 -75l32 -14 32 93 -30 14 -33 -92z"/>
    <path class="fil0" d="M1060 1675l115 -53c-4,14 -10,26 -19,36 -15,16 -35,23 -60,23 -14,0 -26,-2 -36,-7zm146 -66l32 -15 0 84 -32 0 0 -70zm45 -21l29 -13 29 48 0 -61 32 -15 0 131 -34 0 -56 -90z"/>
    <path class="fil0" d="M937 1678l55 -25 0 25 -55 0zm86 -39l32 -15c2,5 5,9 8,12 9,10 20,15 34,15 14,0 25,-5 34,-15 9,-10 13,-25 13,-44 0,-3 0,-6 0,-9l33 -15c2,8 2,16 2,25 0,28 -7,49 -22,65 -15,16 -35,23 -60,23 -25,0 -45,-8 -60,-23 -5,-6 -10,-12 -13,-19zm183 -84l49 -22 55 89 -29 13 -42 -69 0 88 -32 14 0 -114z"/>
    <path class="fil0" d="M1036 1658l33 -15c8,6 17,9 27,9 14,0 25,-5 34,-15 6,-7 10,-16 12,-27l37 -17 0 0c0,28 -7,49 -22,65 -15,16 -35,23 -60,23 -25,0 -45,-8 -60,-23zm169 -77l32 -15 0 112 -32 0 0 -97z"/>
    <path class="fil0" d="M862 1666l36 -16 94 0 0 29 -129 0 0 -12zm151 -70l36 -17c-1,4 -1,9 -1,13 0,19 4,34 13,44 9,10 20,15 34,15 14,0 25,-5 34,-15 9,-10 13,-25 13,-44 0,-20 -4,-34 -13,-44 -1,-2 -3,-3 -4,-4l32 -15c14,15 21,37 21,63 0,28 -7,49 -22,65 -15,16 -35,23 -60,23 -25,0 -45,-8 -60,-23 -15,-15 -22,-36 -22,-62z"/>
    <path class="fil0" d="M862 1637l34 -16 0 28 95 0 0 29 -129 0 0 -41zm73 -34l46 -21 0 21 -46 0zm81 -37l59 -27c-5,2 -9,6 -13,10 -9,10 -13,24 -13,44 0,19 4,34 13,44 9,10 20,15 34,15 7,0 13,-1 19,-4l-57 26c-8,-4 -16,-9 -22,-16 -15,-15 -22,-37 -22,-64 0,-10 1,-20 3,-28z"/>
    <path class="fil0" d="M862 1603l61 -28 59 0 0 29 -85 0 0 46 95 0 0 29 -129 0 0 -76zm194 -90l-3 2c1,-1 2,-1 3,-2zm-3 2l-3 2c1,-1 2,-1 3,-2zm-3 2l-3 2c1,-1 2,-1 3,-2zm-3 2l-3 2c1,-1 2,-1 3,-2zm-3 2l-3 2c1,-1 2,-1 3,-2zm-3 2l-3 2c1,-1 2,-2 3,-2zm-3 2l-3 3c1,-1 2,-2 3,-3zm-3 3l-2 3c1,-1 2,-2 2,-3zm-2 3l-2 3c1,-1 2,-2 2,-3zm-2 3l-2 3c1,-1 1,-2 2,-3zm-2 3l-2 3c1,-1 1,-2 2,-3zm-2 3l-2 3c1,-1 1,-2 2,-3zm-2 3l-2 3c1,-1 1,-2 2,-3zm-2 3l-2 3c1,-1 1,-2 2,-3zm-2 3l-2 3c0,-1 1,-2 2,-3zm-2 3l-1 2c0,-1 1,-2 1,-2zm-1 2l-1 2c0,-1 1,-2 1,-2zm-1 2l-1 2c0,-1 1,-2 1,-2zm-1 2l-1 2c0,-1 0,-2 1,-2zm-1 2l-1 3c0,-1 0,-2 1,-3zm-1 3l-1 3c0,-1 0,-2 1,-3zm-1 3l-1 3c0,-1 0,-2 1,-3zm-1 5l0 3c0,-1 0,-2 0,-3zm-1 11l0 3c0,-1 0,-2 0,-3zm0 3l0 3c0,-1 0,-2 0,-3zm0 9l0 5c0,-2 0,-3 0,-5zm0 5l0 5c0,-2 0,-3 0,-5zm0 5l0 5c0,-2 0,-3 0,-5zm0 5l1 5c0,-2 0,-3 -1,-5zm1 5l1 4c0,-1 -1,-3 -1,-4zm1 4l1 4c0,-1 -1,-3 -1,-4zm1 4l1 4c0,-1 -1,-3 -1,-4zm1 4l1 4c0,-1 -1,-3 -1,-4zm1 4l1 4c-1,-1 -1,-3 -1,-4zm1 4l2 4c-1,-1 -1,-3 -2,-4zm2 4l2 4c-1,-1 -1,-2 -2,-4zm2 4l2 4c-1,-1 -1,-2 -2,-4zm2 4l2 3c-1,-1 -1,-2 -2,-3zm2 3l2 3c-1,-1 -2,-2 -2,-3zm2 3l3 3c-1,-1 -2,-2 -3,-3zm3 3l3 3c-1,-1 -2,-2 -3,-3zm3 3l3 3c-1,-1 -2,-2 -3,-3zm3 3l3 3c-1,-1 -2,-2 -3,-3zm3 3l3 2c-1,-1 -2,-2 -3,-2zm3 2l3 2c-1,-1 -2,-1 -3,-2zm3 2l3 2c-1,-1 -2,-1 -3,-2zm3 2l3 2c-1,-1 -2,-1 -3,-2zm3 2l4 2c-1,-1 -2,-1 -4,-2zm4 2l4 2c-1,0 -2,-1 -4,-2zm4 2l4 1c-1,0 -3,-1 -4,-1zm4 1l4 1c-1,0 -3,-1 -4,-1zm4 1l4 1c-1,0 -3,-1 -4,-1zm4 1l4 1c-1,0 -3,-1 -4,-1zm4 1l4 1c-1,0 -3,0 -4,-1zm4 1l4 0c-2,0 -3,0 -4,0zm4 0l5 0c-2,0 -3,0 -5,0zm5 0l5 0c-2,0 -3,0 -5,0zm5 0l5 0c-2,0 -3,0 -5,0zm5 0l5 0c-1,0 -3,0 -5,0zm5 0l4 0c-1,0 -3,0 -4,0zm4 0l4 -1c-1,0 -3,0 -4,1zm4 -1l4 -1c-1,0 -3,1 -4,1zm4 -1l4 -1c-1,0 -3,1 -4,1zm4 -1l4 -1c-1,0 -3,1 -4,1zm4 -1l4 -1c-1,0 -3,1 -4,1zm4 -1l4 -2c-1,1 -2,1 -4,2z"/>
    <polygon class="fil0" points="862,1619 896,1604 896,1643 862,1658 "/>
   </g>
  </g>
  <path class="fil3" d="M217 1826c7,11 12,21 16,32 3,7 5,19 21,19 5,0 11,-1 17,-5 7,-3 12,-9 14,-17l6 -21 15 -7 1 1c-2,8 -3,16 -3,21 0,18 15,24 27,24 7,0 13,-3 13,-10 0,-8 -4,-22 -8,-35 7,-7 14,-14 22,-20l1 1c4,15 6,30 6,40 0,10 -4,20 -8,27 -7,14 -20,25 -36,25 -12,0 -25,-6 -34,-17l-1 0c-9,11 -22,20 -43,20l-7 0c-1,14 -4,24 -9,33 -13,25 -50,42 -85,42 -49,0 -73,-28 -73,-66 0,-23 8,-45 19,-60l10 4c-7,14 -12,27 -12,40 0,35 29,52 62,52 31,0 68,-19 75,-42 -3,-25 -12,-36 -26,-59 4,-7 10,-15 17,-23l1 0 0 0 0 0 0 0 2 1 0 0zm564 -133c10,6 20,14 30,23 -6,8 -12,15 -21,21 -10,-8 -20,-15 -30,-22 7,-8 14,-15 21,-22l0 0 0 0 0 0 0 0 0 0zm5 96c-17,0 -30,11 -30,19 0,17 33,23 73,23 -5,-20 -22,-42 -43,-42l0 0zm-37 93c22,0 41,-1 55,-4 16,-4 30,-12 30,-18 0,-1 0,-3 -1,-5 -9,1 -19,1 -28,1 -29,0 -52,-7 -61,-23 -2,-5 -4,-10 -4,-16 0,-16 7,-32 19,-42 10,-9 21,-14 33,-14 20,0 37,16 48,42 6,14 11,30 11,51 0,14 -4,25 -12,34 -16,15 -45,21 -90,21l-20 0 0 0 -5 0c-11,0 -19,-2 -25,-7l-1 0c0,3 1,5 1,7 0,10 -3,23 -10,33 -20,30 -42,43 -60,43 -19,0 -42,-7 -63,-17l4 -7c7,3 16,5 29,5 34,0 78,-33 84,-64 -1,-3 -4,-6 -7,-10 -10,-12 -16,-22 -22,-32 5,-10 10,-18 14,-25l2 0c14,29 28,46 57,46l5 0 0 0 21 0 0 0 0 0 0 0 -4 1 0 0zm-146 31c3,-14 3,-29 3,-43l0 -21c0,-39 -5,-96 -9,-133 7,-8 17,-17 25,-23l2 1c5,47 7,101 7,151 0,13 -1,26 -2,35 -1,12 -8,21 -22,35l-3 -1 0 0 -1 -1 0 0zm-151 -62c1,18 10,33 41,33 20,0 36,-5 55,-14 3,-1 5,-3 5,-5 0,-12 -9,-27 -24,-41 -14,-13 -34,-25 -51,-32 -6,-3 -8,-5 -8,-8 0,-5 7,-16 13,-24l2 0c21,11 43,27 60,44 15,16 25,33 25,51 0,13 -4,26 -11,38 -22,11 -46,20 -70,20 -29,0 -48,-14 -48,-45 0,-3 0,-9 1,-16l10 0 0 0 0 0 0 0 0 -1 0 0zm-52 -52l18 29c7,11 13,22 13,41l0 24c0,19 -12,39 -32,60 -15,14 -29,20 -42,20 -19,0 -40,-6 -65,-17l3 -7c8,2 17,4 28,4 36,0 72,-26 89,-58 2,-4 3,-7 3,-9 0,-4 -2,-8 -4,-11 -9,-17 -19,-33 -30,-47 6,-9 12,-18 18,-27l1 0 0 0 0 0 0 0 0 -2 0 0z"/>
  <g id="_1704746776432">
   <g id="_2216132256672">
    <circle class="fil4" cx="1852" cy="892" r="490"/>
    <g>
     <path class="fil5" d="M1471 946l-14 -119 39 -53 27 -71 34 -50 62 73 0 43 228 176 44 41 45 42 180 100 64 0 -185 -46 -217 -121c0,0 -21,-43 -62,-41 -41,2 -46,7 -23,30 23,23 178,148 178,148l-272 -208c0,0 -11,0 -23,0 -11,0 -16,37 -9,53 7,16 30,53 50,69 21,16 64,69 64,69l-98 -53 53 62 -167 -144 2 0z"/>
     <path class="fil5" d="M1902 942c0,0 148,-55 146,-171 -2,-116 37,139 69,171 32,32 130,146 130,146l-126 -103 -73 -144c0,0 -43,73 -146,100l0 1z"/>
     <line class="fil2 str0" x1="1698" y1="1017" x2="1849" y2= "1129" />
    </g>
   </g>
   <path class="fil6" d="M862 1678l0 -170 126 0 0 29 -92 0 0 38 85 0 0 29 -85 0 0 46 95 0 0 29 -129 0zm151 -84c0,-17 3,-32 8,-44 4,-9 9,-16 16,-23 7,-7 14,-12 22,-15 11,-4 23,-7 37,-7 25,0 45,8 60,23 15,16 23,37 23,65 0,28 -7,49 -22,65 -15,16 -35,23 -60,23 -25,0 -45,-8 -60,-23 -15,-15 -22,-37 -22,-64zm35 -1c0,19 4,34 13,44 9,10 20,15 34,15 14,0 25,-5 34,-15 9,-10 13,-25 13,-44 0,-20 -4,-34 -13,-44 -9,-10 -20,-14 -34,-14 -14,0 -26,5 -34,15 -9,10 -13,24 -13,44zm157 85l0 -170 33 0 70 114 0 -114 32 0 0 170 -34 0 -69 -112 0 112 -32 0zm281 0l-61 -170 37 0 43 126 41 -126 37 0 -61 170 -37 0zm187 0l0 -18c-5,7 -10,12 -18,16 -7,4 -15,6 -23,6 -8,0 -16,-2 -22,-5 -7,-4 -11,-9 -14,-15 -3,-7 -4,-16 -4,-27l0 -78 33 0 0 57c0,17 1,28 2,32 1,4 3,7 7,9 3,2 7,3 12,3 6,0 11,-2 15,-5 4,-3 7,-7 9,-11 2,-5 2,-16 2,-33l0 -52 33 0 0 123 -30 0zm135 -39l33 5c-4,12 -11,21 -20,27 -9,6 -20,9 -34,9 -21,0 -37,-7 -48,-21 -8,-11 -12,-25 -12,-43 0,-20 5,-36 16,-48 11,-12 24,-17 40,-17 18,0 33,6 43,18 11,12 16,31 15,56l-82 0c0,10 3,17 8,23 5,5 11,8 19,8 5,0 9,-1 13,-4 3,-3 6,-7 8,-13zm2 -33c0,-9 -3,-17 -7,-22 -5,-5 -10,-7 -17,-7 -7,0 -13,3 -18,8 -5,5 -7,12 -7,21l49 0zm109 72l44 -64 -43 -60 40 0 22 34 23 -34 38 0 -42 58 46 65 -40 0 -25 -38 -25 38 -38 0zm139 -55l34 -3c2,11 6,19 12,25 6,5 14,8 25,8 11,0 19,-2 25,-7 6,-5 8,-10 8,-16 0,-4 -1,-7 -4,-10 -2,-3 -6,-5 -12,-7 -4,-1 -13,-4 -27,-7 -18,-5 -31,-10 -39,-17 -10,-9 -16,-21 -16,-34 0,-9 2,-17 7,-24 5,-8 12,-13 21,-17 9,-4 20,-6 33,-6 21,0 37,5 48,14 11,9 16,22 17,38l-34 1c-1,-9 -5,-15 -9,-19 -5,-4 -12,-6 -22,-6 -10,0 -18,2 -23,6 -4,3 -5,6 -5,11 0,4 2,7 5,10 4,4 15,7 31,11 17,4 29,8 37,12 8,4 14,10 19,17 5,7 7,16 7,27 0,10 -3,19 -8,27 -5,9 -13,15 -23,19 -10,4 -22,6 -37,6 -22,0 -38,-5 -50,-15 -12,-10 -18,-24 -21,-43zm224 -68l0 26 -22 0 0 50c0,10 0,16 1,18 0,2 1,3 3,4 2,1 3,2 6,2 3,0 7,-1 13,-3l3 25c-8,3 -16,5 -26,5 -6,0 -11,-1 -16,-3 -5,-2 -8,-5 -10,-8 -2,-3 -4,-7 -5,-13 -1,-4 -1,-11 -1,-23l0 -54 -15 0 0 -26 15 0 0 -24 33 -19 0 44 22 0zm54 123l-33 0 0 -123 30 0 0 18c5,-8 10,-14 14,-16 4,-3 9,-4 14,-4 7,0 15,2 22,6l-10 28c-6,-4 -11,-5 -15,-5 -5,0 -8,1 -12,4 -3,3 -6,7 -7,14 -2,7 -3,20 -3,41l0 38zm133 -39l33 5c-4,12 -11,21 -20,27 -9,6 -20,9 -34,9 -21,0 -37,-7 -48,-21 -8,-11 -12,-25 -12,-43 0,-20 5,-36 16,-48 11,-12 24,-17 40,-17 18,0 33,6 43,18 11,12 16,31 15,56l-82 0c0,10 3,17 8,23 5,5 11,8 19,8 5,0 9,-1 13,-4 3,-3 6,-7 8,-13zm2 -33c0,-9 -3,-17 -7,-22 -5,-5 -10,-7 -17,-7 -7,0 -13,3 -18,8 -5,5 -7,12 -7,21l49 0zm83 -13l-29 -5c3,-12 9,-21 17,-27 8,-6 20,-9 36,-9 15,0 25,2 33,5 7,3 12,8 15,13 3,5 4,15 4,29l0 38c0,11 1,19 2,24 1,5 3,11 6,17l-32 0c-1,-2 -2,-5 -3,-10 -1,-2 -1,-3 -1,-4 -6,5 -11,10 -18,12 -6,3 -13,4 -20,4 -13,0 -23,-3 -30,-10 -7,-7 -11,-16 -11,-26 0,-7 2,-13 5,-19 3,-5 8,-10 14,-13 6,-3 15,-5 26,-8 15,-3 26,-6 32,-8l0 -3c0,-6 -2,-11 -5,-14 -3,-3 -9,-4 -18,-4 -6,0 -10,1 -14,3 -3,2 -6,6 -8,12zm44 26c-4,1 -11,3 -20,5 -9,2 -15,4 -18,6 -4,3 -6,7 -6,11 0,5 2,9 5,12 3,3 8,5 13,5 6,0 11,-2 17,-6 4,-3 7,-7 8,-11 1,-3 1,-8 1,-16l0 -6zm62 -64l30 0 0 17c11,-13 24,-19 38,-19 8,0 15,2 21,5 6,3 11,8 14,15 5,-7 11,-11 18,-15 6,-3 13,-5 20,-5 9,0 17,2 23,6 6,4 11,9 14,16 2,5 3,14 3,26l0 79 -33 0 0 -70c0,-12 -1,-20 -3,-24 -3,-5 -8,-7 -14,-7 -5,0 -9,1 -13,4 -4,3 -7,7 -9,12 -2,5 -3,14 -3,25l0 59 -33 0 0 -68c0,-12 -1,-20 -2,-23 -1,-3 -3,-6 -5,-8 -2,-2 -6,-3 -10,-3 -5,0 -10,1 -14,4 -4,3 -7,7 -9,12 -2,5 -3,14 -3,25l0 60 -33 0 0 -123z"/>
  </g>
 </g>
</svg>
